<svg xmlns="http://www.w3.org/2000/svg" xmlns:xlink="http://www.w3.org/1999/xlink" id="Layer_1" x="0px" y="0px" viewBox="0 0 400 400" style="enable-background:new 0 0 400 400;" xml:space="preserve"><style type="text/css">	.st0{fill:#322B6A;}</style><g>	<path class="st0" d="M293.2,275.54c0-1.48,0-2.68,0-4.34c-1.57,0-3.01,0-4.46,0c-6.29,0-12.58,0.09-18.87-0.03  c-7-0.14-10.82-4.02-10.83-10.94c-0.03-20.13-0.03-40.26,0-60.38c0.01-6.97,3.84-10.83,10.82-10.87  c12.58-0.06,25.16-0.02,37.74-0.02c1.24,0,2.49,0,4,0c0-24.38,0-48.53,0-72.87c-11.11,0-22.14,0-33.58,0c0,1.43,0,2.65,0,3.88  c0,8.92-0.11,17.84,0.04,26.76c0.1,5.76-2.21,10.14-6.72,13.52c-6.73,5.05-14.5,7.97-22.58,9.46c-11.65,2.15-23.47,3.43-35.23,4.99  c-2.59,0.34-5.23,0.32-8.1,0.47c0,29.75,0,59.29,0,89.27c1.36,0,2.59,0,3.81,0c12.35,0,24.7-0.02,37.05,0.01  c8.11,0.02,11.66,3.57,11.68,11.74c0.03,19.56,0.03,39.11,0,58.67c-0.01,8.25-3.65,11.79-12.04,11.82  c-7.29,0.03-14.58,0.01-22.08,0.01c0,1.58,0,2.78,0,4.48c1.63,0,3.2-0.11,4.74,0.02c12.1,0.96,15.64,10.73,13.67,20.45  c-0.61,3-3.51,3.44-6.36,3.44c-21.73-0.05-43.46-0.03-65.19-0.03c-2.4,0-4.8,0.03-7.2-0.01c-4.26-0.07-6.08-1.83-6.12-6.02  c-0.02-2.28-0.12-4.62,0.34-6.83c1.32-6.27,6.93-10.69,13.62-11.01c1.47-0.07,2.96-0.01,4.73-0.01c0-1.49,0-2.76,0-4.48  c-1.86,0-3.65,0-5.44,0c-5.95,0-11.9,0.1-17.84-0.03c-6.87-0.15-10.51-3.86-10.75-10.68c-0.02-0.57-0.01-1.14-0.01-1.72  c0-19.21-0.01-38.43,0-57.64c0.01-8.78,3.44-12.16,12.29-12.17c12.12-0.01,24.25,0,36.37,0c1.23,0,2.46,0,3.92,0  c0-29.84,0-59.28,0-89.14c-1.89-0.15-3.77-0.37-5.66-0.45c-15.81-0.7-31.47-2.42-46.46-7.79c-4.78-1.71-9.39-4.16-13.71-6.86  c-4.76-2.98-6.93-7.63-6.83-13.4c0.15-8.92,0.04-17.84,0.04-26.76c0-1.24,0-2.48,0-3.94c-11.38,0-22.41,0-33.65,0  c0,24.2,0,48.27,0,72.85c1.22,0,2.43,0,3.64,0c12.47,0,24.93-0.02,37.4,0.01c7.92,0.02,11.58,3.66,11.59,11.5  c0.02,19.67,0.01,39.34,0,59.01c-0.01,7.99-3.71,11.68-11.81,11.72c-7.31,0.04-14.63,0.01-22.23,0.01c0,1.45,0,2.73,0,4.48  c1.4,0,2.85-0.04,4.29,0.01c10.22,0.37,16.4,8.59,14.13,20.11c-0.61,3.09-3.21,3.79-6.11,3.79c-16.7-0.04-33.39-0.02-50.09-0.02  c-7.43,0-14.87,0.02-22.3-0.01c-4.68-0.02-6.49-1.78-6.62-6.32c-0.32-11.7,5.02-17.29,16.78-17.57c0.66-0.02,1.32-0.09,2.14-0.15  c0-1.38,0-2.59,0-4.32c-1.24,0-2.45,0-3.65,0c-6.63,0-13.27,0.12-19.9-0.04c-6.81-0.16-10.57-4.08-10.58-10.83  c-0.03-20.13-0.03-40.26,0-60.38c0.01-7.14,3.83-10.94,11.06-10.97c12.58-0.05,25.16-0.02,37.74-0.02c1.23,0,2.45,0,4.03,0  c0-1.6,0-2.83,0-4.06c0-23.9,0-47.8,0-71.71c0-6.17,1.45-7.6,7.74-7.6c10.75-0.01,21.5,0,32.25,0c1.23,0,2.47,0,4.15,0  c0-1.67,0-3,0-4.33c0-15.44,0.27-30.88-0.11-46.32c-0.19-8.02,3.35-13.22,9.86-17.04c8.41-4.94,17.69-7.46,27.13-9.15  c29.23-5.25,58.48-5.32,87.52,1.24c7.16,1.62,14.15,4.42,20.86,7.47c7.47,3.4,11.13,9.36,10.88,18.1  c-0.45,15.31-0.12,30.65-0.12,45.97c0,1.22,0,2.44,0,4.06c1.63,0,2.85,0,4.07,0c11.09,0,22.19-0.03,33.28,0.01  c5.09,0.02,6.78,1.76,6.79,6.84c0.01,24.02,0.01,48.03,0.01,72.05c0,1.35,0,2.7,0,4.47c1.52,0,2.74,0,3.96,0  c12.47,0,24.93-0.02,37.4,0.01c7.85,0.02,11.48,3.7,11.48,11.59c0.01,19.67,0.01,39.34,0,59.01c-0.01,7.81-3.71,11.55-11.55,11.62  c-7.2,0.06-14.41,0.04-21.61,0.07c-0.22,0-0.44,0.1-0.9,0.22c0,1.23,0,2.52,0,3.92c2.63,0.25,5.27,0.24,7.78,0.79  c8.38,1.82,13.74,12.06,10.6,20.01c-1.18,2.98-3.64,3.39-6.45,3.38c-21.61-0.04-43.23-0.02-64.84-0.02c-2.63,0-5.26,0.05-7.89-0.02  c-3.77-0.1-5.61-1.93-5.85-5.71c-0.76-11.8,4.97-17.98,16.85-18.18C291.69,275.65,292.26,275.6,293.2,275.54z M35.53,199.38  c0,20.67,0,40.94,0,61.25c31.81,0,63.38,0,94.93,0c0-20.56,0-40.85,0-61.25C98.73,199.38,67.23,199.38,35.53,199.38z   M269.43,260.64c31.92,0,63.5,0,95.05,0c0-20.56,0-40.85,0-61.14c-31.79,0-63.37,0-95.05,0  C269.43,219.96,269.43,240.16,269.43,260.64z M152.54,336.18c31.72,0,63.22,0,94.92,0c0-20.5,0-40.79,0-61.25  c-31.72,0-63.22,0-94.92,0C152.54,295.4,152.54,315.68,152.54,336.18z M132.29,65.9c0,1.65,0,2.76,0,3.87  c0,9.14,0.13,18.29-0.07,27.43c-0.07,3.29,1.03,5.74,3.83,7.02c5.27,2.4,10.53,5.14,16.1,6.51c30.57,7.5,61.33,7.58,92.03,0.89  c6.6-1.44,12.89-4.41,19.19-7.02c3.17-1.31,4.54-3.97,4.43-7.72c-0.26-9.02-0.08-18.06-0.09-27.09c0-1.19-0.11-2.37-0.17-3.79  c-21.74,9.89-44.4,11.93-67.35,11.95C177.11,77.98,154.34,75.9,132.29,65.9z M267.71,115.44c-45.3,15.12-90.14,15.33-135.27-0.1  c-0.03,0.46-0.15,1.44-0.15,2.42c-0.01,9.38,0.11,18.76-0.07,28.13c-0.06,3.15,1.01,5.51,3.67,6.77c4.82,2.29,9.65,4.87,14.77,6.19  c30.64,7.92,61.54,8,92.4,1.56c6.94-1.45,13.62-4.44,20.17-7.3c1.93-0.84,4.2-3.59,4.27-5.54  C267.92,136.73,267.71,125.87,267.71,115.44z"></path>	<path class="st0" d="M199.99,112.21c-8.25,0-15.04-6.79-15.04-15.03c0-8.2,6.86-15.07,15.06-15.06c8.19,0,15.05,6.88,15.04,15.08  C215.05,105.43,208.24,112.22,199.99,112.21z"></path>	<path class="st0" d="M166.49,100.44c-7.19-1.76-14.41-3.39-21.54-5.33c-2.95-0.8-4.15-3.46-3.33-6.2c0.86-2.87,2.99-4.08,5.8-3.52  c7.03,1.42,14.05,2.96,21.02,4.62c2.8,0.67,4.16,2.77,3.83,5.66C171.95,98.41,169.67,100.03,166.49,100.44z"></path>	<path class="st0" d="M233.16,100.51c-3.09-0.54-4.98-2.05-5.41-4.88c-0.44-2.87,1.02-4.97,3.83-5.64  c6.98-1.66,13.99-3.2,21.03-4.61c2.81-0.56,5,0.66,5.77,3.54c0.74,2.8-0.22,5.29-3.02,6.06C248.01,97.03,240.56,98.7,233.16,100.51  z"></path>	<path class="st0" d="M215.05,145.67c0.04,8.19-6.78,15.09-14.99,15.14c-8.17,0.05-15.08-6.82-15.12-15.01  c-0.03-8.25,6.72-15.04,14.98-15.07C208.22,130.7,215.01,137.41,215.05,145.67z"></path>	<path class="st0" d="M233.21,149.04c-3-0.46-5.39-2.39-5.54-5.12c-0.16-2.9,1.34-4.85,4.14-5.5c6.89-1.6,13.79-3.13,20.72-4.55  c2.86-0.59,4.99,0.71,5.81,3.5c0.82,2.77-0.14,5.35-2.91,6.13C248.09,145.58,240.62,147.23,233.21,149.04z"></path>	<path class="st0" d="M166.55,149c-7.31-1.79-14.65-3.44-21.9-5.43c-2.77-0.76-3.98-3.81-2.95-6.42c1.06-2.68,3.12-3.84,6.01-3.22  c6.8,1.47,13.6,2.93,20.38,4.47c2.91,0.66,4.63,3.14,4.21,5.77C171.88,146.89,169.59,148.68,166.55,149z"></path></g></svg>