<svg xmlns="http://www.w3.org/2000/svg" xmlns:xlink="http://www.w3.org/1999/xlink" id="Layer_1" x="0px" y="0px" viewBox="0 0 400 400" style="enable-background:new 0 0 400 400;" xml:space="preserve"><style type="text/css">	.st0{fill:#322B6A;}</style><g>	<path class="st0" d="M241.14,290.27c-3.33,16.58,0.78,29.11,13.68,38.8c3.66,2.75,10.47,5.96,6.87,11.72  c-1.77,2.84-8.33,3.68-12.73,3.72c-33.61,0.29-67.23,0.28-100.84-0.02c-3.51-0.03-6.99-2.6-10.48-4c1.7-3.14,2.64-7.25,5.22-9.25  c13.17-10.21,20.37-22.55,15.87-40.62c-2.1-0.1-4.76-0.33-7.43-0.33c-25.98-0.03-51.95,0-77.93-0.03  c-10.27-0.01-13.31-2.88-13.32-13.11c-0.05-69.52-0.05-139.05,0-208.57c0.01-10.13,3.16-13.25,13.33-13.26  c84.29-0.04,168.59-0.05,252.88,0c10.38,0.01,13.7,3.37,13.71,13.88c0.05,69.27,0.05,138.54,0,207.81  c-0.01,10.26-3.09,13.23-13.21,13.25c-25.72,0.04-51.44,0.01-77.16,0.01C246.83,290.27,244.06,290.27,241.14,290.27z M79.92,252.82  c80.21,0,159.98,0,240.18,0c0-59.35,0-118.25,0-177.57c-80.2,0-159.98,0-240.18,0C79.92,134.58,79.92,193.48,79.92,252.82z   M217.73,290.75c-12.06,0-23.57,0-35.36,0c0,9.72,0,18.96,0,28.52c11.98,0,23.47,0,35.36,0  C217.73,309.68,217.73,300.64,217.73,290.75z"></path>	<path class="st0" d="M200,185.01c27.22,0,54.43-0.02,81.65,0.01c9.77,0.01,11.65,1.9,11.69,11.47c0.04,8.9-0.18,17.81,0.07,26.71  c0.2,7-2.68,10.36-9.84,10.35c-55.71-0.06-111.41-0.06-167.12,0c-7.16,0.01-10.04-3.3-9.84-10.33c0.26-9.15,0.01-18.31,0.08-27.47  c0.06-8.57,2.17-10.71,10.9-10.73C145.06,184.97,172.53,185.01,200,185.01z M278.35,218.39c0-6.6,0-12.31,0-17.99  c-19.48,0-38.42,0-57.45,0c0,6.28,0,11.98,0,17.99C240.21,218.39,258.97,218.39,278.35,218.39z"></path>	<path class="st0" d="M273.05,164.39c-14.47,0-28.4,0-43,0c-1.39-10.06-4.84-19.51-14.29-24.45c-5.18-2.71-11.51-4.55-17.3-4.52  c-15.09,0.09-24.06,9.59-28.69,28.83c-14.02,0-28.15,0-42.25,0c-3.02-12.71-1.9-14.61,10.24-17.49  c16.08-3.82,20.49-11.43,15.8-27.21c-3.38-11.36-3.38-11.36,6.72-17.23c0.44-0.26,0.89-0.5,1.33-0.75  c16.97-9.73,13.1-9.57,25.53,3.17c7.58,7.76,18.17,7.8,25.7,0.01c12.62-13.06,8.98-12.62,25.54-3.18  c11.4,6.5,11.36,6.56,7.63,19.43c-3.98,13.75,0.88,22.15,14.73,25.48C274.52,149.8,274.52,149.8,273.05,164.39z"></path></g></svg>