<svg xmlns="http://www.w3.org/2000/svg" xmlns:xlink="http://www.w3.org/1999/xlink" id="Layer_1" x="0px" y="0px" viewBox="0 0 400 400" style="enable-background:new 0 0 400 400;" xml:space="preserve"><style type="text/css">	.st0{fill:#322B6A;}</style><g>	<path class="st0" d="M237.26,342.36c-1.07-0.16-2.13-0.47-3.2-0.47c-24.21-0.03-48.41-0.02-72.62-0.02c-4.43,0-5.12-0.72-5.07-5.2  c0.1-7.7,0.35-15.39,0.29-23.09c-0.09-12.73,5.61-22.14,16.02-29.04c16.43-10.89,38.81-10.97,55.16-0.06  c10.06,6.71,15.38,16.05,15.37,28.26c-0.01,8.07-0.06,16.14,0.03,24.2c0.03,2.35-0.67,4.14-2.65,5.42  C239.49,342.36,238.37,342.36,237.26,342.36z"></path>	<path class="st0" d="M336.88,342.36c-1.17-0.16-2.34-0.46-3.51-0.47c-24.18-0.03-48.37-0.02-72.55-0.02  c-4.58,0-5.26-0.67-5.19-5.36c0.12-7.78,0.49-15.56,0.4-23.34c-0.13-11.5,4.75-20.28,13.74-27.1c17.4-13.18,43.44-12.91,60.26,0.67  c8.21,6.64,12.48,15.18,12.43,25.81c-0.04,7.87-0.09,15.75,0.04,23.62c0.04,2.46-0.42,4.52-2.28,6.18  C339.11,342.36,337.99,342.36,336.88,342.36z"></path>	<path class="st0" d="M57.5,322.33c0.15-2.58,0.53-5.16,0.42-7.73c-0.58-14.71,6.56-24.79,18.87-31.82  c17.36-9.92,40.22-8.23,55.36,4.15c8,6.54,12.22,14.93,12.19,25.37c-0.03,8.06-0.09,16.13,0.05,24.19c0.04,2.4-0.52,4.31-2.3,5.88  c-1.11,0-2.23,0-3.34,0c-1.17-0.16-2.33-0.46-3.5-0.47c-24.32-0.03-48.65-0.04-72.97,0.02c-2.11,0.01-3.79-0.33-4.79-2.33  C57.5,333.83,57.5,328.08,57.5,322.33z"></path>	<path class="st0" d="M320.12,168.55c-43.82,0-87.57,0-131.18,0c-1.54-2.95-3.06-5.86-4.74-9.07c9.36-13.82,18.91-27.93,28.6-42.24  c-1.94-1.37-3.8-2.69-5.91-4.19c-9.67,14.26-19.26,28.4-28.98,42.73c-6.09-3.35-12.05-6.52-17.86-9.95  c-0.97-0.57-1.79-2.29-1.79-3.49c-0.07-28.1-0.03-56.19,0-84.29c0-0.08,0.07-0.16,0.2-0.42c53.75,0,107.59,0,161.66,0  C320.12,94.55,320.12,131.47,320.12,168.55z M296.63,74.17c0,27.35,0,54.36,0,81.68c1.26,0,2.34,0,3.43,0c1.17,0,2.34,0,3.61,0  c0-27.44,0-54.52,0-81.68C301.25,74.17,299.04,74.17,296.63,74.17z M232.83,107.66c0,16.11,0,32,0,47.99c2.44,0,4.69,0,7,0  c0-16.09,0-31.98,0-47.99C237.47,107.66,235.28,107.66,232.83,107.66z M270.83,110.93c0,15.17,0,30.06,0,45.14  c2.39,0,4.65,0,7.05,0c0-15.1,0-30.06,0-45.14C275.5,110.93,273.3,110.93,270.83,110.93z M251.86,125.17c0,1.18,0,2.18,0,3.17  c0,7.14,0,14.28,0,21.42c0,6.37,0,6.37,6.36,6.05c0.25-0.01,0.5-0.16,0.88-0.3c0-10.07,0-20.12,0-30.35  C256.68,125.17,254.42,125.17,251.86,125.17z"></path>	<path class="st0" d="M136.05,203.46c-15.54,0-30.79,0-46.34,0c0-1.15,0-2.15,0-3.14c0-14.55,0-29.11,0-43.66  c0-0.83,0.24-1.83-0.13-2.46c-0.48-0.84-1.45-1.91-2.22-1.91c-0.73-0.01-1.67,1.12-2.13,1.96c-0.36,0.65-0.13,1.63-0.13,2.46  c-0.01,9.55,0.04,19.1-0.03,28.64c-0.04,4.76-3.76,7.76-8.06,6.7c-2.97-0.73-4.78-3.36-4.81-7.27c-0.05-6.95-0.11-13.91,0.02-20.86  c0.07-3.6,0.32-7.23,0.86-10.79c1.25-8.27,4.45-15.84,9.09-22.77c3.62-5.41,9.12-7.48,15.31-7.59c10.38-0.19,20.77-0.3,31.15-0.02  c6.6,0.18,11.48,3.95,14.92,9.39c3.74,5.92,7.21,12,10.84,17.99c0.3,0.5,0.97,0.81,1.53,1.1c7.11,3.79,14.2,7.6,21.35,11.32  c4.83,2.51,6.65,7.43,4.31,12.08c-2.54,5.05-8.05,6.91-12.88,4.29c-8.62-4.68-17.21-9.44-25.86-14.08  c-1.58-0.85-2.43-1.77-2.21-3.65c0.15-1.27,0.2-2.66-0.15-3.86c-0.22-0.77-1.31-1.85-1.92-1.8c-0.86,0.07-1.85,0.93-2.37,1.73  c-0.39,0.6-0.15,1.62-0.15,2.45c-0.01,13.53,0,27.07,0,40.6C136.05,201.31,136.05,202.3,136.05,203.46z"></path>	<path class="st0" d="M77.31,242.76c0.25-13.09,10.91-23.37,23.88-23.04c12.95,0.33,23.24,10.96,22.97,23.73  c-0.27,12.86-10.93,23.28-23.67,23.12C87.5,266.4,77.06,255.68,77.31,242.76z"></path>	<path class="st0" d="M322.64,243.16c-0.03,12.87-10.46,23.34-23.32,23.41c-12.84,0.07-23.59-10.67-23.55-23.52  c0.04-12.95,10.7-23.46,23.66-23.33C312.4,219.85,322.68,230.23,322.64,243.16z"></path>	<path class="st0" d="M223.37,243.15c-0.01,12.84-10.46,23.34-23.31,23.42c-12.9,0.07-23.51-10.54-23.49-23.51  c0.02-12.9,10.39-23.29,23.31-23.35C212.9,219.65,223.39,230.12,223.37,243.15z"></path>	<path class="st0" d="M133.27,93.39c-0.03,11.42-9.34,20.67-20.72,20.58c-11.43-0.09-20.58-9.34-20.56-20.77  c0.03-11.34,9.43-20.68,20.75-20.6C124.16,72.67,133.3,81.94,133.27,93.39z"></path></g></svg>