<svg xmlns="http://www.w3.org/2000/svg" xmlns:xlink="http://www.w3.org/1999/xlink" id="Layer_1" x="0px" y="0px" viewBox="0 0 400 400" style="enable-background:new 0 0 400 400;" xml:space="preserve"><style type="text/css">	.st0{fill:#322B6A;}</style><g>	<path class="st0" d="M116.18,316.29c19.62-0.05,39.23-0.03,58.85-0.05c0.5,0,1.06,0.22,1.53-0.23c-0.08-0.18-0.13-0.35-0.23-0.48  c-2.49-3.26-2.94-6.78-1.03-10.41c1.92-3.64,5.1-5.16,9.2-4.98c2.54,0.11,5.1,0.02,7.65,0.02c0.1-0.13,0.2-0.26,0.3-0.39  c-1.27-1.17-2.61-2.27-3.78-3.53c-0.82-0.88-1.43-1-2.56-0.44c-7.6,3.75-15.65,5.06-24.04,3.94  c-23.63-3.16-40.05-25.33-35.83-48.91c2.98-16.62,12.87-27.94,28.9-32.98c16.06-5.05,30.52-1.18,42.54,10.65  c6.95,6.84,10.94,15.3,11.86,25.07c0.16,1.68,0.67,2.26,2.34,2.09c1.33-0.13,2.61,0.37,3.74,1.06c0.82,0.5,1.1,0.26,1.36-0.55  c0.58-1.82,1.7-3.29,3.25-4.39c0.56-0.4,0.75-0.83,0.74-1.49c-0.03-1.91-0.03-3.83,0-5.74c0.01-0.65-0.1-1.07-0.82-1.35  c-6.41-2.55-8.49-5.63-8.49-12.5c0-9.45-0.03-18.9,0.03-28.35c0.01-1.31-0.3-1.81-1.68-1.72c-1.67,0.11-3.35-0.03-5.02-0.03  c-29.6,0-59.21,0.01-88.81-0.04c-1.48,0-1.88,0.36-1.88,1.87c0.04,37.32,0.04,74.64,0,111.96  C114.28,315.93,114.7,316.3,116.18,316.29z"></path>	<path class="st0" d="M267.32,302.33c-1.08-2.65-2.09-5.33-3.08-8.02c-1.41-3.83-3.58-7.12-6.5-9.97  c-3.56-3.46-7.03-7.01-10.54-10.52c-5.84-5.84-11.69-11.66-17.51-17.51c-1.34-1.35-2.84-2.26-4.78-1.9  c-1.88,0.34-3.3,1.38-3.94,3.26c-0.64,1.87-0.25,3.55,1.12,4.96c2.05,2.1,4.15,4.14,6.19,6.24c0.92,0.95,1,2.07,0.09,3.05  c-0.92,0.99-2.02,0.9-3.05,0.09c-0.37-0.29-0.69-0.66-1.03-1c-3.11-3.15-6.19-6.33-9.35-9.43c-2.12-2.09-4.91-2.23-6.94-0.48  c-2.27,1.96-2.38,5-0.17,7.25c3.36,3.41,6.78,6.76,10.14,10.16c1.44,1.46,1.21,3.29-0.41,3.95c-1.24,0.5-2.03-0.26-2.81-1.04  c-4.63-4.67-9.25-9.35-13.91-14c-2.42-2.41-5.38-2.54-7.47-0.41c-2.12,2.17-1.94,4.95,0.52,7.41c4.69,4.7,9.4,9.38,14.08,14.09  c1.31,1.32,1.39,2.4,0.38,3.42c-1.04,1.04-2.09,0.97-3.41-0.35c-5.17-5.15-10.31-10.33-15.47-15.49  c-5.37-5.38-10.71-10.78-16.12-16.11c-2.97-2.93-7.63-1.97-8.91,1.8c-0.78,2.31-0.12,4.29,1.63,6.03  c10.89,10.85,21.75,21.73,32.61,32.6c0.85,0.85,1.84,1.65,1.22,3.07c-0.64,1.46-1.93,1.38-3.21,1.32c-2.09-0.1-4.18-0.19-6.27-0.28  c0-0.01,0-0.03,0-0.04c-1.14,0-2.27,0.02-3.41,0c-1.14-0.02-2.27-0.12-3.41-0.12c-2.71-0.01-4.81,1.8-5.23,4.46  c-0.39,2.43,1.2,4.85,3.67,5.69c7.57,2.57,15.14,5.15,22.7,7.73c5.36,1.83,10.63,4.05,16.11,5.41c5.9,1.46,12,2.09,17.99,3.16  c0.95,0.17,1.49-0.06,2.16-0.73c8.59-8.66,17.22-17.29,25.87-25.89C267.48,303.57,267.65,303.15,267.32,302.33z"></path>	<path class="st0" d="M282.26,187.9c-19.61-0.05-39.22-0.07-58.82-0.06c-4.78,0-7.5,2.83-7.51,7.65c-0.01,11.84,0,23.67,0,35.51  c0,5.86,2.53,8.39,8.42,8.39c9.51,0.01,19.01,0,28.52,0c0-0.04,0-0.08,0-0.11c9.92,0,19.85,0.1,29.77-0.04  c4.41-0.06,6.86-2.85,6.86-7.28c0.02-12.26,0.02-24.51,0-36.77C289.49,190.64,286.82,187.91,282.26,187.9z M278.92,203.38  c-0.19,0.43-0.51,0.81-0.8,1.19c-5.06,6.67-10.11,13.34-15.18,20.01c-1.59,2.1-2.31,2.22-4.45,0.76  c-5.44-3.7-10.89-7.38-16.28-11.15c-1.07-0.75-1.7-0.77-2.66,0.22c-3.58,3.7-7.26,7.29-10.89,10.93c-0.78,0.78-1.63,1.24-2.72,0.74  c-0.78-0.35-1.16-1-1.19-1.86c0-0.7,0.32-1.25,0.81-1.73c4.4-4.39,8.81-8.78,13.19-13.2c1.24-1.25,2.37-0.99,3.66-0.1  c5.42,3.73,10.88,7.39,16.27,11.15c1.11,0.78,1.67,0.76,2.52-0.38c4.42-5.95,8.94-11.83,13.42-17.74c0.33-0.43,0.62-0.89,1.02-1.24  c0.81-0.71,1.72-0.81,2.62-0.15C279.16,201.49,279.35,202.39,278.92,203.38z"></path>	<path class="st0" d="M187.88,268.2c0.2-0.47,0.36-0.85,0.53-1.22c1.77-3.96,5.35-6.02,9.69-5.57c3.47,0.36,3.75,0.07,6.07-2.36  c1.26-1.32,1.4-2.65,1.24-4.21c-0.06-0.59-0.17-1.18-0.24-1.78c-2.85-23.39-26.83-38.55-49.25-31.12  c-14.56,4.82-24.92,17.89-26.07,32.89c-1.2,15.49,6.71,29.81,20.59,36.85c10.52,5.33,21.32,5.58,32.24,1.08  c1.13-0.46,1.61-0.79,0.48-1.89c-4.39-4.32-8.71-8.71-13.02-13.11c-0.7-0.71-1.43-0.94-2.38-0.93c-3.23,0.04-6.46,0.02-9.69,0.01  c-5.6-0.02-9.24-3.62-9.25-9.17c-0.01-6.46-0.02-12.92,0-19.37c0.01-5.49,3.59-9.1,9.09-9.13c6.52-0.03,13.04-0.04,19.55,0  c5.49,0.03,9.03,3.65,9.04,9.18c0.02,5.74,0.03,11.48-0.01,17.22C186.47,266.67,186.63,267.58,187.88,268.2z"></path>	<path class="st0" d="M204.15,176.1c-26.48-0.02-52.96-0.02-79.45-0.01c-5.75,0-10.21,4.39-10.28,10.17  c-0.03,2.69,0.11,5.39-0.05,8.07c-0.1,1.65,0.48,1.95,2,1.95c29.23-0.04,58.46-0.03,87.69-0.04c0.81,0,1.69,0.2,2.4-0.42  c1.08,0.76,2.31,0.25,3.46,0.39c1.09,0.13,1.55-0.24,1.6-1.48c0.23-5.24,2.8-8.89,7.76-10.7c1.04-0.38,1.1-0.81,0.7-1.67  c-2.41-5.22-7.12-7.15-13.46-5.85C205.84,175.81,204.96,176.1,204.15,176.1z"></path>	<path class="st0" d="M279.29,307.89c-3.04-2.93-7.06-2.94-10.07,0.04c-8.32,8.24-16.62,16.5-24.89,24.79  c-3.04,3.04-3.05,7.16-0.1,10.24c2.03,2.11,4.11,4.17,6.21,6.21c1.38,1.35,3.05,2.07,4.81,2.01c2.23,0,3.9-0.8,5.31-2.22  c8.26-8.3,16.54-16.57,24.78-24.9c2.97-3,2.95-7.04,0.03-10.09C283.38,311.91,281.35,309.88,279.29,307.89z"></path>	<path class="st0" d="M176.48,257.07c1.79,1.76,3.48,3.61,5.21,5.42c0.16-0.08,0.32-0.16,0.48-0.24c0-5.11,0.09-10.22-0.05-15.33  c-0.05-1.89-1.81-3.42-3.78-3.44c-7.11-0.08-14.22-0.09-21.32-0.01c-2.2,0.03-3.89,1.73-3.91,3.92  c-0.08,7.11-0.07,14.22,0.01,21.32c0.02,1.94,1.57,3.65,3.46,3.78c2.59,0.18,5.19,0.04,8.2,0.04c-0.78-0.82-1.29-1.36-1.81-1.89  c-3.98-4.1-4.11-9.98-0.29-13.81C166.52,252.98,172.4,253.06,176.48,257.07z"></path>	<path class="st0" d="M220.82,333.14c0.02-0.68-0.41-0.91-0.96-1.09c-4.01-1.35-8.01-2.72-12.03-4.04  c-0.39-0.13-0.85-0.57-1.31-0.07c-0.28-0.72-0.99-0.82-1.59-1.03c-5.63-1.96-11.27-3.89-16.89-5.86c-0.81-0.28-1.62-0.39-2.46-0.39  c-23.19,0-46.39,0.01-69.58-0.03c-1.25,0-1.61,0.35-1.6,1.61c0.06,6.22,0,12.43,0.04,18.65c0.04,5.75,4.51,10.2,10.27,10.2  c26.66,0.02,53.32,0.01,79.99,0c0.63,0,1.33,0.18,1.85-0.4c1.28,0.73,2.68,0.31,4.01,0.32c5,0.02,8.97-3.15,9.99-8.06  C221.21,339.72,220.7,336.41,220.82,333.14z M167.86,345.32c-5.39,0.05-9.79-4.33-9.8-9.75c0-5.43,4.37-9.8,9.78-9.77  c5.39,0.02,9.76,4.44,9.74,9.85C177.56,340.93,173.21,345.27,167.86,345.32z"></path>	<path class="st0" d="M168.06,330.25c-2.8-0.17-5.36,2.17-5.48,5c-0.12,2.93,2.06,5.34,4.96,5.47c2.91,0.13,5.36-2.06,5.53-4.95  C173.24,333,170.89,330.42,168.06,330.25z"></path>	<path class="st0" d="M182.69,79.09c8.53-0.61,16.87,0,22.31-8.27c1.83-2.79,3.8-5.48,6.17-8.89  c-49.42-10.32-96.96,17.24-111.58,63.35c-1.68,5.31-4.36,7.54-9.45,9.04c-22.21,6.56-39.02,19.41-46.75,42.14  c-1.31,3.85-2.28,7.82-3.4,11.74c0,5.54,0,11.09,0,16.63c3.09,9.08,5.11,18.72,9.51,27.11c9.47,18.09,24.84,28.83,45.48,32.53  c0-6.66,0-12.63,0-18.82c-1.78-0.67-3.47-1.29-5.16-1.93c-18.18-6.96-30.27-24.8-30.66-45.21c-0.38-20.33,9.63-35.53,29.08-43.4  c5.51-2.23,11.34-4.32,17.19-4.91c6.65-0.67,8.51-3.76,9.6-9.84C120.97,107.18,149.24,81.47,182.69,79.09z"></path>	<path class="st0" d="M358.66,173.9c-2.87-17.18-9.55-32.33-22.68-44.11c-3.16,2.9-5.55,5.89-8.64,7.74  c-4.72,2.83-4.57,5.32-1.28,9.24c26.87,32.01,17.72,76.34-19.27,94.41c-1.54,0.75-3.42,2.63-3.54,4.12  c-0.42,5.45-0.17,10.95-0.17,16.51c22.72-3.34,45.62-23.63,52.74-46.52c1.77-5.68,2.8-11.58,4.17-17.38c0-6,0-12.01,0-18.01  C359.55,177.9,358.99,175.92,358.66,173.9z"></path>	<path class="st0" d="M299.42,131.27c5.07-8.36,5.08-8.04,14.04-8.46c2.19-0.1,5.02-2.69,6.17-4.86c1.32-2.5,1.13-5.81,1.56-8.77  c0.7-4.8-1.35-7.63-6.19-8.01c-3.6-0.29-6.67-0.46-7.28-5.27c-0.53-4.15-1.64-7.63,3.14-10.48c2.12-1.26,4.41-5.5,3.8-7.54  c-3.48-11.64-10.58-13.85-20.15-6.98c-0.31,0.22-0.85,0.12-1.29,0.16c-7.54-4.99-7.42-5-8.13-14.45c-0.13-1.8-1.24-4.23-2.67-5.12  c-9.36-5.81-18.08-1.79-19.64,8.77c-0.06,0.41-0.41,0.79-0.52,0.99c-6.5,2.86-12.22,3.88-16.34-3.82  c-0.68-1.28-4.99-1.61-7.11-0.88c-2.7,0.93-4.83,3.44-7.28,5.16c-4.38,3.07-4.53,6.5-1.18,10.45c1.19,1.4,2.14,2.99,3.18,4.46  c-2.98,5.96-5.86,11.45-14.36,9.14c-1.52-0.41-4.85,2.59-5.95,4.73c-1.29,2.52-1.11,5.82-1.5,8.79c-0.58,4.4,0.98,7.18,5.78,7.5  c4.17,0.28,6.83,1.64,7.9,6.54c1.03,4.69-0.12,7.25-3.91,9.59c-3.07,1.89-5.4,4.26-3.19,8.52c6,11.56,9.72,12.7,20.24,5.88  c0.17-0.11,0.43-0.08,0.65-0.12c6.13,2.76,11.12,5.97,8.71,14.27c-0.44,1.5,1.82,5.05,3.53,5.65c3.83,1.34,8.11,1.87,12.19,1.78  c1.71-0.04,4.79-2.44,4.81-3.82c0.17-8.56,5.44-10.56,12.61-10.64c9.58,10.33,9.58,10.33,18.77,3.28  C306.39,142.62,306.38,142.44,299.42,131.27z M265.96,125.96c-12.11-0.07-21.96-10.18-21.64-22.24  c0.31-11.97,10.71-22.05,22.45-21.76c12.01,0.29,21.58,10.34,21.5,22.56C288.17,116.72,278.49,126.03,265.96,125.96z"></path></g></svg>