<svg xmlns="http://www.w3.org/2000/svg" xmlns:xlink="http://www.w3.org/1999/xlink" id="Layer_1" x="0px" y="0px" viewBox="0 0 400 400" style="enable-background:new 0 0 400 400;" xml:space="preserve"><style type="text/css">	.st0{fill:#322B6A;}</style><g>	<path class="st0" d="M101,188.4c3.18-0.12,5.77-1.51,7.85-3.82c2.57-2.85,3.87-6.2,3.43-10.1c-0.15,0-0.3,0-0.45,0  c-0.25,0.06-0.51,0.11-0.76,0.17c-5.26,1.35-8.74,4.58-10.28,9.82c-0.37,1.27-0.43,2.58-0.17,3.92  C100.78,188.4,100.89,188.41,101,188.4z"></path>	<path class="st0" d="M118.02,205.97c-0.44-5.31,1.88-9.31,6.45-12.07c-0.41-0.46-0.76-0.94-1.19-1.32c-0.77-0.7-1.53-1.41-2.38-2  c-2.75-1.92-5.79-2.83-9.17-2.43c-1.89,0.22-3.67,0.84-5.42,1.53c-2.07,0.82-4.18,1.13-6.35,0.51c-1.3-0.37-2.58-0.83-3.86-1.27  c-2.63-0.88-5.28-1.19-7.99-0.39c-2.38,0.71-4.43,1.98-6.21,3.68c-1.88,1.8-3.31,3.89-4.13,6.39c-1.25,3.78-1.31,7.63-0.72,11.51  c0.81,5.33,2.82,10.21,5.79,14.7c1.45,2.19,3.01,4.29,5.13,5.9c1.52,1.16,3.21,1.82,5.14,1.69c1.28-0.08,2.46-0.52,3.61-1.07  c2.28-1.08,4.67-1.55,7.19-1.3c1.7,0.17,3.25,0.79,4.77,1.5c1.92,0.89,3.88,1.21,5.91,0.42c1.45-0.57,2.64-1.52,3.71-2.62  c2.62-2.7,4.62-5.84,6.36-9.16c0.54-1.03,1-2.09,1.5-3.15C121.26,214.88,118.45,211.21,118.02,205.97z"></path>	<path class="st0" d="M371.07,64.72c-0.01-10.67-8.1-18.83-18.78-19.44c-1.53-0.09-3.06-0.05-4.6-0.05  c-78.69,0-157.39,0-236.08-0.01c-18.39,0-36.77-0.06-55.16-0.08c-10.92-0.01-17.02,4.21-20.9,14.4c-0.18,0.46-0.43,0.89-0.64,1.34  c0,68.73,0,137.47,0,206.2c0.22,0.35,0.52,0.66,0.65,1.04c3.21,9.33,9.8,14.17,19.7,14.2c15.32,0.06,30.65,0.02,45.97,0  c23.42-0.03,46.84-0.05,70.26-0.16c2.55-0.01,3.29,0.4,2.73,3.21c-2.41,12.22-4.62,24.49-6.71,36.77  c-0.44,2.59-1.92,2.64-3.88,2.78c-16.82,1.17-33.55,3.07-50.06,6.52c-7.44,1.56-12.72,7.56-13.5,15.06  c-0.59,5.63,3.37,9.33,8.9,8.1c41.02-9.15,82.57-10.79,124.35-8.6c20.99,1.1,41.88,3.36,62.34,8.38c8.39,2.06,11.61-4.2,9.89-10.11  c-1.99-6.83-6.17-11.3-13.11-12.77c-16.5-3.51-33.24-5.36-50.06-6.51c-2.56-0.18-3.52-0.93-3.95-3.49  c-2.06-12.07-4.24-24.12-6.63-36.12c-0.56-2.83,0.2-3.22,2.75-3.22c38.64,0.06,77.27,0.02,115.91,0.07  c4.53,0.01,8.7-0.89,12.38-3.56c5.42-3.93,8.24-9.32,8.25-15.99C371.11,196.71,371.13,130.72,371.07,64.72z M345.86,261.76  c-95.32-0.01-190.63-0.02-285.95-0.03c-4.47,0-4.48-0.01-4.48-4.6c0-62.26,0-124.53,0-186.79c0-4.54,0.01-4.54,4.42-4.54  c47.71,0,95.42,0,143.14,0c0,0.04,0,0.09,0,0.13c47.6,0,95.21,0,142.81,0c4.73,0,4.74,0.01,4.74,4.63c0,62.15,0,124.31,0,186.46  C350.55,261.75,350.54,261.76,345.86,261.76z"></path>	<path class="st0" d="M282.29,158.73c-2.91,0.34-3.99,2.51-4.93,4.88c-5.42,13.71-10.86,27.41-16.3,41.12  c-4.45,11.2-8.95,22.38-13.34,33.61c-1.63,4.18,0.61,7.78,5.17,7.73c2.53-0.09,3.82-2.15,4.83-4.71  c6.27-15.89,12.61-31.76,18.92-47.63c3.59-9.03,7.22-18.03,10.73-27.09C289.11,162.14,286.52,158.24,282.29,158.73z"></path>	<path class="st0" d="M317.76,194.77c-5.7-5.74-11.38-11.5-17.1-17.22c-2.83-2.83-5.7-3.11-8.04-0.92  c-2.34,2.19-2.07,5.38,0.71,8.32c0.89,0.94,1.8,1.85,2.72,2.75c4.87,4.71,9.76,9.41,15.41,14.86  c-6.75,6.46-12.83,12.15-18.75,17.99c-2.35,2.32-2.26,5.49-0.19,7.53c2.16,2.13,5.07,2.17,7.51-0.25  c7.17-7.09,14.26-14.25,21.3-21.47c2.51-2.57,2.37-5.38-0.12-8.09C320.12,197.07,318.92,195.94,317.76,194.77z"></path>	<path class="st0" d="M223.33,202.56c5.66-5.45,10.54-10.15,15.41-14.86c0.93-0.9,1.84-1.81,2.72-2.75  c2.79-2.94,3.05-6.13,0.71-8.32c-2.33-2.18-5.2-1.91-8.04,0.92c-5.73,5.71-11.4,11.47-17.1,17.22c-1.16,1.16-2.36,2.29-3.46,3.5  c-2.49,2.71-2.63,5.52-0.12,8.09c7.04,7.22,14.14,14.38,21.3,21.47c2.45,2.42,5.35,2.38,7.51,0.25c2.07-2.04,2.16-5.21-0.19-7.53  C236.16,214.71,230.08,209.02,223.33,202.56z"></path>	<path class="st0" d="M113.07,90.83H90.4c-7.57,0-13.71,6.14-13.71,13.71v22.67c0,7.57,6.14,13.71,13.71,13.71h22.67  c7.57,0,13.71-6.14,13.71-13.71v-22.67C126.78,96.97,120.64,90.83,113.07,90.83z"></path>	<path class="st0" d="M182.33,90.83h-22.67c-7.57,0-13.71,6.14-13.71,13.71v22.67c0,7.57,6.14,13.71,13.71,13.71h22.67  c7.57,0,13.71-6.14,13.71-13.71v-22.67C196.04,96.97,189.91,90.83,182.33,90.83z"></path>	<path class="st0" d="M227.06,140.92h22.67c7.57,0,13.71-6.14,13.71-13.71v-22.67c0-7.57-6.14-13.71-13.71-13.71h-22.67  c-7.57,0-13.71,6.14-13.71,13.71v22.67C213.35,134.78,219.49,140.92,227.06,140.92z"></path>	<path class="st0" d="M315.61,90.83h-22.67c-7.57,0-13.71,6.14-13.71,13.71v22.67c0,7.57,6.14,13.71,13.71,13.71h22.67  c7.57,0,13.71-6.14,13.71-13.71v-22.67C329.32,96.97,323.18,90.83,315.61,90.83z"></path></g></svg>