<svg xmlns="http://www.w3.org/2000/svg" xmlns:xlink="http://www.w3.org/1999/xlink" id="Layer_1" x="0px" y="0px" viewBox="0 0 400 400" style="enable-background:new 0 0 400 400;" xml:space="preserve"><style type="text/css">	.st0{fill:#322B6A;}</style><g>	<path class="st0" d="M36.16,263.8c0,7.85-0.07,15.32,0.01,22.79c0.19,16.71,8.17,24.67,24.83,24.69  c29.94,0.04,59.89,0.01,89.83,0.01c2.96,0,5.92,0,9.45,0c-1.83,16.75,0.7,33.42-15.9,44.17c0.62,0.54,1.23,1.08,1.85,1.61  c35.83,0,71.66,0,107.45,0c-4.12-7.56-9.01-13.99-11.2-21.24c-2.26-7.49-1.91-15.77-2.79-24.55c4.23,0,7.26,0,10.28,0  c30.22,0,60.45,0.07,90.67-0.02c11.7-0.03,21.03-6.18,22.24-16.36c1.2-10.1,0.26-20.46,0.26-31.11  C254.26,263.8,145.81,263.8,36.16,263.8z"></path>	<path class="st0" d="M363.83,59.31c-0.01-12.24-4.78-16.39-18.07-16.39c-96.9-0.01-193.8-0.01-290.7,0.01  c-15.01,0-18.93,3.9-18.93,18.91c-0.02,62.75-0.01,125.5,0.02,188.25c0,2.99,0.25,5.97,0.39,9.03c109.23,0,217.58,0,326.79,0  c0.22-2.67,0.51-4.59,0.51-6.51C363.86,188.18,363.91,123.75,363.83,59.31z M351.59,247.2c-101.46,0-202.18,0-303.46,0  c-0.15-3.15-0.4-5.9-0.4-8.64c-0.02-58.27,0.12-116.54-0.18-174.8c-0.04-7.52,2.2-9.31,9.5-9.29  c95.22,0.24,190.44,0.16,285.66,0.16c2.74,0,5.48,0,8.88,0C351.59,119.15,351.59,182.85,351.59,247.2z"></path>	<path class="st0" d="M155.62,127.83c-2.45,0.77-5.19,4.76-5.37,7.45c-0.17,2.63,2.11,6.92,4.43,7.93  c6.62,2.88,6.43,5.42,2.08,10.48c-1.63,1.89-1.66,6.76-0.35,9.12c1.28,2.3,5.34,4.56,7.95,4.32c5.72-0.52,9.21,0.02,7.18,6.73  c-1.47,4.88,0.8,7.06,4.67,9.23c4,2.24,6.88,2.63,10.02-1.46c3.79-4.95,7.4-3.8,8.75,1.93c1.37,5.79,5.39,6.37,9.5,5.02  c2.74-0.9,6-3.56,6.85-6.14c1.83-5.62,4.39-7.44,8.76-3.18c4.25,4.14,7.22,2.07,10.86-0.57c3.44-2.49,4.77-4.91,2.64-9.11  c-3.14-6.2,0.04-8.43,5.92-7.51c5.36,0.83,7.51-2.35,7.8-6.42c0.21-2.91-0.74-6.9-2.72-8.78c-4.29-4.07-4.66-7.15,0.82-9.49  c4.77-2.04,5.02-4.89,3.99-9.35c-1.01-4.42-2.39-7.01-7.59-6.78c-5.97,0.26-7.84-3.02-4.41-7.96c2.94-4.23,1.69-6.96-1.52-10.14  c-3.13-3.1-5.79-4.83-10.08-1.77c-5.07,3.62-8.06,1.46-8.02-4.34c0.03-5.08-2.49-6.69-6.97-7.55c-4.35-0.83-7.39-0.76-9.35,4.12  c-2.19,5.45-5.84,6.14-8.96,0.66c-2.53-4.45-5.88-5.05-9.71-2.69c-2.77,1.7-4.96,4.36-7.4,6.59c1.87,7.9-0.45,9.26-6.56,7.34  c-2.41-0.75-6.94,1.12-8.6,3.27c-1.63,2.1-2.21,6.99-0.84,9.05C163.3,123.68,162.02,125.82,155.62,127.83z M199.8,112.64  c14.57-0.13,26.34,11.08,26.74,25.48c0.41,14.43-11.78,26.88-26.37,26.92c-14.28,0.05-26.05-11.7-26.17-26.13  C173.89,124.37,185.27,112.77,199.8,112.64z"></path>	<path class="st0" d="M270.39,109.74c-1.57,0.76-2.99,1.83-4.63,2.86c-1.59-3.14-2.7-5.72-4.12-8.11  c-14.31-24.07-35.3-37.14-63.48-36.82C169.97,68,149.2,81.5,135.74,106.06c-1.37,2.5-0.38,6.31-0.49,9.5  c2.24-1.91,5.26-3.39,6.61-5.8c12.76-22.78,32.16-35.08,58.1-34.73c25.98,0.35,44.88,13.44,57.45,37.29  c-8.29,0.18-9.9,1.55-7.38,6.15c4.02,7.35,8.49,14.49,13.16,21.45c2.58,3.84,5.96,3.55,7.22-1.01c2.3-8.35,4.19-16.84,5.68-25.37  C276.8,109.45,274.34,107.84,270.39,109.74z"></path>	<path class="st0" d="M138.12,172.93c14.33,24.52,35.69,37.8,64.11,37.28c28.01-0.51,48.98-14.02,62.18-38.87  c1.28-2.41,0.51-5.9,0.69-8.89c-2.31,1.73-5.03,3.11-6.86,5.26c-5.77,6.76-10.27,14.91-16.93,20.56  c-31.79,27-84.3,14.58-97.65-22.59c8.42-0.93,9.04-1.97,4.95-8.83c-3.44-5.77-6.88-11.55-10.66-17.09  c-1.26-1.84-3.6-2.95-5.44-4.39c-1.22,2.03-2.92,3.92-3.56,6.12c-1.64,5.63-3.07,11.35-4.05,17.13c-0.52,3.09,0.05,6.36,0.13,9.54  c3.01-0.6,6.03-1.2,9.62-1.91C135.57,168.04,136.73,170.55,138.12,172.93z"></path>	<path class="st0" d="M256.59,214.57H143.96c-7.64,0-13.85,6.21-13.85,13.85c0,7.63,6.21,13.85,13.85,13.85h112.63  c7.64,0,13.85-6.21,13.85-13.85C270.44,220.78,264.23,214.57,256.59,214.57z M256.59,237.23H143.96c-4.86,0-8.81-3.94-8.81-8.81  c0-4.86,3.94-8.81,8.81-8.81h112.63c4.86,0,8.81,3.94,8.81,8.81C265.4,233.28,261.45,237.23,256.59,237.23z"></path></g></svg>