<svg xmlns="http://www.w3.org/2000/svg" xmlns:xlink="http://www.w3.org/1999/xlink" id="Layer_1" x="0px" y="0px" viewBox="0 0 400 400" style="enable-background:new 0 0 400 400;" xml:space="preserve"><style type="text/css">	.st0{fill:#322B6A;}</style><g>	<path class="st0" d="M288.21,24.24c-58.87,0-117.74,0-176.61,0c-14.25,0-21.55,7.37-21.55,21.74c0,51.28,0,102.55,0,153.83  c0,51.52,0,103.05,0,154.57c0,14,7.43,21.38,21.53,21.38c59,0.01,117.99,0.01,176.99,0c13.97,0,21.38-7.48,21.38-21.56  c0-102.8,0-205.6,0-308.4C309.95,31.56,302.57,24.24,288.21,24.24z M216.44,48.11c3.49,0.07,5.96,2.27,5.98,5.32  c0.03,3.25-2.46,5.34-6.29,5.3c-3.65-0.04-5.91-2.04-5.92-5.24C210.2,50.21,212.72,48.04,216.44,48.11z M181.99,48.33  c4.31-0.38,8.7-0.39,13.01,0c2.89,0.26,4.59,2.42,4.38,5.51c-0.2,2.88-1.88,4.57-4.75,4.8c-2.1,0.17-4.22,0.03-6.33,0.03  c-1.99-0.01-3.98,0.13-5.96-0.04c-2.87-0.24-4.56-1.96-4.76-4.8C177.36,50.76,179.09,48.59,181.99,48.33z M217.56,348.18  c-5.98,0.04-11.96,0.01-17.94,0.01c-5.73,0-11.46,0.03-17.19-0.01c-4.31-0.03-6.6-1.97-6.56-5.42c0.04-3.33,2.19-5.15,6.35-5.17  c11.83-0.04,23.67-0.04,35.5,0c4.15,0.01,6.34,1.85,6.39,5.15C224.17,346.15,221.82,348.15,217.56,348.18z M298.95,315.21  c-66.05,0-131.89,0-197.99,0c0-79.26,0-158.41,0-237.75c66.01,0,131.82,0,197.99,0C298.95,156.58,298.95,235.7,298.95,315.21z"></path>	<path class="st0" d="M122.24,217.15c1.21,0.23,2.48,0.1,3.73,0.1c25.3,0,50.6,0,75.9,0c25.3,0,50.6,0,75.9,0  c1.12,0,2.25,0.05,3.36-0.03c3.21-0.24,5.06-1.98,5.23-5.21c0.15-2.95-1.91-5.02-5.09-5.31c-0.99-0.09-1.99-0.05-2.99-0.05  c-50.85,0-101.7,0-152.56,0c-1.12,0-2.26-0.06-3.36,0.09c-2.85,0.39-4.54,2.09-4.67,4.95C117.56,214.74,119.3,216.58,122.24,217.15  z"></path>	<path class="st0" d="M153.38,244.28c-7.73-0.13-15.47-0.14-23.2,0.01c-4.42,0.09-7.12,2.97-7.25,7.41  c-0.11,3.86-0.02,7.73-0.03,11.6c0,3.62-0.05,7.24,0.01,10.85c0.08,5.13,2.74,7.97,7.79,8.04c7.48,0.11,14.97,0.11,22.45,0  c4.7-0.07,7.54-2.75,7.65-7.44c0.18-7.73,0.18-15.47-0.02-23.2C160.68,247.04,157.86,244.35,153.38,244.28z"></path>	<path class="st0" d="M220.96,251.96c-0.1-4.86-2.81-7.63-7.72-7.69c-7.48-0.1-14.97-0.1-22.45,0c-4.73,0.07-7.55,2.69-7.66,7.4  c-0.18,7.73-0.19,15.47,0.01,23.2c0.12,4.68,2.96,7.26,7.74,7.32c7.48,0.1,14.97,0.12,22.45-0.01c4.88-0.08,7.55-2.89,7.64-7.78  c0.07-3.74,0.01-7.48,0.01-11.23C220.97,259.44,221.04,255.7,220.96,251.96z"></path>	<path class="st0" d="M281.09,252.01c-0.14-4.99-2.73-7.67-7.65-7.75c-7.48-0.11-14.96-0.11-22.44,0c-4.91,0.07-7.6,2.82-7.65,7.73  c-0.07,7.48-0.07,14.97,0,22.45c0.05,4.92,2.71,7.67,7.63,7.75c7.48,0.11,14.96,0.11,22.44,0c4.94-0.07,7.52-2.74,7.67-7.73  c0.11-3.61,0.02-7.23,0.02-10.85C281.11,259.74,281.2,255.87,281.09,252.01z"></path>	<path class="st0" d="M234.89,118.05c7.36,0.04,14.71,0.01,22.07,0.01c7.6,0,15.21,0.04,22.82-0.01c4.28-0.03,6.69-2.05,6.64-5.38  c-0.04-3.3-2.48-5.29-6.78-5.3c-14.96-0.04-29.92-0.04-44.88,0c-4.25,0.01-6.68,2.11-6.64,5.43  C228.16,116.12,230.54,118.02,234.89,118.05z"></path>	<path class="st0" d="M279.86,135.65c-15.09-0.03-30.18-0.03-45.26,0c-4.06,0.01-6.36,1.94-6.46,5.18c-0.1,3.4,2.21,5.4,6.53,5.43  c7.48,0.05,14.96,0.01,22.44,0.01c7.61,0,15.21,0.04,22.82-0.02c4.09-0.03,6.39-1.93,6.48-5.13  C286.5,137.76,284.07,135.66,279.86,135.65z"></path>	<path class="st0" d="M279.91,163.98c-15.09-0.03-30.18-0.03-45.26,0c-4.29,0.01-6.61,2.02-6.5,5.44c0.1,3.25,2.38,5.11,6.47,5.13  c7.48,0.04,14.96,0.01,22.44,0.01c7.61,0,15.21,0.03,22.82-0.01c4.24-0.02,6.62-2.08,6.51-5.48  C286.3,165.83,284.04,163.99,279.91,163.98z"></path>	<path class="st0" d="M131.56,178.37c9.85,0.03,19.71,0.01,29.56,0.01c9.85,0,19.71,0.02,29.56-0.01c6.45-0.01,8.93-2.36,8.94-8.71  c0.05-19.09,0.04-38.17,0-57.26c-0.01-6.38-2.54-8.88-8.84-8.89c-19.71-0.02-39.41-0.02-59.12,0c-6.11,0.01-8.74,2.59-8.75,8.59  c-0.02,19.21-0.02,38.42,0,57.64C122.93,175.89,125.4,178.35,131.56,178.37z M160.73,124.03c1.37-4.67,4.47-7.55,9.16-8.76  c0.22-0.06,0.45-0.1,0.67-0.15c0.13,0,0.27,0,0.4,0c0.38,3.48-0.77,6.46-3.06,9c-1.85,2.06-4.16,3.3-7,3.4c-0.1,0-0.2,0-0.33,0  C160.35,126.34,160.39,125.16,160.73,124.03z M140.2,136.62c0.73-2.22,2.01-4.09,3.68-5.69c1.59-1.52,3.41-2.65,5.54-3.28  c2.41-0.72,4.78-0.44,7.12,0.35c1.14,0.38,2.28,0.8,3.44,1.13c1.93,0.55,3.82,0.28,5.66-0.45c1.56-0.62,3.14-1.17,4.83-1.36  c3.02-0.35,5.72,0.46,8.18,2.17c0.75,0.53,1.44,1.16,2.12,1.78c0.38,0.35,0.69,0.77,1.06,1.18c-4.07,2.46-6.14,6.03-5.75,10.76  c0.38,4.67,2.89,7.94,7.25,9.85c-0.45,0.94-0.86,1.89-1.34,2.81c-1.55,2.95-3.34,5.75-5.67,8.16c-0.95,0.98-2.01,1.83-3.31,2.34  c-1.81,0.71-3.56,0.42-5.27-0.37c-1.36-0.63-2.74-1.18-4.25-1.34c-2.25-0.23-4.38,0.19-6.41,1.16c-1.02,0.48-2.08,0.87-3.22,0.95  c-1.73,0.11-3.23-0.47-4.58-1.51c-1.89-1.44-3.28-3.3-4.57-5.26c-2.65-4-4.44-8.35-5.16-13.1  C139.03,143.42,139.08,139.99,140.2,136.62z"></path></g></svg>