<svg xmlns="http://www.w3.org/2000/svg" xmlns:xlink="http://www.w3.org/1999/xlink" id="Layer_1" x="0px" y="0px" viewBox="0 0 400 400" style="enable-background:new 0 0 400 400;" xml:space="preserve"><style type="text/css">	.st0{fill:#322B6A;}</style><g>	<path class="st0" d="M74.34,373.5c0-1.49,0-2.73,0-3.96c0-37.78,0-75.57,0-113.35c0-12.99,7.15-20.17,20.08-20.17  c70.46,0,140.91,0,211.37,0c12.94,0,20.06,7.16,20.06,20.19c0.01,37.78,0,75.57,0,113.35c0,1.23,0,2.46,0,3.94  C242.02,373.5,158.42,373.5,74.34,373.5z M200.07,355.78c13.24-0.01,23.98-10.77,23.97-24.03c-0.01-13.2-10.85-23.93-24.11-23.87  c-13.05,0.06-23.73,10.76-23.78,23.83C176.1,344.96,186.87,355.79,200.07,355.78z M168.84,291.07  c-6.71-6.52-13.27-12.88-20.46-19.87c6.61-6.56,13.03-12.92,19.26-19.11c-2.43-2.62-4.95-5.35-7.48-8.08  c-8.32,8.2-16.55,16.15-24.56,24.31c-2.17,2.22-2.02,5.26,0.16,7.48c7.93,8.07,16.04,15.97,23.97,23.83  C162.55,296.97,165.32,294.37,168.84,291.07z M240.18,299.9c0.75-0.62,1.44-1.12,2.04-1.72c6.97-6.95,13.94-13.89,20.88-20.87  c3.95-3.98,3.91-6.79-0.12-10.84c-6.85-6.89-13.73-13.75-20.61-20.61c-0.67-0.66-1.45-1.21-1.78-1.48  c-2.99,2.71-5.74,5.2-9.09,8.23c6.68,6.58,13.19,13,20.28,19.98c-6.62,6.55-13.06,12.92-19.33,19.12  C234.96,294.39,237.51,297.09,240.18,299.9z M213.26,244.42c-12.12,16.18-23.97,31.98-35.89,47.89c3.36,2.52,6.33,4.75,9.55,7.16  c12.05-16.07,23.91-31.88,35.92-47.89C219.59,249.15,216.62,246.94,213.26,244.42z"></path>	<path class="st0" d="M95.18,48.31c7.82-3.38,15.07-6.87,22.56-9.7c21.91-8.27,44.62-12.26,68.05-12.19  c16.22,0.05,32.43-0.02,48.65,0.02c36.05,0.08,59.78,33.52,47.95,67.54c-1.47,4.21-3.07,8.38-4.69,12.77  c-1.61-5.24-2.44-10.55-4.8-15.04c-4.62-8.79-10.09-17.14-15.25-25.65c-1.29-2.13-2.72-4.18-4.15-6.22  c-2.89-4.1-6.12-4.58-10.13-1.44c-4.02,3.16-8.03,6.33-11.96,9.6c-9.76,8.12-20.9,12.28-33.66,12.38  c-12.3,0.1-23.48,3.92-33.69,10.76c-13.25,8.88-26.54,17.71-40.37,26.93c-3.71-7.87-7.66-15.45-10.8-23.36  c-0.98-2.48-0.5-6.1,0.52-8.73c6.31-16.21-3.45-32.57-16.72-36.46C96.39,49.43,96.15,49.1,95.18,48.31z"></path>	<path class="st0" d="M253.98,146.19c2.9,0,5.26,0,7.62,0c1.24,0,2.48,0,4.36,0c-0.3,4.62-0.42,9.05-0.89,13.43  c-2.33,21.7-8.83,42.08-19.47,61.17c-1.29,2.32-2.66,3.33-5.47,3.32c-26.69-0.12-53.38-0.11-80.07-0.02  c-2.54,0.01-3.98-0.69-5.27-2.99c-12.48-22.11-19.16-45.86-20.41-71.17c-0.05-1.09-0.01-2.19-0.01-3.74c2.04,0,3.87,0,5.69,0  c1.86,0,3.72,0,6.13,0c0,4.97,0.33,9.8-0.06,14.58c-1.06,13,7.99,22.57,21.6,21.39c2.72-0.24,5.49,0,8.23-0.05  c10.29-0.18,17.91-7.76,18.13-18c0.04-1.84,0.01-3.69,0.01-5.73c4,0,7.69,0,11.99,0c0,1.85-0.03,3.78,0.01,5.71  c0.2,10.24,7.83,17.85,18.11,18.02c3.99,0.07,7.98,0.08,11.97-0.01c10.03-0.23,17.62-7.87,17.79-17.94  C254.06,158.33,253.98,152.49,253.98,146.19z"></path>	<path class="st0" d="M205.97,146.02c-4.11,0-7.8,0-11.86,0c0-1.63,0.02-3.09,0-4.55c-0.08-5.1-2.19-7.23-7.34-7.24  c-16.09-0.03-32.18-0.01-48.27-0.01c-1.24,0-2.47,0-3.67,0c-1.74-6.85-1.18-8.36,4.35-12.05c10.47-6.98,20.96-13.93,31.4-20.96  c8.16-5.5,17.08-8.77,26.95-8.84c15.57-0.11,29.32-5,41.28-14.97c2.47-2.06,5.04-4,7.35-5.83c16.15,17.81,22.98,38.38,19.05,62.66  c-0.74,0-2.05,0-3.36,0c-15.46,0-30.93,0-46.39,0c-7.91,0-9.25,1.34-9.37,9.34C206.07,144.29,206.01,145.02,205.97,146.02z"></path>	<path class="st0" d="M62.2,291.39c0,27.57,0,54.69,0,82.09c-11.78,0-23.55,0-35.43,0c-1.38-24.17-1.53-48,16.4-67.49  C48.6,300.09,54.67,295.11,62.2,291.39z"></path>	<path class="st0" d="M373.74,373.58c-12.17,0-23.84,0-35.72,0c0-27.38,0-54.6,0-82.24c11.22,5.78,19.74,13.89,26.1,24.31  c6.24,10.23,9.42,21.38,9.59,33.35C373.84,357.09,373.74,365.18,373.74,373.58z"></path>	<path class="st0" d="M158.21,146.35c8.16,0,15.83,0,23.87,0c0,6.2,0.17,12.25-0.07,18.29c-0.13,3.25-2.33,5.27-5.6,5.43  c-4.22,0.2-8.46,0.23-12.68-0.02c-3.26-0.19-5.36-2.28-5.47-5.55C158.07,158.56,158.21,152.61,158.21,146.35z"></path>	<path class="st0" d="M218.08,146.34c8.18,0,15.84,0,23.85,0c0,6.32,0.21,12.5-0.09,18.66c-0.15,3.05-2.43,4.93-5.53,5.07  c-4.1,0.18-8.21,0.18-12.31,0.02c-3.53-0.13-5.8-2.41-5.89-5.96C217.98,158.31,218.08,152.49,218.08,146.34z"></path>	<path class="st0" d="M121.98,146.29c0.84,8.81,1.63,17.21,2.51,26.46c-4.3-3.61-8.42-6.57-11.92-10.14  c-2.94-3.01-3.14-7.01-1.18-10.78C113.57,147.63,117.19,145.91,121.98,146.29z"></path>	<path class="st0" d="M275.69,172.71c0.87-9.16,1.66-17.56,2.46-26c4.31-0.98,8.25,0.79,10.46,4.75c2.29,4.1,1.65,9.02-1.96,12.28  C283.35,166.73,279.76,169.4,275.69,172.71z"></path>	<path class="st0" d="M200.07,319.87c6.48-0.04,11.94,5.36,11.99,11.83c0.04,6.55-5.22,11.96-11.74,12.08  c-6.68,0.12-12.21-5.34-12.17-12.02C188.17,325.24,193.52,319.91,200.07,319.87z"></path></g></svg>