<svg xmlns="http://www.w3.org/2000/svg" id="Layer_1" data-name="Layer 1" viewBox="0 0 100 100"><path d="M88.42,62.54c-.34-.51-.98-.53-1.46-.46-2.62,1.79-22.68,16.18-24.19,16.19l-10.58,.1c-.86,0-1.56-.68-1.57-1.54,0-.86,.68-1.56,1.54-1.57l10.57-.1c.32,0,1.05-.28,1.62-.88,1.82-1.9-.68-4.58-2.18-4.58l-20.14,.08c-6.59,.02-11.48,3.45-15.85,7.2l9.34,12.7,3.89-2.14,1.57-1.04c.57-.37,1.89-.98,3.24-1.03l22.39-.96c1.03-.04,2.77-.23,3.32-.99l18.06-18.53c.73-1.02,.73-1.97,.41-2.46h0ZM44.99,25.31c0,.86,.7,1.56,1.56,1.56h3.17v16.4c0,.86,.7,1.56,1.56,1.56s1.56-.7,1.56-1.56V25.31c0-.86-.7-1.56-1.56-1.56h-4.73c-.86,0-1.56,.7-1.56,1.56h0Zm2.43-8.67c0,1.65,1.35,3,3,3s3-1.35,3-3-1.35-3.01-3-3.01c-1.66,0-3,1.35-3,3.01Zm-18.44,12.99V12.27c0-1.13,.87-2.06,2.03-2.17,6.63-.63,13.51-4.31,18.23-9.58,.63-.7,1.73-.7,2.36,0,4.72,5.27,11.61,8.95,18.23,9.58,1.15,.11,2.03,1.04,2.03,2.17V29.63c0,10.72-10.9,16.92-20.6,22.94-.51,.32-1.16,.32-1.67,0-9.71-6.01-20.6-12.22-20.6-22.94h0Zm-7.26,46.52l11.75,15.98c.31,.42,.21,1.03-.2,1.33l-8.64,6.35c-.42,.31-1.02,.22-1.33-.2l-11.75-15.98c-.31-.42-.22-1.02,.2-1.33l8.64-6.35c.41-.3,1.02-.22,1.33,.2Zm22.21-9.56v-9.33h12.98v9.28l-12.98,.05Zm-3.51-13.22v13.29c-4.98,.38-9.11,2.41-12.98,5.25v-18.54h12.98Zm19.99-2.04h12.98v16.36l-5.4,3.7c-.66-2.54-3.19-4.88-5.83-4.87h-1.75s0-15.18,0-15.18Z" style="fill: #322b6a; fill-rule: evenodd;"></path></svg>