<svg xmlns="http://www.w3.org/2000/svg" id="Layer_1" data-name="Layer 1" viewBox="0 0 100 100"><path d="M95.45,45.45h-4.82c-2.09-18.91-17.18-34-36.09-36.09V4.55C54.55,2.05,52.5,0,50,0s-4.55,2.05-4.55,4.55v4.82C26.55,11.45,11.45,26.55,9.36,45.45H4.55c-2.5,0-4.55,2.05-4.55,4.55s2.05,4.55,4.55,4.55h4.86c1.41,12.91,8.77,24.32,20.05,30.86v10.05c0,2.5,2.05,4.55,4.55,4.55h32c2.5,0,4.55-2.05,4.55-4.55v-10.05c11.27-6.55,18.64-17.95,20.05-30.86h4.86c2.5,0,4.55-2.05,4.55-4.55s-2.05-4.55-4.55-4.55h0Zm-40.91,37.09c0,.36-.14,.68-.36,.95l-3.23,3.32c-.55,.55-1.36,.55-1.91,0l-3.23-3.32c-.23-.27-.36-.59-.36-.95v-11.14c1.32,.36,2.77,.55,4.18,.59,.23-.05,.45-.05,.68,0,1.45-.05,2.86-.23,4.23-.59v11.14Zm14.41-6.95c-1-2.45-2.5-4.73-4.41-6.68-.68-.68-1.41-1.27-2.18-1.86,.27,.18,2.68-3.18,2.86-3.45,1.82-2.86,2.77-6.23,2.77-9.59,0-9.91-8.09-18-18-18s-18,8.09-18,18c0,5.14,2.18,9.77,5.64,13.05-1.45,1.09-2.73,2.36-3.86,3.82-.55,.73-1.05,1.45-1.5,2.23-.14,.23-1.36,2.41-1.27,2.5-6.86-5.09-11.36-12.64-12.55-21.14,2.32-.23,4.14-2.09,4.14-4.45s-1.82-4.23-4.14-4.45c1.95-13.95,13.05-25.05,27-27,.23,2.32,2.09,4.14,4.45,4.14s4.23-1.82,4.45-4.14c13.95,1.95,25.05,13.05,27,27-2.32,.23-4.14,2.09-4.14,4.45s1.82,4.27,4.14,4.45c-1.18,8.5-5.68,16.05-12.55,21.14h.14Z" style="fill: #322b6a;"></path></svg>