<svg xmlns="http://www.w3.org/2000/svg" id="Layer_1" data-name="Layer 1" viewBox="0 0 100 100"><g id="Layer_23" data-name="Layer 23"><path d="M89.29,0h-25c-5.89,0-10.71,4.82-10.71,10.71V53.57c0,5.89,4.82,10.71,10.71,10.71h25c5.89,0,10.71-4.82,10.71-10.71V10.71c0-5.89-4.82-10.71-10.71-10.71Zm-28.57,10.71c0-1.96,1.61-3.57,3.57-3.57h25c1.96,0,3.57,1.61,3.57,3.57v25H60.71V10.71Zm23.21,42.86h-14.29v-7.14h14.29v7.14Zm-19.64,14.29c-6.61,0-12.14-4.46-13.93-10.71H7.14V25c0-1.96,1.61-3.57,3.57-3.57H50v-7.14H10.71C4.82,14.29,0,19.11,0,25v50c0,5.89,4.82,10.71,10.71,10.71h25v7.14h-7.14v7.14h35.71v-7.14h-7.14v-7.14h25c5.89,0,10.71-4.82,10.71-10.71v-7.68c-1.07,.36-2.32,.54-3.57,.54h-25Zm3.57,12.5h-10.71v-7.14h10.71v7.14Zm14.29,0h-10.71v-7.14h10.71v7.14ZM50,32.14h-14.29v-7.14h14.29v7.14Zm0,10.71h-14.29v-7.14h14.29v7.14Zm-39.29,3.57H50v7.14H10.71v-7.14Zm3.57-3.57c-1.96,0-3.57-1.61-3.57-3.57v-10.71c0-1.96,1.61-3.57,3.57-3.57h14.29c1.96,0,3.57,1.61,3.57,3.57v10.71c0,1.96-1.61,3.57-3.57,3.57H14.29Z" style="fill: #322b6a;"></path></g></svg>