<svg xmlns="http://www.w3.org/2000/svg" id="Layer_1" data-name="Layer 1" viewBox="0 0 100 100"><path d="M15.18,80.58c.45,.83,.71,1.79,.71,2.8,0,3.24-2.63,5.87-5.87,5.87s-5.87-2.63-5.87-5.87,2.63-5.87,5.87-5.87c1.01,0,1.97,.26,2.8,.71l10.5-10.5v-10.5c0-.92,.75-1.67,1.67-1.67s1.67,.75,1.67,1.67v11.19c0,.44-.18,.87-.49,1.18l-10.98,10.98Zm69.65,0l-10.98-10.98c-.31-.31-.49-.74-.49-1.18v-11.19c0-.92,.75-1.67,1.67-1.67s1.67,.75,1.67,1.67v10.5l10.5,10.5c.83-.45,1.79-.71,2.8-.71,3.24,0,5.87,2.63,5.87,5.87s-2.63,5.87-5.87,5.87-5.87-2.63-5.87-5.87c0-1.01,.26-1.97,.71-2.8h0Zm-33.16,7.92c2.43,.72,4.2,2.97,4.2,5.63,0,3.24-2.63,5.87-5.87,5.87s-5.87-2.63-5.87-5.87c0-2.66,1.77-4.91,4.2-5.63v-20.52c0-.92,.75-1.67,1.67-1.67s1.67,.75,1.67,1.67v20.52Zm25.18-37.45c.74-1.16,.84-2.56,.25-3.86,0,0,0-.01,0-.02-.68-1.46-2.09-2.36-3.7-2.36h-1.44v-12.5c0-2.66-2.16-4.82-4.82-4.82h-7.97c-2.66,0-4.82,2.16-4.82,4.82v12.5h-1.44c-.79,0-1.53,.22-2.16,.61,.01-.03,.02-.05,.04-.08,0,0,0-.01,0-.02,.67-1.47,.45-3.07-.58-4.31,0,0-.01-.02-.02-.02l-10.24-12.06s-.01-.01-.02-.02c-.8-.93-1.87-1.42-3.09-1.42s-2.29,.49-3.09,1.42c0,0-.01,.01-.01,.02l-10.24,12.06s-.01,.02-.02,.02c-1.03,1.24-1.25,2.84-.58,4.31,0,0,0,.01,0,.02,.68,1.46,2.09,2.36,3.7,2.36h1.44v3.35h-6.22c-7.77,0-14.12-6.35-14.12-14.11,0-5.89,3.66-10.96,8.8-13.07-.03-.43-.03-.86-.03-1.3C16.48,10.1,26.58,0,39.04,0c6.09,0,11.63,2.42,15.69,6.35,2.15-.77,4.46-1.19,6.87-1.19,10.5,0,19.14,7.95,20.25,18.15,6.13,1.66,10.44,7.27,10.44,13.62,0,7.76-6.35,14.11-14.12,14.11h-1.32ZM37.42,31.08l10.24,12.06c.19,.23,.23,.52,.11,.79-.12,.27-.38,.43-.68,.43h-4.77v15.84c0,.82-.67,1.48-1.49,1.48h-7.97c-.82,0-1.49-.67-1.49-1.48v-15.84h-4.77c-.3,0-.55-.17-.68-.43-.12-.27-.08-.57,.11-.79l10.24-12.06c.15-.17,.34-.26,.57-.26s.42,.09,.57,.26h0Zm25.16,30.35l-10.24-12.06c-.19-.23-.23-.52-.11-.79,.12-.27,.38-.43,.68-.43h4.77v-15.84c0-.82,.67-1.49,1.49-1.49h7.97c.82,0,1.49,.67,1.49,1.49v15.84h4.77c.3,0,.55,.17,.68,.43,.12,.27,.08,.57-.11,.79l-10.24,12.06c-.15,.17-.34,.26-.57,.26s-.42-.09-.57-.26h0Z" style="fill: #322b6a; fill-rule: evenodd;"></path></svg>