<svg xmlns="http://www.w3.org/2000/svg" id="Layer_1" data-name="Layer 1" viewBox="0 0 100 100"><path d="M73.82,69.29v29.09c8.4-4.85,16.79-9.69,25.18-14.54v-29.1c-8.39,4.85-16.79,9.7-25.18,14.54ZM40.46,35.29c-3.2,0-5.79,2.59-5.79,5.79,0,3.2,2.59,5.79,5.79,5.79,3.2,0,5.79-2.59,5.79-5.79h0c0-3.2-2.59-5.79-5.79-5.79h0Zm0-3.41c5.08,0,9.2,4.12,9.2,9.2s-4.12,9.2-9.2,9.2-9.2-4.12-9.2-9.2h0c0-5.08,4.12-9.2,9.2-9.2Zm15.14,10.77c-.83,0-1.54,.6-1.68,1.41-.36,1.59-.99,3.11-1.87,4.48-.43,.67-.34,1.56,.23,2.12h0s1.37,1.37,1.37,1.37c-.67,.8-1.42,1.55-2.22,2.22l-1.36-1.36c-.59-.59-1.53-.67-2.21-.17-1.21,.83-3.02,1.51-4.47,1.83-.78,.17-1.34,.86-1.34,1.66h0v1.93c-1.04,.09-2.1,.09-3.14,0v-1.93c0-.83-.6-1.54-1.41-1.68-1.59-.36-3.11-.99-4.48-1.87-.67-.43-1.56-.34-2.12,.23h0s-1.37,1.36-1.37,1.36c-.8-.67-1.55-1.42-2.22-2.22l1.36-1.36c.59-.59,.67-1.53,.17-2.21-.83-1.21-1.51-3.02-1.83-4.47-.17-.78-.86-1.34-1.66-1.34h0s-1.93,0-1.93,0c-.09-1.04-.09-2.1,0-3.14h1.93c.83,0,1.54-.6,1.68-1.41,.35-1.59,.98-3.11,1.87-4.49,.43-.67,.34-1.56-.23-2.12h0s-1.36-1.36-1.36-1.36c.67-.8,1.42-1.55,2.22-2.22l1.37,1.37c.59,.59,1.53,.67,2.21,.17,1.21-.82,3.03-1.52,4.46-1.83,.78-.17,1.34-.86,1.34-1.66h0v-1.93c1.04-.09,2.1-.09,3.14,0v1.93c0,.83,.6,1.54,1.41,1.68,1.59,.35,3.11,.98,4.49,1.87,.67,.43,1.56,.34,2.12-.23h0s1.36-1.36,1.36-1.36c.8,.67,1.55,1.42,2.22,2.22l-1.37,1.37c-.59,.59-.67,1.53-.17,2.21,.82,1.21,1.52,3.03,1.83,4.47,.17,.78,.86,1.34,1.66,1.34h0s1.93,0,1.93,0c.09,1.04,.09,2.1,0,3.14h-1.93Zm3.42,3.41h-2.1c-.33,1.08-.77,2.13-1.3,3.13l1.49,1.49c.63,.63,.67,1.63,.09,2.31-1.35,1.91-3.03,3.58-4.95,4.92-.68,.48-1.6,.4-2.18-.19h0s-1.49-1.48-1.49-1.48c-1,.53-2.05,.97-3.13,1.3v2.11c0,.85-.63,1.58-1.48,1.69-2.5,.38-4.55,.43-7.07-.01-.82-.14-1.41-.85-1.41-1.68v-2.1c-1.08-.33-2.13-.77-3.13-1.3l-1.49,1.49c-.63,.63-1.63,.67-2.31,.09-1.91-1.35-3.58-3.03-4.92-4.95-.48-.68-.4-1.6,.19-2.18h0s1.49-1.49,1.49-1.49c-.53-1-.97-2.05-1.3-3.13h-2.11c-.85,0-1.58-.63-1.69-1.48-.38-2.5-.43-4.56,.01-7.07,.14-.82,.85-1.41,1.68-1.41h2.11c.33-1.08,.77-2.13,1.3-3.13l-1.49-1.49c-.61-.61-.67-1.59-.13-2.27,1.36-1.93,3.05-3.61,4.99-4.96,.68-.47,1.59-.39,2.17,.19h0s1.49,1.48,1.49,1.48c1-.54,2.05-.97,3.13-1.3v-2.1c0-.85,.63-1.58,1.48-1.69,2.5-.38,4.55-.43,7.07,.01,.82,.14,1.41,.85,1.41,1.68v2.11c1.08,.33,2.13,.76,3.13,1.3l1.49-1.49c.61-.61,1.59-.67,2.27-.13,1.93,1.36,3.61,3.05,4.96,4.99,.47,.68,.39,1.59-.19,2.17h0s-1.49,1.49-1.49,1.49c.54,1,.97,2.05,1.3,3.13h2.1c.86,0,1.58,.63,1.69,1.48,.38,2.5,.43,4.55-.01,7.06-.14,.82-.85,1.41-1.68,1.41h0Zm-33,24.75c-2.03-9.42-12.19-12.13-12.19-29.73,0-14.71,11.93-26.64,26.64-26.64s26.64,11.93,26.64,26.64c0,17.6-10.16,20.31-12.19,29.73H26.01Zm20.22,18.34v.51c0,1.14-.92,2.05-2.06,2.06h-7.42c-1.14,0-2.05-.92-2.06-2.06v-.51h11.53ZM12.56,15.59l3.32,3.32c.66,.68,1.73,.69,2.41,.04s.69-1.73,.04-2.41c-.01-.01-.02-.02-.04-.04l-3.32-3.32c-.68-.65-1.76-.64-2.41,.04-.64,.66-.64,1.71,0,2.37ZM38.76,3.32c0-.94,.76-1.7,1.7-1.7s1.7,.76,1.7,1.7v4.7c0,.94-.76,1.7-1.7,1.7s-1.7-.76-1.7-1.7V3.32Zm27.2,9.85l-3.32,3.32c-.66,.68-.64,1.75,.04,2.41,.66,.64,1.71,.64,2.37,0l3.32-3.32c.67-.67,.67-1.74,0-2.41-.67-.67-1.74-.67-2.41,0h0ZM2.7,42.78c-.94,0-1.7-.76-1.7-1.7s.76-1.7,1.7-1.7H7.4c.94,0,1.7,.76,1.7,1.7s-.76,1.7-1.7,1.7H2.7Zm51.85,31.43v6.49c0,2.78-2.26,5.02-5.03,5.03H31.4c-2.78,0-5.02-2.26-5.03-5.03v-6.49h28.19Zm15.85-4.93l-8.41-4.85c-1.76,2.36-3.42,4.83-3.88,7.75l-.15,.98v7.54c0,3.29-1.92,6.28-4.9,7.66l17.34,10.01v-29.1Zm-3.28-12.64l19.28-11.13,10.9,6.29c-8.4,4.85-16.8,9.7-25.2,14.54l-8.06-4.65c1.16-1.6,2.19-3.29,3.08-5.05h0Zm15.88-13.09l-10.9-6.29-1.73,1c.41,4.37-.1,9.44-1.24,13.3l13.86-8Z" style="fill: #322b6a; fill-rule: evenodd;"></path></svg>