<svg xmlns="http://www.w3.org/2000/svg" id="Layer_1" data-name="Layer 1" viewBox="0 0 100 100"><path d="M53.98,36.01c1.45,4.78,5.23,8.57,10.02,10.02-.95-2.15-1.6-4.98-1.95-8.05-3.07-.37-5.9-1.02-8.05-1.95l-.02-.02Z" style="fill: #322b6a;"></path><path d="M53.98,27.31c2.15-.95,4.98-1.6,8.05-1.95,.37-3.07,1.02-5.9,1.95-8.05-4.78,1.45-8.57,5.23-10.02,10.02l.02-.02Z" style="fill: #322b6a;"></path><path d="M65.42,38.24c.73,5.4,2.25,8.22,2.93,8.42,.65-.2,2.15-3.02,2.88-8.42-.97,.05-1.95,.08-2.92,.08s-1.95-.03-2.92-.08h.02Z" style="fill: #322b6a;"></path><path d="M71.25,25.07c-.73-5.4-2.25-8.22-2.93-8.42-.65,.2-2.15,3.02-2.88,8.42,.97-.05,1.95-.08,2.92-.08s1.95,.03,2.92,.08h-.02Z" style="fill: #322b6a;"></path><path d="M61.67,31.66c0-.97,.03-1.95,.08-2.92-5.4,.73-8.2,2.23-8.42,2.93,.22,.65,3.02,2.15,8.42,2.88-.05-.97-.08-1.95-.08-2.92v.02Z" style="fill: #322b6a;"></path><path d="M75,31.66c0,.97-.03,1.95-.08,2.92,5.4-.73,8.2-2.23,8.42-2.93-.22-.65-3.02-2.15-8.42-2.88,.05,.97,.08,1.95,.08,2.92v-.02Z" style="fill: #322b6a;"></path><path d="M72.68,17.31c.95,2.15,1.6,4.98,1.95,8.05,3.07,.37,5.9,1.02,8.05,1.95-1.45-4.78-5.23-8.57-10.02-10.02l.02,.02Z" style="fill: #322b6a;"></path><path d="M98.33,23.33h-5.25c-.38-1.12-.83-2.22-1.35-3.27l3.72-3.72c.32-.32,.48-.73,.48-1.18s-.18-.87-.48-1.18l-9.43-9.43c-.65-.65-1.7-.65-2.35,0l-3.72,3.72c-1.05-.52-2.15-.98-3.27-1.35V1.66c0-.92-.75-1.67-1.67-1.67h-13.33c-.92,0-1.67,.75-1.67,1.67V6.91c-1.12,.38-2.22,.83-3.27,1.35l-3.72-3.72c-.65-.65-1.7-.65-2.35,0l-9.43,9.43c-.32,.32-.48,.73-.48,1.18s.18,.87,.48,1.18l3.72,3.72c-.52,1.05-.98,2.15-1.35,3.27h-5.25c-.92,0-1.67,.75-1.67,1.67v13.33c0,.92,.75,1.67,1.67,1.67h5.25c.38,1.12,.83,2.22,1.35,3.27l-3.72,3.72c-.32,.32-.48,.73-.48,1.18s.18,.87,.48,1.18l9.43,9.43c.65,.65,1.7,.65,2.35,0l3.72-3.72c1.05,.52,2.15,.98,3.27,1.35v5.25c0,.92,.75,1.67,1.67,1.67h13.33c.92,0,1.67-.75,1.67-1.67v-5.25c1.12-.38,2.22-.83,3.27-1.35l3.72,3.72c.65,.65,1.7,.65,2.35,0l9.43-9.43c.32-.32,.48-.73,.48-1.18s-.18-.87-.48-1.18l-3.72-3.72c.52-1.05,.98-2.15,1.35-3.27h5.25c.92,0,1.67-.75,1.67-1.67v-13.33c0-.92-.75-1.67-1.67-1.67Zm-30,26.67c-10.12,0-18.33-8.22-18.33-18.33s8.22-18.33,18.33-18.33,18.33,8.22,18.33,18.33-8.22,18.33-18.33,18.33Z" style="fill: #322b6a;"></path><path d="M68.33,28.33c-1.15,0-2.22,.03-3.23,.1-.07,1.02-.1,2.08-.1,3.23s.03,2.22,.1,3.23c1.02,.07,2.08,.1,3.23,.1s2.22-.03,3.23-.1c.07-1.02,.1-2.08,.1-3.23s-.03-2.22-.1-3.23c-1.02-.07-2.08-.1-3.23-.1Z" style="fill: #322b6a;"></path><path d="M72.68,46.01c4.78-1.45,8.57-5.23,10.02-10.02-2.15,.95-4.98,1.6-8.05,1.95-.37,3.07-1.02,5.9-1.95,8.05l-.02,.02Z" style="fill: #322b6a;"></path><path d="M74.68,72.46l-11.02,5.35c-.83,.4-1.17,1.4-.77,2.23s1.4,1.18,2.23,.77l11.02-5.35c2.4-1.15,5.2-.22,6.52,2.17,.45,.82,.68,1.73,.68,2.67,0,2.05-1.08,3.88-2.82,4.78l-15.43,8.02c-8.77,4.55-18.92,4.75-27.85,.55l-20.57-9.9v-25.43h12.03c3.65,0,7.17,1.33,9.92,3.75l15.98,14.08c1.68,1.35,1.95,3.8,.62,5.48-1.27,1.58-3.52,1.93-5.2,.82l-15.75-10.5c-.77-.52-1.8-.3-2.32,.47s-.3,1.8,.47,2.32l15.75,10.5c1.25,.83,2.63,1.23,4.03,1.23,2.12,0,4.2-.95,5.63-2.73,2.48-3.12,1.98-7.67-1.07-10.12l-15.93-14.03c-3.35-2.95-7.65-4.58-12.12-4.58h-12.03v-3.33c0-.92-.75-1.67-1.67-1.67H1.67c-.92,0-1.67,.75-1.67,1.67v38.33c0,.92,.75,1.67,1.67,1.67H15c.92,0,1.67-.75,1.67-1.67v-2.53l19.13,9.2c4.73,2.23,9.78,3.35,14.82,3.35,5.48,0,10.95-1.32,16-3.93l15.43-8.02c2.85-1.48,4.62-4.45,4.62-7.75,0-1.48-.38-2.97-1.1-4.28-2.2-3.95-6.88-5.48-10.88-3.55v-.02Z" style="fill: #322b6a;"></path></svg>