<svg xmlns="http://www.w3.org/2000/svg" id="Layer_1" data-name="Layer 1" viewBox="0 0 100 100"><g><path d="M14.01,52.57c1.24-5.03,2.67-10.85,3.58-14.67,1.06-4.46,4.85-7.7,8.97-7.7h7.98c.81,0,1.47-.66,1.47-1.47v-4.45c0-.81-.66-1.47-1.47-1.47h-1.38c-1.57,0-2.85-1.28-2.85-2.85v-.03c0-4.27-2.49-7.03-6.37-7.03-2.15-.03-4.3-.03-6.43,0-3.61,.03-6.12,2.82-6.12,6.82,0,4.63,.08,12.57,0,32.55,0,1.55,2.24,1.82,2.61,.3Z" style="fill: #322b6a;"></path><path d="M22.08,40.79c-.08,.34-5.32,22.26-7.22,30.49-.92,3.9,1.12,6.72,4.68,6.72H55.76c-.36-1.54,.06-3.02,.27-4.28-.17-.17-.34-.3-.48-.44-1.09-1.02-2.71-2.51-2.71-4.92,0-2.64,1.93-4.06,3.22-5.36-.07-.14-.14-.44-.17-.68-.27-1.43-.68-3.6,.71-5.5,1.48-2.09,3.94-2.12,5.66-2.41,.92-1.83,1.69-3.89,4.07-4.68,1.99-.67,4.31,.25,6.07,1.42,1.57-1.05,4.04-2.14,6.04-1.42,1.97,.64,2.95,2.31,3.6,3.59,.95-4,1.9-8.01,2.82-12.01,.98-4.21-.95-6.95-4.82-6.95-16.89,0-33.78,0-50.68,.03-3.53,0-6.41,2.54-7.29,6.38Zm13.06,30.83c0,.87-.7,1.57-1.57,1.57h-7c-2.39,0-4.17-2.19-3.67-4.54,.75-3.62,1.25-6.11,1.72-8.19,.19-.85,1.03-1.38,1.87-1.19,.85,.19,1.38,1.03,1.19,1.87-.42,1.9-.81,3.76-1.71,8.15-.06,.26,.05,.45,.13,.53,.36,.46,.61,.1,7.48,.23,.87,0,1.57,.7,1.57,1.57Z" style="fill: #322b6a;"></path><path d="M74.7,31.1c1.39,0,2.51-1.12,2.51-2.51V11.26c0-.84-.36-1.64-.99-2.19L66.82,.85c-.62-.55-1.43-.85-2.26-.85h-21.07c-1.81,0-3.28,1.36-3.28,2.99V28.59c0,1.39,1.12,2.51,2.51,2.51h31.98ZM52.01,12.1h13.41c.87,0,1.57,.7,1.57,1.57s-.7,1.57-1.57,1.57h-13.41c-.87,0-1.57-.7-1.57-1.57s.7-1.57,1.57-1.57Zm-2.18,8.59h19.09c.87,0,1.57,.7,1.57,1.57s-.7,1.57-1.57,1.57h-19.09c-.87,0-1.57-.7-1.57-1.57s.7-1.57,1.57-1.57Z" style="fill: #322b6a;"></path><path d="M81.1,99.74l2.03-2.99c.1-.2,.31-.27,.51-.2l3.43,1.15c.44,.17,.78-.34,.58-.88l-4.78-14.11c-.47,.08-1.05,.22-1.46,.51-1.24,.9-1.61,3.82-3.09,4.27-.88,.31-1.88-.35-2.48-.64,1.01,2.99,4.46,13.19,4.24,12.55,.2,.54,.75,.75,1.02,.34Z" style="fill: #322b6a;"></path><path d="M60.88,96.42c.2-.07,.41,.03,.51,.2l1.8,3.16c.24,.41,.81,.24,1.05-.31,.13-.32,5.74-13.62,5.39-12.79-.31,.17-.61,.34-.88,.47h-.03c-.68,.34-1.29,.54-1.87,.34-1.48-.44-1.88-3.36-3.09-4.27-.31-.24-.71-.34-1.15-.44-1.18,2.79-5.99,14.22-5.73,13.6-.24,.51,.03,1.05,.51,.92l3.49-.88Z" style="fill: #322b6a;"></path><path d="M85.47,64.13c-.47-1.53,.95-4,.03-5.26-.94-1.25-3.81-.66-5.02-1.63-1.26-.92-1.56-3.77-3.05-4.27-1.46-.44-3.43,1.66-5.02,1.66s-3.56-2.1-5.02-1.66c-1.49,.51-1.8,3.36-3.05,4.27-1.26,.95-4.1,.37-5.02,1.63-.92,1.26,.51,3.73,.03,5.26-.47,1.46-3.12,2.65-3.12,4.24s2.65,2.81,3.12,4.27c.48,1.49-.95,4-.03,5.26l.1,.1c1,1.14,3.72,.56,4.92,1.49,1.25,.92,1.56,3.8,3.05,4.27,.85,.27,1.8-.27,2.78-.81h.03c2.07-1.13,2.45-1.1,4.71,.17,.88,.48,1.73,.88,2.51,.64,1.49-.47,1.8-3.36,3.05-4.27,1.25-.91,4.12-.36,5.02-1.59,.92-1.26-.51-3.77-.03-5.26,.47-1.46,3.12-2.65,3.12-4.27s-2.65-2.78-3.12-4.24Zm-13.06,11.54c-4.03,0-7.29-3.26-7.29-7.29s3.26-7.29,7.29-7.29,7.29,3.26,7.29,7.29-3.26,7.29-7.29,7.29Z" style="fill: #322b6a;"></path><path d="M76.76,66.95h-2.66c-.19,0-.37-.13-.43-.31l-.82-2.53c-.13-.41-.72-.41-.86,0l-.82,2.53c-.06,.19-.23,.31-.43,.31h-2.66c-.44,0-.62,.56-.26,.81l2.15,1.56c.16,.11,.22,.32,.16,.5l-.82,2.53c-.13,.41,.34,.76,.69,.5l2.15-1.56c.16-.11,.37-.11,.53,0l2.15,1.56c.35,.26,.83-.09,.69-.5l-.82-2.53c-.06-.19,0-.39,.16-.5l2.15-1.56c.35-.26,.17-.81-.26-.81Z" style="fill: #322b6a;"></path></g></svg>