<svg xmlns="http://www.w3.org/2000/svg" xmlns:xlink="http://www.w3.org/1999/xlink" id="Layer_1" x="0px" y="0px" viewBox="0 0 200 200" style="enable-background:new 0 0 200 200;" xml:space="preserve"><style type="text/css">	.st0{fill:#322B6A;}</style><g>	<path class="st0" d="M200,146.5c-1,1.4-1.9,2.9-3.1,4.1c-4.6,4.7-9.3,9.3-13.9,14c-1.8,1.8-3.9,2.3-6.3,1.5  c-2.3-0.8-3.6-2.5-3.9-4.9c-0.2-1.9,0.4-3.5,1.8-4.8c1.6-1.6,3.3-3.3,5.4-5.3c-1.2-0.1-1.9-0.1-2.5-0.1c-11.3,0-22.6,0-34,0  c-5,0-7.2-2.2-7.2-7.1c0-12.1,0-24.2,0-36.3c0-0.7,0-1.4,0-2.3H148v33.8h31.9c-2-2-3.7-3.7-5.4-5.4c-3.2-3.4-1.7-8.6,2.7-9.8  c2.1-0.6,4,0,5.6,1.5c5.2,5.1,10.3,10.3,15.4,15.5c0.8,0.8,1.2,1.8,1.8,2.7L200,146.5L200,146.5z"></path>	<path class="st0" d="M148.1,93.3c0-3.8-0.1-7.4,0.1-11.1c0-0.5,0.8-1.2,1.4-1.5c9-4.5,12.2-15.7,6.9-24.1c-3.8-6-10.9-9-17.9-7.4  c-6.8,1.5-12.1,7.4-13,14.4c-0.8,6.8,2.7,13.7,9,16.8c1.5,0.8,2,1.6,1.9,3.2c-0.1,3.2,0,6.4,0,9.7h-30.5c0-3.8-0.1-7.7,0.1-11.5  c0-0.4,0.9-0.9,1.5-1.2c6.2-3.1,9.9-9.7,9.4-16.7c-0.6-6.8-5.4-12.6-12.1-14.6c-8.2-2.4-17,1.8-20.2,9.7c-3.3,8,0,17.2,7.7,21.2  c1.5,0.8,2,1.6,1.9,3.3c-0.2,3.2,0,6.4,0,9.7H63.7c0-3.8,0-7.6,0.1-11.4c0-0.4,0.9-0.9,1.5-1.2c6.3-3.2,10.1-9.9,9.3-16.9  c-0.7-7-5.8-12.8-12.6-14.5c-8.2-2.1-16.8,2.3-19.8,10.3c-3,8,0.2,17,7.8,20.8c1.6,0.8,2.1,1.7,2,3.4c-0.1,3.2,0,6.3,0,9.5  c-12.1,1-23.6,0.3-32.3-9.5c-7.9-8.9-10.1-19.2-6-30.3C17.9,42.4,26.3,36,38.1,34.4c7.2-1,13.9,0.7,20.1,4.6c0.3,0.2,0.7,0.4,1,0.6  C70.6,22.7,92,19.7,107.1,28.5c7.4-11.7,18-18.9,31.8-20.9c9.6-1.3,18.7,0.4,27.1,5.1c17.3,9.7,25.8,29.6,20.9,48.4  C181.7,81,164.2,92.5,148.1,93.3L148.1,93.3z"></path>	<path class="st0" d="M20.4,151.6c1.6,1.5,3.2,3,4.8,4.6c2.7,2.7,2.8,6.3,0.3,8.7c-2.4,2.3-6,2.2-8.5-0.4  c-4.9-4.9-9.9-9.8-14.8-14.8c-2.9-2.9-2.8-6.2,0.1-9.1c4.9-4.9,9.7-9.8,14.6-14.6c2.7-2.7,6.2-2.8,8.7-0.4c2.4,2.4,2.3,6-0.4,8.7  c-1.5,1.6-3.2,3-4.8,4.5c0.1,0.1,0.2,0.3,0.3,0.5H52v-33.7h11.7v2c0,12.2,0,24.5,0,36.7c0,4.7-2.3,6.9-7,6.9c-11.3,0-22.6,0-34,0  c-0.7,0-1.4,0-2.1,0C20.6,151.2,20.5,151.4,20.4,151.6L20.4,151.6z"></path>	<path class="st0" d="M106.3,172.5c1.6-1.6,3.1-3.2,4.7-4.8c2.6-2.6,6.1-2.8,8.5-0.4c2.5,2.4,2.4,6-0.3,8.7  c-4.9,4.9-9.8,9.9-14.8,14.8c-2.9,2.9-6.2,2.8-9.1-0.1c-4.9-4.9-9.8-9.7-14.6-14.6c-2.7-2.7-2.8-6.2-0.4-8.7  c2.4-2.4,5.9-2.3,8.7,0.4c1.6,1.6,3.1,3.2,5,5.2v-67.6h11.7v66.8C106,172.3,106.1,172.4,106.3,172.5L106.3,172.5z"></path>	<path class="st0" d="M57.9,60.6c2.8,0,5,2.4,5,5.2c0,2.8-2.3,5-5.2,5c-2.8,0-5-2.3-5-5.2C52.8,62.8,55.1,60.5,57.9,60.6L57.9,60.6z  "></path>	<path class="st0" d="M100.1,70.7c-2.8,0-5.1-2.2-5.2-5c0-2.8,2.2-5.1,5-5.2c2.8,0,5.1,2.2,5.2,5C105.1,68.4,102.9,70.7,100.1,70.7z  "></path>	<path class="st0" d="M141.9,70.7c-2.8-0.1-4.9-2.5-4.8-5.3c0.1-2.8,2.6-5,5.4-4.8c2.8,0.2,4.9,2.6,4.8,5.4  C147.1,68.7,144.7,70.9,141.9,70.7L141.9,70.7z"></path></g></svg>