<svg xmlns="http://www.w3.org/2000/svg" id="Layer_1" data-name="Layer 1" viewBox="0 0 100 100"><path d="M92.86,7.14H7.14C3.2,7.14,0,10.34,0,14.28c0,0,0,0,0,0v7.14H27.84c1.14,0,2.24-.45,3.04-1.27,1.48-1.47,3.48-2.3,5.57-2.3h63.55v-3.57c0-3.94-3.19-7.14-7.14-7.14,0,0,0,0,0,0ZM9.82,16.07c-.99-.01-1.77-.82-1.76-1.81,.01-.97,.79-1.75,1.76-1.76,.99,.01,1.77,.82,1.76,1.81-.01,.97-.79,1.75-1.76,1.76Zm7.14,0c-.99-.01-1.77-.82-1.76-1.81,.01-.97,.79-1.75,1.76-1.76,.99,.01,1.77,.82,1.76,1.81-.01,.97-.79,1.75-1.76,1.76Zm7.14,0c-.99-.01-1.77-.82-1.76-1.81,.01-.97,.79-1.75,1.76-1.76,.99,.01,1.77,.82,1.76,1.81-.01,.97-.79,1.75-1.76,1.76Z" style="fill: #322b6a;"></path><path d="M33.41,22.7c-1.48,1.47-3.48,2.3-5.57,2.3H0v50c0,3.94,3.2,7.14,7.14,7.14H29.71c-.03-.53-.21-1.04-.52-1.46-.47-.82-1.36-1.3-2.3-1.23-7-.78-5.67-12.1-4.73-17.04,.53-2.2,2.36-3.84,4.61-4.13l.75-.05c.86-.14,1.58-.72,1.89-1.54,.43-.76,.4-1.7-.07-2.43-2.99-6.44,7.38-10.99,12.12-12.66,2.38-.83,5.01,.11,6.34,2.25,.89,1.21,2.6,1.47,3.81,.58,.17-.12,.32-.26,.46-.42,.99-1.67,2.79-2.69,4.73-2.7,4.8,.94,9.22,3.26,12.71,6.68,1.72,1.63,2.17,4.18,1.13,6.3-.47,.72-.49,1.64-.05,2.38,.31,.85,1.07,1.45,1.96,1.55,5.63,.17,5.95,6.34,6.02,10.64-.08,4.04-.29,9.98-5.36,10.57-.88-.09-1.75,.29-2.27,1.02-.39,.48-.62,1.06-.66,1.68h22.57c3.94,0,7.14-3.2,7.14-7.14h0V21.43H36.45c-1.14,0-2.24,.45-3.04,1.27Z" style="fill: #322b6a;"></path><path d="M50,60.84c-10.62,.33-10.62,15.73,0,16.07,10.62-.34,10.62-15.74,0-16.07Z" style="fill: #322b6a;"></path><path d="M72.8,75.89c.76-.09,1.38-.64,1.55-1.38,.86-3.72,.86-7.58,0-11.3-.18-.74-.8-1.28-1.55-1.38-3.49-.16-6.19-3.12-6.03-6.62,.04-.93,.29-1.83,.72-2.65,.28-.68,.11-1.46-.43-1.96-2.78-2.6-6.11-4.53-9.75-5.64-.96-.24-1.95,.24-2.36,1.14-2.19,2.74-6.19,3.19-8.93,1-.47-.37-.88-.81-1.23-1.3-.44-.79-1.39-1.13-2.23-.8-3.6,1.11-6.9,3.03-9.64,5.61-.67,.71-.73,1.81-.14,2.59,1.31,3.21-.23,6.87-3.44,8.18-.49,.2-1,.34-1.53,.41-.98-.11-1.89,.49-2.18,1.43-.86,3.72-.86,7.58,0,11.3,.28,.95,1.2,1.55,2.18,1.43,2.02,.21,3.79,1.45,4.66,3.29,1.06,1.83,1.07,4.09,.02,5.93-.28,.68-.11,1.46,.43,1.96,1.39,1.3,2.92,2.44,4.57,3.39,10.02,5.6,4.83-.87,12.55-1.29,1.92-.05,3.75,.84,4.91,2.38,.33,.72,1.03,1.2,1.82,1.25,3.86-1,7.4-2.98,10.29-5.73,.67-.71,.73-1.81,.14-2.59-1.3-3.22,.25-6.89,3.48-8.19,.67-.27,1.39-.43,2.11-.45Zm-22.8,4.59c-6.41-.01-11.59-5.2-11.61-11.61,.58-15.38,22.64-15.37,23.21,0-.01,6.41-5.2,11.59-11.61,11.61Z" style="fill: #322b6a;"></path></svg>