<svg xmlns="http://www.w3.org/2000/svg" id="Layer_1" data-name="Layer 1" viewBox="0 0 200 200"><path d="M150.02,162.64c.15,4.77,2.66,9.94,6.47,14.56,2.57,3.11,2.37,4.74-1.03,7-10.81,7.2-22.62,11.95-35.35,14.44-3.11,.61-4.49-.49-4.8-3.66-.54-5.58-2.07-10.8-5.66-15.25-5.72-7.08-14.03-7.02-19.65,.13-3.48,4.43-4.95,9.6-5.52,15.1-.35,3.34-1.76,4.28-5.02,3.56-12.63-2.79-24.49-7.43-35.35-14.53-3.11-2.04-3.32-3.49-.92-6.31,3.88-4.55,6.65-9.64,6.87-15.75,.3-8.47-5.42-13.54-13.89-12.58-5.74,.65-10.64,3.09-14.98,6.78-2.91,2.47-4.36,2.28-6.46-.92-6.98-10.67-11.91-22.19-14.45-34.71-.66-3.27,.67-4.71,3.93-5.34,3.92-.75,7.76-1.96,11.59-3.1,1.06-.32,2.02-1.05,2.95-1.7,8.28-5.81,8.31-14.69,.09-20.58-4.5-3.22-9.62-4.65-15.06-5.08-3.42-.27-4.24-1.3-3.57-4.67,2.5-12.6,7.3-24.24,14.45-34.91,2.28-3.4,3.63-3.61,6.8-1.15,4.65,3.61,9.74,6.18,15.74,6.53,8.83,.52,14.2-5.55,12.7-14.31-.9-5.25-3.39-9.71-6.81-13.71-2.68-3.13-2.49-4.45,.97-6.69,10.92-7.11,22.77-11.94,35.57-14.45,3.14-.61,4.53,.39,4.85,3.57,.56,5.51,2,10.69,5.51,15.1,5.99,7.51,14.8,7.35,20.55-.36,3.19-4.28,4.74-9.21,4.99-14.45,.15-3.23,2.76-4.4,5.42-3.85,12.84,2.66,24.71,7.58,35.65,14.79,2.74,1.8,2.96,3.34,.82,5.9-3.14,3.76-5.59,7.87-6.64,12.71-2.35,10.87,4.68,17.86,15.55,15.46,4.69-1.04,8.76-3.28,12.46-6.3,2.77-2.26,4.48-2.02,6.46,.91,7.21,10.71,12.03,22.42,14.62,35.06,.59,2.87-.76,4.55-3.74,4.82-5.79,.52-11.2,2.12-15.75,5.93-6.7,5.6-6.57,13.63,.31,19.06,4.48,3.54,9.73,5.01,15.3,5.54,3.48,.33,4.29,1.27,3.62,4.61-2.58,12.86-7.49,24.74-14.87,35.6-1.8,2.65-3.55,2.87-6,.81-4.47-3.75-9.47-6.3-15.36-6.92-7.8-.83-13.36,4.13-13.34,13.29ZM100,42.15c-32.3,.1-58.44,26.05-58.39,57.96,.05,31.81,26.21,57.66,58.41,57.73,32.26,.07,58.6-26.07,58.49-58.06-.1-31.8-26.43-57.73-58.51-57.63Z" style="fill: #322b6a;"></path><path d="M86.18,96.85c5.71,0,11.42-.04,17.13,.03,1.25,.01,1.86-.33,2.35-1.54,2.16-5.3,6.96-8.62,12.32-8.45,5.82,.18,9.85,3.15,12.15,8.43,.46,1.05,.87,1.58,2.13,1.58,1.84,0,3.1,1.36,3.12,3.01,.02,1.56-1.32,3.16-3.05,3.16-1.55,0-2.1,.65-2.69,1.97-2.35,5.19-6.45,8.08-12.18,8.04-5.73-.05-9.77-3.05-12.04-8.25-.59-1.36-1.25-1.72-2.63-1.71-10.81,.05-21.63,.03-32.44,.03-.47,0-.94,0-1.41,0-2.51-.02-4.15-1.25-4.18-3.11-.03-1.87,1.63-3.18,4.1-3.19,5.78-.01,11.55,0,17.33,0Z" style="fill: #322b6a;"></path><path d="M97.36,119.36c7.47,0,14.92,0,22.37,0,3.9,0,7.79,0,11.69,0,2.69,0,4.01,1.06,3.98,3.15-.03,1.99-1.49,3.14-4.09,3.15-10.61,.01-21.22,.04-31.83-.03-1.54,0-2.3,.39-2.97,1.88-2.32,5.17-6.36,8.09-12.13,8.06-5.77-.03-9.78-3-12.06-8.18-.64-1.47-1.4-1.79-2.83-1.76-3.17,.08-4.74-1.02-4.73-3.08,0-2.03,1.71-3.27,4.71-3.15,1.55,.06,2.25-.39,2.91-1.91,2.25-5.12,6.32-8.04,11.94-8.08,5.7-.04,9.77,2.87,12.21,8.02,.29,.6,.53,1.22,.84,1.92Z" style="fill: #322b6a;"></path><path d="M115.04,80.95c-5.37,0-10.74,.02-16.11-.02-1.13,0-1.73,.27-2.23,1.43-2.29,5.36-6.33,8.49-12.26,8.5-5.93,0-9.99-3.08-12.27-8.47-.48-1.13-1.03-1.55-2.2-1.46-.86,.07-1.76,.07-2.6-.12-1.62-.36-2.63-1.47-2.59-3.14,.03-1.69,1.19-3.11,2.74-2.9,3.31,.46,4.45-1.34,5.87-3.84,2.46-4.35,6.59-6.48,11.61-6.23,5.36,.27,9.26,3.04,11.41,7.94,.73,1.65,1.56,2.05,3.26,2.03,10.54-.08,21.08-.04,31.62-.04,2.75,0,4.09,1,4.1,3.04,.01,1.98-1.63,3.27-4.24,3.27-5.37,.01-10.74,0-16.11,0Z" style="fill: #322b6a;"></path></svg>