<svg xmlns="http://www.w3.org/2000/svg" id="Layer_1" data-name="Layer 1" viewBox="0 0 100 100"><path d="M25.84,38.87c1.68-5.46,4.56-10.4,8.33-14.51,.04,.06,.09,.11,.14,.17l3.77,3.77c.64,.64,1.67,.64,2.31,0,.64-.64,.64-1.67,0-2.31l-3.77-3.77c-.05-.05-.11-.1-.17-.14,6.39-5.87,14.78-9.57,24.03-9.96-.01,.08-.02,.15-.02,.23v5.33c0,.9,.73,1.63,1.63,1.63s1.63-.73,1.63-1.63v-5.33c0-.08,0-.15-.02-.23,9.25,.39,17.65,4.1,24.03,9.96-.06,.04-.11,.09-.17,.14l-3.77,3.77c-.64,.64-.64,1.67,0,2.31,.64,.64,1.67,.64,2.31,0l3.77-3.77c.05-.05,.1-.11,.15-.17,5.87,6.39,9.57,14.78,9.96,24.03-.07-.01-.15-.02-.23-.02h-5.33c-.9,0-1.63,.73-1.63,1.63s.73,1.63,1.63,1.63h5.33c.08,0,.15,0,.23-.02-.39,9.25-4.09,17.65-9.96,24.03-.04-.06-.09-.11-.15-.17l-3.77-3.77c-.64-.64-1.67-.64-2.31,0-.64,.64-.64,1.67,0,2.31l3.77,3.77c.05,.05,.11,.1,.17,.15-6.38,5.86-14.77,9.57-24.02,9.96v-5.3c0-.9-.73-1.63-1.63-1.63s-1.63,.73-1.63,1.63v5.3c-8.22-.35-15.76-3.32-21.82-8.09,4.26-4.4,6.89-10.39,6.89-16.99,0-11.86-8.48-21.76-19.7-23.95Zm37.66,4.78c-3.15-.72-6.62,.16-9.09,2.63-3.83,3.83-3.83,10.05,0,13.89,3.83,3.83,10.05,3.83,13.89,0,2.47-2.47,3.35-5.93,2.61-9.1l10.42-13.23c1.02-1.3,.91-3.16-.26-4.33s-3.03-1.28-4.33-.26c0,0-9.61,7.57-13.24,10.39Z" style="fill: #322b6a; fill-rule: evenodd;"></path><path d="M30.1,13.61h-11.03c-.9,0-1.63,.73-1.63,1.63s.73,1.63,1.63,1.63h11.03c.9,0,1.63-.73,1.63-1.63s-.73-1.63-1.63-1.63Z" style="fill: #322b6a; fill-rule: evenodd;"></path><path d="M24.23,20.36H13.2c-.9,0-1.63,.73-1.63,1.63s.73,1.63,1.63,1.63h11.03c.9,0,1.63-.73,1.63-1.63s-.73-1.63-1.63-1.63Z" style="fill: #322b6a; fill-rule: evenodd;"></path><path d="M18.36,27.11H7.33c-.9,0-1.63,.73-1.63,1.63s.73,1.63,1.63,1.63h11.03c.9,0,1.63-.73,1.63-1.63s-.73-1.63-1.63-1.63Z" style="fill: #322b6a; fill-rule: evenodd;"></path><path d="M68.24,49.17c-.55,.71-.76,1.63-.54,2.5,.55,2.14-.03,4.51-1.71,6.19-2.56,2.56-6.71,2.56-9.27,0-2.56-2.56-2.56-6.71,0-9.27,1.68-1.68,4.04-2.26,6.19-1.73,.86,.21,1.78,.01,2.48-.54,3.53-2.75,13.38-10.5,13.38-10.5,0,0-7.75,9.84-10.52,13.36Z" style="fill: #322b6a; fill-rule: evenodd;"></path><path d="M21.14,41.67c11.67,0,21.14,9.47,21.14,21.14s-9.47,21.14-21.14,21.14S0,74.48,0,62.81s9.47-21.14,21.14-21.14Zm-4.96,31.14c1.38-1.33,3.09-2.14,4.96-2.14s3.58,.81,4.96,2.14c.65,.62,1.68,.6,2.31-.04,.62-.65,.6-1.68-.04-2.31-2-1.93-4.51-3.05-7.22-3.05s-5.22,1.12-7.22,3.05c-.65,.62-.67,1.66-.04,2.31,.63,.65,1.66,.67,2.31,.04Zm-4.17-5.88c2.53-2.44,5.69-3.91,9.12-3.91s6.59,1.47,9.12,3.91c.65,.63,1.68,.61,2.31-.04,.62-.65,.6-1.68-.04-2.31-3.16-3.04-7.11-4.82-11.39-4.82s-8.23,1.78-11.39,4.82c-.65,.62-.67,1.66-.04,2.31,.62,.65,1.66,.67,2.31,.04Zm-3.56-5.88c3.52-3.39,7.91-5.43,12.68-5.43s9.16,2.04,12.68,5.43c.65,.62,1.68,.6,2.31-.04,.62-.65,.6-1.68-.04-2.31-4.14-3.99-9.33-6.34-14.94-6.34s-10.8,2.35-14.94,6.34c-.65,.63-.67,1.66-.04,2.31,.62,.65,1.66,.67,2.31,.04Z" style="fill: #322b6a; fill-rule: evenodd;"></path></svg>