<svg xmlns="http://www.w3.org/2000/svg" id="Layer_1" data-name="Layer 1" viewBox="0 0 100 100"><path d="M7.05,74.4c-1.29-2.22-1.97-4.75-1.96-7.32,0-7.68,5.89-14.07,13.54-14.71-.02-.21-.02-.43-.02-.64H.05c.27,8.03,2.49,15.87,6.46,22.86l.54-.18Z" style="fill: #322b6a;"></path><path d="M24.95,17.65c-2.96-1.36-5.82-2.94-8.55-4.71C6.42,21.99,.53,34.69,.05,48.15H18.61c.09-10.48,2.24-20.85,6.34-30.5Z" style="fill: #322b6a;"></path><path d="M39.39,51.72H22.18c0,.27,.02,.52,.04,.79,4.97,.81,9.18,4.1,11.18,8.71,.86-3.76,2.98-7.11,6-9.5Z" style="fill: #322b6a;"></path><path d="M71.86,19.01c-6.39,2.57-13.19,4-20.07,4.23v24.91h26.04c-.08-10.01-2.1-19.91-5.96-29.14Z" style="fill: #322b6a;"></path><path d="M77.82,51.72h-17.25c3.04,2.41,5.16,5.79,6,9.57,1.99-4.65,6.22-7.97,11.21-8.79,.02-.27,.04-.52,.04-.79Z" style="fill: #322b6a;"></path><path d="M93.48,74.56c3.98-6.97,6.2-14.81,6.46-22.84h-18.55c0,.21,0,.43-.02,.64,8.12,.68,14.16,7.81,13.48,15.93-.18,2.15-.83,4.23-1.9,6.1l.52,.16Z" style="fill: #322b6a;"></path><path d="M81.39,48.15h18.55c-.47-13.46-6.36-26.16-16.34-35.21-2.73,1.77-5.59,3.35-8.55,4.71,4.1,9.65,6.25,20.02,6.34,30.5Z" style="fill: #322b6a;"></path><path d="M73.5,14.44c2.49-1.15,4.9-2.46,7.23-3.91-5.01-3.91-10.73-6.84-16.84-8.61,3.98,3.51,7.25,7.76,9.61,12.52Z" style="fill: #322b6a;"></path><path d="M51.79,.06V19.67c6.35-.23,12.61-1.54,18.52-3.89C65.61,6.78,59.07,.88,51.79,.06Z" style="fill: #322b6a;"></path><path d="M48.21,19.67V.06c-7.29,.82-13.82,6.71-18.52,15.71,5.9,2.35,12.17,3.67,18.52,3.89Z" style="fill: #322b6a;"></path><path d="M36.11,1.92c-6.11,1.77-11.82,4.69-16.84,8.61,2.33,1.45,4.74,2.76,7.23,3.91,2.36-4.76,5.62-9.01,9.61-12.52Z" style="fill: #322b6a;"></path><path d="M19.86,55.88c-6.18,0-11.19,5-11.2,11.18,0,6.18,5,11.19,11.18,11.2,6.18,0,11.19-5,11.2-11.18,0-6.18-5-11.18-11.18-11.2Z" style="fill: #322b6a;"></path><path d="M80.14,78.26c6.18,0,11.19-5,11.2-11.18,0-6.18-5-11.19-11.18-11.2s-11.19,5-11.2,11.18c0,0,0,.01,0,.02,.01,6.17,5.01,11.17,11.18,11.18Z" style="fill: #322b6a;"></path><path d="M48.21,23.24c-6.89-.23-13.68-1.66-20.07-4.23-3.86,9.23-5.89,19.13-5.96,29.14h26.04V23.24Z" style="fill: #322b6a;"></path><path d="M36.54,65.01c0,7.42,6.01,13.44,13.43,13.45,7.42,0,13.44-6.01,13.45-13.43,0-7.42-6.01-13.44-13.43-13.45h0c-7.42,0-13.43,6.01-13.45,13.43Z" style="fill: #322b6a;"></path><path d="M9.32,77.4l-2.7,.89C2.67,79.62,0,83.33,0,87.51v4.07c0,2.23,1.81,4.04,4.04,4.05H22.27c-.01-.09-.02-.19-.02-.29-.16-5.16-.16-10.77,3.54-14.77-5.62,2.43-12.16,1.17-16.46-3.18Z" style="fill: #322b6a;"></path><path d="M93.37,78.29l-2.7-.89c-4.32,4.37-10.89,5.62-16.52,3.14,2.3,2.73,3.55,6.18,3.54,9.75v5.05c0,.1,0,.19-.02,.29h18.29c2.23-.01,4.03-1.82,4.04-4.05v-4.07c0-4.18-2.67-7.89-6.63-9.21Z" style="fill: #322b6a;"></path><path d="M65.34,79.03s-4.03-1.35-4.04-1.36c-6.47,5.7-16.17,5.7-22.64,0l-4,1.34c-5.17,1.31-8.8,5.95-8.84,11.29v5.05c0,.1,0,.19,.02,.29,.14,2.42,2.15,4.31,4.57,4.3h39.13c2.42,0,4.43-1.88,4.57-4.3,.01-.09,.02-.19,.02-.29v-5.05c-.04-5.31-3.64-9.94-8.79-11.27Z" style="fill: #322b6a;"></path></svg>