<svg xmlns="http://www.w3.org/2000/svg" id="Layer_1" data-name="Layer 1" viewBox="0 0 100 100"><g id="_09" data-name="09"><path d="M99.72,87.92c-.18-.44-.44-.83-.77-1.16l-7.14-7.14c-1.4-1.4-3.66-1.4-5.05,0-1.4,1.4-1.4,3.66,0,5.05l1.05,1.05h-14.17c11.2-7.44,18.68-20,19.15-34.31l1.12,1.12c.7,.7,1.61,1.05,2.53,1.05s1.83-.35,2.53-1.05c1.4-1.4,1.4-3.66,0-5.05l-7.14-7.14s-.08-.04-.11-.08C87.37,21.76,71.06,7.86,51.41,7.21l1.12-1.12c1.4-1.4,1.4-3.66,0-5.05-1.4-1.4-3.66-1.4-5.05,0l-7.14,7.14s-.04,.08-.08,.11C21.75,12.63,7.86,28.95,7.21,48.59l-1.12-1.12c-1.4-1.4-3.66-1.4-5.05,0s-1.4,3.66,0,5.05l7.14,7.14s.08,.04,.11,.08c2.52,10.78,9.1,20.02,18.06,25.97H3.57c-1.97,0-3.57,1.6-3.57,3.57s1.6,3.57,3.57,3.57H87.81l-1.05,1.05c-1.4,1.4-1.4,3.66,0,5.05,.7,.7,1.61,1.05,2.53,1.05s1.83-.35,2.53-1.05l7.14-7.14c.33-.33,.59-.73,.77-1.16,.36-.87,.36-1.86,0-2.73ZM15.16,57.75l5.22-5.22c1.4-1.4,1.4-3.66,0-5.05-1.4-1.4-3.66-1.4-5.05,0l-.97,.97c.71-16.33,12.4-29.84,27.89-33.29l5.23,5.23c.7,.7,1.61,1.05,2.53,1.05s1.83-.35,2.53-1.05c1.4-1.4,1.4-3.66,0-5.05l-.97-.97c16.33,.71,29.84,12.4,33.28,27.89l-5.22,5.22c-1.4,1.4-1.4,3.66,0,5.05,1.4,1.4,3.66,1.4,5.05,0l.97-.97c-.82,18.97-16.47,34.16-35.64,34.16-17.03,0-31.29-11.99-34.84-27.96Z" style="fill: #322b6a;"></path><path d="M48.16,29.09l-19.59,10.19,21.43,10.71,21.43-10.71-19.59-10.19c-1.13-.7-2.54-.7-3.67,0Z" style="fill: #322b6a;"></path><path d="M28.57,62.68c0,1.19,.6,2.31,1.59,2.97l18.05,9.35v-22.14l-19.64-9.69v19.52Z" style="fill: #322b6a;"></path><path d="M51.79,75l18.05-9.35c.99-.66,1.59-1.78,1.59-2.97v-19.52l-19.64,9.69v22.14Z" style="fill: #322b6a;"></path></g></svg>