<svg xmlns="http://www.w3.org/2000/svg" id="Layer_1" data-name="Layer 1" viewBox="0 0 200 200"><path d="M182.13,45.67c-5.18-3.01-10.35-5.96-15.46-8.97l-16.19-9.44c-14.5-8.43-29.06-16.91-43.56-25.39-2.11-1.27-4.27-1.87-6.5-1.87s-4.27,.6-6.32,1.74c-25.21,14.51-50.48,28.95-75.75,43.33-4.09,2.34-6.32,6.25-6.38,11.01-.06,29-.18,58.06-.36,87.06,0,4.81,2.29,8.79,6.44,11.19l14.08,8.12,.48,.31c20.28,11.85,40.61,23.64,60.89,35.5,1.93,1.14,3.97,1.68,6.08,1.74,2.16,0,4.21-.6,6.2-1.74,2.94-1.75,5.95-3.43,8.96-5.18l15.64-8.9c17.03-9.75,34.12-19.5,51.15-29.25,4.15-2.4,6.5-6.31,6.5-11.13,0-11.49,.06-22.98,.12-34.53l.06-17.69c.06-11.68,.06-23.35,.18-34.96,.06-4.63-2.23-8.61-6.26-10.95Zm-101.08,20.76c.3-5.78,3.37-9.87,8.54-12.4-6.38-8.06-2.89-16.48,1.81-20.09,5.41-4.22,13.17-3.8,18.05,1.08,5.17,5.17,5.41,12.75,.48,19.01,1.08,.72,2.22,1.2,3.25,1.99,3.43,2.7,5.11,6.31,5.29,10.53,.18,3.79,.06,7.58,0,11.37-.06,2.59-2.16,3.91-4.15,2.77-.78-.43-1.14-1.09-1.32-1.93-.31-1.62-.12-3.31-.12-4.99-.06-2.11,0-4.22,0-6.32,0-5.06-2.65-8.42-7.71-8.91-3.91-.36-7.88-.54-11.79,.12-3.67,.61-6.44,3.73-6.62,7.4-.12,3.74-.06,7.47-.12,11.2,0,.54-.06,1.14-.18,1.74-.3,1.32-1.26,1.93-2.47,1.99-1.26,.12-2.16-.54-2.64-1.75-.18-.42-.24-.9-.36-1.44,0-3.79-.12-7.58,.06-11.37Zm-4.52,76.05c0,1.92-1.02,3.19-2.58,3.25-1.63,.06-2.89-1.27-2.89-3.25-.06-3.55,0-7.16,0-10.71,0-5.06-3.61-8.73-8.67-8.73-3.43,0-6.92-.42-10.34,.12-4.64,.73-7.29,4.1-7.35,8.85-.06,3.55,0,7.16-.06,10.71,0,1.56-1.14,2.77-2.52,2.89-1.39,.06-2.89-1.09-2.89-2.53,0-4.51-.3-9.08,.24-13.6,.66-5.11,3.67-8.66,8.36-10.89-4.15-5.53-4.69-11.25-1.56-16.36,4.03-6.56,12.75-8.61,19.13-4.46,6.62,4.28,8.37,12.94,3.85,19.32-.96,1.38-.78,1.68,.61,2.52,4.33,2.65,6.79,6.56,6.73,11.8-.06,3.73-.06,7.4-.06,11.07Zm42.96-26.72c-.18,1.21-1.08,1.87-2.16,2.17-1.09,.3-1.87-.3-2.71-.84-4.51-2.83-9.09-5.66-13.6-8.55-.9-.6-1.56-.66-2.46-.06-4.58,2.89-9.15,5.72-13.78,8.55-.85,.54-1.63,1.08-2.71,.72-1.14-.36-1.87-1.14-2.05-2.29-.18-1.2,.36-2.16,1.45-2.82,4.69-2.89,9.32-5.84,14.08-8.67,1.14-.66,1.44-1.44,1.44-2.71-.06-4.39,0-8.78,0-13.17v-.97c.06-2.28,1.14-3.61,2.89-3.55,1.74,.06,2.77,1.39,2.77,3.67,.06,2.41,0,4.88,0,7.28s0,4.64-.06,6.98c-.06,1.09,.3,1.75,1.26,2.35,4.69,2.89,9.39,5.9,14.14,8.85,1.2,.72,1.68,1.74,1.5,3.06Zm40.5,27.14c0,1.93-1.15,3.25-2.77,3.31-1.56,.06-2.71-1.38-2.71-3.37,.06-3.43,.06-6.8,.06-10.23,0-5.41-3.55-9.08-8.96-9.08-2.77-.06-5.6-.06-8.43-.06-5.29,0-8.9,3.55-8.9,8.78,0,3.61,0,7.28-.06,10.89,0,1.32-.66,2.35-2.05,2.77-1.26,.42-2.16-.18-2.95-1.08-.48-.55-.48-1.21-.48-1.87v-6.68c.18-2.16-.3-4.81,.3-7.46,.97-4.09,3.25-7.16,6.92-9.14,1.21-.67,1.15-1.03,.36-2.05-6.01-8.12-1.08-19.98,8.91-21.54,5.66-.9,11.01,1.68,14.08,6.68,2.71,4.45,2.41,10.53-.9,14.92-.85,1.14-.55,1.44,.48,2.05,4.75,2.76,7.1,6.91,7.16,12.63,0,3.49-.06,7.04-.06,10.53Z" style="fill: #322b6a;"></path><path d="M108.12,45.07c-.06,4.51-3.67,8-8.3,7.94-4.57-.06-8.06-3.73-8-8.43,0-4.51,3.73-8,8.3-7.94,4.63,.06,8.06,3.67,8,8.43Z" style="fill: #322b6a;"></path><path d="M66.18,109.39c.06,4.63-3.61,8.18-8.42,8.12-4.33-.06-8-3.85-8-8.18,.06-4.52,3.79-8.19,8.36-8.13,4.51,.06,8.12,3.67,8.06,8.19Z" style="fill: #322b6a;"></path><path d="M149.64,109.63c.06,4.51-3.79,8.24-8.43,8.18-4.45-.06-8.12-3.79-8.06-8.24,.06-4.52,3.79-8.13,8.37-8.07,4.51,.06,8.12,3.61,8.12,8.13Z" style="fill: #322b6a;"></path></svg>