<svg xmlns="http://www.w3.org/2000/svg" id="Layer_1" data-name="Layer 1" viewBox="0 0 200 200"><path d="M135.01,187.06c-5.38,8.73-16.58,11.32-25.33,5.9-8.58-5.31-12.51-17.11-5.87-24.14,7.27-7.71,5.62-14.73,3.13-22.8-.45-1.47-.54-3.05-.99-5.73,3.19-.92,5.77-1.65,8.81-2.53,1.03,3.49,2.16,6.38,2.71,9.37,1.24,6.81,2.81,12.13,10.87,15.16,9.57,3.6,12,16.14,6.66,24.76Z" style="fill: #322b6a;"></path><path d="M151.75,39.69c-10.25,.18-13,6.59-16.93,13.09-2.74,4.53-5.46,9.09-8.43,14.02-2.74-1.55-5.11-2.88-8.39-4.74,3.04-5.21,5.46-9.56,8.06-13.81,4.17-6.81,8.7-12.49,3.57-21.93-4.35-8.03,3.71-19.3,12.95-21.59,9.5-2.34,19.68,3.5,22.15,12.72,2.68,10-3.15,22.07-12.99,22.24Z" style="fill: #322b6a;"></path><path d="M75.25,68.79c-2.33,2.05-4.15,3.64-6.45,5.66-1.78-1.34-3.68-2.37-5.05-3.88-4.01-4.4-7.84-6.37-14.56-4.6-9.66,2.57-19.31-5.89-20.22-15.88-.96-10.59,6.09-19.22,16.38-20.06,10.31-.85,19.2,6.65,19.86,16.76q.8,12.04,10.04,22.01Z" style="fill: #322b6a;"></path><path d="M64.11,116.59c-3.98,1.47-7.4,2.94-10.93,4.01-8.5,2.57-16.32,4.42-19.53,15.37-2.72,9.29-15.19,11.83-23.89,7.23-8.67-4.59-12.24-15.42-7.95-24.14,4.31-8.78,16.12-14.15,23.61-8.32,8.43,6.57,15.22,3.88,23.03,.97,3.77-1.4,7.65-2.5,12.73-4.14,1.1,3.39,1.93,5.94,2.92,9.01Z" style="fill: #322b6a;"></path><path d="M132.67,98.35c.44,17.31-13.75,32.01-31.06,32.18-17.01,.16-31.16-13.74-31.34-30.75-.17-17.28,13.29-31.26,30.43-31.6,17.08-.32,31.54,13.3,31.98,30.17Z" style="fill: #322b6a;"></path><path d="M195.18,119.53c-6.54,7.1-20.1,9.08-24.88,1.17-6.9-11.45-17.06-11.32-28.76-12.62,.41-3.66,.71-6.27,1.07-9.54,3.67,.27,6.73,.28,9.73,.78,6.59,1.09,11.97,1.16,17.11-5.17,6.25-7.68,18.09-6.85,25.07,.08,7.03,6.97,7.31,18.04,.65,25.3Z" style="fill: #322b6a;"></path></svg>