<svg xmlns="http://www.w3.org/2000/svg" id="Layer_1" data-name="Layer 1" viewBox="0 0 200 200"><path d="M164.4,76.97c5.15,8.8,8.74,18.62,10.42,29.08h-5.61v.02h-2.71c-.06,.01-.11,.01-.16,.01-1.52-8.55-4.47-16.6-8.6-23.91l6.67-5.21Zm-38.87-25.51c-10.28-5.17-21.89-8.08-34.18-8.08-21.04,0-40.08,8.52-53.87,22.3-10.72,10.72-18.25,24.77-21.06,40.36h-5.43c-1.06,0-2.09,.09-3.11,.29,2.86-18.02,11.37-34.25,23.68-46.57,15.31-15.3,36.44-24.76,59.79-24.76,12.16,0,23.73,2.57,34.18,7.2v9.25h0Z" style="fill: #322b6a;"></path><path d="M10.48,146.47c-2.83-.13-5.38-1.34-7.25-3.21-1.99-1.99-3.22-4.74-3.22-7.75v-12.72c0-3.01,1.23-5.76,3.22-7.75,1.87-1.87,4.42-3.08,7.25-3.21-.01,.11-.01,.23-.01,.35v33.96c0,.11,0,.23,.01,.34h0Z" style="fill: #322b6a; fill-rule: evenodd;"></path><path d="M22.81,108.45c2.05,0,3.72,1.68,3.72,3.71v33.96c0,2.04-1.68,3.71-3.72,3.71s-3.72-1.68-3.72-3.71v-33.96c0-2.04,1.68-3.71,3.72-3.71Z" style="fill: #322b6a; fill-rule: evenodd;"></path><path d="M22.81,105.58c1.82,0,3.47,.74,4.66,1.93,1.2,1.2,1.94,2.84,1.94,4.66v33.96c0,1.82-.74,3.46-1.94,4.66-1.19,1.2-2.84,1.93-4.66,1.93s-3.47-.74-4.66-1.93c-1.2-1.2-1.94-2.84-1.94-4.66v-33.96c0-1.82,.74-3.46,1.94-4.66,1.19-1.2,2.84-1.93,4.66-1.93Z" style="fill: #322b6a;"></path><path d="M158.46,107.51c1.19-1.2,2.84-1.93,4.66-1.93s3.47,.74,4.67,1.93c1.19,1.2,1.93,2.84,1.93,4.66v33.96c0,1.82-.74,3.46-1.93,4.66-1.2,1.2-2.85,1.93-4.67,1.93s-3.47-.74-4.66-1.93c-1.2-1.2-1.93-2.84-1.93-4.66v-33.96c0-1.82,.74-3.46,1.93-4.66Z" style="fill: #322b6a; fill-rule: evenodd;"></path><path d="M92.97,70.73c32.11,0,58.12,26.02,58.12,58.12,0,6.12-.94,12.02-2.7,17.57l-20.03,7.45c-.56-.39-1.16-.76-1.78-1.06-2.96-1.45-6.36-1.69-9.47-.63l-5.03,1.71c-3.12,1.07-5.67,3.32-7.13,6.28-1.37,2.78-1.66,5.96-.79,8.94,.11,.36,.22,.72,.37,1.07,1.13,2.87,3.28,5.22,6.07,6.58,2.94,1.45,6.35,1.69,9.45,.63l5.04-1.72c3.12-1.06,5.68-3.31,7.13-6.26,.8-1.63,1.23-3.39,1.28-5.17l7.64-2.84c-10.44,15.44-28.13,25.59-48.17,25.59-32.1,0-58.12-26.03-58.12-58.12s26.03-58.12,58.13-58.12h0Z" style="fill: #322b6a; fill-rule: evenodd;"></path><path d="M153.42,153.75l-20.14,7.5s-.05,.01-.07,.02c-.09-.43-.21-.86-.35-1.29-.48-1.41-1.19-2.71-2.11-3.84,.16-.11,.34-.18,.53-.27l19.72-7.33c.39,1.9,1.2,3.68,2.41,5.22h0Z" style="fill: #322b6a;"></path><g><path d="M113.93,159.35l5.03-1.71c1.73-.6,3.55-.42,5.09,.34,1.52,.74,2.77,2.08,3.35,3.82,.6,1.73,.42,3.55-.34,5.08-.74,1.52-2.08,2.77-3.82,3.36l-5.04,1.71c-1.72,.6-3.54,.42-5.06-.34-1.47-.72-2.67-1.97-3.28-3.59-.06-.15-.11-.3-.15-.46-.5-1.66-.32-3.39,.41-4.85,.74-1.52,2.08-2.77,3.82-3.36h0Z" style="fill: #322b6a; fill-rule: evenodd;"></path><path d="M143.56,13.02h44.16c6.75,0,12.28,5.52,12.28,12.28v31.79c0,6.75-5.53,12.28-12.28,12.28h-22.95l-19.94,15.6c-.27,.2-.6,.23-.9,.07s-.46-.46-.43-.79l1.24-14.88h-1.19c-6.75,0-12.28-5.53-12.28-12.28V25.3c0-6.76,5.53-12.28,12.28-12.28Zm35.91,21.72c3.6,0,6.51,2.91,6.51,6.51s-2.91,6.5-6.51,6.5-6.5-2.91-6.5-6.5,2.91-6.51,6.5-6.51Zm-27.67,0c3.59,0,6.5,2.91,6.5,6.51s-2.91,6.5-6.5,6.5-6.5-2.91-6.5-6.5,2.91-6.51,6.5-6.51Z" style="fill: #322b6a; fill-rule: evenodd;"></path><path d="M175.47,111.82c2.8,.13,5.37,1.33,7.24,3.21,1.98,1.98,3.21,4.71,3.21,7.73h.01v12.75c0,3.01-1.23,5.76-3.21,7.74-1.87,1.87-4.42,3.07-7.25,3.21v-34.64h0Z" style="fill: #322b6a; fill-rule: evenodd;"></path></g></svg>