<svg xmlns="http://www.w3.org/2000/svg" id="Layer_1" data-name="Layer 1" viewBox="0 0 100 100"><g><path d="M69.04,93.24l-2.91,2.91,1.08,1.08c.5,.5,1.06,.61,1.45,.61,.57,0,1.08-.21,1.45-.59l.03-.03c.39-.38,.6-.89,.6-1.43,0-.55-.21-1.08-.61-1.47l-1.08-1.08Z" style="fill: #322b6a;"></path><path d="M62.17,95.53l7.29-7.29c.93-.93,.93-2.43,0-3.36l-13.59-13.59c-.93-.93-2.43-.93-3.36,0l-2.76,2.76c-6.5,6.5-15.96,2.96-22-3.08-6.04-6.04-9.58-15.5-3.08-22l2.76-2.76c.45-.45,.7-1.05,.7-1.68s-.25-1.23-.7-1.68l-13.6-13.6c-.46-.46-1.07-.7-1.68-.7s-1.22,.23-1.68,.7l-7.29,7.29c-7.76,7.76,3.01,26.66,17.67,41.32,14.65,14.66,33.55,25.44,41.32,17.67Z" style="fill: #322b6a;"></path></g><g><path d="M62.47,41.02l-4.78,3.83c-.29,.23-.65,.35-1.01,.35-.07,0-.14,0-.21-.01-.44-.06-.83-.29-1.09-.64l-3.15-4.23c-.53-.72-.39-1.73,.33-2.27,.72-.54,1.73-.38,2.27,.33l2.15,2.88,5.5-4.4v-2.83s-13.75,0-13.75,0v13.75s13.75,0,13.75,0v-6.77Z" style="fill: #322b6a;"></path><path d="M62.47,16.24l-4.78,3.83c-.29,.23-.65,.35-1.01,.35-.07,0-.14,0-.21-.01-.44-.06-.83-.29-1.09-.64l-3.27-4.39c-.53-.72-.39-1.73,.33-2.27,.72-.54,1.73-.38,2.27,.33l2.27,3.05,5.5-4.4v-2.83s-13.75,0-13.75,0v13.75s13.75,0,13.75,0v-6.77Z" style="fill: #322b6a;"></path><path d="M96.26,55.96c1.74,0,3.15-1.41,3.15-3.15V3.15c0-1.74-1.41-3.15-3.15-3.15H41.19c-1.74,0-3.15,1.41-3.15,3.15V52.81c0,1.74,1.41,3.15,3.15,3.15,0,0,55.07,0,55.07,0ZM79.74,10.4h10.13c.89,0,1.62,.73,1.62,1.62s-.73,1.62-1.62,1.62h-10.13c-.89,0-1.62-.73-1.62-1.62s.73-1.62,1.62-1.62Zm0,8.23h1.98c.89,0,1.62,.73,1.62,1.62s-.73,1.62-1.62,1.62h-1.98c-.89,0-1.62-.73-1.62-1.62s.73-1.62,1.62-1.62Zm0,14.6h10.13c.89,0,1.62,.73,1.62,1.62s-.73,1.62-1.62,1.62h-10.13c-.89,0-1.62-.73-1.62-1.62s.73-1.62,1.62-1.62Zm0,8.23h1.98c.89,0,1.62,.73,1.62,1.62s-.73,1.62-1.62,1.62h-1.98c-.89,0-1.62-.73-1.62-1.62s.73-1.62,1.62-1.62ZM45.48,9.26c0-1.79,1.45-3.24,3.24-3.24h13.75c1.79,0,3.24,1.45,3.24,3.24v.24l.52-.42c.7-.55,1.72-.44,2.28,.25,.56,.7,.44,1.72-.25,2.28l-2.54,2.04v9.36c0,1.79-1.45,3.24-3.24,3.24h-13.75c-1.79,0-3.24-1.45-3.24-3.24V9.26Zm0,24.78c0-1.79,1.45-3.24,3.24-3.24h13.75c1.79,0,3.24,1.45,3.24,3.24v.24l.52-.42c.7-.55,1.72-.44,2.28,.25,.56,.7,.44,1.72-.25,2.28l-2.54,2.04v9.36c0,1.79-1.45,3.24-3.24,3.24h-13.75c-1.79,0-3.24-1.45-3.24-3.24v-13.75Z" style="fill: #322b6a;"></path></g><path d="M90.04,100l-21.16-2.44c-.89,0-1.62-.73-1.62-1.62s.73-1.62,1.62-1.62l21.16,2.44c2.14,0,3.88-1.74,3.88-3.88s-1.74-3.88-3.88-3.88h-1.72c-4.17,0-7.56-3.39-7.56-7.56v-12.02c0-.89,.73-1.62,1.62-1.62s1.62,.73,1.62,1.62v12.02c0,2.38,1.94,4.33,4.33,4.33h1.72c3.93,0,7.12,3.19,7.12,7.12s-3.19,7.12-7.12,7.12Z" style="fill: #322b6a;"></path></svg>