<svg xmlns="http://www.w3.org/2000/svg" id="Layer_1" data-name="Layer 1" viewBox="0 0 100 100"><path d="M33.52,62.39l-7.45,7.45c-2.76-2.3-6.3-3.68-10.17-3.68-8.78,0-15.9,7.12-15.9,15.9s7.12,15.9,15.9,15.9,15.9-7.12,15.9-15.9c0-3.88-1.39-7.44-3.7-10.2l7.45-7.45-2.02-2.02h0Zm-7.56,27.56c-1.24-4.39-5.28-7.6-10.06-7.6s-8.82,3.21-10.06,7.6c-1.71-2.17-2.73-4.91-2.73-7.89,0-7.06,5.72-12.79,12.79-12.79s12.79,5.72,12.79,12.79c0,2.98-1.02,5.72-2.73,7.89h0Zm-5.19-13.29c0,2.69-2.18,4.87-4.87,4.87s-4.87-2.18-4.87-4.87,2.18-4.87,4.87-4.87,4.87,2.18,4.87,4.87Zm68.21,0c0,2.69-2.18,4.87-4.87,4.87s-4.87-2.18-4.87-4.87,2.18-4.87,4.87-4.87,4.87,2.18,4.87,4.87h0Zm-4.87-10.5c-3.87,0-7.42,1.38-10.17,3.68l-7.45-7.45-2.02,2.02,7.45,7.45c-2.31,2.76-3.7,6.32-3.7,10.2,0,8.78,7.12,15.9,15.9,15.9s15.9-7.12,15.9-15.9-7.12-15.9-15.9-15.9h0Zm10.06,23.79c-1.24-4.39-5.28-7.6-10.06-7.6s-8.82,3.21-10.06,7.6c-1.71-2.17-2.73-4.91-2.73-7.89,0-7.06,5.72-12.79,12.79-12.79s12.79,5.72,12.79,12.79c0,2.98-1.02,5.72-2.73,7.89h0Zm-11.49-62.13v18.69h-10.8v2.86h12.23c.79,0,1.43-.64,1.43-1.43V27.81c6.46-.71,11.49-6.19,11.49-12.84,0-7.14-5.78-12.92-12.92-12.92s-12.92,5.78-12.92,12.92c0,6.65,5.03,12.13,11.49,12.84Zm-4.57-18.84c.56-.56,1.46-.56,2.02,0l3.98,3.98,3.98-3.98c.56-.56,1.46-.56,2.02,0s.56,1.46,0,2.02l-3.98,3.98,3.98,3.98c.56,.56,.56,1.46,0,2.02s-1.46,.56-2.02,0l-3.98-3.98-3.98,3.98c-.56,.56-1.46,.56-2.02,0s-.56-1.46,0-2.02l3.98-3.98-3.98-3.98c-.56-.56-.56-1.46,0-2.02ZM14.47,27.81v20.12c0,.79,.64,1.43,1.43,1.43h12.23v-2.86h-10.8V27.81c6.46-.71,11.49-6.19,11.49-12.84,0-7.14-5.78-12.92-12.92-12.92S2.98,7.84,2.98,14.97c0,6.65,5.03,12.13,11.49,12.84Zm-5.39-15.68c.68-.39,1.56-.16,1.95,.52l2.53,4.38,7.45-7.44c.56-.56,1.46-.56,2.02,0,.56,.56,.56,1.46,0,2.02l-8.76,8.76c-.27,.27-.63,.42-1.01,.42-.06,0-.12,0-.19-.01-.44-.06-.83-.32-1.05-.7l-3.46-5.99c-.39-.68-.16-1.55,.52-1.95h0Zm56.92,46.89l-1.56-2.32,1.97-4.77,2.74-.54c.45-.09,.76-.47,.76-.93v-5.08c0-.46-.31-.84-.76-.93l-2.74-.54-1.97-4.77,1.56-2.32c.25-.38,.21-.87-.12-1.19l-3.59-3.59c-.32-.32-.82-.37-1.19-.12l-2.32,1.56-4.77-1.97-.54-2.74c-.09-.45-.47-.76-.93-.76h-5.08c-.46,0-.84,.32-.93,.76l-.54,2.74-4.77,1.97-2.32-1.56c-.38-.25-.87-.21-1.19,.12l-3.59,3.59c-.32,.32-.37,.82-.12,1.19l1.56,2.32-1.97,4.77-2.74,.54c-.45,.09-.76,.47-.76,.93v5.08c0,.46,.31,.84,.76,.93l2.74,.54,1.97,4.77-1.56,2.32c-.25,.38-.21,.87,.12,1.19l3.59,3.59c.32,.32,.82,.37,1.19,.12l2.32-1.56,4.77,1.97,.54,2.74c.09,.45,.47,.76,.93,.76h5.08c.46,0,.84-.32,.93-.76l.54-2.74,4.77-1.97,2.32,1.56c.38,.25,.87,.21,1.19-.12l3.59-3.59c.32-.32,.37-.82,.12-1.19h0Zm-16-.79c-5.69,0-10.31-4.61-10.31-10.31s4.61-10.31,10.31-10.31,10.31,4.61,10.31,10.31-4.61,10.31-10.31,10.31Z" style="fill: #322b6a; fill-rule: evenodd;"></path></svg>