<svg xmlns="http://www.w3.org/2000/svg" id="Layer_1" data-name="Layer 1" viewBox="0 0 100 100"><path d="M86.44,59.98c.08,.02,.17,.03,.25,.03,.49,0,.92-.33,1.04-.82,.72-3.02,1.08-6.08,1.08-9.09,0-3.4-.46-6.83-1.36-10.2-.15-.57-.74-.91-1.31-.76-.57,.15-.91,.74-.76,1.31,.85,3.19,1.29,6.43,1.29,9.65,0,2.84-.34,5.73-1.02,8.59-.14,.58,.22,1.15,.79,1.29h0Z" style="fill: #322b6a;"></path><path d="M26.77,21.43c.23,0,.46-.07,.66-.23,6.53-5.08,14.34-7.76,22.59-7.76s16.15,2.76,22.55,7.76c.47,.36,1.14,.28,1.5-.18,.36-.47,.28-1.14-.18-1.5-6.77-5.3-15.25-8.21-23.87-8.21s-17,2.84-23.91,8.21c-.47,.36-.55,1.04-.19,1.5,.21,.27,.53,.41,.85,.41h0Z" style="fill: #322b6a;"></path><path d="M74.91,78.44c-.38-.45-1.05-.52-1.51-.14-6.54,5.45-14.84,8.45-23.38,8.45s-16.87-3-23.41-8.45c-.46-.38-1.13-.32-1.51,.14-.38,.45-.32,1.13,.14,1.51,6.93,5.77,15.73,8.95,24.78,8.95s17.83-3.18,24.75-8.95c.45-.38,.52-1.06,.14-1.51h0Z" style="fill: #322b6a;"></path><path d="M13.86,39.14c-.57-.15-1.16,.19-1.31,.76-.88,3.28-1.33,6.71-1.33,10.2,0,3.14,.35,6.2,1.05,9.09,.12,.49,.56,.82,1.04,.82,.08,0,.17,0,.25-.03,.58-.14,.93-.72,.79-1.29-.66-2.72-.99-5.61-.99-8.59,0-3.3,.42-6.55,1.26-9.65,.15-.57-.19-1.16-.76-1.31h0Z" style="fill: #322b6a;"></path><path d="M84.52,20.04c4.6,0,8.35-3.74,8.35-8.35s-3.74-8.35-8.35-8.35-8.35,3.74-8.35,8.35,3.74,8.35,8.35,8.35Zm0-14.55c3.42,0,6.2,2.78,6.2,6.2s-2.78,6.2-6.2,6.2-6.2-2.78-6.2-6.2,2.78-6.2,6.2-6.2Z" style="fill: #322b6a;"></path><path d="M69,35.67c-.02,.29,.09,.63,.29,.84,.2,.21,.49,.39,.78,.39h28.86c.29,0,.57-.17,.77-.38,.2-.21,.31-.52,.3-.82-.37-8.29-7.17-14.8-15.48-14.8s-15.11,6.48-15.51,14.77h0Z" style="fill: #322b6a;"></path><path d="M15.52,20.04c4.6,0,8.35-3.74,8.35-8.35S20.12,3.34,15.52,3.34,7.17,7.09,7.17,11.69s3.74,8.35,8.35,8.35Zm0-14.55c3.42,0,6.2,2.78,6.2,6.2s-2.78,6.2-6.2,6.2-6.2-2.78-6.2-6.2,2.78-6.2,6.2-6.2Z" style="fill: #322b6a;"></path><path d="M1.07,36.9H29.93c.29,0,.57-.17,.77-.38,.2-.21,.31-.53,.29-.82-.37-8.29-7.17-14.8-15.48-14.8S.41,27.38,0,35.67c-.01,.29,.09,.63,.29,.84,.2,.21,.48,.38,.78,.38h0Z" style="fill: #322b6a;"></path><path d="M76.17,71.58c0,4.6,3.74,8.34,8.35,8.34s8.35-3.74,8.35-8.34-3.74-8.31-8.35-8.31c-4.6,0-8.35,3.73-8.35,8.31h0Zm14.55,0c0,3.42-2.78,6.2-6.2,6.2s-6.2-2.78-6.2-6.2,2.78-6.17,6.2-6.17c3.42,0,6.2,2.77,6.2,6.17h0Z" style="fill: #322b6a;"></path><path d="M84.52,80.81c-8.3,0-15.11,6.49-15.51,14.78-.02,.29,.09,.55,.29,.76,.2,.21,.49,.3,.78,.3h28.86c.29,0,.57-.09,.77-.3,.2-.21,.31-.48,.3-.77-.37-8.29-7.17-14.77-15.48-14.77h0Z" style="fill: #322b6a;"></path><path d="M7.17,71.58c0,4.6,3.74,8.34,8.35,8.34s8.35-3.74,8.35-8.34-3.74-8.31-8.35-8.31c-4.6,0-8.35,3.73-8.35,8.31h0Zm8.35-6.17c3.42,0,6.2,2.77,6.2,6.17s-2.78,6.2-6.2,6.2-6.2-2.78-6.2-6.2,2.78-6.17,6.2-6.17Z" style="fill: #322b6a;"></path><path d="M15.52,80.81C7.22,80.81,.41,87.3,0,95.59c-.01,.29,.09,.55,.29,.76,.2,.21,.48,.3,.78,.3H29.93c.29,0,.57-.09,.77-.3,.2-.21,.31-.48,.29-.77-.37-8.29-7.17-14.77-15.48-14.77Z" style="fill: #322b6a;"></path><path d="M60.4,70.66c0,.59,.48,1.07,1.07,1.07h4.72s.03,0,.03,0h0c.26,0,.51-.09,.71-.28,.01-.01,.03-.02,.04-.03,0,0,0,0,0,0,.18-.19,.28-.44,.29-.69,0-.03-.06-.06-.06-.09h-.06s0,0,0,0c0-.02,.06-.04,.05-.06l-.34-4c-.05-.59-.56-1.02-1.15-.97-.59,.05-1.02,.58-.96,1.17l.11,1.09-13.29-13.01,13.18-13.46v2.11c0,.59,.48,1.07,1.07,1.07s1.07-.48,1.07-1.07v-4.78h0c0-.25-.06-.52-.25-.72,0,0,.01-.04,0-.04h0c-.19-.17-.42-.26-.66-.27-.12,0-.02,0-.04,0-.02,0-.08,0-.1,0l-4.02,.37c-.59,.06-1.03,.58-.98,1.17,.05,.59,.58,1.02,1.16,.97l1.09-.1-13.01,13.23-13.46-13.24h2.1c.59,0,1.07-.48,1.07-1.07s-.48-1.07-1.07-1.07h-4.72s-.02,0-.03,0h0s0,0,0,0h0c-.26,0-.51,.11-.71,.3-.01,.01-.02,.03-.04,.04,0,0-.04,0-.04,0-.18,.2-.33,.45-.33,.7v.03h.04s.02,.03,.02,.06c0,.02,.01,.04,.02,.06l.38,4c.06,.59,.58,1.02,1.17,.97,.59-.05,1.02-.58,.97-1.17l-.1-1.09,13.19,13.01-13.28,13.46v-2.1c0-.59-.48-1.07-1.07-1.07s-1.07,.48-1.07,1.07v4.69h.05c0,.27,.14,.57,.34,.77,.21,.21,.49,.32,.76,.32,.03,0,.07,0,.1,0l4.01-.34c.59-.05,1.03-.57,.98-1.16-.05-.59-.57-1.03-1.16-.98l-1.13,.1,13.04-13.28,13.46,13.22h-2.11c-.59,0-1.07,.48-1.07,1.07h0Z" style="fill: #322b6a;"></path><path d="M66.08,37.7h-.12s.02,0,.03,0c.02,0,.05,0,.1,0h0Z" style="fill: #322b6a;"></path><path d="M66.65,37.97h-.01s.01,0,.02,.01c0,0,0-.01,0-.01Z" style="fill: #322b6a;"></path></svg>