<svg xmlns="http://www.w3.org/2000/svg" id="Layer_1" data-name="Layer 1" viewBox="0 0 100 100"><circle cx="50" cy="13.97" r="13.97" style="fill: #322b6a;"></circle><path d="M25.64,59.21h48.72c.99,0,1.79-.8,1.79-1.79v-13.65c-.07-7.01-5.81-12.64-12.82-12.58-.42,0-.84,.03-1.25,.07-7.27,5.02-16.88,5.02-24.15,0h-1.57c-6.9,0-12.5,5.6-12.5,12.5v13.65c0,.99,.8,1.79,1.79,1.79Z" style="fill: #322b6a;"></path><path d="M32.37,82.62l-6.04-.46-2.39-3.57s-.11-.13-.14-.2l-1.25-1.89c-.54-.82-1.65-1.05-2.47-.51-.2,.13-.38,.31-.51,.51l-3.79,5.66-6.04,.46c-.68,.05-1.28,.47-1.54,1.11-.22,.61-.09,1.3,.34,1.79l4.68,5.13-1.88,7.04c-.25,.95,.32,1.93,1.28,2.18,.43,.11,.89,.06,1.28-.14l7.14-3.8,7.14,3.8c.87,.47,1.95,.14,2.42-.73,.22-.4,.27-.87,.15-1.31l-1.79-7.04c.95-1.05,3.75-4.16,4.66-5.13,.61-.77,.49-1.9-.29-2.51-.28-.22-.62-.36-.98-.38Z" style="fill: #322b6a;"></path><path d="M10.22,78.32c.99,0,1.79-.8,1.79-1.78,0-.34-.09-.67-.27-.95C-2.6,53.58,7.13,21.59,31.28,11.13c.9-.41,1.29-1.48,.88-2.38s-1.48-1.29-2.38-.88h0C12.54,15.81,1.48,33.03,1.44,52.01c0,9,2.52,17.82,7.27,25.47,.33,.52,.9,.84,1.52,.84Z" style="fill: #322b6a;"></path><path d="M68.72,11.13c24.15,10.47,33.88,42.45,19.54,64.46-.52,.84-.27,1.94,.57,2.46,.84,.52,1.94,.27,2.46-.57,4.75-7.64,7.27-16.47,7.27-25.47-.04-18.98-11.1-36.2-28.34-44.13-.9-.41-1.96-.02-2.38,.88-.41,.9-.02,1.96,.88,2.38Z" style="fill: #322b6a;"></path><path d="M61.86,89.18l-2.18-8.22,6.39-6.98c.66-.73,.61-1.86-.12-2.52-.3-.27-.68-.43-1.08-.46l-8.22-.63-5.11-7.66c-.55-.82-1.66-1.04-2.48-.49-.19,.13-.36,.29-.49,.49l-5.18,7.66-8.22,.63c-.99,.03-1.76,.86-1.73,1.84,.01,.42,.18,.83,.46,1.14l6.32,6.98-2.18,8.22-.36,1.32c-.25,.95,.32,1.93,1.27,2.18,.1,.03,.2,.04,.3,.05,.82,.23,2.29-.91,2.98-1.18l7.73-4.16,9.64,5.14c.87,.47,1.95,.14,2.42-.73,.22-.4,.27-.87,.15-1.31l-.36-1.32Z" style="fill: #322b6a;"></path><path d="M83.93,72.78c.64,0,1.23-.34,1.55-.89,3.42-6.07,5.21-12.92,5.2-19.88-.02-14.55-7.78-28-20.36-35.31-.87-.46-1.95-.12-2.41,.75-.43,.82-.16,1.84,.62,2.34,17.29,9.61,23.86,33.29,13.84,50.33-.48,.86-.18,1.95,.68,2.43,.27,.15,.57,.23,.87,.23Z" style="fill: #322b6a;"></path><path d="M31.39,19.79c.83-.53,1.08-1.63,.55-2.47-.5-.78-1.51-1.05-2.34-.62-12.58,7.31-20.34,20.76-20.36,35.31-.01,6.96,1.78,13.81,5.2,19.88,.49,.86,1.59,1.15,2.45,.66s1.15-1.59,.66-2.45h0c-10.02-17.02-3.45-40.7,13.84-50.31Z" style="fill: #322b6a;"></path><path d="M90.26,82.62l-5.98-.46-3.91-5.68c-.54-.82-1.65-1.05-2.47-.51-.2,.13-.38,.31-.51,.51l-1.32,1.98c-.06,.07-.1,.14-.14,.21l-2.25,3.48-6.04,.46c-.68,.05-1.28,.47-1.54,1.11-.66,1.3,1.05,2.54,1.79,3.41l3.25,3.57c-.34,1.3-1.5,5.64-1.88,7.04-.26,.95,.31,1.93,1.26,2.19,.44,.12,.91,.06,1.31-.15l7.14-3.8,7.14,3.8c.87,.46,1.95,.12,2.41-.76,.21-.39,.26-.85,.14-1.28l-1.79-7.04,4.68-5.13c.65-.74,.58-1.87-.16-2.52-.32-.28-.72-.44-1.14-.44Z" style="fill: #322b6a;"></path></svg>