<svg xmlns="http://www.w3.org/2000/svg" id="Layer_1" data-name="Layer 1" viewBox="0 0 100 100"><path d="M78.31,13.93c0-.55-.45-1-1-1H22.69c-.55,0-1,.45-1,1s.45,1,1,1h54.61c.55,0,1-.45,1-1Z" style="fill: #322b6a;"></path><path d="M24.67,8.86h1.32c.55,0,1-.45,1-1s-.45-1-1-1h-1.32c-.55,0-1,.45-1,1s.45,1,1,1Z" style="fill: #322b6a;"></path><path d="M39.45,8.86h1.32c.55,0,1-.45,1-1s-.45-1-1-1h-1.32c-.55,0-1,.45-1,1s.45,1,1,1Z" style="fill: #322b6a;"></path><path d="M32.06,8.86h1.32c.55,0,1-.45,1-1s-.45-1-1-1h-1.32c-.55,0-1,.45-1,1s.45,1,1,1Z" style="fill: #322b6a;"></path><path d="M92.48,14.76h-7.98V4.99c0-2.75-2.24-4.99-4.99-4.99H20.49c-2.75,0-4.99,2.24-4.99,4.99V14.76H7.52C3.48,14.76,.19,18.05,.19,22.09v51.62c0,4.04,3.29,7.33,7.33,7.33H31.04v7.6h-8.58c-.55,0-1,.45-1,1s.45,1,1,1h49.15c.55,0,1-.45,1-1s-.45-1-1-1h-2.7c1.48-.63,2.91-1.38,4.26-2.28l12.19,12.19c.94,.94,2.18,1.45,3.5,1.45s2.57-.52,3.5-1.45c.94-.94,1.45-2.18,1.45-3.5s-.52-2.57-1.45-3.51l-10.5-10.5h10.62c4.04,0,7.33-3.29,7.33-7.33V22.09c0-4.04-3.29-7.33-7.33-7.33h0ZM17.49,4.99c0-1.65,1.34-3,3-3h59.02c1.65,0,3,1.34,3,3V55.47c-1.24-2.99-3.07-5.79-5.5-8.22-4.8-4.8-11.18-7.44-17.97-7.44s-13.17,2.64-17.97,7.44c-3.87,3.87-6.22,8.68-7.07,13.7H17.49V4.99ZM7.52,79.04c-2.94,0-5.33-2.39-5.33-5.33v-3.84h31.88c.59,3.22,1.81,6.34,3.64,9.17H7.52Zm51.53,9.6c-6.26,0-12.14-2.44-16.56-6.86-9.13-9.13-9.13-23.99,0-33.12,4.42-4.42,10.3-6.86,16.56-6.86s12.14,2.44,16.56,6.86c9.13,9.13,9.13,23.99,0,33.12-4.42,4.42-10.31,6.86-16.56,6.86Zm38.77-14.93c0,2.94-2.39,5.33-5.33,5.33h-12.11c1.84-2.83,3.05-5.95,3.64-9.17h13.8v3.84Z" style="fill: #322b6a;"></path><path d="M44.89,26.95h10.23c.55,0,1-.45,1-1s-.45-1-1-1h-10.23c-.55,0-1,.45-1,1s.45,1,1,1Z" style="fill: #322b6a;"></path><path d="M24.34,26.95h10.22c.55,0,1-.45,1-1s-.45-1-1-1h-10.22c-.55,0-1,.45-1,1s.45,1,1,1Z" style="fill: #322b6a;"></path><path d="M75.66,24.95h-10.23c-.55,0-1,.45-1,1s.45,1,1,1h10.23c.55,0,1-.45,1-1s-.45-1-1-1Z" style="fill: #322b6a;"></path><path d="M44.18,33.39H24.34c-.55,0-1,.45-1,1s.45,1,1,1h19.83c.55,0,1-.45,1-1s-.45-1-1-1Z" style="fill: #322b6a;"></path><path d="M59.74,33.39h-7.78c-.55,0-1,.45-1,1s.45,1,1,1h7.78c.55,0,1-.45,1-1s-.45-1-1-1Z" style="fill: #322b6a;"></path><path d="M75.66,33.39h-4.04c-.55,0-1,.45-1,1s.45,1,1,1h4.04c.55,0,1-.45,1-1s-.45-1-1-1Z" style="fill: #322b6a;"></path><path d="M34.37,43.1c0-.55-.45-1-1-1h-9.03c-.55,0-1,.45-1,1s.45,1,1,1h9.03c.55,0,1-.45,1-1Z" style="fill: #322b6a;"></path><path d="M27.95,51.07h-3.61c-.55,0-1,.45-1,1s.45,1,1,1h3.61c.55,0,1-.45,1-1s-.45-1-1-1Z" style="fill: #322b6a;"></path><path d="M72.23,52.03c-3.52-3.52-8.21-5.46-13.19-5.46s-9.67,1.94-13.19,5.46c-7.27,7.27-7.27,19.11,0,26.38,3.52,3.52,8.21,5.47,13.19,5.47s9.67-1.94,13.19-5.47c7.27-7.28,7.27-19.11,0-26.38Zm-5.89,6.96l-6.39,14.57c-.14,.32-.44,.55-.79,.59-.04,0-.08,0-.12,0-.3,0-.6-.14-.79-.38l-7.08-9.04c-.34-.44-.26-1.06,.17-1.4,.43-.34,1.06-.26,1.4,.17l6.05,7.72,5.72-13.04c.22-.51,.81-.73,1.32-.51,.51,.22,.74,.81,.51,1.32h0Z" style="fill: #322b6a;"></path></svg>