<svg xmlns="http://www.w3.org/2000/svg" id="Layer_1" data-name="Layer 1" viewBox="0 0 100 100"><circle cx="50" cy="57.33" r="7.78" style="fill: #322b6a;"></circle><path d="M46.78,78.33h-5.22c-.33,0-.67-.22-.78-.56l-1.67-5c-.22-.78-1.33-.78-1.67,0l-1.56,5c-.11,.33-.44,.56-.78,.56h-5.22c-.78,0-1.22,1-.44,1.56l4.22,3.11c.33,.22,.44,.56,.33,1l-1.67,4.89c-.22,.78,.67,1.44,1.33,1l4.22-3.11c.33-.22,.67-.22,1,0l4.22,3.11c.67,.44,1.56-.22,1.33-1l-1.67-5c-.11-.33,0-.78,.33-1l4.22-3.11c.67-.44,.33-1.44-.56-1.44Z" style="fill: #322b6a;"></path><path d="M23.44,78.33h-5.22c-.33,0-.67-.22-.78-.56l-1.67-5c-.22-.78-1.33-.78-1.67,0l-1.56,5c-.11,.33-.44,.56-.78,.56H6.56c-.78,0-1.22,1-.44,1.56l4.22,3.11c.33,.22,.44,.56,.33,1l-1.67,4.89c-.22,.78,.67,1.44,1.33,1l4.22-3.11c.33-.22,.67-.22,1,0l4.22,3.11c.67,.44,1.56-.22,1.33-1l-1.67-5c-.11-.33,0-.78,.33-1l4.22-3.11c.67-.44,.33-1.44-.56-1.44Z" style="fill: #322b6a;"></path><path d="M70.11,78.33h-5.22c-.33,0-.67-.22-.78-.56l-1.67-5c-.22-.78-1.33-.78-1.67,0l-1.56,5c-.11,.33-.44,.56-.78,.56h-5.22c-.78,0-1.22,1-.56,1.56l4.22,3.11c.33,.22,.44,.56,.33,1l-1.56,4.89c-.22,.78,.67,1.44,1.33,1l4.22-3.11c.33-.22,.67-.22,1,0l4.22,3.11c.67,.44,1.56-.22,1.33-1l-1.67-5c-.11-.33,0-.78,.33-1l4.22-3.11c.67-.44,.33-1.44-.56-1.44Z" style="fill: #322b6a;"></path><path d="M93.44,77.11h-4.89l-1.56-4.67c-.33-.89-1.11-1.44-2-1.44s-1.67,.56-2,1.44l-1.56,4.67h-4.89c-.89,0-1.67,.56-2,1.44s0,1.78,.78,2.33l4,2.89-1.56,4.67c-.22,.67-.11,1.33,.33,1.89,.67,.89,2,1.11,2.89,.44l4-2.89,4,2.89c.33,.22,.78,.44,1.22,.44,.67,0,1.33-.33,1.67-.89,.44-.56,.56-1.22,.33-1.89l-1.56-4.67,4-2.89c.78-.56,1-1.44,.78-2.33-.33-.89-1.11-1.44-2-1.44h0Zm-4.44,4.78c-.78,.56-1,1.44-.78,2.33l1.22,3.78-3.22-2.33c-.33-.22-.78-.44-1.22-.44s-.89,.11-1.22,.44l-3.22,2.33,1.22-3.78c.33-.89,0-1.78-.78-2.33l-3.22-2.33h4c.89,0,1.67-.56,2-1.44l1.22-3.78,1.22,3.78c.33,.89,1.11,1.44,2,1.44h4l-3.22,2.33Z" style="fill: #322b6a;"></path><path d="M59.89,52.67l12.56-9.89,1.67,2.11,3.44-9.78-10.33,1.11,1.67,2.11-12.78,10c1.56,1.11,2.89,2.56,3.78,4.33Z" style="fill: #322b6a;"></path><path d="M99.89,55.89c-1.44-26.22-23.22-47.11-49.89-47.11S1.56,29.67,.11,55.89h-.11v3.89H39.33c-.22-.78-.33-1.67-.33-2.44,0-.44,0-1,.11-1.44H10.11c.67-9.67,4.78-18.33,11.11-24.89l20.11,19.67c.56-.67,1.11-1.22,1.78-1.78L23,29.22c6.78-6.22,15.78-10.11,25.67-10.44v27.67c.44,0,.78-.11,1.22-.11s.89,0,1.22,.11V18.78c20.67,.67,37.33,16.78,38.78,37.11h-29.11c.11,.44,.11,1,.11,1.44,0,.89-.11,1.67-.33,2.44h39.44l-.11-3.89Z" style="fill: #322b6a;"></path></svg>