<svg xmlns="http://www.w3.org/2000/svg" id="Layer_1" data-name="Layer 1" viewBox="0 0 200 200"><path d="M200,106.25c-.52,3.72-1.04,7.45-1.57,11.17-1.32,9.38-7.08,25.33-11.5,31.67-1.82-1.03-3.65-2.08-5.64-3.21,7.98-14.37,12.04-29.68,12.03-45.99-.02-16.24-4.09-31.49-12.03-45.79,1.96-1.11,3.76-2.14,5.8-3.3,1.09,2.12,2.2,4.14,3.19,6.24,5.24,11.1,8.4,22.77,9.36,35.02,.04,.57,.23,1.13,.36,1.7v12.5Z" style="fill: #322b6a;"></path><path d="M46.75,26.67h106.43V166.6H46.75V26.67Z" style="fill: #322b6a;"></path><path d="M46.6,173.45h106.76c-.32,4.68,.79,9.39-.83,13.89-1.27,3.51-4.11,5.43-7.83,5.94-.64,.09-1.3,.09-1.95,.09-28.52,0-57.04,0-85.56,0-5.39,0-9.5-3.06-10.34-7.68-.17-.96-.23-1.94-.24-2.92-.03-3.05-.01-6.1-.01-9.33Zm50.14,13.18h6.43v-6.41h-6.43v6.41Zm-6.87-6.41h-6.48v6.35h6.48v-6.35Zm26.68,6.4v-6.41h-6.44v6.41h6.44Z" style="fill: #322b6a;"></path><path d="M153.45,19.88H46.96c-1.75-7.99,3.19-12.86,8.87-13.23,.52-.03,1.04-.03,1.56-.03,28.39,0,56.77,0,85.16,0,5.38,0,9.27,2.58,10.35,7.12,.46,1.92,.37,3.96,.55,6.14Z" style="fill: #322b6a;"></path><path d="M13.01,50.91c1.79,1.01,3.59,2.02,5.49,3.1-15.91,30.61-15.93,61.19,0,91.94-1.82,1.04-3.65,2.08-5.48,3.13-17.28-28.85-17.44-68.99,0-98.16Z" style="fill: #322b6a;"></path><path d="M33.55,131.26c-1.97,.95-3.88,1.86-5.78,2.77-10.15-19.86-10.6-47.03-.03-68.06,1.9,.91,3.81,1.81,5.82,2.77-9.28,20.86-9.29,41.63,0,62.52Z" style="fill: #322b6a;"></path><path d="M166.31,68.76c2.06-.98,3.92-1.87,6.05-2.89,10.14,22.76,10.14,45.33,.03,68.24-2.04-.96-3.94-1.86-6.06-2.87,4.6-9.9,7-20.27,7.01-31.12,.02-10.88-2.33-21.28-7.03-31.36Z" style="fill: #322b6a;"></path></svg>