<svg xmlns="http://www.w3.org/2000/svg" id="Layer_1" data-name="Layer 1" viewBox="0 0 100 100"><path d="M85.24,13.81c6.34,6.34,6.34,16.61,0,22.94-6.34,6.34-16.61,6.34-22.94,0-6.34-6.34-6.34-16.61,0-22.94,6.34-6.34,16.61-6.34,22.94,0ZM50.69,89.4h-13c-.07,0-.13,.03-.17,.09-1.12,1.73-2.43,3.36-3.89,4.85-.88,.9-1.81,1.74-2.78,2.53-.04,.03-.08,.05-.13,.05h-12.33c-.85,0-1.54,.69-1.54,1.54s.69,1.54,1.54,1.54h51.62c.85,0,1.54-.69,1.54-1.54s-.69-1.54-1.54-1.54h-12.33s-.09-.01-.13-.05c-.97-.79-1.91-1.64-2.78-2.53-1.46-1.49-2.77-3.12-3.89-4.85-.04-.06-.1-.09-.17-.09h0Zm8.17-29.34v10.6c0,1.2,.99,2.19,2.19,2.19h12.59c1.2,0,2.19-.99,2.19-2.19v-8.49c0-.08-.05-.16-.13-.19s-.16-.02-.22,.04l-7.91,7.87s-.01,.01-.02,.02c-.67,.5-1.63,.37-2.14-.3l-2.64-3.46c-.51-.67-.39-1.64,.29-2.15s1.64-.39,2.15,.29l1.44,1.89s.09,.08,.15,.08c.06,0,.12-.02,.16-.06l10.77-10.73c.6-.6,.6-1.57,0-2.17-.6-.6-1.57-.6-2.17,0l-4.53,4.51s-.09,.06-.14,.06h-9.83c-1.2,0-2.19,.99-2.19,2.19Zm-21.82-2.19c-1.2,0-2.19,.99-2.19,2.19v10.61c0,1.2,.99,2.19,2.19,2.19h12.59c1.2,0,2.19-.99,2.19-2.19v-10.61c0-1.2-.99-2.19-2.19-2.19h-12.59Zm6.44,5.17l1.9-1.9c.6-.6,1.57-.6,2.18,0,.6,.6,.6,1.57,0,2.18l-1.9,1.9c-.08,.08-.08,.21,0,.29l1.9,1.9c.6,.6,.6,1.57,0,2.18-.6,.6-1.57,.6-2.18,0l-1.9-1.9c-.08-.08-.21-.08-.29,0l-1.9,1.9c-.6,.6-1.57,.6-2.18,0s-.6-1.57,0-2.18l1.9-1.9c.08-.08,.08-.21,0-.29l-1.9-1.9c-.6-.6-.6-1.57,0-2.18s1.57-.6,2.18,0l1.9,1.9c.08,.08,.21,.08,.29,0Zm-20.62-5.17H13.02c-1.2,0-2.19,.99-2.19,2.19v10.6c0,1.2,.99,2.19,2.19,2.19h12.59c1.2,0,2.19-.99,2.19-2.19v-8.49c0-.08-.05-.16-.13-.19s-.16-.02-.22,.04l-7.91,7.87s-.01,.01-.02,.02c-.67,.5-1.63,.37-2.14-.3l-2.64-3.46c-.51-.67-.39-1.64,.29-2.15s1.64-.39,2.15,.29l1.44,1.89s.09,.08,.15,.08c.06,0,.12-.02,.16-.06l10.77-10.73c.6-.6,.6-1.57,0-2.17-.6-.6-1.57-.6-2.17,0l-4.53,4.51s-.09,.06-.14,.06h0Zm-2.8-13.72l9.64-9.61c.6-.6,.6-1.57,0-2.17-.6-.6-1.57-.6-2.17,0l-4.53,4.51s-.09,.06-.14,.06H13.02c-1.2,0-2.19,.99-2.19,2.19v10.6c0,1.2,.99,2.19,2.19,2.19h12.59c1.2,0,2.19-.99,2.19-2.19v-8.49c0-.08-.05-.16-.13-.19s-.16-.02-.22,.04l-7.91,7.87s-.01,.01-.02,.02c-.67,.5-1.63,.37-2.14-.3l-2.64-3.46c-.51-.67-.39-1.64,.29-2.15s1.64-.39,2.15,.29l1.44,1.89s.09,.08,.15,.08c.06,0,.12-.02,.16-.06l1.13-1.13Zm60.24-17.01v8.98c0,.08,.04,.14,.11,.18s.14,.04,.21,0c3.2-1.99,5.43-5.3,5.98-9.12,0-.06,0-.12-.05-.16s-.09-.07-.16-.07h-5.89c-.11,0-.21,.09-.21,.2h0Zm-9.72,0v10.53c0,.1,.06,.18,.16,.2,2,.48,4.12,.48,6.12,0,.09-.02,.16-.1,.16-.2v-10.53c0-.11-.09-.21-.21-.21h-6.02c-.11,0-.21,.09-.21,.2Zm-3.49-.21h-5.9c-.06,0-.11,.02-.16,.07-.04,.05-.06,.1-.05,.16,.56,3.82,2.79,7.14,6,9.13,.06,.04,.14,.04,.21,0s.11-.1,.11-.18v-8.98c0-.11-.09-.2-.2-.2h0Zm.2-3.49V14.45c0-.08-.04-.14-.11-.18-.07-.04-.14-.04-.21,0-3.2,1.99-5.44,5.31-6,9.13,0,.06,0,.12,.05,.16s.09,.07,.16,.07h5.9c.11,0,.2-.09,.2-.21h0Zm9.72,0V12.91c0-.1-.06-.18-.16-.2-2-.49-4.12-.49-6.12,0-.09,.02-.16,.1-.16,.2v10.53c0,.11,.09,.21,.21,.21h6.02c.11,0,.21-.09,.21-.21Zm9.58-.03c-.55-3.82-2.79-7.13-5.98-9.12-.06-.04-.14-.04-.21,0s-.11,.1-.11,.18v8.98c0,.11,.09,.21,.21,.21h5.89c.06,0,.11-.02,.16-.07,.04-.05,.06-.1,.05-.16h0Zm-78.9,.29c-3.71,0-6.73,3.03-6.73,6.73v49.99c0,3.71,3.03,6.73,6.73,6.73H80.69c3.71,0,6.73-3.03,6.73-6.73V46.54c0-.08-.05-.16-.13-.19l-2.67-1.13c-.07-.03-.13-.02-.19,.02s-.09,.1-.09,.17v31.72c0,.11-.09,.21-.21,.21H4.22c-.11,0-.21-.09-.21-.21V30.43c0-2.01,1.65-3.66,3.66-3.66H44.98c.11,0,.21-.09,.21-.21v-2.67c0-.11-.09-.21-.21-.21H7.68Zm82.36,21.09l3.24-3.24c.06-.06,.08-.16,.04-.24l-2.1-4.13c-.28-.54-.22-1.17,.09-1.64,0,0,0,0,0,0,.89-1.43,1.73-3.55,2.14-5.18,.14-.56,.56-.98,1.08-1.15h0s4.4-1.43,4.4-1.43c.09-.03,.14-.1,.14-.2v-4.57c0-.09-.06-.17-.14-.2l-4.4-1.43c-.59-.19-1-.69-1.1-1.26,0,0,0,0,0,0-.35-1.56-1.33-3.75-2.15-5.14-.3-.5-.29-1.09-.05-1.58h0s2.1-4.13,2.1-4.13c.04-.08,.03-.17-.04-.24l-3.23-3.23c-.06-.06-.16-.08-.24-.04l-4.13,2.1c-.54,.28-1.17,.22-1.64-.09,0,0,0,0,0,0-1.43-.89-3.55-1.73-5.18-2.14-.56-.14-.98-.56-1.15-1.08h0s-1.43-4.4-1.43-4.4C76.23,.06,76.15,0,76.06,0h-4.57C71.39,0,71.32,.06,71.29,.14l-1.43,4.4c-.19,.59-.69,1-1.26,1.1,0,0,0,0,0,0-1.56,.35-3.75,1.33-5.14,2.15-.5,.3-1.09,.29-1.58,.05h0s-4.13-2.1-4.13-2.1c-.08-.04-.17-.03-.24,.04l-3.23,3.23c-.06,.06-.08,.16-.04,.24l2.1,4.13c.28,.54,.22,1.17-.09,1.64,0,0,0,0,0,0-.89,1.43-1.72,3.55-2.14,5.18-.14,.56-.56,.98-1.08,1.15h0s-4.4,1.43-4.4,1.43c-.09,.03-.14,.1-.14,.2v4.57c0,.09,.06,.17,.14,.2l4.4,1.43c.59,.19,1,.69,1.1,1.26,0,0,0,0,0,0,.35,1.56,1.33,3.75,2.15,5.14,.3,.5,.29,1.09,.05,1.58h0s-2.1,4.13-2.1,4.13c-.04,.08-.03,.17,.04,.24l3.23,3.23c.06,.06,.16,.08,.24,.04l4.13-2.1c.54-.28,1.17-.22,1.64,.09,0,0,0,0,0,0,1.43,.89,3.55,1.73,5.18,2.14,.56,.14,.98,.56,1.15,1.08h0s1.43,4.4,1.43,4.4c.03,.09,.1,.14,.2,.14h4.57c.09,0,.17-.06,.19-.14l1.43-4.4c.19-.59,.69-1,1.26-1.1,0,0,0,0,0,0,1.56-.35,3.75-1.33,5.14-2.15,.06-.04,.29-.2,.44-.29,.06-.04,.13-.04,.19-.01l5.08,2.36c.08,.04,.17,.02,.23-.04h0Z" style="fill: #322b6a; fill-rule: evenodd;"></path></svg>