<svg xmlns="http://www.w3.org/2000/svg" id="Layer_1" data-name="Layer 1" viewBox="0 0 100 100"><path d="M30.26,57.37c2.01,.42,3.91,1.21,5.63,2.33l4.98-4.98,4.74,4.74-4.98,4.98c1.12,1.71,1.92,3.62,2.33,5.63h7.04v6.71h-7.04c-.42,2.01-1.21,3.91-2.33,5.63l4.98,4.98-4.74,4.74-4.98-4.98c-1.71,1.12-3.62,1.92-5.63,2.33v7.04h-6.71v-7.04c-2.01-.42-3.91-1.21-5.63-2.33l-4.98,4.98-4.74-4.74,4.98-4.98c-1.12-1.71-1.92-3.62-2.33-5.63H3.81v-6.71h7.04c.42-2.01,1.21-3.91,2.33-5.63l-4.98-4.98,4.74-4.74,4.98,4.98c1.71-1.12,3.62-1.92,5.63-2.33v-7.04h6.71v7.04ZM5.62,46.82C5.62,22.31,25.49,2.44,50,2.44s44.38,19.87,44.38,44.38-18.09,42.63-41.2,44.27l6.16-5.82c.48-.47,.49-1.24,.02-1.72-.46-.46-1.2-.49-1.68-.05l-8.45,7.98c-.52,.42-.6,1.19-.18,1.71,.11,.14,.25,.25,.41,.33l10.55,6.31c.58,.34,1.32,.16,1.67-.42s.16-1.32-.42-1.67h0l-7.15-4.28c24.03-2.09,42.71-22.27,42.71-46.64C96.82,20.96,75.86,0,50,0S3.18,20.96,3.18,46.82c0,.67,.55,1.22,1.22,1.22s1.22-.55,1.22-1.22h0Zm43.16,.7l-20.6-11.89v12.26h4.52v7.61c.96,.31,1.89,.7,2.79,1.16l5.38-5.38,7.92,7.92v-11.67Zm-19.39-14l9.09-5.25,20.61,11.9-9.09,5.25-20.61-11.9Zm32.13,5.25l-20.61-11.9,9.09-5.25,20.61,11.9-9.09,5.25Zm-12.74,28.87v-7.89l-5.1,5.1c.46,.9,.85,1.83,1.16,2.79h3.95Zm3.66,2.98v-2.98h-1.22v-20.11l20.6-11.89v23.8l-19.38,11.19Zm-25.53-5.38c-4.53,0-8.19,3.67-8.19,8.19,0,4.53,3.67,8.19,8.19,8.19,4.53,0,8.19-3.67,8.19-8.19,0-4.53-3.67-8.19-8.19-8.19Z" style="fill: #322b6a; fill-rule: evenodd;"></path></svg>