<svg xmlns="http://www.w3.org/2000/svg" id="Layer_1" data-name="Layer 1" viewBox="0 0 100 100"><path d="M33.61,88.89l13.13,11.11v-4.96c0-1.01,.82-1.82,1.82-1.82h27.63v-8.64h-27.63c-1.01,0-1.82-.82-1.82-1.82v-4.96l-13.13,11.1Z" style="fill: #322b6a;"></path><path d="M47.39,72.47c.77-.65,1.92-.55,2.57,.21,.28,.33,.43,.75,.43,1.18v7.07h18.45v-18.29h-17.49c-1.01,0-1.82-.82-1.82-1.82v-12.29c0-1.01,.82-1.82,1.82-1.82h17.49V0H18.93V13.73c0,1.01-.82,1.82-1.82,1.82H4.24V87.07H30.12l17.27-14.6Zm-7.66-43.71h16.36c1.01,0,1.82,.82,1.82,1.82s-.82,1.82-1.82,1.82h-16.36c-1.01,0-1.82-.82-1.82-1.82s.82-1.82,1.82-1.82h0Zm-22.73,10.58H56.09c1.01,0,1.82,.82,1.82,1.82s-.82,1.82-1.82,1.82H17c-1.01,0-1.82-.82-1.82-1.82s.82-1.82,1.82-1.82Zm0,10.58h26.88c1.01,0,1.82,.82,1.82,1.82s-.82,1.82-1.82,1.82H17c-1.01,0-1.82-.82-1.82-1.82s.82-1.82,1.82-1.82Zm0,10.58h26.88c1.01,0,1.82,.82,1.82,1.82s-.82,1.82-1.82,1.82H17c-1.01,0-1.82-.82-1.82-1.82s.82-1.82,1.82-1.82Zm-1.82,12.4c0-1.01,.82-1.82,1.82-1.82h19.55c1.01,0,1.82,.82,1.82,1.82s-.82,1.82-1.82,1.82H17c-1,0-1.81-.8-1.82-1.8v-.02Z" style="fill: #322b6a;"></path><path d="M15.28,2.77L6.66,11.91H15.28V2.77Z" style="fill: #322b6a;"></path><path d="M53.18,58.99h27.63c1.01,0,1.82,.82,1.82,1.82v4.96l13.13-11.1-13.13-11.1v4.96c0,1.01-.82,1.82-1.82,1.82h-27.63v8.64Z" style="fill: #322b6a;"></path></svg>