<svg xmlns="http://www.w3.org/2000/svg" id="Layer_1" data-name="Layer 1" viewBox="0 0 100 100"><g id="Page-1"><g id="_035---Give-Encryption" data-name="035---Give-Encryption"><path id="Shape" d="M75,26.79c0-.99-.8-1.79-1.79-1.79H37.5c-.99,0-1.79,.8-1.79,1.79v1.79h39.28v-1.79Z" style="fill: #322b6a;"></path><path id="Shape-2" data-name="Shape" d="M46.43,12.5c0-4.93,4-8.93,8.93-8.93s8.93,4,8.93,8.93v8.93h3.57V12.5C67.85,5.6,62.26,0,55.36,0s-12.5,5.6-12.5,12.5v8.93h3.57V12.5Z" style="fill: #322b6a;"></path><rect id="Rectangle-path" y="58.93" width="12.5" height="41.07" rx="1.79" ry="1.79" style="fill: #322b6a;"></rect><path id="Shape-3" data-name="Shape" d="M39.64,66.07h9.34c3.76,.01,7.24,1.98,9.2,5.2l.16,.27c1.27,2.13,1.51,4.71,.66,7.04h1.02c.58,0,1.15-.09,1.7-.27l20.43-6.82V33.93c0-.99-.8-1.79-1.79-1.79H30.36c-.99,0-1.79,.8-1.79,1.79v27.59c.7,.4,1.37,.86,2,1.37,2.58,2.05,5.77,3.18,9.07,3.18h0Zm-2.14-3.57c-.99,0-1.79-.8-1.79-1.79s.8-1.79,1.79-1.79,1.79,.8,1.79,1.79-.8,1.79-1.79,1.79Zm32.14,7.14h-7.14c-.99,0-1.79-.8-1.79-1.79s.8-1.79,1.79-1.79h7.14c.99,0,1.79,.8,1.79,1.79s-.8,1.79-1.79,1.79Zm-2.99-29.04c-.47-.43-.67-1.08-.54-1.7,.14-.62,.6-1.12,1.21-1.32s1.27-.04,1.74,.39l6.69,6.14c.66,.59,1.03,1.44,1.03,2.33s-.38,1.73-1.03,2.33l-6.69,6.13c-.73,.67-1.86,.62-2.52-.11s-.62-1.86,.11-2.52l6.36-5.83-6.35-5.83Zm1.21,18.33h5.36c.99,0,1.79,.8,1.79,1.79s-.8,1.79-1.79,1.79h-5.36c-.99,0-1.79-.8-1.79-1.79s.8-1.79,1.79-1.79Zm-19.29-6.43l10.71-14.29c.59-.79,1.71-.95,2.5-.36,.79,.59,.95,1.71,.36,2.5l-10.71,14.29c-.59,.79-1.71,.95-2.5,.36s-.95-1.71-.36-2.5h0Zm12.14,6.43c.99,0,1.79,.8,1.79,1.79s-.8,1.79-1.79,1.79h-16.07c-.99,0-1.79-.8-1.79-1.79s.8-1.79,1.79-1.79h16.07Zm-25.75-14.82l6.69-6.13c.73-.67,1.86-.62,2.52,.11s.62,1.86-.11,2.52l-6.35,5.82,6.35,5.83c.73,.67,.78,1.8,.11,2.52s-1.8,.78-2.52,.11l-6.69-6.14c-.66-.59-1.03-1.44-1.03-2.33s.38-1.73,1.03-2.33h0Z" style="fill: #322b6a;"></path><path id="Shape-4" data-name="Shape" d="M99.37,71.77l-.11-.16c-.81-.98-2.15-1.36-3.36-.95l-33.07,11.02c-.91,.31-1.86,.46-2.82,.46h-15.86c-2.82,0-5.58,.83-7.93,2.39l-1.32,.87c-.81,.44-1.82,.18-2.33-.59s-.35-1.8,.37-2.38l1.3-.87c2.93-1.96,6.38-3.01,9.91-3h10.84c1.14-1.52,1.24-3.57,.27-5.2l-.16-.27c-1.29-2.15-3.62-3.46-6.12-3.46h-9.34c-4.1,0-8.08-1.4-11.29-3.96-2.58-2.05-5.77-3.18-9.07-3.18h-3.21v35.71H59.46c1.96,0,3.89-.54,5.57-1.55l33.48-20.37c.74-.46,1.26-1.21,1.43-2.07,.17-.86-.04-1.75-.57-2.45h0Z" style="fill: #322b6a;"></path></g></g></svg>