<svg xmlns="http://www.w3.org/2000/svg" id="Layer_1" data-name="Layer 1" viewBox="0 0 100 100"><path d="M34,8.64c-.32-.53-.9-.86-1.52-.86H1.78C.79,7.79,0,8.59,0,9.58c0,.29,.07,.57,.21,.83l15.13,28.09v51.94c.02,.99,.83,1.77,1.81,1.76,.96-.02,1.74-.79,1.76-1.76V38.47l15.14-28.06c.3-.56,.28-1.23-.05-1.77Z" style="fill: #322b6a;"></path><path d="M38.39,16.03c11.66,.08,21.1,9.52,21.18,21.18,0,.99,.8,1.79,1.79,1.79h0c3.26-.08,1.25-6.39,.89-8.32-2.98-10.73-12.73-18.18-23.86-18.22-.99,.01-1.77,.83-1.76,1.81,.01,.97,.79,1.75,1.76,1.76Z" style="fill: #322b6a;"></path><path d="M37.05,19.55c-.99,.01-1.78,.82-1.76,1.81,.01,.97,.79,1.75,1.76,1.76,8.51,.05,15.39,6.93,15.44,15.44,0,.99,.82,1.78,1.8,1.77,.97,0,1.76-.8,1.77-1.77-.06-10.47-8.54-18.95-19.01-19.01Z" style="fill: #322b6a;"></path><path d="M35.71,26.64c-.99,0-1.78,.81-1.77,1.8,0,.97,.79,1.76,1.76,1.77,5.35,.03,9.67,4.36,9.7,9.71,.01,.99,.82,1.78,1.81,1.76,.97-.01,1.76-.8,1.77-1.78-.05-7.31-5.96-13.22-13.26-13.26Z" style="fill: #322b6a;"></path><path d="M39.07,39.04c.68-.7,.65-1.82-.05-2.5-.68-.66-1.76-.66-2.45,0-.68,.7-.65,1.82,.05,2.5,.68,.66,1.76,.66,2.45,0Z" style="fill: #322b6a;"></path><rect x="32.75" y="55.57" width="14.71" height="36.65" rx="1.79" ry="1.79" style="fill: #322b6a;"></rect><rect x="59.02" y="46.61" width="14.71" height="45.61" rx="1.79" ry="1.79" style="fill: #322b6a;"></rect><path d="M98.21,36.61h-11.14c-.98,0-1.78,.79-1.79,1.77,0,0,0,0,0,.01v52.04c0,.99,.8,1.78,1.79,1.79h11.14c.99,0,1.78-.8,1.79-1.79V38.39c0-.98-.79-1.78-1.77-1.79,0,0,0,0-.01,0Z" style="fill: #322b6a;"></path></svg>