<svg xmlns="http://www.w3.org/2000/svg" id="Layer_1" data-name="Layer 1" viewBox="0 0 100 100"><path d="M18.23,85.56H0V51.92H18.23v33.63Zm79.97-16.34l-31.59,20.3c-2.38,1.53-5.04,1.96-7.92,1.28l-38-8.96v-25.22h15.84c1.29-.02,2.55,.4,3.56,1.19l8.19,6.14c1.09,.84,2.43,1.28,3.81,1.27h21.96c1.02,0,1.84,.82,1.84,1.84,0,0,0,0,0,.01v1.38c-.02,1.98-1.51,3.63-3.48,3.85l-23.02,2.54c-.61,.08-1.23,0-1.8-.23l-10.23-3.87c-.63-.25-1.35,.07-1.59,.7-.25,.63,.07,1.35,.7,1.59,0,0,.02,0,.02,0l10.23,3.87c.94,.36,1.95,.49,2.94,.37l23.02-2.54c3.21-.35,5.64-3.05,5.66-6.28v-1.38c0-.09,0-.17,0-.26l19.39-4.34c.99-.22,1.98,.4,2.2,1.4,.03,.14,.05,.27,.04,.41v1.67c0,1.32-.67,2.55-1.8,3.25h0ZM11.97,84.01c1.99,0,3.6-1.61,3.6-3.6,0-1.99-1.61-3.6-3.6-3.6-1.99,0-3.6,1.61-3.6,3.6h0c0,1.99,1.61,3.6,3.6,3.6Zm0-4.73c-.63,0-1.14,.51-1.14,1.14,0,.63,.51,1.14,1.14,1.14s1.14-.51,1.14-1.14h0c0-.63-.51-1.14-1.14-1.14ZM66.37,24.6V13.09l-2.05,2.05c-.5,.47-1.27,.44-1.74-.06-.44-.47-.44-1.21,0-1.68l4.15-4.15c.48-.48,1.26-.48,1.74,0l4.15,4.15c.48,.48,.48,1.26,0,1.74s-1.26,.48-1.74,0l-2.05-2.05v11.51c.02,.68-.51,1.25-1.19,1.27-.68,.02-1.25-.51-1.27-1.19,0-.03,0-.05,0-.08h0Zm-18.02,6.68v23.48c0,1.92,1.56,3.48,3.49,3.49h31.54c1.92,0,3.48-1.56,3.48-3.49V31.28c0-1.92-1.56-3.48-3.48-3.49h-31.54c-1.92,0-3.48,1.56-3.49,3.49h0Zm14.6,19.86c-.74-.42-1.19-1.21-1.19-2.06v-12.11c0-1.31,1.07-2.38,2.38-2.38,.42,0,.83,.11,1.19,.32l10.48,6.05c1.14,.66,1.53,2.11,.87,3.25-.21,.36-.51,.66-.87,.87l-10.48,6.06c-.74,.43-1.64,.43-2.38,0h0Zm1.27-14.03l10.24,5.91-10.24,5.91v-11.83Zm13.98-12.51V15.68l-2.05,2.05c-.48,.48-1.26,.48-1.74,0-.48-.48-.48-1.26,0-1.74l4.15-4.15c.48-.48,1.26-.48,1.74,0,0,0,0,0,0,0l4.15,4.15c.47,.49,.45,1.27-.05,1.74-.47,.45-1.22,.45-1.69,0l-2.05-2.05v8.92c0,.68-.55,1.23-1.23,1.23-.68,0-1.23-.55-1.23-1.23h0Zm-23.67,0V15.68l-2.05,2.05c-.47,.49-1.25,.52-1.74,.05-.49-.47-.52-1.25-.05-1.74,.02-.02,.03-.03,.05-.05l4.15-4.15c.48-.48,1.26-.48,1.74,0,0,0,0,0,0,0l4.15,4.15c.47,.49,.45,1.27-.05,1.74-.47,.45-1.22,.45-1.69,0l-2.05-2.05v8.92c.02,.68-.51,1.25-1.19,1.27-.68,.02-1.25-.51-1.27-1.19,0-.03,0-.05,0-.08h0Z" style="fill: #322b6a; fill-rule: evenodd;"></path></svg>