<svg width="320" height="296" viewBox="0 0 320 296" fill="none" xmlns="http://www.w3.org/2000/svg">
<g clip-path="url(#clip0_1_152)">
<path d="M64.278 254.805L47.9654 238.575L43.3748 241.167L59.6874 257.397C79.9008 277.507 102.126 273.117 111.299 267.938L115.889 265.346C106.717 270.525 84.4913 274.915 64.278 254.805Z" fill="#B7D9F8"/>
<path d="M101.019 271.67C97.799 272.294 93.9589 272.628 89.6244 272.267C84.597 271.848 79.657 270.535 74.9422 268.362C69.5087 265.859 64.3492 262.197 59.6072 257.48L43.2945 241.25C43.2817 241.237 43.272 241.222 43.2662 241.205C43.2603 241.188 43.2585 241.169 43.2608 241.152C43.2631 241.134 43.2695 241.117 43.2795 241.102C43.2895 241.087 43.3028 241.074 43.3184 241.066L47.909 238.473C47.9537 238.449 48.0091 238.456 48.0455 238.492L64.3582 254.722C73.2621 263.581 83.3134 268.534 94.2327 269.443C105.686 270.397 113.661 266.47 115.833 265.244C115.859 265.23 115.89 265.228 115.918 265.236C115.947 265.245 115.971 265.265 115.986 265.291C116 265.318 116.004 265.349 115.997 265.378C115.989 265.407 115.971 265.432 115.945 265.448L115.936 265.452L111.355 268.04C109.992 268.809 106.356 270.636 101.019 271.67ZM43.5646 241.194L59.7676 257.314C68.6714 266.173 78.7227 271.126 89.6421 272.035C101.095 272.99 109.071 269.062 111.242 267.836L112.838 266.935C109.049 268.494 102.544 270.369 94.215 269.675C89.1875 269.256 84.2477 267.942 79.5328 265.77C74.0992 263.267 68.9397 259.605 64.1978 254.888L47.9467 238.719L43.5646 241.194Z" fill="#0880EA"/>
<path d="M47.9653 238.575L43.3747 241.167L51.3725 204.524L55.9631 201.932L47.9653 238.575Z" fill="#EDF6FF"/>
<path d="M43.3968 241.281C43.3781 241.285 43.3588 241.284 43.3406 241.278C43.3224 241.272 43.3059 241.262 43.2925 241.248C43.2792 241.234 43.2695 241.217 43.2643 241.199C43.259 241.18 43.2584 241.16 43.2625 241.141L51.2604 204.498C51.2674 204.466 51.2878 204.439 51.3162 204.422L55.9068 201.83C55.9261 201.819 55.9482 201.814 55.9703 201.816C55.9924 201.817 56.0136 201.825 56.0315 201.839C56.0679 201.866 56.085 201.913 56.0753 201.958L48.0775 238.601C48.0704 238.633 48.05 238.661 48.0216 238.677L43.431 241.269C43.42 241.275 43.4085 241.279 43.3968 241.282L43.3968 241.281ZM51.4735 204.601L43.542 240.939L47.8643 238.499L55.7957 202.16L51.4735 204.601Z" fill="#0880EA"/>
<path d="M55.9631 201.932L87.79 188.997L104.103 205.226C126.282 227.293 122.392 255.331 118.181 263.833C111.059 269.439 86.4574 276.871 64.2779 254.805L47.9653 238.575L55.9631 201.932Z" fill="white"/>
<path d="M105.683 269.058C102.783 269.619 99.8303 269.872 96.8745 269.813C91.4605 269.703 86.1238 268.561 81.0124 266.421C75.0278 263.914 69.3704 260.034 64.1977 254.888L47.8851 238.658C47.8711 238.644 47.8609 238.627 47.8553 238.608C47.8497 238.589 47.8489 238.569 47.8531 238.549L55.8511 201.907C55.8551 201.888 55.8634 201.871 55.8754 201.857C55.8874 201.842 55.9028 201.831 55.92 201.824L87.7469 188.889C87.7894 188.872 87.8377 188.882 87.8702 188.914L104.183 205.144C109.355 210.289 113.45 216.112 116.356 222.449C118.836 227.86 120.45 233.632 121.152 239.604C122.366 249.926 120.586 259.237 118.284 263.886C118.276 263.902 118.265 263.915 118.252 263.926C115.65 265.974 111.163 267.997 105.683 269.058L105.683 269.058ZM48.0912 238.538L64.358 254.722C76.3978 266.701 88.6879 269.414 96.8778 269.58C106.164 269.769 114.217 266.795 118.09 263.758C120.371 259.132 122.13 249.887 120.924 239.63C119.861 230.587 116.065 217.291 104.022 205.309L87.7636 189.133L56.0621 202.017L48.0912 238.538Z" fill="#0880EA"/>
<path d="M59.7592 205.708L52.7366 237.881L67.0589 252.131C86.532 271.505 108.132 264.979 114.386 260.057C118.082 252.593 121.498 227.975 102.025 208.601L87.7023 194.352L59.7592 205.708Z" fill="#EDF6FF"/>
<path d="M103.414 264.658C100.867 265.151 98.2738 265.373 95.6779 265.321C90.9227 265.224 86.2354 264.222 81.746 262.342C76.4899 260.141 71.5214 256.733 66.9785 252.213L52.6563 237.964C52.6424 237.95 52.6321 237.933 52.6265 237.914C52.6209 237.895 52.6201 237.875 52.6243 237.855L59.6472 205.683C59.6512 205.664 59.6596 205.647 59.6716 205.633C59.6837 205.619 59.699 205.607 59.7162 205.6L87.6594 194.244C87.6801 194.235 87.7028 194.233 87.7247 194.238C87.7466 194.242 87.7668 194.253 87.7828 194.269L102.105 208.518C106.647 213.037 110.244 218.151 112.795 223.716C114.974 228.468 116.391 233.537 117.008 238.782C118.074 247.847 116.511 256.026 114.489 260.11C114.481 260.125 114.47 260.139 114.457 260.149C112.17 261.949 108.229 263.726 103.415 264.658L103.414 264.658ZM52.8625 237.844L67.139 252.048C86.0338 270.846 107.413 265.374 114.295 259.981C118.345 251.763 120.847 227.491 101.944 208.684L87.6759 194.488L59.8582 205.794L52.8624 237.844L52.8625 237.844Z" fill="#0880EA"/>
<path d="M77.5191 223.378C75.0024 226.511 75.5741 231.649 78.7954 234.854C81.1807 237.228 84.3488 237.874 86.8544 236.78L92.4377 242.335C93.7305 243.621 95.6156 243.646 96.6262 242.388C97.6367 241.13 97.4042 239.048 96.1114 237.761L90.5281 232.207C91.2251 229.313 90.2938 225.883 87.9085 223.509C84.6872 220.305 80.0352 220.246 77.5192 223.378" fill="#B7D9F8"/>
<path d="M95.1928 243.383C95.0719 243.406 94.9485 243.421 94.8225 243.428C93.9484 243.475 93.0498 243.106 92.3576 242.417L86.8292 236.917C84.2138 238.02 81.0377 237.248 78.7153 234.937C75.4576 231.696 74.881 226.477 77.43 223.304C78.5664 221.89 80.1911 221.057 82.0047 220.96C84.1182 220.847 86.2993 221.746 87.9886 223.427C90.3107 225.737 91.353 229.162 90.6548 232.17L96.1915 237.679C97.5294 239.01 97.7645 241.155 96.7154 242.461C96.332 242.942 95.7927 243.268 95.1928 243.382L95.1928 243.383ZM86.8323 236.666C86.8688 236.659 86.9072 236.67 86.9346 236.697L92.5179 242.252C93.1642 242.895 93.9992 243.239 94.8092 243.196C95.4958 243.159 96.1098 242.846 96.5371 242.314C97.5135 241.098 97.2866 239.093 96.0311 237.844L90.4479 232.289C90.4336 232.275 90.4232 232.258 90.4178 232.238C90.4123 232.219 90.4119 232.198 90.4166 232.179C91.1262 229.233 90.1102 225.863 87.8283 223.592C86.1851 221.958 84.0673 221.083 82.0181 221.192C80.2702 221.286 78.7035 222.088 77.6083 223.452C75.132 226.535 75.7004 231.613 78.8756 234.772C81.152 237.037 84.2662 237.783 86.8085 236.673C86.8162 236.67 86.8241 236.667 86.8323 236.666Z" fill="#0880EA"/>
</g>
<g filter="url(#filter0_bd_1_152)">
<path d="M71 144.877C71 141.631 73.6313 139 76.8771 139H288.453C291.699 139 294.331 141.631 294.331 144.877V216.14C294.331 219.386 291.699 222.017 288.453 222.017H76.8771C73.6313 222.017 71 219.386 71 216.14V144.877Z" fill="url(#paint0_linear_1_152)" shape-rendering="crispEdges"/>
<path d="M76.8771 139.4H288.453C291.478 139.4 293.931 141.852 293.931 144.877V216.14C293.931 219.165 291.478 221.617 288.453 221.617H76.8771C73.8522 221.617 71.4 219.165 71.4 216.14V144.877C71.4 141.852 73.8522 139.4 76.8771 139.4Z" stroke="#EBEBEF" stroke-width="0.8" shape-rendering="crispEdges"/>
<g clip-path="url(#clip1_1_152)">
<path d="M71 144.877C71 141.631 73.6313 139 76.8771 139H288.123C291.369 139 294 141.631 294 144.877V216.123C294 219.369 291.369 222 288.123 222H76.8771C73.6313 222 71 219.369 71 216.123V144.877Z" fill="white" fill-opacity="0.5"/>
<g filter="url(#filter1_f_1_152)">
<g clip-path="url(#clip2_1_152)">
<path d="M56.1844 201.621L88.1093 188.568L104.503 205.02C126.792 227.39 122.925 255.77 118.711 264.371C111.57 270.037 86.8893 277.528 64.6 255.158L48.2066 238.706L56.1844 201.621Z" fill="white"/>
<path d="M106.174 269.644C103.264 270.208 100.301 270.46 97.3347 270.396C91.901 270.277 86.5434 269.115 81.4106 266.941C75.401 264.395 69.7179 260.46 64.5196 255.242L48.1262 238.79C48.1122 238.776 48.1019 238.759 48.0963 238.739C48.0906 238.72 48.0898 238.7 48.094 238.68L56.072 201.595C56.076 201.576 56.0843 201.559 56.0964 201.544C56.1084 201.53 56.1237 201.518 56.141 201.511L88.0659 188.459C88.1085 188.442 88.157 188.452 88.1897 188.484L104.583 204.937C109.781 210.153 113.899 216.053 116.823 222.473C119.32 227.954 120.947 233.799 121.66 239.846C122.892 250.298 121.118 259.722 118.814 264.425C118.806 264.441 118.795 264.454 118.782 264.465C116.173 266.535 111.673 268.577 106.175 269.644L106.174 269.644ZM48.3329 238.669L64.6803 255.075C76.7797 267.218 89.1179 269.981 97.3377 270.16C106.658 270.364 114.736 267.364 118.619 264.295C120.902 259.615 122.655 250.258 121.431 239.872C120.352 230.715 116.525 217.25 104.422 205.104L88.0829 188.706L56.2839 201.707L48.3329 238.669Z" fill="#0880EA"/>
<path d="M59.9994 205.449L52.9943 238.01L67.3876 252.455C86.957 272.095 108.627 265.517 114.897 260.544C118.596 252.991 121.991 228.074 102.422 208.434L88.0285 193.989L59.9994 205.449Z" fill="#EDF6FF"/>
<path d="M103.891 265.186C101.335 265.681 98.7332 265.903 96.1278 265.847C91.3552 265.743 86.6496 264.722 82.1415 262.812C76.8634 260.577 71.8723 257.12 67.307 252.539L52.9139 238.094C52.8998 238.08 52.8895 238.062 52.8839 238.043C52.8782 238.024 52.8775 238.003 52.8816 237.984L59.8869 205.423C59.891 205.404 59.8994 205.387 59.9114 205.372C59.9234 205.358 59.9388 205.346 59.9561 205.339L87.9853 193.88C88.006 193.871 88.0288 193.869 88.0508 193.874C88.0728 193.878 88.0931 193.889 88.1091 193.905L102.502 208.35C107.067 212.931 110.684 218.113 113.252 223.751C115.444 228.564 116.874 233.698 117.499 239.008C118.581 248.187 117.024 256.465 115 260.597C114.992 260.612 114.981 260.626 114.968 260.637C112.675 262.455 108.722 264.249 103.892 265.186L103.891 265.186ZM53.1206 237.972L67.4678 252.371C86.4562 271.427 107.906 265.917 114.805 260.466C118.859 252.151 121.338 227.583 102.341 208.518L88.0021 194.127L60.0989 205.535L53.1206 237.972L53.1206 237.972Z" fill="#0880EA"/>
<path d="M77.8472 223.361C75.3255 226.529 75.9061 231.732 79.1434 234.981C81.5406 237.387 84.7209 238.045 87.2342 236.941L92.8451 242.572C94.1443 243.876 96.0363 243.904 97.0488 242.631C98.0614 241.359 97.8252 239.251 96.526 237.947L90.915 232.316C91.6108 229.388 90.6715 225.914 88.2744 223.508C85.0371 220.259 80.3682 220.193 77.8472 223.361" fill="#B7D9F8"/>
<path d="M95.6116 243.637C95.4903 243.66 95.3664 243.675 95.24 243.682C94.3627 243.728 93.4605 243.354 92.7648 242.656L87.209 237.08C84.5857 238.193 81.397 237.407 79.0631 235.065C75.7893 231.779 75.2036 226.495 77.7576 223.286C78.8962 221.855 80.5257 221.015 82.3458 220.919C84.4668 220.807 86.657 221.72 88.3547 223.424C90.6883 225.766 91.7389 229.235 91.0422 232.279L96.6063 237.863C97.9508 239.213 98.1896 241.385 97.1384 242.706C96.7544 243.192 96.2135 243.521 95.6115 243.636L95.6116 243.637ZM87.2119 236.825C87.2485 236.818 87.287 236.83 87.3145 236.857L92.9254 242.488C93.5749 243.14 94.4135 243.49 95.2263 243.447C95.9154 243.411 96.5312 243.094 96.9593 242.557C97.9376 241.327 97.7072 239.297 96.4456 238.031L90.8346 232.4C90.8203 232.385 90.8099 232.368 90.8043 232.348C90.7988 232.328 90.7984 232.307 90.8031 232.287C91.5114 229.307 90.4872 225.893 88.194 223.592C86.5426 221.934 84.416 221.046 82.3595 221.154C80.6054 221.247 79.0341 222.057 77.9367 223.436C75.4556 226.553 76.0329 231.695 79.2238 234.897C81.5114 237.193 84.6379 237.953 87.188 236.833C87.1957 236.829 87.2036 236.827 87.2119 236.825Z" fill="#0880EA"/>
</g>
</g>
</g>
<path d="M76.8771 139.4H288.123C291.148 139.4 293.6 141.852 293.6 144.877V216.123C293.6 219.148 291.148 221.6 288.123 221.6H76.8771C73.8522 221.6 71.4 219.148 71.4 216.123V144.877C71.4 141.852 73.8522 139.4 76.8771 139.4Z" stroke="#EBEBEF" stroke-width="0.8"/>
<path d="M87.7379 164.895C87.1188 164.895 86.5429 164.782 86.01 164.554C85.485 164.327 85.0266 164.014 84.6348 163.614C84.2508 163.207 83.9491 162.729 83.7297 162.18C83.5103 161.631 83.4006 161.028 83.4006 160.37C83.4006 159.719 83.5064 159.12 83.7179 158.571C83.9373 158.015 84.243 157.537 84.6348 157.137C85.0266 156.73 85.485 156.417 86.01 156.197C86.535 155.97 87.111 155.856 87.7379 155.856C88.3569 155.856 88.9094 155.962 89.3952 156.174C89.8889 156.385 90.3042 156.663 90.6412 157.008C90.9781 157.345 91.2211 157.713 91.3699 158.113L90.124 158.701C89.9359 158.231 89.6342 157.851 89.2189 157.561C88.8114 157.263 88.3178 157.114 87.7379 157.114C87.158 157.114 86.6447 157.251 86.1981 157.525C85.7514 157.8 85.4027 158.18 85.152 158.665C84.909 159.151 84.7876 159.719 84.7876 160.37C84.7876 161.02 84.909 161.592 85.152 162.086C85.4027 162.572 85.7514 162.952 86.1981 163.226C86.6447 163.493 87.158 163.626 87.7379 163.626C88.3178 163.626 88.8114 163.481 89.2189 163.191C89.6342 162.901 89.9359 162.521 90.124 162.051L91.3699 162.638C91.2211 163.03 90.9781 163.399 90.6412 163.743C90.3042 164.088 89.8889 164.366 89.3952 164.578C88.9094 164.789 88.3569 164.895 87.7379 164.895ZM95.1706 164.895C94.6926 164.895 94.2734 164.789 93.9129 164.578C93.5524 164.358 93.2703 164.057 93.0666 163.673C92.8707 163.281 92.7727 162.83 92.7727 162.321V158.395H94.101V162.204C94.101 162.493 94.1597 162.748 94.2773 162.968C94.3948 163.187 94.5594 163.359 94.771 163.485C94.9825 163.602 95.2255 163.661 95.4997 163.661C95.7818 163.661 96.0287 163.598 96.2402 163.473C96.4518 163.348 96.6164 163.171 96.7339 162.944C96.8593 162.717 96.922 162.45 96.922 162.145V158.395H98.2385V164.754H96.9808V163.508L97.1218 163.673C96.9729 164.065 96.7261 164.366 96.3813 164.578C96.0365 164.789 95.6329 164.895 95.1706 164.895ZM102.375 164.895C101.725 164.895 101.153 164.735 100.659 164.413C100.173 164.092 99.8324 163.661 99.6365 163.12L100.659 162.638C100.832 162.999 101.067 163.285 101.364 163.496C101.67 163.708 102.007 163.814 102.375 163.814C102.689 163.814 102.943 163.743 103.139 163.602C103.335 163.461 103.433 163.269 103.433 163.026C103.433 162.87 103.39 162.744 103.304 162.65C103.218 162.548 103.108 162.466 102.975 162.403C102.849 162.341 102.72 162.294 102.587 162.262L101.588 161.98C101.039 161.823 100.628 161.588 100.353 161.275C100.087 160.954 99.9539 160.581 99.9539 160.158C99.9539 159.774 100.052 159.441 100.248 159.159C100.444 158.869 100.714 158.646 101.059 158.489C101.404 158.332 101.791 158.254 102.222 158.254C102.802 158.254 103.319 158.399 103.774 158.689C104.228 158.971 104.55 159.367 104.738 159.876L103.715 160.358C103.59 160.052 103.39 159.81 103.116 159.629C102.849 159.449 102.548 159.359 102.211 159.359C101.921 159.359 101.69 159.43 101.517 159.571C101.345 159.704 101.259 159.88 101.259 160.1C101.259 160.248 101.298 160.374 101.376 160.476C101.454 160.57 101.556 160.648 101.682 160.711C101.807 160.766 101.936 160.813 102.07 160.852L103.104 161.157C103.629 161.306 104.033 161.541 104.315 161.863C104.597 162.176 104.738 162.552 104.738 162.991C104.738 163.367 104.636 163.7 104.432 163.99C104.236 164.272 103.962 164.496 103.609 164.66C103.257 164.817 102.845 164.895 102.375 164.895ZM109.025 164.825C108.359 164.825 107.842 164.637 107.473 164.261C107.105 163.884 106.921 163.355 106.921 162.674V159.594H105.804V158.395H105.98C106.278 158.395 106.509 158.309 106.674 158.137C106.839 157.964 106.921 157.729 106.921 157.431V156.938H108.249V158.395H109.695V159.594H108.249V162.615C108.249 162.834 108.284 163.022 108.355 163.179C108.425 163.328 108.539 163.446 108.696 163.532C108.852 163.61 109.056 163.649 109.307 163.649C109.37 163.649 109.44 163.645 109.518 163.638C109.597 163.63 109.671 163.622 109.742 163.614V164.754C109.632 164.77 109.511 164.786 109.377 164.801C109.244 164.817 109.127 164.825 109.025 164.825ZM114.226 164.895C113.615 164.895 113.055 164.75 112.545 164.46C112.044 164.17 111.644 163.775 111.346 163.273C111.049 162.772 110.9 162.204 110.9 161.569C110.9 160.926 111.049 160.358 111.346 159.864C111.644 159.363 112.044 158.971 112.545 158.689C113.047 158.399 113.607 158.254 114.226 158.254C114.853 158.254 115.413 158.399 115.907 158.689C116.409 158.971 116.804 159.363 117.094 159.864C117.392 160.358 117.541 160.926 117.541 161.569C117.541 162.211 117.392 162.783 117.094 163.285C116.796 163.786 116.397 164.182 115.895 164.472C115.394 164.754 114.837 164.895 114.226 164.895ZM114.226 163.661C114.602 163.661 114.935 163.571 115.225 163.391C115.515 163.21 115.742 162.964 115.907 162.65C116.079 162.329 116.166 161.968 116.166 161.569C116.166 161.169 116.079 160.813 115.907 160.499C115.742 160.186 115.515 159.939 115.225 159.759C114.935 159.578 114.602 159.488 114.226 159.488C113.858 159.488 113.525 159.578 113.227 159.759C112.937 159.939 112.706 160.186 112.534 160.499C112.369 160.813 112.287 161.169 112.287 161.569C112.287 161.968 112.369 162.329 112.534 162.65C112.706 162.964 112.937 163.21 113.227 163.391C113.525 163.571 113.858 163.661 114.226 163.661ZM119.073 164.754V158.395H120.342V159.77L120.178 159.559C120.311 159.128 120.554 158.803 120.906 158.583C121.259 158.364 121.663 158.254 122.117 158.254C122.626 158.254 123.077 158.391 123.469 158.665C123.868 158.932 124.135 159.288 124.268 159.735L123.892 159.77C124.08 159.261 124.366 158.881 124.75 158.63C125.142 158.379 125.588 158.254 126.09 158.254C126.529 158.254 126.925 158.356 127.277 158.56C127.638 158.763 127.924 159.046 128.135 159.406C128.347 159.766 128.453 160.178 128.453 160.64V164.754H127.124V161.005C127.124 160.683 127.066 160.413 126.948 160.194C126.838 159.966 126.682 159.794 126.478 159.676C126.282 159.551 126.051 159.488 125.784 159.488C125.518 159.488 125.283 159.551 125.079 159.676C124.875 159.794 124.715 159.966 124.597 160.194C124.48 160.421 124.421 160.691 124.421 161.005V164.754H123.104V161.005C123.104 160.683 123.046 160.413 122.928 160.194C122.818 159.966 122.662 159.794 122.458 159.676C122.262 159.551 122.027 159.488 121.753 159.488C121.486 159.488 121.251 159.551 121.047 159.676C120.844 159.794 120.683 159.966 120.565 160.194C120.456 160.421 120.401 160.691 120.401 161.005V164.754H119.073ZM135.338 164.895C134.726 164.895 134.178 164.75 133.692 164.46C133.214 164.163 132.834 163.763 132.552 163.261C132.278 162.76 132.14 162.196 132.14 161.569C132.14 160.942 132.282 160.378 132.564 159.876C132.846 159.375 133.226 158.979 133.704 158.689C134.182 158.399 134.722 158.254 135.326 158.254C135.835 158.254 136.286 158.356 136.678 158.56C137.069 158.763 137.379 159.046 137.606 159.406L137.406 159.712V155.856H138.723V164.754H137.465V163.461L137.618 163.708C137.399 164.092 137.085 164.386 136.678 164.59C136.27 164.793 135.823 164.895 135.338 164.895ZM135.467 163.661C135.835 163.661 136.164 163.571 136.454 163.391C136.752 163.21 136.983 162.964 137.148 162.65C137.32 162.329 137.406 161.968 137.406 161.569C137.406 161.169 137.32 160.813 137.148 160.499C136.983 160.186 136.752 159.939 136.454 159.759C136.164 159.578 135.835 159.488 135.467 159.488C135.099 159.488 134.766 159.578 134.468 159.759C134.17 159.939 133.939 160.186 133.774 160.499C133.61 160.813 133.527 161.169 133.527 161.569C133.527 161.968 133.61 162.329 133.774 162.65C133.939 162.964 134.166 163.21 134.456 163.391C134.754 163.571 135.091 163.661 135.467 163.661ZM143.576 164.895C142.965 164.895 142.405 164.75 141.896 164.46C141.394 164.17 140.994 163.775 140.697 163.273C140.399 162.772 140.25 162.204 140.25 161.569C140.25 160.926 140.399 160.358 140.697 159.864C140.994 159.363 141.394 158.971 141.896 158.689C142.397 158.399 142.957 158.254 143.576 158.254C144.203 158.254 144.764 158.399 145.257 158.689C145.759 158.971 146.155 159.363 146.444 159.864C146.742 160.358 146.891 160.926 146.891 161.569C146.891 162.211 146.742 162.783 146.444 163.285C146.147 163.786 145.747 164.182 145.246 164.472C144.744 164.754 144.188 164.895 143.576 164.895ZM143.576 163.661C143.953 163.661 144.286 163.571 144.576 163.391C144.865 163.21 145.093 162.964 145.257 162.65C145.43 162.329 145.516 161.968 145.516 161.569C145.516 161.169 145.43 160.813 145.257 160.499C145.093 160.186 144.865 159.939 144.576 159.759C144.286 159.578 143.953 159.488 143.576 159.488C143.208 159.488 142.875 159.578 142.577 159.759C142.287 159.939 142.056 160.186 141.884 160.499C141.719 160.813 141.637 161.169 141.637 161.569C141.637 161.968 141.719 162.329 141.884 162.65C142.056 162.964 142.287 163.21 142.577 163.391C142.875 163.571 143.208 163.661 143.576 163.661ZM148.423 164.754V158.395H149.692V159.77L149.528 159.559C149.661 159.128 149.904 158.803 150.257 158.583C150.609 158.364 151.013 158.254 151.467 158.254C151.977 158.254 152.427 158.391 152.819 158.665C153.219 158.932 153.485 159.288 153.618 159.735L153.242 159.77C153.43 159.261 153.716 158.881 154.1 158.63C154.492 158.379 154.939 158.254 155.44 158.254C155.879 158.254 156.275 158.356 156.627 158.56C156.988 158.763 157.274 159.046 157.485 159.406C157.697 159.766 157.803 160.178 157.803 160.64V164.754H156.475V161.005C156.475 160.683 156.416 160.413 156.298 160.194C156.189 159.966 156.032 159.794 155.828 159.676C155.632 159.551 155.401 159.488 155.135 159.488C154.868 159.488 154.633 159.551 154.429 159.676C154.226 159.794 154.065 159.966 153.947 160.194C153.83 160.421 153.771 160.691 153.771 161.005V164.754H152.455V161.005C152.455 160.683 152.396 160.413 152.278 160.194C152.169 159.966 152.012 159.794 151.808 159.676C151.612 159.551 151.377 159.488 151.103 159.488C150.836 159.488 150.601 159.551 150.398 159.676C150.194 159.794 150.033 159.966 149.916 160.194C149.806 160.421 149.751 160.691 149.751 161.005V164.754H148.423ZM161.364 164.895C160.933 164.895 160.553 164.821 160.224 164.672C159.902 164.515 159.651 164.304 159.471 164.037C159.291 163.763 159.201 163.442 159.201 163.073C159.201 162.729 159.275 162.419 159.424 162.145C159.581 161.87 159.82 161.639 160.141 161.451C160.463 161.263 160.866 161.13 161.352 161.052L163.562 160.687V161.733L161.611 162.074C161.258 162.137 160.999 162.251 160.835 162.415C160.67 162.572 160.588 162.776 160.588 163.026C160.588 163.269 160.678 163.469 160.858 163.626C161.046 163.775 161.285 163.849 161.575 163.849C161.936 163.849 162.249 163.771 162.516 163.614C162.79 163.457 163.001 163.25 163.15 162.991C163.299 162.725 163.374 162.431 163.374 162.109V160.476C163.374 160.162 163.256 159.908 163.021 159.712C162.794 159.508 162.488 159.406 162.104 159.406C161.752 159.406 161.442 159.5 161.176 159.688C160.917 159.868 160.725 160.103 160.6 160.393L159.495 159.841C159.612 159.527 159.804 159.253 160.071 159.018C160.337 158.775 160.647 158.587 160.999 158.454C161.36 158.321 161.74 158.254 162.139 158.254C162.641 158.254 163.084 158.348 163.468 158.536C163.86 158.724 164.161 158.987 164.373 159.324C164.592 159.653 164.702 160.037 164.702 160.476V164.754H163.432V163.602L163.703 163.638C163.554 163.896 163.362 164.119 163.127 164.308C162.9 164.496 162.637 164.641 162.339 164.742C162.049 164.844 161.724 164.895 161.364 164.895ZM166.49 164.754V158.395H167.818V164.754H166.49ZM166.49 157.525V155.997H167.818V157.525H166.49ZM169.606 164.754V158.395H170.876V159.641L170.723 159.477C170.88 159.077 171.13 158.775 171.475 158.571C171.82 158.36 172.22 158.254 172.674 158.254C173.144 158.254 173.56 158.356 173.92 158.56C174.281 158.763 174.563 159.046 174.766 159.406C174.97 159.766 175.072 160.182 175.072 160.652V164.754H173.756V161.005C173.756 160.683 173.697 160.413 173.579 160.194C173.462 159.966 173.293 159.794 173.074 159.676C172.862 159.551 172.619 159.488 172.345 159.488C172.071 159.488 171.824 159.551 171.604 159.676C171.393 159.794 171.228 159.966 171.111 160.194C170.993 160.421 170.934 160.691 170.934 161.005V164.754H169.606Z" fill="#1C2024"/>
<path d="M88.6314 174.999H276.699C279.742 174.999 282.209 177.465 282.209 180.508V204.386C282.209 207.429 279.742 209.895 276.699 209.895H88.6314C85.5884 209.895 83.1216 207.429 83.1216 204.386V180.508C83.1216 177.465 85.5884 174.999 88.6314 174.999Z" stroke="#EBEBEF" stroke-width="0.73464"/>
<path d="M92.475 197.447V188.549H93.3566V192.369L93.1568 192.322C93.3135 191.915 93.5682 191.593 93.9208 191.358C94.2813 191.123 94.6966 191.006 95.1667 191.006C95.6134 191.006 96.013 191.108 96.3657 191.311C96.7261 191.515 97.0082 191.797 97.212 192.158C97.4236 192.51 97.5293 192.91 97.5293 193.357V197.447H96.6478V193.697C96.6478 193.313 96.5773 192.988 96.4362 192.722C96.2952 192.455 96.0992 192.252 95.8485 192.111C95.6056 191.962 95.3274 191.887 95.0139 191.887C94.7005 191.887 94.4184 191.962 94.1676 192.111C93.9169 192.252 93.7171 192.459 93.5682 192.734C93.4271 193 93.3566 193.321 93.3566 193.697V197.447H92.475ZM101.858 197.518C101.294 197.518 100.859 197.353 100.553 197.024C100.247 196.695 100.095 196.225 100.095 195.613V192.028H98.9309V191.147H99.2248C99.4912 191.147 99.7028 191.061 99.8595 190.888C100.016 190.708 100.095 190.485 100.095 190.218V189.689H100.976V191.147H102.363V192.028H100.976V195.613C100.976 195.825 101.008 196.013 101.07 196.178C101.133 196.334 101.239 196.46 101.388 196.554C101.544 196.648 101.752 196.695 102.011 196.695C102.073 196.695 102.148 196.691 102.234 196.683C102.32 196.675 102.395 196.667 102.457 196.659V197.447C102.363 197.471 102.257 197.486 102.14 197.494C102.022 197.51 101.928 197.518 101.858 197.518ZM106.65 197.518C106.086 197.518 105.651 197.353 105.345 197.024C105.04 196.695 104.887 196.225 104.887 195.613V192.028H103.723V191.147H104.017C104.283 191.147 104.495 191.061 104.652 190.888C104.808 190.708 104.887 190.485 104.887 190.218V189.689H105.768V191.147H107.155V192.028H105.768V195.613C105.768 195.825 105.8 196.013 105.862 196.178C105.925 196.334 106.031 196.46 106.18 196.554C106.336 196.648 106.544 196.695 106.803 196.695C106.865 196.695 106.94 196.691 107.026 196.683C107.112 196.675 107.187 196.667 107.249 196.659V197.447C107.155 197.471 107.05 197.486 106.932 197.494C106.814 197.51 106.72 197.518 106.65 197.518ZM109.032 199.798V191.147H109.914V192.557L109.773 192.31C110.024 191.911 110.357 191.593 110.772 191.358C111.195 191.123 111.677 191.006 112.218 191.006C112.813 191.006 113.342 191.151 113.805 191.441C114.275 191.723 114.643 192.111 114.91 192.604C115.184 193.098 115.321 193.662 115.321 194.297C115.321 194.924 115.184 195.488 114.91 195.989C114.643 196.483 114.275 196.875 113.805 197.165C113.342 197.447 112.813 197.588 112.218 197.588C111.677 197.588 111.187 197.467 110.749 197.224C110.318 196.973 109.992 196.62 109.773 196.166L109.914 196.037V199.798H109.032ZM112.171 196.707C112.594 196.707 112.97 196.601 113.299 196.389C113.636 196.178 113.899 195.892 114.087 195.531C114.283 195.163 114.381 194.751 114.381 194.297C114.381 193.835 114.283 193.423 114.087 193.063C113.899 192.702 113.636 192.416 113.299 192.205C112.97 191.993 112.594 191.887 112.171 191.887C111.748 191.887 111.364 191.993 111.019 192.205C110.682 192.416 110.412 192.706 110.208 193.074C110.012 193.435 109.914 193.842 109.914 194.297C109.914 194.751 110.012 195.163 110.208 195.531C110.412 195.892 110.682 196.178 111.019 196.389C111.364 196.601 111.748 196.707 112.171 196.707ZM119.294 197.588C118.69 197.588 118.161 197.435 117.707 197.13C117.252 196.824 116.923 196.409 116.72 195.884L117.46 195.531C117.64 195.915 117.891 196.221 118.212 196.448C118.542 196.675 118.902 196.789 119.294 196.789C119.67 196.789 119.987 196.699 120.246 196.518C120.504 196.33 120.634 196.087 120.634 195.79C120.634 195.57 120.571 195.398 120.446 195.272C120.32 195.139 120.175 195.037 120.011 194.967C119.846 194.896 119.701 194.845 119.576 194.814L118.671 194.555C118.091 194.391 117.672 194.16 117.413 193.862C117.155 193.564 117.025 193.219 117.025 192.828C117.025 192.459 117.119 192.138 117.307 191.864C117.495 191.589 117.75 191.378 118.071 191.229C118.393 191.08 118.749 191.006 119.141 191.006C119.674 191.006 120.156 191.147 120.587 191.429C121.026 191.703 121.335 192.087 121.515 192.581L120.763 192.933C120.606 192.581 120.379 192.306 120.081 192.111C119.791 191.907 119.466 191.805 119.106 191.805C118.753 191.805 118.471 191.895 118.259 192.075C118.048 192.256 117.942 192.483 117.942 192.757C117.942 192.969 117.997 193.137 118.107 193.263C118.216 193.388 118.342 193.482 118.483 193.545C118.632 193.607 118.761 193.654 118.871 193.686L119.917 193.991C120.426 194.14 120.822 194.371 121.104 194.685C121.394 194.998 121.539 195.367 121.539 195.79C121.539 196.134 121.441 196.444 121.245 196.718C121.057 196.993 120.794 197.208 120.457 197.365C120.121 197.514 119.733 197.588 119.294 197.588ZM123.629 197.447V196.154H124.569V197.447H123.629ZM123.629 192.44V191.147H124.569V192.44H123.629ZM126.04 198.858L130.013 189.172H131.035L127.062 198.858H126.04ZM131.314 198.858L135.287 189.172H136.31L132.337 198.858H131.314ZM140.338 197.588C139.75 197.588 139.217 197.447 138.739 197.165C138.269 196.875 137.897 196.479 137.623 195.978C137.348 195.476 137.211 194.908 137.211 194.273C137.211 193.639 137.345 193.078 137.611 192.593C137.877 192.099 138.238 191.711 138.692 191.429C139.155 191.147 139.672 191.006 140.244 191.006C140.698 191.006 141.102 191.092 141.455 191.264C141.815 191.429 142.121 191.656 142.371 191.946C142.622 192.228 142.814 192.549 142.947 192.91C143.081 193.263 143.147 193.627 143.147 194.003C143.147 194.081 143.143 194.172 143.135 194.273C143.128 194.367 143.116 194.465 143.1 194.567H137.775V193.744H142.595L142.172 194.097C142.242 193.666 142.191 193.282 142.019 192.945C141.854 192.6 141.615 192.33 141.302 192.134C140.988 191.93 140.636 191.828 140.244 191.828C139.852 191.828 139.488 191.93 139.151 192.134C138.822 192.338 138.563 192.624 138.375 192.992C138.187 193.353 138.112 193.784 138.152 194.285C138.112 194.787 138.191 195.225 138.387 195.602C138.59 195.97 138.865 196.256 139.21 196.46C139.562 196.663 139.938 196.765 140.338 196.765C140.8 196.765 141.188 196.656 141.502 196.436C141.815 196.217 142.07 195.942 142.266 195.613L143.018 196.013C142.893 196.295 142.701 196.558 142.442 196.801C142.183 197.036 141.874 197.228 141.513 197.376C141.161 197.518 140.769 197.588 140.338 197.588ZM144.046 197.447L146.256 194.297L144.058 191.147H145.139L147.09 193.98H146.491L148.43 191.147H149.512L147.314 194.297L149.512 197.447H148.43L146.491 194.614H147.09L145.139 197.447H144.046ZM152.492 197.588C152.092 197.588 151.736 197.514 151.422 197.365C151.109 197.208 150.862 196.996 150.682 196.73C150.502 196.464 150.411 196.158 150.411 195.813C150.411 195.484 150.482 195.186 150.623 194.92C150.764 194.646 150.983 194.414 151.281 194.226C151.579 194.038 151.959 193.905 152.421 193.827L154.89 193.415V194.215L152.633 194.591C152.178 194.669 151.849 194.814 151.646 195.026C151.45 195.237 151.352 195.488 151.352 195.778C151.352 196.06 151.461 196.299 151.681 196.495C151.908 196.691 152.198 196.789 152.551 196.789C152.982 196.789 153.358 196.699 153.679 196.518C154 196.33 154.251 196.08 154.431 195.766C154.612 195.453 154.702 195.104 154.702 194.72V193.121C154.702 192.745 154.565 192.44 154.29 192.205C154.016 191.97 153.659 191.852 153.221 191.852C152.837 191.852 152.5 191.95 152.21 192.146C151.92 192.334 151.704 192.581 151.563 192.886L150.764 192.451C150.882 192.185 151.066 191.942 151.316 191.723C151.575 191.503 151.869 191.331 152.198 191.206C152.527 191.072 152.868 191.006 153.221 191.006C153.683 191.006 154.09 191.096 154.443 191.276C154.804 191.456 155.082 191.707 155.278 192.028C155.481 192.342 155.583 192.706 155.583 193.121V197.447H154.702V196.189L154.831 196.319C154.721 196.554 154.549 196.769 154.314 196.965C154.087 197.153 153.816 197.306 153.503 197.424C153.197 197.533 152.86 197.588 152.492 197.588ZM157.632 197.447V191.147H158.513V192.346L158.372 192.169C158.545 191.801 158.799 191.515 159.136 191.311C159.481 191.108 159.857 191.006 160.265 191.006C160.75 191.006 161.189 191.143 161.581 191.417C161.973 191.691 162.251 192.048 162.416 192.487L162.169 192.498C162.325 192.013 162.596 191.644 162.98 191.394C163.372 191.135 163.803 191.006 164.273 191.006C164.696 191.006 165.084 191.108 165.436 191.311C165.797 191.515 166.083 191.797 166.294 192.158C166.514 192.51 166.624 192.91 166.624 193.357V197.447H165.742V193.697C165.742 193.313 165.672 192.988 165.53 192.722C165.397 192.455 165.213 192.252 164.978 192.111C164.743 191.962 164.473 191.887 164.167 191.887C163.869 191.887 163.599 191.962 163.356 192.111C163.113 192.252 162.921 192.459 162.78 192.734C162.639 193 162.568 193.321 162.568 193.697V197.447H161.687V193.697C161.687 193.313 161.616 192.988 161.475 192.722C161.342 192.455 161.158 192.252 160.923 192.111C160.688 191.962 160.417 191.887 160.112 191.887C159.806 191.887 159.532 191.962 159.289 192.111C159.054 192.252 158.866 192.459 158.725 192.734C158.584 193 158.513 193.321 158.513 193.697V197.447H157.632ZM168.542 199.798V191.147H169.424V192.557L169.282 192.31C169.533 191.911 169.866 191.593 170.282 191.358C170.705 191.123 171.187 191.006 171.727 191.006C172.323 191.006 172.852 191.151 173.314 191.441C173.784 191.723 174.153 192.111 174.419 192.604C174.693 193.098 174.83 193.662 174.83 194.297C174.83 194.924 174.693 195.488 174.419 195.989C174.153 196.483 173.784 196.875 173.314 197.165C172.852 197.447 172.323 197.588 171.727 197.588C171.187 197.588 170.697 197.467 170.258 197.224C169.827 196.973 169.502 196.62 169.282 196.166L169.424 196.037V199.798H168.542ZM171.68 196.707C172.103 196.707 172.48 196.601 172.809 196.389C173.146 196.178 173.408 195.892 173.596 195.531C173.792 195.163 173.89 194.751 173.89 194.297C173.89 193.835 173.792 193.423 173.596 193.063C173.408 192.702 173.146 192.416 172.809 192.205C172.48 191.993 172.103 191.887 171.68 191.887C171.257 191.887 170.873 191.993 170.528 192.205C170.191 192.416 169.921 192.706 169.717 193.074C169.521 193.435 169.424 193.842 169.424 194.297C169.424 194.751 169.521 195.163 169.717 195.531C169.921 195.892 170.191 196.178 170.528 196.389C170.873 196.601 171.257 196.707 171.68 196.707ZM176.617 197.447V188.549H177.499V197.447H176.617ZM182.406 197.588C181.818 197.588 181.286 197.447 180.808 197.165C180.337 196.875 179.965 196.479 179.691 195.978C179.417 195.476 179.28 194.908 179.28 194.273C179.28 193.639 179.413 193.078 179.679 192.593C179.946 192.099 180.306 191.711 180.761 191.429C181.223 191.147 181.74 191.006 182.312 191.006C182.767 191.006 183.17 191.092 183.523 191.264C183.883 191.429 184.189 191.656 184.44 191.946C184.69 192.228 184.882 192.549 185.016 192.91C185.149 193.263 185.215 193.627 185.215 194.003C185.215 194.081 185.212 194.172 185.204 194.273C185.196 194.367 185.184 194.465 185.168 194.567H179.844V193.744H184.663L184.24 194.097C184.31 193.666 184.259 193.282 184.087 192.945C183.922 192.6 183.683 192.33 183.37 192.134C183.057 191.93 182.704 191.828 182.312 191.828C181.92 191.828 181.556 191.93 181.219 192.134C180.89 192.338 180.631 192.624 180.443 192.992C180.255 193.353 180.181 193.784 180.22 194.285C180.181 194.787 180.259 195.225 180.455 195.602C180.659 195.97 180.933 196.256 181.278 196.46C181.63 196.663 182.007 196.765 182.406 196.765C182.869 196.765 183.256 196.656 183.57 196.436C183.883 196.217 184.138 195.942 184.334 195.613L185.086 196.013C184.961 196.295 184.769 196.558 184.51 196.801C184.252 197.036 183.942 197.228 183.582 197.376C183.229 197.518 182.837 197.588 182.406 197.588ZM187.31 197.447V196.154H188.251V197.447H187.31ZM193.483 197.588C192.864 197.588 192.319 197.443 191.849 197.153C191.379 196.863 191.011 196.471 190.744 195.978C190.478 195.476 190.345 194.912 190.345 194.285C190.345 193.658 190.478 193.098 190.744 192.604C191.011 192.111 191.379 191.723 191.849 191.441C192.319 191.151 192.864 191.006 193.483 191.006C193.875 191.006 194.243 191.076 194.588 191.217C194.933 191.358 195.238 191.55 195.505 191.793C195.771 192.028 195.971 192.303 196.104 192.616L195.305 193.027C195.148 192.69 194.909 192.416 194.588 192.205C194.267 191.993 193.898 191.887 193.483 191.887C193.068 191.887 192.692 191.993 192.355 192.205C192.025 192.408 191.763 192.694 191.567 193.063C191.379 193.423 191.285 193.835 191.285 194.297C191.285 194.751 191.379 195.163 191.567 195.531C191.763 195.892 192.025 196.178 192.355 196.389C192.692 196.601 193.068 196.707 193.483 196.707C193.898 196.707 194.263 196.601 194.576 196.389C194.897 196.178 195.14 195.895 195.305 195.543L196.104 195.978C195.971 196.283 195.771 196.558 195.505 196.801C195.238 197.043 194.933 197.235 194.588 197.376C194.243 197.518 193.875 197.588 193.483 197.588ZM200.837 197.588C200.241 197.588 199.7 197.447 199.214 197.165C198.729 196.875 198.341 196.483 198.051 195.989C197.769 195.488 197.628 194.92 197.628 194.285C197.628 193.658 197.769 193.098 198.051 192.604C198.333 192.111 198.713 191.723 199.191 191.441C199.677 191.151 200.225 191.006 200.837 191.006C201.448 191.006 201.992 191.147 202.47 191.429C202.956 191.711 203.336 192.099 203.611 192.593C203.893 193.086 204.034 193.65 204.034 194.285C204.034 194.928 203.889 195.5 203.599 196.001C203.309 196.495 202.921 196.883 202.435 197.165C201.957 197.447 201.424 197.588 200.837 197.588ZM200.837 196.707C201.26 196.707 201.64 196.601 201.977 196.389C202.321 196.178 202.592 195.888 202.788 195.519C202.991 195.151 203.093 194.74 203.093 194.285C203.093 193.831 202.991 193.423 202.788 193.063C202.592 192.702 202.321 192.416 201.977 192.205C201.64 191.993 201.26 191.887 200.837 191.887C200.413 191.887 200.029 191.993 199.685 192.205C199.348 192.416 199.077 192.702 198.874 193.063C198.67 193.423 198.568 193.831 198.568 194.285C198.568 194.74 198.67 195.151 198.874 195.519C199.077 195.888 199.348 196.178 199.685 196.389C200.029 196.601 200.413 196.707 200.837 196.707ZM205.824 197.447V191.147H206.705V192.346L206.564 192.169C206.736 191.801 206.991 191.515 207.328 191.311C207.673 191.108 208.049 191.006 208.457 191.006C208.942 191.006 209.381 191.143 209.773 191.417C210.165 191.691 210.443 192.048 210.608 192.487L210.361 192.498C210.517 192.013 210.788 191.644 211.172 191.394C211.564 191.135 211.995 191.006 212.465 191.006C212.888 191.006 213.276 191.108 213.628 191.311C213.989 191.515 214.275 191.797 214.486 192.158C214.706 192.51 214.816 192.91 214.816 193.357V197.447H213.934V193.697C213.934 193.313 213.863 192.988 213.722 192.722C213.589 192.455 213.405 192.252 213.17 192.111C212.935 191.962 212.665 191.887 212.359 191.887C212.061 191.887 211.791 191.962 211.548 192.111C211.305 192.252 211.113 192.459 210.972 192.734C210.831 193 210.76 193.321 210.76 193.697V197.447H209.879V193.697C209.879 193.313 209.808 192.988 209.667 192.722C209.534 192.455 209.35 192.252 209.115 192.111C208.88 191.962 208.609 191.887 208.304 191.887C207.998 191.887 207.724 191.962 207.481 192.111C207.246 192.252 207.058 192.459 206.917 192.734C206.776 193 206.705 193.321 206.705 193.697V197.447H205.824Z" fill="#7E808A"/>
</g>
<g clip-path="url(#clip3_1_152)">
<path d="M274.91 102.575C274.203 101.852 273.327 101.469 272.437 101.417L267.886 101.146C268.777 101.199 269.653 101.582 270.359 102.304C271.099 103.06 271.525 104.06 271.632 105.102C271.762 106.377 271.415 107.716 270.576 108.751C270.248 109.155 269.873 109.48 269.469 109.724C268.797 110.131 268.047 110.315 267.307 110.271L271.857 110.541C272.597 110.585 273.348 110.401 274.019 109.995C274.423 109.75 274.799 109.425 275.127 109.021C275.965 107.987 276.313 106.648 276.182 105.372C276.075 104.33 275.649 103.331 274.91 102.575Z" fill="#CEE7FE"/>
<path d="M272.464 110.708C272.259 110.729 272.052 110.734 271.845 110.722L267.295 110.451C267.248 110.447 267.205 110.425 267.174 110.39C267.144 110.354 267.128 110.308 267.131 110.26C267.134 110.213 267.155 110.169 267.19 110.137C267.225 110.105 267.271 110.088 267.318 110.09L267.318 110.09C268.032 110.132 268.744 109.952 269.377 109.569C269.774 109.33 270.13 109.016 270.438 108.637C271.214 107.679 271.584 106.398 271.453 105.122C271.347 104.084 270.913 103.129 270.232 102.432C269.576 101.762 268.761 101.38 267.874 101.327C267.828 101.323 267.785 101.301 267.754 101.266C267.723 101.23 267.708 101.183 267.711 101.136C267.714 101.089 267.735 101.045 267.77 101.013C267.805 100.981 267.85 100.964 267.897 100.966L272.448 101.236C273.41 101.294 274.329 101.724 275.037 102.447C275.775 103.202 276.245 104.234 276.36 105.353C276.5 106.725 276.101 108.104 275.264 109.136C274.93 109.548 274.542 109.889 274.11 110.15C273.598 110.46 273.038 110.649 272.464 110.708ZM268.94 110.186L271.868 110.36C272.582 110.403 273.294 110.223 273.928 109.84C274.324 109.6 274.681 109.286 274.988 108.907C275.765 107.949 276.135 106.668 276.004 105.392C275.898 104.355 275.464 103.399 274.782 102.702C274.127 102.032 273.312 101.65 272.425 101.597L269.489 101.423C269.857 101.622 270.193 101.876 270.486 102.177C271.225 102.932 271.694 103.964 271.809 105.082C271.95 106.454 271.55 107.833 270.714 108.865C270.38 109.277 269.992 109.618 269.559 109.88C269.362 109.999 269.155 110.102 268.94 110.186Z" fill="#0091FF"/>
<path d="M265.561 130.252L261.011 129.982C259.272 129.878 257.548 129.448 255.917 128.685L260.468 128.955C262.098 129.718 263.822 130.149 265.561 130.252Z" fill="#CEE7FE"/>
<path d="M265.579 130.432C265.569 130.433 265.559 130.433 265.55 130.433L260.999 130.162C259.212 130.056 257.477 129.614 255.841 128.849C255.803 128.832 255.773 128.801 255.755 128.763C255.737 128.725 255.733 128.682 255.744 128.641C255.754 128.6 255.778 128.564 255.812 128.539C255.845 128.514 255.887 128.502 255.928 128.504L260.479 128.775C260.501 128.776 260.523 128.782 260.543 128.791C262.138 129.537 263.83 129.968 265.572 130.071C265.617 130.074 265.66 130.093 265.691 130.126C265.722 130.159 265.74 130.202 265.741 130.248C265.741 130.293 265.725 130.338 265.695 130.372C265.665 130.406 265.624 130.427 265.579 130.432ZM256.955 128.928C258.258 129.424 259.629 129.719 261.022 129.801L262.404 129.883C261.726 129.683 261.064 129.432 260.423 129.134L256.955 128.928Z" fill="#0091FF"/>
<path d="M251.191 123.264L246.64 122.994L248.323 120.918L252.873 121.188L251.191 123.264Z" fill="white"/>
<path d="M251.208 123.444C251.198 123.445 251.189 123.445 251.179 123.445L246.629 123.174C246.596 123.172 246.564 123.161 246.537 123.142C246.51 123.123 246.489 123.097 246.476 123.066C246.463 123.036 246.458 123.002 246.463 122.969C246.468 122.936 246.481 122.905 246.502 122.879L248.185 120.804C248.203 120.781 248.226 120.764 248.252 120.752C248.278 120.741 248.306 120.735 248.334 120.737L252.885 121.008C252.918 121.01 252.949 121.021 252.976 121.04C253.003 121.059 253.024 121.085 253.037 121.115C253.05 121.146 253.055 121.179 253.05 121.212C253.046 121.245 253.032 121.277 253.011 121.302L251.329 123.378C251.314 123.397 251.295 123.412 251.275 123.423C251.254 123.435 251.231 123.442 251.208 123.444ZM247 122.834L251.111 123.078L252.513 121.348L248.402 121.104L247 122.834Z" fill="#0091FF"/>
<path d="M250.861 126.92L246.31 126.65L246.64 122.994L251.191 123.264L250.861 126.92Z" fill="#CEE7FE"/>
<path d="M250.878 127.1C250.869 127.101 250.859 127.101 250.849 127.101L246.299 126.83C246.275 126.829 246.252 126.823 246.23 126.812C246.209 126.801 246.19 126.786 246.174 126.768C246.159 126.75 246.147 126.729 246.14 126.706C246.132 126.683 246.13 126.658 246.132 126.634L246.462 122.978C246.466 122.931 246.489 122.888 246.524 122.857C246.559 122.826 246.605 122.811 246.651 122.813L251.202 123.084C251.226 123.085 251.249 123.091 251.271 123.102C251.292 123.113 251.311 123.128 251.326 123.146C251.342 123.164 251.354 123.185 251.361 123.208C251.368 123.231 251.371 123.256 251.369 123.28L251.039 126.936C251.035 126.978 251.017 127.017 250.988 127.047C250.958 127.077 250.92 127.096 250.878 127.1ZM246.505 126.48L250.699 126.729L250.996 123.434L246.802 123.185L246.505 126.48Z" fill="#0091FF"/>
<path d="M263.239 94.9392C260.395 94.7702 257.511 95.4765 254.932 97.0367C253.383 97.9739 251.943 99.2192 250.687 100.768C247.466 104.742 246.131 109.887 246.632 114.787C246.851 116.916 247.415 118.998 248.323 120.918L252.873 121.188C251.966 119.268 251.401 117.186 251.183 115.058C250.681 110.158 252.017 105.013 255.238 101.038C256.493 99.4896 257.933 98.2444 259.482 97.3072C262.062 95.7469 264.946 95.0407 267.79 95.2097L263.239 94.9392Z" fill="white"/>
<path d="M252.891 121.368C252.881 121.369 252.872 121.37 252.862 121.369L248.311 121.099C248.28 121.097 248.249 121.086 248.223 121.068C248.196 121.05 248.175 121.026 248.161 120.997C247.253 119.074 246.678 116.992 246.455 114.807C245.929 109.672 247.421 104.513 250.549 100.654C251.791 99.1221 253.235 97.8531 254.841 96.8817C257.424 95.3194 260.332 94.5852 263.251 94.7588L267.801 95.0292C267.848 95.0329 267.891 95.055 267.922 95.0907C267.952 95.1264 267.968 95.1728 267.965 95.2201C267.962 95.2674 267.941 95.3117 267.906 95.3435C267.871 95.3754 267.825 95.3922 267.779 95.3903C264.932 95.2213 262.094 95.9376 259.574 97.4624C258.003 98.4123 256.591 99.6538 255.376 101.153C252.308 104.937 250.845 109.998 251.361 115.038C251.581 117.182 252.144 119.225 253.035 121.11C253.047 121.136 253.053 121.165 253.052 121.194C253.051 121.223 253.043 121.251 253.029 121.277C253.015 121.302 252.995 121.324 252.971 121.34C252.947 121.356 252.919 121.365 252.891 121.368ZM248.439 120.744L252.584 120.99C251.749 119.145 251.218 117.157 251.005 115.077C250.479 109.942 251.972 104.783 255.1 100.924C256.341 99.3926 257.785 98.1235 259.391 97.1521C261.025 96.164 262.789 95.507 264.603 95.2016L263.228 95.1199C260.381 94.9509 257.544 95.6672 255.023 97.192C253.453 98.1419 252.04 99.3833 250.825 100.882C247.757 104.667 246.294 109.728 246.81 114.768C247.026 116.875 247.574 118.885 248.439 120.744Z" fill="#0091FF"/>
<path d="M248.077 127.105L243.526 126.835L246.31 126.65L250.861 126.92L248.077 127.105Z" fill="#CEE7FE"/>
<path d="M250.878 127.1L250.872 127.1L248.088 127.286C248.08 127.286 248.073 127.286 248.066 127.286L243.515 127.016C243.421 127.01 243.347 126.931 243.348 126.836C243.348 126.74 243.421 126.66 243.516 126.654L246.299 126.469C246.307 126.469 246.314 126.469 246.322 126.469L250.872 126.739C250.917 126.742 250.959 126.762 250.99 126.795C251.021 126.827 251.039 126.871 251.039 126.916C251.04 126.961 251.024 127.006 250.994 127.04C250.964 127.074 250.923 127.095 250.878 127.1Z" fill="#0091FF"/>
<path d="M243.894 132.265L239.343 131.995L243.526 126.835L248.077 127.105L243.894 132.265Z" fill="white"/>
<path d="M243.911 132.445C243.902 132.446 243.892 132.447 243.882 132.446L239.332 132.176C239.299 132.174 239.267 132.163 239.24 132.143C239.214 132.124 239.192 132.098 239.179 132.068C239.166 132.037 239.162 132.004 239.166 131.971C239.171 131.938 239.184 131.907 239.205 131.881L243.388 126.72C243.406 126.698 243.429 126.681 243.455 126.669C243.481 126.658 243.51 126.652 243.538 126.654L248.088 126.925C248.121 126.926 248.153 126.938 248.18 126.957C248.207 126.976 248.228 127.002 248.241 127.032C248.254 127.063 248.259 127.096 248.254 127.129C248.249 127.162 248.236 127.194 248.215 127.219L244.032 132.38C244.002 132.417 243.958 132.441 243.911 132.445ZM239.703 131.835L243.814 132.08L247.717 127.265L243.606 127.021L239.703 131.835Z" fill="#0091FF"/>
<path d="M242.723 137.3L238.172 137.029L239.343 131.995L243.894 132.265L242.723 137.3Z" fill="#CEE7FE"/>
<path d="M242.741 137.48C242.731 137.481 242.721 137.481 242.712 137.48L238.161 137.21C238.135 137.208 238.11 137.201 238.087 137.189C238.064 137.176 238.045 137.159 238.029 137.138C238.014 137.117 238.003 137.093 237.998 137.067C237.992 137.041 237.993 137.015 237.999 136.989L239.17 131.955C239.179 131.913 239.203 131.876 239.237 131.85C239.271 131.825 239.313 131.812 239.355 131.815L243.905 132.085C243.931 132.087 243.957 132.094 243.979 132.106C244.002 132.119 244.022 132.136 244.037 132.157C244.053 132.178 244.064 132.203 244.069 132.228C244.074 132.254 244.074 132.281 244.068 132.306L242.897 137.34C242.879 137.417 242.815 137.472 242.741 137.48ZM238.395 136.861L242.584 137.11L243.671 132.434L239.483 132.185L238.395 136.861Z" fill="#0091FF"/>
<path d="M238.656 138.727L234.105 138.457L238.172 137.03L242.723 137.3L238.656 138.727Z" fill="#CEE7FE"/>
<path d="M238.673 138.907C238.663 138.908 238.654 138.909 238.644 138.908L234.094 138.638C234.052 138.635 234.013 138.618 233.983 138.59C233.953 138.561 233.933 138.523 233.928 138.482C233.922 138.44 233.931 138.398 233.953 138.363C233.975 138.327 234.008 138.3 234.047 138.286L238.115 136.859C238.137 136.851 238.16 136.847 238.184 136.849L242.734 137.119C242.776 137.122 242.815 137.139 242.845 137.167C242.875 137.195 242.895 137.234 242.9 137.275C242.906 137.316 242.897 137.359 242.875 137.394C242.853 137.43 242.82 137.457 242.781 137.471L238.713 138.898C238.7 138.903 238.687 138.906 238.673 138.907ZM235.013 138.329L238.632 138.544L241.815 137.427L238.196 137.212L235.013 138.329Z" fill="#0091FF"/>
<path d="M234.342 147.986L229.792 147.716L229.885 143.663L234.436 143.933L234.342 147.986Z" fill="#CEE7FE"/>
<path d="M234.36 148.166C234.35 148.167 234.341 148.167 234.331 148.167L229.78 147.896C229.734 147.893 229.691 147.873 229.66 147.839C229.629 147.804 229.612 147.759 229.613 147.712L229.706 143.66C229.707 143.635 229.712 143.611 229.722 143.589C229.732 143.567 229.747 143.547 229.764 143.53C229.782 143.514 229.803 143.501 229.826 143.493C229.848 143.484 229.872 143.481 229.896 143.482L234.447 143.753C234.493 143.755 234.536 143.776 234.567 143.81C234.599 143.845 234.616 143.89 234.614 143.937L234.521 147.989C234.52 148.034 234.503 148.076 234.473 148.109C234.444 148.141 234.403 148.162 234.36 148.166ZM229.975 147.545L234.168 147.795L234.253 144.104L230.059 143.855L229.975 147.545Z" fill="#0091FF"/>
<path d="M234.436 143.934L229.885 143.663L234.105 138.457L238.656 138.727L234.436 143.934Z" fill="white"/>
<path d="M234.453 144.114C234.443 144.115 234.434 144.115 234.424 144.114L229.874 143.844C229.841 143.842 229.809 143.831 229.782 143.812C229.755 143.793 229.734 143.766 229.721 143.736C229.708 143.705 229.704 143.672 229.708 143.639C229.713 143.606 229.726 143.575 229.747 143.549L233.967 138.343C233.985 138.32 234.008 138.303 234.034 138.291C234.06 138.28 234.089 138.275 234.117 138.276L238.667 138.547C238.7 138.549 238.732 138.56 238.759 138.579C238.786 138.598 238.807 138.624 238.82 138.655C238.833 138.685 238.838 138.719 238.833 138.752C238.828 138.785 238.815 138.816 238.794 138.842L234.574 144.048C234.544 144.085 234.5 144.109 234.453 144.114ZM230.245 143.503L234.356 143.748L238.296 138.887L234.185 138.643L230.245 143.503Z" fill="#0091FF"/>
<path d="M230.827 148.385L226.277 148.114L229.792 147.716L234.342 147.986L230.827 148.385Z" fill="#CEE7FE"/>
<path d="M230.844 148.565C230.835 148.566 230.825 148.566 230.816 148.565L226.265 148.295C226.22 148.293 226.178 148.274 226.146 148.241C226.115 148.208 226.097 148.165 226.096 148.119C226.095 148.074 226.111 148.029 226.141 147.995C226.171 147.961 226.213 147.939 226.258 147.935L229.773 147.536C229.782 147.535 229.793 147.534 229.803 147.535L234.354 147.806C234.399 147.808 234.441 147.827 234.473 147.86C234.504 147.892 234.522 147.936 234.523 147.981C234.524 148.027 234.508 148.071 234.478 148.106C234.448 148.14 234.406 148.161 234.361 148.166L230.846 148.565L230.844 148.565ZM228.378 148.058L230.823 148.203L232.241 148.042L229.796 147.897L228.378 148.058Z" fill="#0091FF"/>
<path d="M228.972 150.674L224.421 150.404L226.277 148.114L230.827 148.385L228.972 150.674Z" fill="white"/>
<path d="M228.989 150.854C228.979 150.855 228.97 150.855 228.96 150.855L224.41 150.584C224.377 150.582 224.345 150.571 224.318 150.552C224.291 150.533 224.27 150.507 224.257 150.476C224.244 150.446 224.239 150.412 224.244 150.379C224.249 150.346 224.262 150.315 224.283 150.289L226.139 148C226.157 147.978 226.18 147.96 226.206 147.949C226.232 147.937 226.26 147.932 226.288 147.934L230.839 148.204C230.872 148.206 230.903 148.217 230.93 148.236C230.957 148.255 230.978 148.282 230.991 148.312C231.004 148.343 231.009 148.376 231.004 148.409C231 148.442 230.986 148.473 230.965 148.499L229.11 150.788C229.08 150.825 229.036 150.849 228.989 150.854ZM224.781 150.244L228.892 150.488L230.467 148.545L226.356 148.3L224.781 150.244Z" fill="#0091FF"/>
<path d="M223.832 159.701L224.419 150.406L228.969 150.677L228.383 159.972L223.832 159.701Z" fill="white"/>
<path d="M228.402 160.149C228.392 160.15 228.383 160.15 228.373 160.15L223.823 159.879C223.799 159.878 223.776 159.872 223.755 159.862C223.734 159.851 223.715 159.837 223.7 159.819C223.684 159.801 223.672 159.781 223.665 159.758C223.657 159.736 223.654 159.712 223.656 159.688L224.243 150.393C224.246 150.345 224.267 150.3 224.303 150.268C224.338 150.236 224.385 150.22 224.432 150.223L228.983 150.493C229.006 150.495 229.029 150.501 229.05 150.511C229.072 150.521 229.09 150.536 229.106 150.554C229.121 150.571 229.133 150.592 229.141 150.615C229.148 150.637 229.152 150.661 229.15 150.685L228.563 159.98C228.56 160.023 228.543 160.063 228.513 160.094C228.484 160.125 228.444 160.145 228.402 160.149ZM224.024 159.529L228.218 159.778L228.782 150.844L224.588 150.595L224.024 159.529Z" fill="#0091FF"/>
<path d="M234.948 160.436L230.398 160.166L223.834 159.699L228.385 159.969L234.948 160.436Z" fill="white"/>
<path d="M234.966 160.617C234.956 160.618 234.946 160.618 234.937 160.617L230.386 160.347L223.82 159.879C223.773 159.876 223.729 159.854 223.698 159.818C223.667 159.782 223.651 159.735 223.654 159.687C223.658 159.639 223.68 159.595 223.715 159.563C223.751 159.531 223.798 159.515 223.845 159.518L228.396 159.789L234.962 160.256C235.006 160.259 235.048 160.279 235.079 160.312C235.11 160.345 235.127 160.388 235.128 160.433C235.128 160.479 235.112 160.523 235.082 160.557C235.052 160.591 235.01 160.612 234.966 160.617Z" fill="#0091FF"/>
<path d="M277.28 99.6508C270.965 93.1933 261.097 93.811 255.238 101.038C250.617 106.739 249.877 114.849 252.873 121.188L251.191 123.264L250.861 126.92L248.077 127.106L243.894 132.266L242.723 137.3L238.656 138.728L234.436 143.934L234.343 147.986L230.827 148.385L228.972 150.674L228.385 159.97L234.948 160.437L260.468 128.956C266.368 131.715 273.488 130.127 278.11 124.425C283.968 117.198 283.595 106.108 277.28 99.6508ZM275.126 109.021C273.6 110.905 271.032 111.066 269.389 109.386C267.742 107.702 267.645 104.816 269.172 102.933C270.696 101.053 273.263 100.891 274.91 102.575C276.554 104.255 276.65 107.141 275.126 109.021Z" fill="#E1F0FF"/>
<path d="M234.966 160.616C234.955 160.617 234.945 160.618 234.935 160.617L228.371 160.15C228.324 160.146 228.281 160.124 228.25 160.089C228.219 160.053 228.203 160.006 228.206 159.959L228.793 150.663C228.796 150.625 228.81 150.589 228.833 150.56L230.689 148.27C230.719 148.234 230.762 148.21 230.808 148.205L234.167 147.824L234.257 143.93C234.258 143.889 234.272 143.85 234.298 143.819L238.518 138.613C238.539 138.587 238.567 138.567 238.598 138.556L242.572 137.162L243.72 132.225C243.726 132.198 243.738 132.172 243.756 132.151L247.939 126.991C247.954 126.971 247.974 126.956 247.996 126.944C248.018 126.933 248.042 126.926 248.066 126.924L250.697 126.749L251.013 123.248C251.016 123.212 251.03 123.178 251.052 123.149L252.663 121.163C249.615 114.607 250.589 106.489 255.1 100.924C258.011 97.3319 261.975 95.2361 266.259 95.0216C270.407 94.8142 274.366 96.4128 277.407 99.5228C283.775 106.033 284.151 117.256 278.247 124.539C273.732 130.109 266.624 131.963 260.518 129.178L235.086 160.551C235.056 160.588 235.013 160.611 234.966 160.616ZM228.574 159.801L234.869 160.25L260.329 128.841C260.355 128.81 260.389 128.788 260.428 128.779C260.467 128.77 260.507 128.774 260.543 128.791C262.873 129.881 265.36 130.273 267.788 130.022C271.595 129.629 275.26 127.655 277.971 124.311C283.762 117.167 283.395 106.161 277.153 99.7784C274.183 96.7417 270.32 95.1809 266.274 95.3833C262.092 95.5929 258.222 97.6414 255.376 101.153C250.928 106.64 249.987 114.661 253.035 121.11C253.049 121.141 253.055 121.175 253.051 121.209C253.047 121.244 253.033 121.276 253.011 121.303L251.364 123.335L251.039 126.936C251.035 126.979 251.016 127.019 250.985 127.049C250.955 127.08 250.914 127.098 250.872 127.101L248.165 127.281L244.058 132.347L242.897 137.34C242.89 137.37 242.876 137.398 242.856 137.421C242.835 137.443 242.81 137.461 242.781 137.471L238.762 138.881L234.613 143.999L234.521 147.989C234.52 148.033 234.503 148.075 234.474 148.108C234.445 148.14 234.405 148.161 234.361 148.166L230.919 148.556L229.147 150.743L228.574 159.801ZM272.468 110.708C272.399 110.715 272.33 110.72 272.261 110.723C271.144 110.779 270.079 110.349 269.261 109.513C267.557 107.77 267.455 104.767 269.034 102.818C269.815 101.854 270.88 101.291 272.032 101.234C273.15 101.178 274.218 101.609 275.037 102.447C276.741 104.189 276.843 107.189 275.265 109.135C274.528 110.044 273.542 110.597 272.468 110.708ZM271.861 101.61C270.883 101.711 269.983 102.216 269.31 103.047C267.844 104.856 267.936 107.642 269.516 109.258C270.262 110.021 271.231 110.413 272.245 110.362C273.296 110.31 274.27 109.793 274.989 108.907C276.454 107.1 276.361 104.316 274.783 102.702C274.035 101.938 273.064 101.545 272.048 101.595C271.986 101.598 271.923 101.603 271.861 101.61Z" fill="#0091FF"/>
</g>
<defs>
<filter id="filter0_bd_1_152" x="59" y="127" width="247.331" height="107.017" filterUnits="userSpaceOnUse" color-interpolation-filters="sRGB">
<feFlood flood-opacity="0" result="BackgroundImageFix"/>
<feGaussianBlur in="BackgroundImageFix" stdDeviation="6"/>
<feComposite in2="SourceAlpha" operator="in" result="effect1_backgroundBlur_1_152"/>
<feColorMatrix in="SourceAlpha" type="matrix" values="0 0 0 0 0 0 0 0 0 0 0 0 0 0 0 0 0 0 127 0" result="hardAlpha"/>
<feOffset dx="-2" dy="2"/>
<feGaussianBlur stdDeviation="2"/>
<feComposite in2="hardAlpha" operator="out"/>
<feColorMatrix type="matrix" values="0 0 0 0 0 0 0 0 0 0.207758 0 0 0 0 0.358203 0 0 0 0.12 0"/>
<feBlend mode="normal" in2="effect1_backgroundBlur_1_152" result="effect2_dropShadow_1_152"/>
<feBlend mode="normal" in="SourceGraphic" in2="effect2_dropShadow_1_152" result="shape"/>
</filter>
<filter id="filter1_f_1_152" x="-0.983765" y="157" width="156.891" height="163" filterUnits="userSpaceOnUse" color-interpolation-filters="sRGB">
<feFlood flood-opacity="0" result="BackgroundImageFix"/>
<feBlend mode="normal" in="SourceGraphic" in2="BackgroundImageFix" result="shape"/>
<feGaussianBlur stdDeviation="13.5" result="effect1_foregroundBlur_1_152"/>
</filter>
<linearGradient id="paint0_linear_1_152" x1="182.665" y1="139" x2="182.665" y2="222.017" gradientUnits="userSpaceOnUse">
<stop stop-color="#F8FBFF"/>
<stop offset="1" stop-color="#F6FBFF"/>
</linearGradient>
<clipPath id="clip0_1_152">
<rect width="76.9306" height="83.7964" fill="white" transform="translate(35.1079 199.08) rotate(-10.9593)"/>
</clipPath>
<clipPath id="clip1_1_152">
<path d="M71 144.877C71 141.631 73.6313 139 76.8771 139H288.123C291.369 139 294 141.631 294 144.877V216.123C294 219.369 291.369 222 288.123 222H76.8771C73.6313 222 71 219.369 71 216.123V144.877Z" fill="white"/>
</clipPath>
<clipPath id="clip2_1_152">
<rect width="86.6009" height="94.2145" fill="white" transform="matrix(0.981689 -0.190491 0.18973 0.981836 26.0162 200.497)"/>
</clipPath>
<clipPath id="clip3_1_152">
<rect width="63.1389" height="62.786" fill="white" transform="matrix(0.994702 -0.102862 0.0955816 0.995428 217.851 99.2666)"/>
</clipPath>
</defs>
</svg>
