<svg xmlns="http://www.w3.org/2000/svg" xmlns:xlink="http://www.w3.org/1999/xlink" id="Layer_1" x="0px" y="0px" viewBox="0 0 400 400" style="enable-background:new 0 0 400 400;" xml:space="preserve"><style type="text/css">	.st0{fill:#322B6A;}</style><g>	<path class="st0" d="M272.09,284.08c-1.39-1.73-2.07-2.37-2.5-3.14c-10.52-18.79-21.02-37.59-31.45-56.27  c25.29-33.98,24.84-65.29-1.06-87.39c-22.8-19.46-56.69-17.96-77.84,3.44c-23.71,24.01-21.79,55.08,5.67,86.39  c-10.22,17.12-20.41,34.45-30.89,51.61c-3.1,5.08-7.62,3.91-11.28,0.64c-5.06-4.52-9.96-9.29-14.39-14.42  c-3.48-4.03-7.31-4.96-12.38-4.49c-9.09,0.83-18.24,1.33-27.37,1.29c-2.24-0.01-5.55-2.1-6.51-4.12  c-4.12-8.66-7.37-17.72-11.32-26.47c-1.57-3.48-0.72-5.46,1.94-7.77c7.43-6.45,14.88-12.92,21.82-19.87  c2.17-2.17,3.39-5.8,3.98-8.95c3.21-17.2-2.54-30.03-17.12-40.59c-13.18-9.55-12.36-10.69-6.03-25.93  c1.17-2.81,2.37-5.61,3.54-8.42c4.94-11.87,4.93-11.87,18.03-11.17c0.94,0.05,1.87,0.1,2.81,0.17  c25.27,1.68,25.34,1.74,42.29-17.55c1.59-1.82,2.36-4.98,2.31-7.5c-0.2-9.83-1.14-19.65-1.19-29.48c-0.01-2.3,1.88-5.78,3.85-6.72  c8.87-4.23,17.99-7.96,27.23-11.31c1.93-0.7,5.51,0.2,6.98,1.69c6.9,7,13.28,14.52,19.99,21.71c1.51,1.62,3.57,3.76,5.46,3.85  c8.88,0.41,17.81,0.36,26.7,0.02c1.71-0.07,3.62-1.91,4.98-3.36c6.7-7.21,13.35-14.46,19.78-21.91c2.52-2.92,4.72-3.67,8.42-1.99  c8.52,3.87,17.21,7.41,25.96,10.74c3.68,1.4,4.92,3.39,4.61,7.33c-0.77,9.8-1.37,19.64-1.42,29.47c-0.01,2.86,1.55,6.07,3.25,8.53  c10.27,14.84,23.84,20.05,42.09,16.79c14.9-2.66,15.13-1.31,20.91,12.66c2.33,5.63,4.47,11.34,7.06,16.84  c1.65,3.51,1.31,5.8-1.8,8.43c-7.51,6.35-14.87,12.92-21.86,19.82c-2.05,2.02-3.35,5.36-3.87,8.29  c-3.15,17.68,2.54,31.02,17.74,41.74c12.55,8.85,11.79,10.08,5.82,24.17c-2.99,7.05-4.59,16.62-10.01,20.17  c-5.14,3.36-14.65,1.33-21.88-0.11c-12.57-2.51-21.45,1.88-28.99,11.51C280.82,276.7,276.31,280.07,272.09,284.08z"></path>	<path class="st0" d="M200.07,363.07c-19.43,0-38.86,0.2-58.28-0.06c-17.86-0.24-26.19-15.3-17.05-30.7  c19.69-33.21,39.48-66.36,59.34-99.47c9.45-15.76,26.59-15.55,35.58,0.44c18.9,33.66,37.74,67.36,56.48,101.11  c8.82,15.9-0.17,30.5-18.47,30.45c-19.19-0.06-38.39-0.01-57.58-0.01C200.07,364.24,200.07,363.65,200.07,363.07z M211.13,267.63  c0.16-4.57-3.85-9.33-10.76-9.38c-6.97-0.05-11.1,4.64-10.64,12.55c0.88,14.95,2.09,29.88,2.87,44.84c0.27,5.22,2.41,7.8,7.64,7.83  c5.2,0.03,7.57-2.52,7.86-7.7C208.92,300.8,209.96,285.86,211.13,267.63z M200.61,345.78c5.47-0.18,9.61-4.56,9.52-10.07  c-0.09-5.51-4.35-9.71-9.86-9.71c-5.67,0-10.27,4.8-9.97,10.4C190.61,341.75,195.23,345.96,200.61,345.78z"></path></g></svg>