<svg xmlns="http://www.w3.org/2000/svg" xmlns:xlink="http://www.w3.org/1999/xlink" id="Layer_1" x="0px" y="0px" viewBox="0 0 400 400" style="enable-background:new 0 0 400 400;" xml:space="preserve"><style type="text/css">	.st0{fill:#322B6A;}</style><g>	<path class="st0" d="M329.03,199.94c-2.61-2.14-5.34-4.13-7.91-6.31c-1.6-1.35-3.06-1.88-4.98-0.64c-1.16,0.75-2.47,1.31-3.78,1.76  c-2.26,0.78-3.2,2.23-3.45,4.64c-0.44,4.15-1.16,8.29-2,12.38c-1.26,6.15-5.01,10.62-11.11,11.62c-6.46,1.06-13.2,1.53-19.57-1.18  c-4.46-3.07-7.11-7.2-7.71-12.66c-0.37-3.35-0.98-6.67-1.51-10.01c-0.77-4.85-8.53-8.09-12.49-5.19c-3.1,2.27-6.11,4.67-9.24,6.89  c-6.23,4.41-13.94,3.83-19.5-1.42c-2.12-2-4.18-4.06-6.2-6.16c-5.86-6.08-6.34-13.74-1.32-20.6c2.2-3,4.44-5.98,6.73-8.92  c1.21-1.56,1.44-3.04,0.4-4.81c-0.71-1.19-1.22-2.51-1.69-3.82c-0.74-2.06-2.02-3-4.29-3.41c-5.59-1-11.34-1.31-16.72-3.38  c-5.49-3.65-8.07-8.72-7.63-15.36c0.18-2.66-0.05-5.34,0.06-8.01c0.29-6.83,4.68-12.16,11.37-13.59c4.07-0.87,8.22-1.4,12.32-2.13  c1.7-0.3,3.12-0.66,4.3-2.43c8.68-12.87-20.03-11.43-25.12-11.43c-48.81,0-97.61-0.01-146.42,0.01c-11.45,0-18.73,7.34-18.75,18.8  c-0.02,8.15,0.19,16.32-0.13,24.46c-0.14,3.63,0.96,4.34,4.41,4.34c47.41-0.12,94.82-0.08,142.22-0.08c4.88,0,6.32,1.09,7.41,5.53  c-1.23,4.58-2.71,5.7-7.72,5.7c-47.41,0-94.82,0.03-142.23-0.06c-3.04-0.01-4.07,0.57-4.06,3.9c0.12,54.51,0.08,109.03,0.09,163.55  c0,1.05,0.07,2.09,0.11,3.14c-0.06,3.95-0.51,7.91,0.49,11.82c1.85,7.2,7.89,12.29,15.25,12.78c1.51,0.1,3.03,0.09,4.54,0.09  c85.42,0,170.84-0.14,256.26,0.15c13.66,0.05,20.73-9.02,20.6-20.73c-0.4-35.66-0.15-71.32-0.14-106.98c0-4.85,1.11-6.22,5.7-7.25  c0-3.76,0-7.51-0.01-11.27C333.19,202.89,331.03,201.58,329.03,199.94z M72.69,125.4c-2.17,0.29-4.41,0.06-6.61,0.06  c0,0.03,0,0.06,0,0.09c-2.09,0-4.2,0.15-6.28-0.03c-3.49-0.3-5.87-2.88-5.67-5.87c0.19-2.9,2.63-5.1,5.97-5.17  c3.95-0.08,7.91-0.09,11.86,0.01c3.21,0.08,5.38,2.15,5.58,5.07C77.74,122.4,75.76,125,72.69,125.4z M99.67,125.49  c-2.07,0.22-4.17,0.04-6.26,0.04c0,0.01,0,0.03,0,0.04c-1.97,0-3.95,0.11-5.92-0.02c-3.68-0.25-5.8-2.38-5.78-5.64  c0.01-3.18,2.31-5.36,5.92-5.44c3.83-0.08,7.66-0.08,11.49,0c3.51,0.07,5.66,2.08,5.76,5.17  C104.98,122.8,103.02,125.13,99.67,125.49z M128.45,125.09c-5.14,0.95-10.4,0.94-15.55,0c-2.69-0.5-4.05-2.7-3.8-5.48  c0.26-2.87,1.92-4.76,4.84-5.06c2.3-0.23,4.64-0.05,6.96-0.05c0-0.01,0-0.02,0-0.03c2.09,0,4.18-0.09,6.27,0.02  c2.96,0.16,4.75,1.75,5.02,4.74C132.46,122.11,131.38,124.55,128.45,125.09z M259.4,247.35c13.02,0.04,26.04,0.07,39.05,0.12  c4.73,0.02,7.28,1.97,7.27,5.55c-0.02,3.54-2.69,5.62-7.29,5.64c-16.51,0.04-33.01,0.07-49.52,0.11  c-11.76-0.03-23.51-0.07-35.27-0.1c-4.72-0.02-7.37-2.02-7.35-5.53c0.02-3.41,2.9-5.64,7.36-5.66  C228.91,247.43,244.15,247.39,259.4,247.35z M214.74,210.49c1.16,0,2.33-0.07,3.48,0.05c3.05,0.33,5.34,2.67,5.4,5.42  c0.06,2.79-2.48,5.43-5.53,5.68c-1.15,0.09-2.32,0.01-3.48,0.01c-5.68,0.02-8.39-1.79-8.32-5.53  C206.35,212.5,209.36,210.49,214.74,210.49z M60.21,191.72c0.02-11.31,7.22-18.57,18.54-18.59c26.43-0.04,52.87-0.04,79.3,0  c11.38,0.02,18.57,7.17,18.62,18.52c0.07,15.37,0.06,30.74,0,46.11c-0.05,11.43-7.42,18.68-18.9,18.7  c-13.16,0.03-26.32,0.01-39.47,0.01c-13.04,0-26.08,0.02-39.13-0.01c-11.65-0.02-18.94-7.32-18.96-18.99  C60.19,222.23,60.18,206.98,60.21,191.72z M301.44,332.22c-1.19,0.36-2.53,0.34-3.8,0.34c-77.36,0.01-154.71,0.01-232.07,0.01  c-6.2,0-8.38-2.03-7.89-7.31c1.52-3.16,4.14-3.94,7.47-3.93c25.38,0.03,50.75-0.04,76.13-0.1c1.16,0,2.32-0.12,3.48-0.18  c0,0,0,0,0,0c1.39,0.08,2.78,0.23,4.16,0.23c49.16,0.01,98.33,0.01,147.49,0.01c1.4,0,2.8-0.03,4.19,0.11  c2.91,0.3,4.77,1.88,5.07,4.84C305.98,329.37,304.33,331.36,301.44,332.22z M298.43,295.63c-30.38,0.01-60.76,0-91.13,0.01  c-1.28,0-2.55,0.09-3.83,0.14c-1.39-0.05-2.79-0.14-4.18-0.14c-44.51-0.01-89.02-0.01-133.54-0.01c-5.35,0-8.16-1.83-8.29-5.4  c-0.13-3.64,2.93-5.79,8.28-5.79c50.57,0,101.14,0,151.72-0.01c1.63,0,3.25-0.11,4.88-0.17c3.14,0.06,6.27,0.17,9.41,0.17  c22.23,0.02,44.46,0,66.69,0.01c4.81,0,7.32,1.91,7.3,5.49C305.7,293.48,303,295.63,298.43,295.63z"></path>	<path class="st0" d="M364.17,124.25c-2.77-0.32-5.51-0.87-8.26-1.35c-4.23-0.74-8.79-0.98-11.76-4.59  c-3.99-4.83-6.43-10.49-7.11-16.73c-0.64-5.88,3.06-10.01,6.29-14.31c6.98-9.29,7.04-7.17-1.46-15.8c-0.16-0.17-0.34-0.32-0.5-0.49  c-1.57-1.53-3.17-1.74-4.94-0.27c-2.15,1.78-4.35,3.51-6.58,5.2c-2.76,2.09-5.3,4.44-8.92,5.27c-5.64,1.29-10.18-1.43-14.98-3.43  c-4.79-2-7.72-5.56-8.82-10.52c-0.88-3.97-1.45-8.01-2.04-12.04c-0.68-4.68-1.07-5.1-5.65-5.12c-1.98-0.01-3.96,0.06-5.94,0  c-2.14-0.06-3.25,0.95-3.49,3.03c-0.35,3.01-0.7,6.01-1.07,9.01c-0.47,3.83-0.78,7.85-3.87,10.58c-5.07,4.48-11.03,7.33-17.88,7.59  c-5.3,0.2-9-3.35-12.9-6.28c-8.86-6.66-8.82-6.61-16.41,1.28c-1.9,1.98-2.07,3.57-0.34,5.73c2.9,3.64,5.77,7.33,8.33,11.22  c5.43,8.26-0.36,24.6-9.79,27.61c-2.86,0.91-5.93,1.16-8.89,1.73c-9.87,1.9-9.35-0.6-9.32,10.81c0.01,4.74,0.37,5.17,4.89,5.9  c0.57,0.09,1.16,0.15,1.74,0.19c10.36,0.81,18.88,3.75,22.29,15.3c1.72,5.84,2.12,10.86-1.41,15.86c-2.15,3.04-4.45,5.98-6.68,8.97  c-3.22,4.29-3.22,4.71,0.56,8.45c7.23,7.16,5.87,7.6,13.51,0.95c8.38-7.28,16.51-8.95,26.29-3.02c4.27,2.59,7.45,5.57,8.56,10.38  c0.91,3.96,1.49,8,2.07,12.03c0.73,5,0.99,5.29,6.18,5.3c0.58,0,1.17,0,1.75,0c6.39-0.1,6.83,1.07,7.72-6.64  c0.07-0.58,0.33-1.14,0.35-1.71c0.25-10.51,4.51-17.79,15.22-21.07c5.03-1.54,9.52-2.01,14.05,0.58c2.21,1.26,4.19,2.94,6.27,4.44  c9.94,7.16,6.77,7.76,16.24-1.4c2.02-1.96,1.91-3.68,0.27-5.78c-2.79-3.58-5.59-7.17-8.13-10.93c-5.67-8.42,0.07-24.67,9.73-27.86  c0.66-0.22,1.34-0.37,2.03-0.48c4.24-0.72,8.48-1.48,12.74-2.11c2.04-0.3,3.19-1.21,3.18-3.38c-0.02-2.91-0.03-5.83,0-8.74  C367.31,125.49,366.3,124.5,364.17,124.25z M287.77,176.33c-25.23-0.08-45.19-20.14-45.14-45.36c0.05-25.16,20.17-45.15,45.41-45.1  c25.1,0.05,45.4,20.36,45.28,45.32C333.21,156.11,312.73,176.41,287.77,176.33z"></path>	<path class="st0" d="M79.38,244.68c12.92,0.01,25.85,0,38.77,0c13.39,0,26.78,0.02,40.17-0.01c4.29-0.01,6.59-2.17,6.6-6.37  c0.06-15.72,0.07-31.44-0.01-47.15c-0.02-4.56-2.43-6.81-6.98-6.81c-26.31-0.02-52.62-0.02-78.94,0c-5.09,0-6.99,1.9-6.99,6.92  c-0.02,15.37-0.02,30.74,0,46.11C72.01,242.76,73.94,244.68,79.38,244.68z"></path>	<path class="st0" d="M288.22,97.06c-18.57-0.09-33.65,14.75-33.76,33.23c-0.11,18.48,14.78,33.64,33.23,33.86  c18.23,0.22,33.66-14.98,33.85-33.33C321.73,112.48,306.6,97.15,288.22,97.06z"></path></g></svg>