<svg xmlns="http://www.w3.org/2000/svg" xmlns:xlink="http://www.w3.org/1999/xlink" id="Layer_1" x="0px" y="0px" viewBox="0 0 400 400" style="enable-background:new 0 0 400 400;" xml:space="preserve"><style type="text/css">	.st0{fill:#322B6A;}</style><g>	<path class="st0" d="M344.87,100.92c-96.57,0-193.14,0-289.71,0c-1.55,0-3.11,0-5.17,0c0,2.18,0,3.62,0,5.07  c0,77.97,0,155.93,0,233.9c0,8.25,1.7,9.95,9.99,9.95c93.26,0,186.52,0,279.79,0c8.49,0,10.22-1.72,10.22-10.2  c0-77.83,0-155.67,0-233.5C350,100.93,349.99,100.92,344.87,100.92z M152.44,310.03c-19.31-0.12-38.62-0.06-57.92-0.08  c-0.64,0-1.28-0.13-2.36-0.24c0-29.64,0-58.92,0-88.5c21.12,0,42.05,0,63.25,0c0.09,1.32,0.24,2.47,0.24,3.62  c0.01,27.08-0.01,54.16,0.04,81.24C155.68,308.43,155.63,310.05,152.44,310.03z M247.7,265.39  c-13.67,12.14-27.12,24.08-41.18,36.57c0-24.81,0-48.52,0-73.11C220.49,241.24,233.88,253.12,247.7,265.39z M216.75,221.18  c27.4,0,53.48,0,80.74,0c-13.94,12.37-27.09,24.05-40.39,35.86C243.69,245.13,230.59,233.48,216.75,221.18z M216.69,309.65  c13.81-12.27,26.96-23.94,40.42-35.9c13.35,11.85,26.5,23.54,40.43,35.9C270.21,309.65,243.97,309.65,216.69,309.65z   M307.77,302.01c-14.02-12.45-27.47-24.38-41.26-36.63c13.87-12.31,27.27-24.19,41.26-36.61  C307.77,253.44,307.77,277.22,307.77,302.01z M307.79,168c-71.72,0-143.45,0-215.65,0c0-8.33,0-16.47,0-24.91  c71.9,0,143.64,0,215.65,0C307.79,151.37,307.79,159.5,307.79,168z"></path>	<path class="st0" d="M350,60.75c-0.01-8.9-1.7-10.58-10.74-10.58c-92.96,0-185.92,0-278.88,0.01c-1.58,0-3.18,0.03-4.73,0.28  c-3.49,0.55-5.51,2.77-5.56,6.2c-0.14,10.42-0.05,20.84-0.05,31.58c100.2,0,199.84,0,299.96,0C350,78.9,350,69.82,350,60.75z   M330.3,75.49c-4.1,0.13-8.2,0.03-12.3,0.03c-3.97,0-7.94,0.09-11.9-0.02c-4.33-0.13-6.8-2.43-6.82-6.07  c-0.02-3.52,2.29-6.06,6.34-6.15c8.33-0.19,16.66-0.19,24.99,0.01c4.02,0.1,6.3,2.71,6.22,6.25  C336.76,73.03,334.34,75.36,330.3,75.49z"></path></g></svg>