<svg xmlns="http://www.w3.org/2000/svg" xmlns:xlink="http://www.w3.org/1999/xlink" id="Layer_1" x="0px" y="0px" viewBox="0 0 400 400" style="enable-background:new 0 0 400 400;" xml:space="preserve"><style type="text/css">	.st0{fill:#322B6A;}</style><g>	<path class="st0" d="M236.72,32.5c5.92,1.78,11.82,3.54,16.76,7.55c8.99,7.3,13.83,16.62,14.02,28.24  c0.08,5.12,0.01,10.24,0.01,15.6c-4.13,0-8.09,0-12.41,0c0-3.85,0-7.71,0-11.77c-55.99,0-111.62,0-167.44,0  c0,81.69,0,163.19,0,244.86c55.79,0,111.42,0,167.38,0c0-8.52,0.1-16.88-0.06-25.25c-0.05-2.46,0.6-3.97,2.79-5.23  c3.19-1.83,6.14-4.08,9.51-6.37c0.09,1.12,0.23,2.01,0.23,2.91c0.01,16.03,0.06,32.06,0,48.09c-0.08,20.53-16.02,36.34-36.59,36.35  c-39.68,0.01-79.35,0.01-119.03,0c-21.16,0-36.88-15.77-36.88-37.02C75,243.46,75,156.44,75.01,69.43  c0-18.41,11.57-32.62,29.48-36.31c0.5-0.1,0.95-0.41,1.43-0.62C149.52,32.5,193.12,32.5,236.72,32.5z M186.01,343.37  c0.03-8.26-6.64-14.81-15.04-14.78c-8.05,0.04-14.65,6.75-14.64,14.91c0,8.05,6.66,14.72,14.79,14.83  C179.32,358.44,185.98,351.75,186.01,343.37z"></path>	<path class="st0" d="M219.19,250.1c-1.63,0-3.12,0.02-4.61,0c-9.03-0.16-18.1,0.1-27.09-0.59c-15.33-1.17-28.95-15.8-29.06-31.15  c-0.21-27.59-0.27-55.18-0.05-82.76c0.15-18.59,14.56-33.19,33.22-33.38c30.3-0.32,60.6-0.07,90.91-0.08  c7.62,0,15.27-0.27,22.39,3.14c12.24,5.86,19.58,15.56,19.81,29.12c0.48,27.91,0.26,55.83,0.11,83.74  c-0.08,15.16-13.06,29.88-28.13,31.31c-10.05,0.95-20.22,0.64-30.34,0.66c-2.55,0.01-4.23,0.81-5.82,2.72  c-13.53,16.31-31.1,26.2-51.22,31.94c-2.51,0.72-5.12,0.96-6.61-1.76c-1.43-2.61-0.29-4.73,1.84-6.56  c7.45-6.39,11.52-14.86,14.49-23.97C219.22,251.88,219.13,251.2,219.19,250.1z M241.73,198.97c10.02,0,20.04,0,30.06,0  c2.61,0,5.24,0.11,7.84-0.11c0.91-0.08,2.19-0.82,2.48-1.57c0.26-0.7-0.44-1.91-0.99-2.71c-0.47-0.68-1.32-1.12-2.02-1.64  c-4.96-3.65-8.3-8.41-8.94-14.58c-0.54-5.17-0.58-10.41-0.64-15.62c-0.13-12.37-6.7-22.18-18.08-27c-1.29-0.55-2.53-1.54-3.43-2.63  c-3.06-3.67-8.57-3.99-11.81-0.8c-1.61,1.59-3.55,3-5.59,3.96c-9.02,4.24-14.73,11.12-16.22,20.96c-0.79,5.23-0.6,10.62-0.66,15.94  c-0.09,8.54-3.45,15.29-10.32,20.39c-1.12,0.83-1.67,2.45-2.48,3.7c1.4,0.57,2.8,1.62,4.2,1.63  C217.33,199.02,229.53,198.97,241.73,198.97z M241.36,218.6c5.91,0.05,10.38-3.19,12.11-8.45c0.82-2.5-0.05-3.6-2.41-3.63  c-6.4-0.08-12.8-0.06-19.2-0.01c-2.44,0.02-2.85,1.34-2.16,3.49C231.37,215.2,235.83,218.55,241.36,218.6z"></path></g></svg>