<svg xmlns="http://www.w3.org/2000/svg" xmlns:xlink="http://www.w3.org/1999/xlink" id="Layer_1" x="0px" y="0px" viewBox="0 0 400 400" style="enable-background:new 0 0 400 400;" xml:space="preserve"><style type="text/css">	.st0{fill:#322B6A;}</style><g>	<path class="st0" d="M23.88,376.13c0-3.89,0-7.78,0-12.04c18.12,0,36.06,0,54.54,0c0-20.44,0-40.52,0-60.87c6.34,0,12.15,0,18.16,0  c0-4.1,0-7.92,0-12.11c-5.93,0-11.73,0-17.81,0c0-4.16,0-7.98,0-11.95c52.52,0,104.88,0,157.46,0c0,3.91,0,7.73,0,11.93  c-42.41,0-84.65,0-127.09,0c0,4.13,0,7.88,0,11.96c42.27,0,84.52,0,127.32,0c0,24.57,0,48.82,0,73.07c-4.82,0-9.63,0-14.45,0  c-3.54-7.06-7.19-14.06-10.57-21.19c-1.08-2.28-2.34-3.14-4.91-3.11c-12.37,0.14-24.75,0.06-37.13,0.06  c-20.4,0-40.8-0.02-61.2,0.05c-1.23,0-3.16,0.33-3.56,1.12c-3.91,7.61-7.56,15.36-11.29,23.06  C70.2,376.13,47.04,376.13,23.88,376.13z"></path>	<path class="st0" d="M248.85,376.13c-0.05-15.79-0.1-31.58-0.14-47.37c0-0.31,0.22-0.62,0.47-1.26c9.5,0,19.09-0.06,28.68,0.13  c0.67,0.01,1.77,1.77,1.88,2.8c1.52,14.33,2.9,28.68,4.34,43.02c0.09,0.9,0.36,1.79,0.54,2.68  C272.7,376.13,260.77,376.13,248.85,376.13z"></path>	<path class="st0" d="M296.32,376.13c-1.04-11.29-2.07-22.57-3.11-33.86c-0.44-4.77-0.91-9.54-1.38-14.56c4.14,0,7.97,0,11.99,0  c1.21,11.99,2.41,23.83,3.63,35.85c0.82,0.13,1.58,0.34,2.33,0.34c21.66,0.02,43.33,0.01,64.99,0c0.45,0,0.91-0.11,1.36-0.16  c0,4.13,0,8.26,0,12.38C349.52,376.13,322.92,376.13,296.32,376.13z"></path>	<path class="st0" d="M106.43,376.13c1.67-3.25,3.43-6.46,4.97-9.78c0.83-1.79,1.86-2.48,3.91-2.48c28.07,0.07,56.13,0.07,84.2,0.01  c1.95,0,3.17,0.45,3.99,2.36c1.45,3.35,3.15,6.6,4.75,9.88C174.32,376.13,140.37,376.13,106.43,376.13z"></path>	<path class="st0" d="M212.23,108.83c0-8.49,0-16.11,0-24.09c-1.52-0.07-2.73-0.17-3.94-0.17c-8.48-0.01-16.97,0.04-25.45-0.03  c-8.4-0.07-13.12-4.87-13.14-13.33c-0.04-11.35-0.04-22.7,0-34.05c0.03-8.37,4.9-13.27,13.24-13.27c31.64-0.03,63.28-0.03,94.92,0  c8.21,0.01,13.09,4.77,13.17,12.98c0.11,11.58,0.11,23.16,0,34.73c-0.08,8.25-4.85,12.89-13.17,12.94  c-11.46,0.07-22.93-0.07-34.39,0.11c-1.84,0.03-4.01,0.88-5.44,2.06C229.58,93.75,221.31,101,212.23,108.83z M254.41,48.37  c-16.16,0-32.11,0-48.05,0c0,4.08,0,7.91,0,11.68c16.19,0,32.13,0,48.05,0C254.41,56.01,254.41,52.27,254.41,48.37z M266.9,60.08  c4.2,0,8.03,0,11.82,0c0-4.07,0-7.89,0-11.7c-4.11,0-7.93,0-11.82,0C266.9,52.4,266.9,56.14,266.9,60.08z M181.99,60.08  c4.11,0,7.92,0,11.61,0c0-4.08,0-7.9,0-11.73c-4,0-7.72,0-11.61,0C181.99,52.32,181.99,56.07,181.99,60.08z"></path>	<path class="st0" d="M90.67,242.35c0-7.68-0.18-15.02,0.06-22.33c0.2-5.98,3.34-10.15,9.15-11.92c7.55-2.29,15.13-4.51,22.77-6.46  c1.1-0.28,2.94,0.76,3.88,1.73c7.21,7.45,15.78,10.91,25.79,7.49c4.34-1.48,8.11-4.89,11.85-7.79c1.59-1.23,2.65-1.98,4.77-1.33  c6.88,2.12,13.86,3.95,20.78,5.95c5.86,1.7,8.8,4.81,9.61,10.35c-6.63,0.12-13.32,0.33-18.31,5.64c-4.98,5.29-6.2,11.52-4.36,18.67  C147.96,242.35,119.51,242.35,90.67,242.35z"></path>	<path class="st0" d="M248.82,291.06c0-4.19,0-7.91,0-12c5.95,0,11.74,0,17.95,0c0-4.45-0.01-8.53,0-12.62  c0.02-5.04-1.33-10.67,0.48-14.97c1.86-4.42,6.79-7.56,10.42-11.21c9.47-9.5,18.98-18.97,28.44-28.47  c1.94-1.95,3.98-3.86,5.55-6.08c1.49-2.11,2.42-4.61,3.78-7.3c0,1.57,0,2.86,0,4.14c0,22.82,0.02,45.63-0.01,68.45  c-0.01,10.05-5.01,17.09-13.68,19.45c-0.66,0.18-1.34,0.33-2.01,0.38c-1.6,0.12-3.2,0.23-4.81,0.23  C279.7,291.06,264.46,291.06,248.82,291.06z"></path>	<path class="st0" d="M169.67,146.25c0.42,7.29-0.46,15.17-6.49,21.48c-6.96,7.28-15.47,9.7-25.05,6.7  c-9.59-3-15.6-9.77-16.55-19.82c-0.66-7-0.9-14.33,0.47-21.16c2.48-12.42,13.76-19.46,26.85-18.1  c11.36,1.18,20.26,11.51,20.76,24.12C169.74,141.42,169.67,143.37,169.67,146.25z"></path>	<path class="st0" d="M266.8,144.87c-0.39-7.36,0.31-15.03,5.96-21.32c6.84-7.62,15.37-10.27,25.14-7.4  c9.93,2.91,16.07,9.83,16.99,20.19c0.62,6.99,0.81,14.32-0.6,21.13c-2.39,11.59-13.71,19.26-24.6,18.09  c-13.41-1.45-22.18-10.59-22.87-23.91C266.71,149.59,266.8,147.52,266.8,144.87z"></path>	<path class="st0" d="M66.58,266.5c0-3.89,0-7.63,0-11.63c62.61,0,125.1,0,187.81,0c0,3.87,0,7.61,0,11.63  C191.94,266.5,129.46,266.5,66.58,266.5z"></path>	<path class="st0" d="M248.83,315.19c0-3.9,0-7.65,0-11.96c1.19,0,2.39,0,3.58,0c14.67,0,29.35,0.09,44.02-0.03  c14.72-0.12,26.14-8.71,29.94-22.66c0.89-3.26,1.03-6.8,1.06-10.21c0.1-15.93,0.05-31.87,0.05-47.8c0-1.25,0-2.5,0-4.04  c4.07,0,7.9,0,11.98,0c0.07,0.98,0.2,1.96,0.2,2.95c0.01,20.86,0.08,41.73-0.02,62.59c-0.07,15.11-8.65,26.35-23.09,30.3  c-2.73,0.75-5.65,1.06-8.48,1.08c-18.91,0.09-37.83,0.05-56.75,0.04C250.55,315.44,249.78,315.29,248.83,315.19z"></path>	<path class="st0" d="M225.4,242.57c-9.74,0-19.47,0.02-29.21-0.03c-1.47-0.01-3.34,0.14-4.31-0.65c-1.62-1.33-3.29-3.22-3.77-5.16  c-0.61-2.46,0.89-4.75,3.42-5.67c1.57-0.57,3.35-0.71,5.04-0.71c16.84-0.05,33.67-0.08,50.51,0.02c2.82,0.02,4.85-0.68,6.89-2.77  c11.87-12.1,23.92-24.02,35.92-35.99c0.97-0.96,1.97-1.96,3.13-2.64c2.76-1.64,5.49-1.33,7.91,0.77c2.35,2.04,2.92,5.43,1.34,8.13  c-0.68,1.17-1.63,2.21-2.6,3.17c-13.1,13.14-26.26,26.22-39.31,39.4c-1.6,1.62-3.22,2.18-5.42,2.16  C245.1,242.51,235.25,242.57,225.4,242.57z"></path>	<path class="st0" d="M133.63,185.87c7.85,2.44,15.61,2.55,23.3-0.01c1.72,5.09-0.2,8.59-4.07,11.35c-4.26,3.04-8.65,3.85-13.4,1.03  C134.86,195.52,131.9,192.05,133.63,185.87z"></path></g></svg>