<svg xmlns="http://www.w3.org/2000/svg" xmlns:xlink="http://www.w3.org/1999/xlink" id="Layer_1" x="0px" y="0px" viewBox="0 0 400 400" style="enable-background:new 0 0 400 400;" xml:space="preserve"><style type="text/css">	.st0{fill:#322B6A;}</style><g>	<path class="st0" d="M54.76,295.54c0-1.03,0-1.77,0-2.51c0-41.43-0.03-82.86,0.02-124.3c0.02-13.49,9.67-23.47,23.2-23.77  c0,1.84,0,3.67,0,5.5c0,9.48-0.05,18.97,0.02,28.45c0.08,10.75,7.38,18,18.15,18.12c3.48,0.04,6.95,0.01,10.64,0.01  c0.19,1.3,0.34,2.36,0.51,3.6c0.38,0.16,0.8,0.45,1.25,0.51c4.45,0.6,8.88,1.34,13.35,1.67c2.31,0.17,3.32,1.14,3.77,3.23  c0.26,1.21,0.51,2.54,1.19,3.52c3.65,5.25,2.09,9.5-2.08,13.6c-2.02,1.99-3.57,4.47-5.09,6.42c10.17,10.12,20.19,20.09,30.38,30.24  c2.95-2.27,6.49-4.83,9.83-7.62c1.58-1.32,2.8-1.49,4.65-0.54c3.09,1.59,6.3,3.03,9.59,4.14c2.02,0.68,2.64,1.73,2.83,3.72  c0.4,4.2,1.09,8.38,1.69,12.8c14.15,0,28.18,0,42.51,0c0.59-4.28,1.3-8.57,1.72-12.88c0.2-2.02,0.92-3.05,2.92-3.66  c2.72-0.84,5.53-1.8,7.89-3.33c3.1-2.01,5.31-1.33,7.84,0.91c2.78,2.47,5.87,4.61,8.65,6.75c10.1-10.14,20.03-20.11,30.21-30.33  c-2.73-3.48-5.86-7.19-8.61-11.17c-0.78-1.13-0.82-3.09-0.55-4.56c0.33-1.8,1.71-3.41,1.98-5.21c0.72-4.82,3.57-6.39,8.1-6.53  c3.71-0.12,7.4-0.84,11.21-1.31c0.19-1.3,0.35-2.38,0.52-3.53c0.3-0.12,0.63-0.37,0.96-0.38c3.12-0.05,6.24-0.05,9.36-0.08  c11.25-0.09,18.52-7.28,18.57-18.48c0.05-9.86,0.01-19.72,0.01-29.58c0-1.34,0-2.68,0-4.02c13.46,0.26,23.17,10.28,23.2,23.76  c0.06,33.69,0.02,67.39,0.02,101.08c0,8.48,0,16.95,0,25.72C248.41,295.54,151.8,295.54,54.76,295.54z"></path>	<path class="st0" d="M118.96,168.64c4.57-0.58,9.16-0.99,13.68-1.83c1.23-0.23,2.68-1.51,3.25-2.69c2.93-6.02,5.69-12.14,8.3-18.31  c0.44-1.05,0.34-2.84-0.3-3.74c-2.87-4.06-6.02-7.92-8.9-11.64c5.26-5.27,10.36-10.37,15.74-15.75c3.62,2.81,7.6,5.77,11.42,8.93  c1.85,1.53,3.21,1.75,5.56,0.59c5.11-2.52,10.45-4.65,15.87-6.41c2.33-0.76,3.21-1.77,3.45-4c0.54-5.06,1.23-10.1,1.87-15.31  c7.45,0,14.62,0,22.11,0c0.64,5.18,1.31,10.22,1.85,15.27c0.24,2.23,1.1,3.24,3.44,4.01c5.53,1.81,10.93,4.11,16.21,6.58  c2.02,0.94,3.24,0.91,4.91-0.48c3.84-3.17,7.84-6.14,11.41-8.91c5.28,5.29,10.43,10.45,15.81,15.85c-3.02,3.89-6.53,8.41-9.55,12.3  c3.16,7.57,6.02,14.69,9.15,21.68c0.45,1.01,2.12,1.87,3.35,2.07c4.41,0.73,8.88,1.15,13.52,1.71c0,7.4,0,14.58,0,22.12  c-4.36,0.58-8.64,1.26-12.93,1.67c-1.93,0.18-2.56,0.92-3.19,2.78c-2.29,6.81-4.79,13.57-7.62,20.18  c-0.84,1.96-0.77,3.05,0.48,4.56c2.46,2.97,4.77,6.06,6.89,8.77c-5.3,5.28-10.45,10.43-15.82,15.78c-2.47-1.91-5.49-4.1-8.34-6.49  c-1.46-1.22-2.47-1.14-4.22-0.31c-6.95,3.27-14.01,6.34-21.15,9.16c-1.77,0.7-2.6,1.32-2.78,3.21c-0.34,3.46-0.92,6.9-1.44,10.64  c-7.24,0-14.41,0-22.03,0c-0.5-3.5-0.88-7.18-1.65-10.78c-0.24-1.09-1.41-2.35-2.48-2.84c-7.1-3.25-14.26-6.37-21.48-9.35  c-1.07-0.44-2.85-0.34-3.78,0.28c-3.1,2.07-5.97,4.48-8.61,6.53c-5.28-5.28-10.42-10.43-15.77-15.79c2.62-3.4,5.56-7.23,7.68-9.98  c-2.9-8.62-5.45-16.39-8.2-24.08c-0.34-0.95-1.75-1.93-2.8-2.12c-4.16-0.76-8.37-1.2-12.9-1.81  C118.96,183.43,118.96,176.16,118.96,168.64z M199.87,216.58c19.09,0.05,34.5-15.27,34.54-34.34  c0.04-19.02-15.41-34.56-34.37-34.59c-19-0.03-34.5,15.43-34.51,34.43C165.51,201.2,180.76,216.53,199.87,216.58z"></path>	<path class="st0" d="M54.76,307.66c96.94,0,193.43,0,290.96,0c-0.63,6.41-0.43,12.87-2.03,18.84  c-2.66,9.95-11.76,15.76-22.83,15.77c-44.15,0.02-88.29,0.01-132.44,0.01c-36.04,0-72.08,0.01-108.12,0  c-16.08,0-25.53-9.47-25.54-25.58C54.76,313.85,54.76,311,54.76,307.66z"></path>	<path class="st0" d="M252.19,354.22c0,5.68,0,11.13,0,17.18c1.6,0,2.91,0,4.22,0c6.36,0,12.73-0.07,19.09,0.05  c3.38,0.06,5.73,2.55,5.76,5.67c0.03,3.16-2.24,5.47-5.69,5.72c-1.12,0.08-2.24,0.04-3.37,0.04c-48.16,0-96.33,0-144.49,0  c-0.62,0-1.25,0.01-1.87,0c-4.61-0.07-7.19-2.16-7.15-5.78c0.04-3.6,2.65-5.67,7.26-5.69c7.08-0.02,14.17-0.01,21.68-0.01  c0-5.88,0-11.42,0-17.18C182.67,354.22,217.28,354.22,252.19,354.22z"></path>	<path class="st0" d="M292.96,185.51c0-4.13,0-7.6,0-11.48c1.82-0.13,3.61-0.26,5.78-0.42c0-1.47,0-2.81,0-4.15  c0-19.21-0.01-38.43,0.01-57.64c0-5.78,1.86-7.65,7.55-7.67c6.49-0.02,12.98-0.09,19.46,0.04c2.12,0.04,3.23-0.58,4.3-2.54  c4.33-7.9,13.37-11.11,21.47-7.91c7.81,3.08,12.38,11.47,10.73,19.69c-1.71,8.52-9.43,14.5-18.25,13.9  c-6.32-0.43-11.09-3.6-14.05-9.18c-0.95-1.8-1.89-2.5-3.97-2.42c-5.08,0.19-10.17,0.06-15.72,0.06c0,1.9,0,3.37,0,4.83  c0,18.84,0.01,37.68,0,56.52c0,6.75-1.62,8.34-8.42,8.37C299,185.52,296.16,185.51,292.96,185.51z"></path>	<path class="st0" d="M89.75,115.67c-6.18,0-11.77-0.15-17.35,0.14c-0.96,0.05-2,1.83-2.7,2.99c-5.28,8.79-16.7,11.26-25.03,5.33  c-8.12-5.77-9.7-17.37-3.42-25.14c7.56-9.34,22.14-8.43,28.22,2c1.51,2.59,3.09,3.25,5.82,3.17c6.23-0.18,12.47-0.08,18.7-0.05  c5.27,0.02,7.23,1.94,7.24,7.2c0.03,19.33,0.01,38.66,0.01,57.99c0,1.34,0,2.69,0,4.25c2.02,0.14,3.71,0.25,5.64,0.39  c0,3.71,0,7.38,0,11.35c-4.05,0-8.03,0.22-11.96-0.07c-3.56-0.26-5.13-2.43-5.15-6.52c-0.05-11.85-0.02-23.69-0.02-35.54  C89.75,134.22,89.75,125.25,89.75,115.67z"></path>	<path class="st0" d="M106.04,57.7c9.53,0,18.75-0.01,27.97,0c5.82,0.01,7.69,1.81,7.7,7.49c0.03,12.84,0.08,25.68-0.08,38.51  c-0.02,1.64-0.92,3.54-1.99,4.83c-2.62,3.13-5.59,5.98-9.28,8.61c0-15.81,0-31.63,0-47.95c-8.08,0-15.64-0.09-23.2,0.13  c-0.86,0.02-1.83,1.7-2.47,2.78c-3.71,6.27-10.87,9.8-17.71,8.63C79.62,79.47,73.95,74,72.59,66.85  c-1.63-8.57,2.96-16.74,11.07-19.69c8.13-2.96,16.87,0.36,21.12,8.04C105.21,55.95,105.57,56.74,106.04,57.7z"></path>	<path class="st0" d="M269.72,69.74c0,7.97,0,15.82,0,23.67c0,7.85,0,15.71,0,24.72c-4.17-4.21-7.74-7.71-11.13-11.38  c-0.54-0.58-0.34-1.91-0.34-2.9c-0.02-12.97-0.03-25.95,0-38.92c0.01-5.28,1.96-7.2,7.22-7.22c8.36-0.03,16.72-0.09,25.07,0.04  c2.37,0.04,3.63-0.55,4.86-2.81c4.16-7.65,13.28-10.73,21.28-7.62c7.96,3.1,12.39,11.47,10.61,20.02  c-1.7,8.14-9.26,14.01-17.75,13.57c-6.32-0.33-11.27-3.34-14.21-8.91c-1.22-2.31-2.56-2.82-4.91-2.76  c-6.36,0.16-12.72,0.07-19.08,0.1C270.97,69.34,270.62,69.51,269.72,69.74z"></path>	<path class="st0" d="M205.84,86.68c-4.13,0-7.6,0-11.52,0c-0.07-1.26-0.2-2.44-0.21-3.63c-0.02-9.59-0.1-19.19,0.06-28.78  c0.04-2.4-0.51-3.66-2.75-4.87c-7.09-3.84-10.33-11.85-8.27-19.43c2.09-7.71,8.79-12.85,16.78-12.86  c8.01-0.01,14.69,5.07,16.83,12.79c2.13,7.69-1.19,15.68-8.5,19.66c-1.98,1.08-2.5,2.2-2.47,4.32c0.12,9.47,0.05,18.94,0.05,28.41  C205.84,83.63,205.84,84.97,205.84,86.68z"></path></g></svg>