<svg xmlns="http://www.w3.org/2000/svg" xmlns:xlink="http://www.w3.org/1999/xlink" id="Layer_1" x="0px" y="0px" viewBox="0 0 400 400" style="enable-background:new 0 0 400 400;" xml:space="preserve"><style type="text/css">	.st0{fill:#322B6A;}</style><g>	<polygon class="st0" points="158.22,206.88 162.79,206.88 160.44,184.73  "></polygon>	<path class="st0" d="M347.41,190.55c-19.79,0.23-39.58,0.09-59.37,0.09c-1.12,0-2.24,0-3.51,0c0-8.38,0-16.46,0-25.01  c1.09,0,2.18,0,3.28,0c10.1,0,20.21,0.01,30.31,0c6.34-0.01,10.61-3.79,10.62-9.37c0-5.58-4.26-9.37-10.6-9.38  c-11.13-0.01-22.25,0-33.77,0c0-6.22,0-12.22,0-18.23c0-8.33-3.39-11.7-11.77-11.7c-5.09,0-10.19,0-15.5,0c0-13.14,0-26.1,0-39.31  c0.99-0.05,1.99-0.14,3-0.14c8.96-0.01,17.92,0.06,26.87-0.05c2.13-0.03,3.24,0.54,4.19,2.61c5.03,10.84,16.31,17.24,27.91,16.1  c12.02-1.18,21.92-9.79,24.73-21.5c3.36-14.02-4.36-28.19-17.98-33.03c-13.43-4.78-28.36,1.26-34.48,14.22  c-1.16,2.46-2.49,2.98-4.92,2.96c-12.5-0.1-25-0.06-37.5-0.04c-7.1,0.01-10.79,3.68-10.79,10.76c-0.01,14.59,0,29.17,0,43.76  c0,1.12,0,2.24,0,3.52c-9.63,0-18.96,0-28.76,0c0-1.18,0-2.38,0-3.59c0-21.05,0.03-42.09-0.02-63.14  c-0.02-7.46-6.81-12.19-13.2-9.2c-3.89,1.82-5.56,5.07-5.55,9.34c0.03,20.94,0.01,41.88,0.01,62.82c0,1.14,0,2.28,0,3.67  c-9.54,0-18.94,0-28.76,0c0-1.05,0-2.16,0-3.26c0-14.59,0.01-29.17,0-43.76c-0.01-7.3-3.64-10.93-10.94-10.94  c-12.71-0.01-25.42-0.06-38.12,0.05c-2.11,0.02-3.04-0.66-3.92-2.54C102.77,43.26,88.39,37,74.89,41.31  c-13.26,4.23-21.54,17.91-19.14,31.64c2.41,13.84,14.83,23.96,29.03,23.2c11.11-0.6,19.24-6.19,24.1-16.22  c0.91-1.89,1.88-2.52,3.95-2.49c9.97,0.12,19.95,0.05,30.1,0.05c0,13.23,0,26.18,0,39.46c-5.53,0-10.92-0.01-16.3,0  c-7.32,0.02-11,3.65-11.01,10.89c-0.01,6.23,0,12.46,0,19.03c-1.47,0-2.68,0-3.9,0c-10.1,0-20.21-0.02-30.31,0.01  c-5.99,0.02-10.24,4.04-10.16,9.5c0.08,5.35,4.26,9.21,10.12,9.23c11.25,0.04,22.49,0.01,34,0.01c0,8.26,0,16.42,0,25.01  c-1.02,0-2.12,0-3.22,0c-20.73,0-41.46-0.01-62.19,0.01c-4.87,0.01-8.31,2.56-9.59,6.94c-1.12,3.83,0.43,8.31,4.04,10.24  c1.83,0.98,4.14,1.49,6.23,1.51c20.42,0.11,40.83,0.07,61.25,0.07c1.12,0,2.25,0,3.55,0c0,8.33,0,16.41,0,25.01  c-1.01,0-2.1,0-3.19,0c-9.9,0-19.79,0-29.69,0c-6.96,0-11.26,3.54-11.31,9.29c-0.05,5.85,4.31,9.46,11.46,9.46  c10.82,0,21.64,0,32.9,0c0,5.01,0,9.86,0,14.71c0,1.77-0.03,3.54,0.01,5.31c0.1,5.85,3.94,9.78,9.82,9.88  c5.72,0.09,11.45,0.02,17.42,0.02c0,13.1,0,26.06,0,39.28c-0.8,0.06-1.7,0.17-2.59,0.17c-9.17,0.01-18.33-0.04-27.5,0.05  c-1.88,0.02-2.9-0.4-3.77-2.26c-5.82-12.49-18.88-18.85-32.02-15.78c-12.65,2.96-21.67,14.49-21.56,27.57  c0.11,13.4,9.15,24.36,22.56,27.37c0.48,0.11,0.93,0.38,1.39,0.57c2.71,0,5.42,0,8.12,0c1.08-0.33,2.15-0.67,3.24-0.98  c8.17-2.31,14.32-7.19,17.89-14.87c1.15-2.47,2.51-2.97,4.93-2.95c12.5,0.1,25,0.06,37.5,0.04c7.09-0.01,10.79-3.69,10.8-10.76  c0.02-14.58,0-29.17,0-43.75c0-1.12,0-2.24,0-3.53c9.63,0,18.96,0,28.76,0c0,1.07,0,2.17,0,3.26c0,20.31,0.14,40.63-0.09,60.94  c-0.07,5.81,1.56,10.1,6.96,12.59c1.67,0,3.33,0,5,0c5.41-2.5,7.03-6.79,6.96-12.6c-0.23-20.21-0.09-40.42-0.09-60.63  c0-1.13,0-2.25,0-3.56c9.59,0,18.92,0,28.76,0c0,1.02,0,2.11,0,3.2c0,14.69-0.01,29.38,0,44.07c0.01,7.07,3.71,10.75,10.8,10.76  c12.71,0.01,25.42,0.04,38.12-0.04c1.98-0.01,3.09,0.41,4.01,2.4c3.93,8.47,10.59,13.7,19.71,15.79c0.59,0.14,1.15,0.4,1.73,0.61  c2.71,0,5.42,0,8.13,0c2.72-0.96,5.55-1.68,8.14-2.91c11.21-5.36,17.4-17.35,15.52-29.7c-1.83-12.03-11.4-21.33-24.03-23.39  c-11.43-1.86-23.67,4.53-28.84,15.42c-1.18,2.49-2.47,3.19-5.12,3.14c-9.67-0.18-19.34-0.07-29.21-0.07c0-13.16,0-26.12,0-39.46  c5.32,0,10.6,0,15.87,0c7.91-0.01,11.41-3.52,11.42-11.43c0-6.03,0-12.05,0-18.5c1.29,0,2.39,0,3.49,0c10.1,0,20.2,0.01,30.31,0  c6.32-0.01,10.59-3.83,10.57-9.41c-0.02-5.56-4.29-9.33-10.64-9.33c-10-0.01-20,0-29.99,0c-1.13,0-2.25,0-3.55,0  c0-8.33,0-16.41,0-25.01c1.01,0,2.1,0,3.18,0c19.89,0,39.79-0.14,59.67,0.09c5.81,0.07,10.1-1.55,12.59-6.97c0-1.67,0-3.33,0-5  C357.51,192.09,353.22,190.48,347.41,190.55z M166.85,237.11l-2.75-19.93h-7.23l-2.78,19.93h-16.15l12.19-74.22h20.67l12.22,74.22  H166.85z M231.96,189.13h-14.8v-15.01c0-1.21-0.8-1.81-2.41-1.81s-2.41,0.6-2.41,1.81v51.5c0,1.21,0.8,1.81,2.41,1.81  s2.41-0.6,2.41-1.81v-13.87h-3.31v-11.39h18.12v36.75h-7.82l-2.12-4.09c-3.59,3.17-7.38,4.76-11.39,4.76  c-3.9,0-7.31-1.01-10.22-3.03c-2.92-2.02-4.37-5.24-4.37-9.65v-48.45c0-9.63,6.14-14.44,18.43-14.44  c11.66,0,17.49,4.38,17.49,13.15V189.13z M262.07,237.11h-16.3v-74.22h16.3V237.11z"></path></g></svg>