<svg xmlns="http://www.w3.org/2000/svg" xmlns:xlink="http://www.w3.org/1999/xlink" id="Layer_1" x="0px" y="0px" viewBox="0 0 400 400" style="enable-background:new 0 0 400 400;" xml:space="preserve"><style type="text/css">	.st0{fill:#322B6A;}</style><g>	<path class="st0" d="M182.03,83.91c0.63,4.57,1.23,8.65,1.72,12.74c0.09,0.76-0.15,1.63-0.43,2.36c-0.52,1.32-1.3,2.55-1.79,3.88  c-1.94,5.23-4.14,9.89-9.4,13.14c-4.96,3.07-7.56,8.62-7.91,14.58c-0.38,6.4-0.47,12.85-0.08,19.25  c0.48,7.91,4.72,13.74,11.31,18.03c1.36,0.88,2.34,2.44,3.28,3.83c0.65,0.96,0.82,2.24,1.38,3.27c2.72,4.97,3.91,9.88,2.69,15.81  c-1.33,6.44,1.32,12.45,5.84,17.3c3.57,3.83,7.22,7.6,11.07,11.15c6.32,5.82,13.76,7.59,22.18,5.74c1.57-0.35,3.37,0.15,5.03,0.46  c0.91,0.17,1.71,0.82,2.6,1.15c5.53,2.05,10.61,4.27,13.98,9.89c2.59,4.32,7.53,6.86,12.65,7.21c7.44,0.51,14.98,0.71,22.4,0.1  c7.15-0.59,12.38-4.98,16.34-10.94c0.96-1.44,2.63-2.47,4.12-3.48c0.96-0.65,2.23-0.84,3.27-1.39c4.9-2.59,9.68-3.86,15.55-2.51  c7.13,1.64,13.12-2.22,18.34-6.89c2.36-2.11,4.59-4.37,7.29-6.95c0.1,1.56,0.23,2.56,0.23,3.57c0.01,18.69,0.03,37.37,0,56.06  c-0.02,12.2-6.8,18.92-19.06,18.92c-88.44,0.01-176.88,0.01-265.32,0c-12.61,0-19.29-6.76-19.29-19.46c0-55.71,0-111.41,0-167.12  c0-12.9,6.71-19.69,19.49-19.7c39.76-0.01,79.51,0,119.27,0C180.04,83.91,181.31,83.91,182.03,83.91z M83.41,222.94  c5.33-5.26,10.29-10.02,15.1-14.94c2.57-2.63,2.5-5.99,0.18-8.27c-2.37-2.32-5.57-2.32-8.24,0.3  c-6.28,6.15-12.49,12.37-18.65,18.64c-2.47,2.52-2.79,5.63-0.52,7.98c6.51,6.75,13.11,13.43,19.91,19.89  c3.02,2.87,7.57,1.39,8.92-2.47c0.96-2.76-0.2-4.83-2.09-6.69C93.29,232.71,88.57,228.05,83.41,222.94z M173.56,222.74  c-1.22,1.31-2.08,2.26-2.98,3.17c-4.11,4.14-8.31,8.18-12.3,12.43c-2.34,2.49-2.11,5.8,0.16,8c2.21,2.14,5.35,2.37,7.7,0.08  c6.65-6.46,13.22-13.02,19.66-19.7c2.16-2.24,2.2-5.19,0.02-7.44c-6.53-6.76-13.17-13.41-19.95-19.92c-2.29-2.2-5.67-1.79-7.68,0.5  c-2.1,2.38-2.13,4.95-0.2,7.46c0.79,1.03,1.78,1.91,2.71,2.83C164.93,214.29,169.16,218.43,173.56,222.74z M139.04,204.5  c0.02-3.4-2.1-5.91-4.88-6.36c-2.93-0.48-5.55,1.34-6.44,4.83c-3.16,12.44-6.23,24.9-9.3,37.36c-0.22,0.9-0.38,1.91-0.21,2.8  c0.52,2.77,2.33,4.51,5.1,4.71c3.11,0.23,5.23-1.4,6.01-4.47c1.99-7.83,3.92-15.68,5.88-23.52  C136.52,214.54,137.85,209.24,139.04,204.5z"></path>	<path class="st0" d="M193.89,192.29c0.28-1.39,0.13-3.12,0.91-4.11c2.63-3.33,0.84-6.07-0.46-9.15  c-2.31-5.46-4.16-11.12-6.45-16.59c-0.52-1.25-1.9-2.6-3.16-3.01c-5.47-1.75-9.12-5.89-9.37-11.71c-0.21-4.75-0.21-9.52,0-14.27  c0.26-5.87,3.77-9.87,9.33-11.74c1.28-0.43,2.67-1.73,3.2-2.97c2.73-6.44,5.29-12.97,7.68-19.55c0.48-1.32,0.42-3.2-0.16-4.47  c-2.34-5.1-1.73-10.46,2.15-14.54c3.04-3.18,6.17-6.29,9.31-9.37c4.56-4.46,10.02-5.05,15.69-2.04c1,0.53,2.64,0.53,3.73,0.11  c6.73-2.62,13.41-5.37,20.05-8.23c0.98-0.42,2.02-1.53,2.35-2.55c2.21-6.76,6.29-9.86,13.47-9.91c3.93-0.03,7.86-0.08,11.78,0.02  c6.43,0.16,10.66,3.6,12.58,9.67c0.38,1.19,1.68,2.45,2.86,2.95c6.57,2.75,13.2,5.35,19.88,7.8c1.21,0.44,2.97,0.32,4.15-0.23  c5.27-2.5,10.51-1.86,14.8,2.25c3.18,3.05,6.3,6.16,9.34,9.34c4.27,4.46,4.84,9.52,2.1,15.09c-0.52,1.05-0.55,2.68-0.13,3.8  c2.47,6.67,5.04,13.32,7.81,19.87c0.53,1.24,1.96,2.53,3.24,2.95c5.77,1.87,9.29,6.29,9.38,12.44c0.06,4.4,0.08,8.81,0,13.21  c-0.11,5.92-3.73,10.31-9.35,12.07c-1.29,0.41-2.73,1.7-3.26,2.95c-2.78,6.55-5.35,13.19-7.82,19.87c-0.41,1.12-0.38,2.75,0.13,3.8  c2.71,5.54,2.17,10.67-2.06,15.12c-3.03,3.19-6.15,6.3-9.34,9.34c-4.49,4.28-9.51,4.84-15.09,2.12c-1.06-0.52-2.7-0.56-3.82-0.14  c-6.67,2.48-13.31,5.06-19.86,7.84c-1.26,0.53-2.6,1.93-3.01,3.22c-1.87,5.78-6.24,9.3-12.42,9.4c-4.28,0.07-8.57,0.07-12.85,0  c-6.14-0.1-10.46-3.59-12.41-9.43c-0.42-1.27-1.78-2.59-3.03-3.15c-6.28-2.78-12.64-5.39-19.05-7.85c-1.3-0.5-3.21-0.57-4.41,0.03  c-5.66,2.8-10.84,2.22-15.39-2.19c-3.16-3.07-6.5-6.01-9.25-9.41c-1.92-2.37-2.98-5.43-4.43-8.18  C193.45,192.59,193.67,192.44,193.89,192.29z M267.87,89.45c-29.27-0.12-51.4,21.94-51.58,51.42  c-0.18,27.82,22.94,50.96,51.1,51.16c27.93,0.2,51.95-22.89,51.57-50.69C318.53,108.5,295.08,89.8,267.87,89.45z"></path>	<path class="st0" d="M168.35,301.77c15.62,0,31.28,0,46.93,0c0.58,5.51,1.27,10.89,1.66,16.29c0.2,2.81,1.53,3.38,4.09,3.55  c22.02,1.46,43.78,4.52,64.59,12.24c5.32,1.97,10.4,4.65,15.4,7.37c3.2,1.74,3.83,5.17,2.09,7.97c-1.62,2.61-4.84,3.45-7.83,1.74  c-15.13-8.69-31.8-12.48-48.77-15.04c-35.05-5.29-70.2-5.29-105.29-0.61c-18.29,2.44-36.33,6.26-52.67,15.58  c-3.18,1.81-6.45,0.92-8.04-1.92c-1.57-2.8-0.84-6.33,2.48-7.86c7.95-3.68,15.93-7.49,24.24-10.16c17.98-5.78,36.65-8.05,55.43-9.3  c2.53-0.17,3.95-0.69,4.15-3.48C167.19,312.82,167.79,307.52,168.35,301.77z"></path></g></svg>