<svg xmlns="http://www.w3.org/2000/svg" xmlns:xlink="http://www.w3.org/1999/xlink" id="Layer_1" x="0px" y="0px" viewBox="0 0 400 400" style="enable-background:new 0 0 400 400;" xml:space="preserve"><style type="text/css">	.st0{fill:#322B6A;}</style><g>	<path class="st0" d="M279.25,238.99c1.04-14.3,1.96-27.14,3.06-42.33c-15.4,9.74-31.37,8.05-47.12,8.06  c-9,0-13.67-3.56-13.26-10.32c0.48-7.99,5.86-10.04,12.87-9.9c5.61,0.12,11.4,0.89,16.81-0.18c8.06-1.6,16.19-3.82,23.67-7.17  c6.57-2.94,12.12-8.09,18.43-11.71c9.78-5.61,19.98-5.84,29.49,0.37c9.16,5.98,12.01,14.9,10.3,25.66  c-3.13,19.65-5.89,39.37-8.94,59.04c-1.38,8.94-5.44,12.39-14.91,12.6c-12.35,0.27-24.71,0.45-37.06,0.26  c-5.4-0.08-7.97,1.43-8.9,7.23c-2.88,17.98-6.42,35.86-9.72,53.78c-0.35,1.93-0.67,3.88-1.24,5.75  c-2.09,6.88-7.76,10.64-13.94,8.96c-6.97-1.9-10.51-6.85-9.31-13.89c4.3-25.14,8.97-50.21,13.56-75.3  c1.38-7.57,6.37-10.85,13.76-10.91C264.05,238.95,271.29,238.99,279.25,238.99z"></path>	<path class="st0" d="M117.41,196.31c1.14,15.19,2.12,28.28,3.2,42.67c6.96,0,13.58-0.05,20.19,0.01  c11.05,0.11,13.93,2.36,15.91,12.99c4.37,23.41,8.71,46.83,12.83,70.29c1.79,10.21-3.54,17.73-11.91,17.11  c-6.83-0.51-10.32-4.82-11.49-11.4c-3.34-18.76-6.97-37.47-10.06-56.27c-1-6.07-3.26-8.64-9.78-8.36  c-11.77,0.5-23.58,0.21-35.37,0.12c-10.33-0.08-14.12-3.42-15.68-13.54c-3-19.39-5.74-38.82-9.02-58.16  c-1.79-10.55,1.24-19.08,9.69-25.13c8.96-6.43,18.93-6.04,28.81-1.83c2.04,0.87,3.95,2.18,5.67,3.59  c15.74,12.91,33.54,18.38,53.96,16.3c8.62-0.88,14.01,3.76,13.4,10.14c-0.72,7.63-5.86,10.05-13.01,9.96  C149.1,204.59,133.19,206.34,117.41,196.31z"></path>	<path class="st0" d="M203.43,70.47c0,14.69,0,28.88,0,44.49c15.36,0,30.03,0,44.59,0c0.66,31.59-32.69,54.19-61.1,41.85  c-8.33-3.62-15.18-3.55-22.97-0.83c-2.64,0.92-5.33,1.85-8.07,2.23c-1.67,0.23-3.84-0.14-5.09-1.12c-0.68-0.54-0.15-2.97,0.25-4.44  c0.36-1.31,1.2-2.53,1.97-3.69c5.84-8.74,8.35-17.01,5.94-28.61C153.52,94.28,176.74,68.83,203.43,70.47z"></path>	<path class="st0" d="M208.53,230.02c0,32.38,0,63.48,0,94.58c0,2.52,0.89,5.58-0.21,7.45c-2,3.39-5.19,6.08-7.89,9.06  c-2.72-2.99-5.84-5.72-8-9.07c-1.02-1.6-0.22-4.37-0.22-6.62c0-28.31,0-56.63,0-84.94c0-3.04,0-6.09,0-10.27  c-12.68,0-24.65,0.01-36.61-0.01c-5.05-0.01-10.37,0.85-15.04-0.49c-2.88-0.83-6.27-4.9-6.6-7.84c-0.25-2.18,3.83-5.15,6.42-7.22  c1.06-0.85,3.26-0.36,4.93-0.36c36.46-0.01,72.93-0.01,109.39-0.01c0.84,0,1.68,0.02,2.52,0.02c5.61-0.03,9.57,2.4,9.34,8.29  c-0.21,5.36-4.01,7.5-9.29,7.46c-13.18-0.1-26.37-0.03-39.55-0.03C214.96,230.02,212.22,230.02,208.53,230.02z"></path>	<path class="st0" d="M99.6,288.75c-5.05,0-10.1,0.13-15.14-0.03c-17.99-0.56-31.39-12.23-34.23-29.9  c-3.37-21.01-6.57-42.04-9.9-63.06c-0.87-5.5-0.39-10.66,5.99-11.94c7.08-1.41,9.17,3.78,10.06,9.49  c3.02,19.36,6.08,38.72,8.91,58.12c2.38,16.3,7.81,21.19,24.32,21.23c9.25,0.02,18.51,0,27.76,0.03c5.42,0.02,9.83,2.09,9.72,8  c-0.11,5.71-4.33,8.06-9.82,8.07C111.38,288.76,105.49,288.75,99.6,288.75z"></path>	<path class="st0" d="M299.41,288.96c-5.89,0-11.99,0.93-17.59-0.34c-3.46-0.79-6.14-4.94-9.18-7.59c2.94-2.77,5.66-7.61,8.85-7.94  c10.28-1.04,20.72-0.36,31.1-0.45c13.98-0.12,19.8-5.1,21.99-18.99c3.05-19.37,5.94-38.75,8.91-58.13  c0.21-1.38,0.45-2.76,0.71-4.14c0.95-5.04,3.69-8.57,9.11-7.69c5.83,0.94,7.35,5.24,6.46,10.75c-2.97,18.53-5.85,37.07-8.79,55.6  c-0.66,4.15-1.21,8.32-2.17,12.4c-3.69,15.75-16.35,26.02-32.57,26.48C310.63,289.09,305.02,288.96,299.41,288.96z"></path>	<path class="st0" d="M117.66,128.81c-0.09,14.65-11.65,25.99-26.39,25.87c-14.62-0.11-26.14-11.79-26-26.36  c0.14-14.37,12.19-26.24,26.49-26.09C106.15,102.38,117.75,114.28,117.66,128.81z"></path>	<path class="st0" d="M308.68,154.69c-14.74,0.02-26.17-11.36-26.17-26.08c-0.01-14.51,11.72-26.38,26.09-26.4  c14.33-0.02,26.29,11.93,26.32,26.3C334.94,143.07,323.32,154.67,308.68,154.69z"></path>	<path class="st0" d="M215.1,103.67c0-14.41-0.17-27.75,0.25-41.08c0.04-1.35,3.67-3.81,5.51-3.7c19.18,1.24,37.68,19.94,38.6,39.09  c0.09,1.82-2.81,5.38-4.42,5.43C242.23,103.87,229.39,103.67,215.1,103.67z"></path></g></svg>