<svg xmlns="http://www.w3.org/2000/svg" xmlns:xlink="http://www.w3.org/1999/xlink" id="Layer_1" x="0px" y="0px" viewBox="0 0 400 400" style="enable-background:new 0 0 400 400;" xml:space="preserve"><style type="text/css">	.st0{fill:#322B6A;}</style><g>	<path class="st0" d="M178.11,374.96c0-18.68,0.01-37.36-0.01-56.04c-0.01-9.91-7.72-14.95-16.68-10.92  c-5.13,2.31-10.46,1.1-13.79-3.13c-3.06-3.89-3.1-9.04-0.08-12.96c3.23-4.22,8.6-5.43,13.78-3.12c9,4.02,16.75-0.96,16.77-10.79  c0.02-11.26,0.01-22.52,0.01-34.02c7.3,0,14.4,0,21.75,0c0.54,10.39,4.55,19.14,12.84,25.62c6.44,5.03,13.83,7.32,21.99,6.88  c14.69-0.8,29.9-12.11,31.04-32.51c14.39,0,28.79,0,43.62,0c0,1.34,0,2.67,0,3.99c0,30.41,0,60.82,0,91.23  c0,19.11-9,30.66-27.53,35.34c-0.19,0.05-0.33,0.28-0.5,0.43C246.92,374.96,212.52,374.96,178.11,374.96z"></path>	<path class="st0" d="M25,118.69c0.67-2.14,1.21-4.33,2.04-6.41C32.21,99.34,41.8,91.2,55.63,90.94  c33.34-0.64,66.7-0.21,100.61-0.21c0,1.23,0,2.42,0,3.61c0,17.42-0.01,34.83,0,52.25c0.01,10.15,7.6,15.07,16.84,10.95  c5.04-2.24,10.48-0.92,13.73,3.35c3,3.93,2.94,9.07-0.13,12.96c-3.23,4.08-8.74,5.67-13.46,2.97c-7.48-4.27-17.54,1.14-17.09,10.97  c0.46,10.11,0.1,20.26,0.1,30.39c0,1.12,0,2.23,0,3.52c-7.4,0-14.5,0-21.59,0c-3.3-21.05-15.82-33.01-34.04-32.59  c-14.31,0.33-30.74,11.08-32.04,32.78c-14.51,0-29.04,0-43.57,0C25,187.48,25,153.08,25,118.69z"></path>	<path class="st0" d="M25,243.75c18.67,0,37.35-0.29,56.01,0.12c9.97,0.21,15.22-9.56,10.95-17.06c-2.69-4.73-0.94-10.42,3.34-13.67  c3.92-2.98,9.09-2.89,12.95,0.21c4.04,3.25,5.2,8.54,2.97,13.54c-4.13,9.26,0.77,16.84,10.91,16.86c10.13,0.02,20.26,0,30.4,0  c1.11,0,2.22,0,3.52,0c0,7.39,0,14.49,0,21.57c-21.26,3.41-33.17,16.01-32.58,34.39c0.47,14.39,11.38,30.39,32.77,31.68  c0,14.51,0,29.04,0,43.57c-34.4,0-68.81,0-103.21,0c-1.16-0.38-2.3-0.8-3.48-1.13c-11.36-3.17-18.9-10.43-22.89-21.44  c-0.65-1.78-1.11-3.63-1.66-5.45C25,312.55,25,278.15,25,243.75z"></path>	<path class="st0" d="M331.36,178.14c-1.13,21.02-17.19,32.74-32.8,32.8c-15.53,0.06-31.97-11.53-33.09-32.8c-2.43,0-4.9,0-7.36,0  c-7.97,0-15.94,0.01-23.91,0c-7.94-0.02-12.31-4.33-12.33-12.19c-0.02-14.46-0.01-28.92,0-43.38c0.01-10.6,7.41-15.43,17.16-11.15  c4.36,1.92,8.27,1.13,11.76-1.8c3.2-2.69,4.58-6.23,3.57-10.39c-1.1-4.52-4.12-7.48-8.62-8.19c-2.3-0.36-5.02,0.15-7.21,1.08  c-8.87,3.77-16.63-1.07-16.65-10.69c-0.03-14.8-0.03-29.6,0-44.4c0.01-7.5,4.41-11.96,11.85-11.96  c35.98-0.02,71.97-0.06,107.95,0.01c18.82,0.04,33.21,14.27,33.27,33c0.11,36.09,0.05,72.18,0.02,108.27  c0,7.26-4.48,11.75-11.7,11.78C352.69,178.17,342.13,178.14,331.36,178.14z"></path></g></svg>