<svg xmlns="http://www.w3.org/2000/svg" xmlns:xlink="http://www.w3.org/1999/xlink" id="Layer_1" x="0px" y="0px" viewBox="0 0 400 400" style="enable-background:new 0 0 400 400;" xml:space="preserve"><style type="text/css">	.st0{fill:#322B6A;}</style><g>	<path class="st0" d="M249.25,90.33c-0.53-0.98-1.06-1.97-1.64-2.93c-4.09-6.75-6.14-14.05-6.51-21.96  c-0.43-9.34-1.2-18.67-1.99-27.98c-0.83-9.84-5.9-14.73-15.79-15.49c-6.22-0.47-12.44-1.31-18.66-1.23  c-15.7,0.21-31.4,0.58-47.08,1.44c-9.13,0.5-13.99,6.2-14.59,15.4c-0.49,7.59-1.22,15.17-1.55,22.77  c-0.46,10.74-2.06,21.1-9.23,30.48c39.47,0,78.19,0,116.86,0C249.17,90.56,249.28,90.41,249.25,90.33z"></path>	<path class="st0" d="M134.62,312.84c2.1,5.94,5.04,11.78,5.93,17.91c1.5,10.34,1.72,20.86,2.42,31.31  c0.69,10.17,5.77,15.31,16.03,16.06c5.72,0.42,11.45,1.21,17.16,1.13c16.19-0.23,32.4-0.53,48.57-1.38  c8.82-0.47,13.61-5.93,14.33-14.82c0.79-9.82,1.6-19.64,2.07-29.48c0.42-8.85,3.58-16.66,8.53-24.3c-39.24,0-77.96,0-117.01,0  C133.36,310.54,134.19,311.62,134.62,312.84z"></path>	<path class="st0" d="M297.18,188.75c-0.1-4.93-3.08-7.45-8.46-7.44c0,12.63,0,25.08,0,37.53c5.56-0.19,8.38-2.7,8.47-7.67  C297.32,203.7,297.34,196.22,297.18,188.75z"></path>	<path class="st0" d="M155.29,219.61c-9.64,0.06-17.54,8.12-17.38,17.76c0.16,9.51,8.08,17.27,17.56,17.21  c9.5-0.06,17.33-7.89,17.4-17.39C172.94,227.58,164.92,219.56,155.29,219.61z"></path>	<path class="st0" d="M226.71,219.61c-9.54,0.05-17.28,7.79-17.36,17.36c-0.08,9.7,7.82,17.65,17.49,17.61  c9.56-0.04,17.28-7.79,17.33-17.37C244.22,227.44,236.41,219.56,226.71,219.61z"></path>	<path class="st0" d="M279.35,138.67c-0.04-23.09-15.97-39-39.06-39.02c-32.81-0.02-65.62-0.02-98.43,0  c-23.04,0.02-39.11,16.01-39.13,39.01c-0.04,40.92-0.04,81.83,0,122.75c0.02,23,16.1,39.01,39.12,39.02  c32.81,0.02,65.62,0.02,98.43,0c23.1-0.02,39.03-15.93,39.07-39.02c0.03-20.33,0.01-40.67,0.01-61  C279.36,179.84,279.39,159.25,279.35,138.67z M217.92,145.28c-0.87-0.84-1.71-1.69-2.54-2.57c-2.6-2.75-2.85-5.72-0.66-7.77  c2.18-2.04,4.86-1.78,7.5,0.86c5.35,5.34,10.65,10.72,15.97,16.08c1.08,1.09,2.2,2.14,3.24,3.27c2.32,2.53,2.46,5.16,0.11,7.56  c-6.57,6.74-13.2,13.43-19.9,20.05c-2.29,2.26-5,2.22-7.02,0.24c-1.93-1.9-2.02-4.86,0.18-7.03c5.53-5.46,11.2-10.77,17.51-16.81  C227.03,154.07,222.47,149.68,217.92,145.28z M140.49,155.47c6.64-6.84,13.35-13.6,20.13-20.31c2.23-2.2,5.08-2.08,7.02-0.04  c1.88,1.98,1.84,4.79-0.36,7.06c-4.65,4.8-9.4,9.51-14.1,14.25c-0.76,0.77-1.5,1.57-2.8,2.94c5.2,5.02,10.16,9.81,15.11,14.61  c0.79,0.76,1.6,1.51,2.26,2.38c1.68,2.2,1.71,4.48-0.18,6.56c-1.82,1.99-4.68,2.15-6.76,0.11c-6.87-6.76-13.66-13.61-20.37-20.53  C138.29,160.29,138.31,157.71,140.49,155.47z M155.35,263.56c-14.52-0.02-26.43-11.97-26.41-26.49  c0.02-14.54,11.95-26.46,26.47-26.43c14.53,0.02,26.45,11.97,26.43,26.49C181.82,251.65,169.87,263.57,155.35,263.56z   M182.15,195.39c-0.95,2.4-2.15,4.32-4.51,4.4c-4.26,0.05-6.35-3.32-4.82-7.22c4.1-10.48,8.3-20.93,12.46-31.39  c5.08-12.8,10.17-25.6,15.23-38.4c0.88-2.22,1.89-4.24,4.6-4.56c3.95-0.46,6.37,3.18,4.74,7.39c-3.28,8.46-6.67,16.87-10.02,25.3  C193.92,165.73,188.01,180.55,182.15,195.39z M226.83,263.55c-14.57,0.04-26.4-11.78-26.44-26.41  c-0.04-14.61,11.75-26.47,26.33-26.51c14.57-0.04,26.41,11.79,26.43,26.41C253.17,251.68,241.42,263.52,226.83,263.55z"></path></g></svg>