<svg xmlns="http://www.w3.org/2000/svg" xmlns:xlink="http://www.w3.org/1999/xlink" id="Layer_1" x="0px" y="0px" viewBox="0 0 400 400" style="enable-background:new 0 0 400 400;" xml:space="preserve"><style type="text/css">	.st0{fill:#322B6A;}</style><g>	<path class="st0" d="M269.5,141.45c-6.68,0.31-12.87,0.59-19.39,0.89c0-21.93,0-44.34,0-66.98c-55.33,0-110.31,0-165.58,0  c0,79.17,0,158.32,0,237.65c55.14,0,110.12,0,165.47,0c0-2.7,0-5.27,0-7.48c6.57,0.48,12.79,0.94,19.02,1.4  c0.13,0.22,0.35,0.43,0.35,0.64c0.04,16.22,0.4,32.44-0.02,48.65c-0.33,12.5-9.9,21.28-22.5,21.3c-53.16,0.07-106.33,0.08-159.49,0  c-12.93-0.02-21.99-9.19-22.39-22.16c-0.03-0.87-0.02-1.75-0.02-2.62c0-101.81,0.02-203.62-0.05-305.44  c-0.01-7.34,1.59-13.83,7.13-18.95c4.75-4.38,10.43-5.93,16.83-5.91c32.7,0.09,65.39,0.04,98.09,0.04c19.34,0,38.69-0.01,58.03,0  c15.32,0.02,24.52,9.15,24.53,24.37c0.02,30.19,0.01,60.39,0.01,90.58C269.5,138.66,269.5,139.9,269.5,141.45z M167.09,352.99  c5.86,0,11.72,0.05,17.57-0.02c3.99-0.05,6.27-2.04,6.36-5.31c0.09-3.41-2.29-5.6-6.43-5.62c-11.59-0.06-23.18-0.05-34.77,0  c-4.09,0.02-6.62,2.23-6.59,5.51c0.02,3.29,2.52,5.39,6.67,5.43C155.62,353.04,161.36,352.99,167.09,352.99z M167.43,54.32  c4.36,0,8.73,0.09,13.09-0.03c4.04-0.11,6.15-2.12,6.15-5.51c0-3.4-2.13-5.42-6.17-5.46c-8.85-0.09-17.71-0.08-26.56-0.01  c-4.02,0.03-6.27,2.02-6.37,5.3c-0.1,3.42,2.23,5.6,6.39,5.69C158.45,54.41,162.94,54.33,167.43,54.32z"></path>	<path class="st0" d="M320.26,182c-1.05,1.8-1.87,3.95-3.3,5.54c-4.26,4.74-4.87,8.88-2.09,15.35c2.71,6.32,5.97,8.21,12.08,8.41  c6.89,0.22,8.14,1.89,8.16,8.78c0.01,2.99,0.01,5.99-0.02,8.98c-0.03,3.45-1.6,5.66-5.11,6.32c-3.91,0.74-8.71,0.39-11.47,2.59  c-2.6,2.06-2.7,7.03-4.56,10.34c-1.75,3.11-1.37,5.14,0.86,7.83c8.14,9.81,8.03,9.9-1.08,19c-1.06,1.06-2.08,2.15-3.19,3.16  c-2.45,2.22-5.09,2.46-7.84,0.58c-3.29-2.25-6.39-5.94-9.89-6.37c-3.28-0.4-6.85,3.16-10.52,4.06c-3.79,0.92-4.9,3.01-5.01,6.44  c-0.06,2.11-0.39,4.22-0.69,6.32c-0.64,4.37-2.3,5.95-6.57,6.06c-3.62,0.1-7.24,0.1-10.85,0c-4.11-0.11-6.44-1.69-6.56-5.64  c-0.26-8.04-3.27-12.79-11.6-15.23c-4.47-1.31-7.28-1.63-10.32,1.66c-0.34,0.36-0.77,0.64-1.15,0.95c-6.94,5.56-7.94,5.5-14.3-0.86  c-1.76-1.76-3.55-3.5-5.29-5.3c-2.43-2.51-2.59-5.28-0.67-8.14c2.15-3.2,5.73-6.19,6.15-9.59c0.4-3.17-3.08-6.64-3.86-10.2  c-0.94-4.3-3.43-5.28-7.25-5.59c-11.59-0.95-11.74-1.22-11.74-12.74c0-10.95,0.15-11.31,10.86-12.68c4.37-0.56,7.45-1.71,8.08-6.69  c0.26-2.02,1.28-4.11,2.48-5.8c1.99-2.8,1.35-4.84-0.85-7.08c-1.74-1.77-3.17-3.84-4.69-5.82c-2.13-2.77-2.1-5.56,0.31-8.11  c2.74-2.9,5.57-5.72,8.46-8.48c2.4-2.3,5.13-2.39,7.85-0.59c2.6,1.72,5.17,3.49,7.62,5.41c1.58,1.24,2.84,1.38,4.7,0.41  c3.19-1.66,6.53-3.11,9.95-4.22c2.05-0.66,2.77-1.66,2.87-3.67c0.15-2.86,0.49-5.71,0.87-8.56c0.54-4.08,2.61-5.9,6.76-5.97  c3.62-0.06,7.24-0.03,10.86-0.01c3.44,0.02,5.7,1.58,6.38,5.06c0.76,3.91,0.36,8.7,2.54,11.48c2.04,2.6,7.04,2.67,10.29,4.61  c3.25,1.93,5.51,1.73,8.06-0.91c1.72-1.78,3.81-3.21,5.83-4.68c2.41-1.75,5.01-1.8,7.21,0.23c3.3,3.04,6.44,6.26,9.5,9.54  C319.29,179.06,319.54,180.4,320.26,182z M263.92,248.01c13.19-0.02,23.74-10.53,23.78-23.71c0.05-13.33-10.68-24.15-23.88-24.09  c-13.02,0.05-23.78,10.79-23.89,23.82C239.83,237.23,250.64,248.03,263.92,248.01z"></path>	<path class="st0" d="M149.34,181.34c-4.85,0.05-7.23-3.78-5.49-8.22c4.67-11.94,9.45-23.83,14.18-35.74  c5.79-14.57,11.57-29.14,17.34-43.72c1-2.52,2.15-4.83,5.24-5.19c4.5-0.52,7.25,3.62,5.4,8.41c-3.73,9.63-7.59,19.21-11.41,28.81  c-6.71,16.88-13.45,33.75-20.12,50.65C153.4,179.06,152.04,181.25,149.34,181.34z"></path>	<path class="st0" d="M113.32,135.32c5.92,5.72,11.57,11.17,17.21,16.63c0.89,0.87,1.83,1.72,2.58,2.71  c1.91,2.51,1.95,5.1-0.21,7.47c-2.07,2.27-5.33,2.45-7.7,0.12c-7.82-7.7-15.55-15.5-23.2-23.37c-2.45-2.52-2.43-5.46,0.05-8.01  c7.56-7.78,15.2-15.49,22.92-23.12c2.54-2.51,5.78-2.37,7.99-0.04c2.15,2.26,2.1,5.45-0.4,8.04c-5.29,5.47-10.7,10.82-16.05,16.23  C115.65,132.86,114.81,133.77,113.32,135.32z"></path>	<path class="st0" d="M221.6,135.07c-6.01-5.8-11.21-10.79-16.39-15.8c-0.99-0.95-1.95-1.93-2.9-2.92  c-2.96-3.13-3.24-6.51-0.76-8.85c2.48-2.32,5.53-2.03,8.54,0.98c6.09,6.07,12.13,12.2,18.19,18.31c1.23,1.24,2.5,2.44,3.68,3.72  c2.65,2.88,2.8,5.87,0.13,8.6c-7.48,7.67-15.03,15.29-22.65,22.83c-2.6,2.58-5.69,2.53-7.99,0.27c-2.2-2.17-2.3-5.54,0.2-8  C207.96,147.99,214.42,141.94,221.6,135.07z"></path></g></svg>