<svg xmlns="http://www.w3.org/2000/svg" xmlns:xlink="http://www.w3.org/1999/xlink" id="Layer_1" x="0px" y="0px" viewBox="0 0 400 400" style="enable-background:new 0 0 400 400;" xml:space="preserve"><style type="text/css">	.st0{fill:#322B6A;}</style><g>	<path class="st0" d="M90.05,199.8c0-51.28,0-102.55,0-153.83c0-14.37,7.3-21.74,21.55-21.74c58.87,0,117.74,0,176.61,0  c14.36,0,21.74,7.33,21.74,21.57c0,102.8,0,205.6,0,308.4c0,14.07-7.41,21.55-21.38,21.56c-59,0.01-117.99,0.01-176.99,0  c-14.1,0-21.53-7.39-21.53-21.38C90.04,302.85,90.05,251.33,90.05,199.8z M298.95,315.21c0-79.51,0-158.63,0-237.75  c-66.17,0-131.98,0-197.99,0c0,79.34,0,158.48,0,237.75C167.06,315.21,232.9,315.21,298.95,315.21z M199.62,348.19  c5.98,0,11.96,0.03,17.94-0.01c4.27-0.03,6.61-2.03,6.56-5.43c-0.05-3.3-2.24-5.14-6.39-5.15c-11.83-0.04-23.67-0.04-35.5,0  c-4.16,0.01-6.31,1.84-6.35,5.17c-0.04,3.44,2.25,5.38,6.56,5.42C188.16,348.22,193.89,348.19,199.62,348.19z M188.3,58.67  c2.11,0,4.23,0.13,6.33-0.03c2.87-0.23,4.55-1.92,4.75-4.8c0.21-3.09-1.49-5.25-4.38-5.51c-4.31-0.39-8.7-0.38-13.01,0  c-2.9,0.26-4.63,2.43-4.41,5.5c0.2,2.84,1.9,4.56,4.76,4.8C184.31,58.8,186.31,58.66,188.3,58.67z M216.14,58.73  c3.84,0.04,6.32-2.05,6.29-5.3c-0.03-3.05-2.5-5.25-5.98-5.32c-3.73-0.07-6.24,2.1-6.23,5.38  C210.22,56.69,212.48,58.69,216.14,58.73z"></path>	<path class="st0" d="M161.12,178.38c-9.85,0-19.71,0.02-29.56-0.01c-6.16-0.02-8.63-2.48-8.64-8.62c-0.02-19.21-0.02-38.42,0-57.64  c0.01-6.01,2.63-8.59,8.75-8.59c19.71-0.02,39.41-0.02,59.12,0c6.3,0.01,8.83,2.51,8.84,8.89c0.04,19.09,0.04,38.17,0,57.26  c-0.02,6.35-2.5,8.69-8.94,8.71C180.83,178.4,170.98,178.38,161.12,178.38z"></path>	<path class="st0" d="M201.87,217.25c-25.3,0-50.6,0-75.9,0c-1.25,0-2.53,0.13-3.73-0.1c-2.94-0.57-4.67-2.41-4.54-5.47  c0.13-2.85,1.82-4.56,4.67-4.95c1.1-0.15,2.24-0.09,3.36-0.09c50.85,0,101.7,0,152.56,0c1,0,2-0.04,2.99,0.05  c3.19,0.28,5.25,2.36,5.1,5.31c-0.17,3.24-2.02,4.97-5.23,5.21c-1.12,0.08-2.24,0.03-3.36,0.03  C252.48,217.25,227.17,217.25,201.87,217.25z"></path>	<path class="st0" d="M122.91,263.3c0-3.87-0.08-7.74,0.03-11.6c0.13-4.44,2.83-7.32,7.25-7.41c7.73-0.15,15.47-0.14,23.2-0.01  c4.47,0.07,7.29,2.76,7.41,7.27c0.19,7.73,0.19,15.47,0.02,23.2c-0.11,4.69-2.94,7.36-7.65,7.44c-7.48,0.12-14.97,0.11-22.45,0  c-5.06-0.07-7.71-2.9-7.79-8.04C122.86,270.53,122.91,266.92,122.91,263.3z"></path>	<path class="st0" d="M220.97,263.18c0,3.74,0.06,7.49-0.01,11.23c-0.09,4.89-2.76,7.7-7.64,7.78c-7.48,0.12-14.97,0.11-22.45,0.01  c-4.77-0.06-7.62-2.64-7.74-7.32c-0.2-7.73-0.19-15.47-0.01-23.2c0.11-4.71,2.93-7.33,7.66-7.4c7.48-0.11,14.97-0.1,22.45,0  c4.91,0.07,7.62,2.83,7.72,7.69C221.04,255.7,220.97,259.44,220.97,263.18z"></path>	<path class="st0" d="M281.11,263.61c0,3.62,0.09,7.24-0.02,10.85c-0.15,4.99-2.73,7.66-7.67,7.73c-7.48,0.11-14.96,0.11-22.44,0  c-4.92-0.08-7.58-2.82-7.63-7.75c-0.07-7.48-0.07-14.97,0-22.45c0.05-4.91,2.73-7.66,7.65-7.73c7.48-0.11,14.96-0.11,22.44,0  c4.92,0.07,7.51,2.75,7.65,7.75C281.2,255.87,281.11,259.74,281.11,263.61z"></path>	<path class="st0" d="M256.96,118.06c-7.36,0-14.71,0.03-22.07-0.01c-4.35-0.03-6.73-1.93-6.77-5.25c-0.04-3.33,2.39-5.42,6.64-5.43  c14.96-0.05,29.92-0.04,44.88,0c4.3,0.01,6.74,2,6.78,5.3c0.04,3.34-2.36,5.35-6.64,5.38C272.17,118.1,264.56,118.06,256.96,118.06  z"></path>	<path class="st0" d="M257.12,146.27c-7.48,0-14.96,0.04-22.44-0.01c-4.32-0.03-6.63-2.02-6.53-5.43c0.1-3.24,2.4-5.17,6.46-5.18  c15.09-0.03,30.18-0.03,45.26,0c4.21,0.01,6.64,2.11,6.55,5.48c-0.08,3.2-2.38,5.1-6.48,5.13  C272.33,146.31,264.73,146.27,257.12,146.27z"></path>	<path class="st0" d="M257.06,174.57c-7.48,0-14.96,0.03-22.44-0.01c-4.09-0.02-6.37-1.89-6.47-5.13c-0.11-3.42,2.21-5.43,6.5-5.44  c15.09-0.03,30.18-0.03,45.26,0c4.13,0.01,6.39,1.85,6.49,5.1c0.1,3.4-2.27,5.46-6.51,5.48  C272.28,174.6,264.67,174.57,257.06,174.57z"></path></g></svg>