<svg xmlns="http://www.w3.org/2000/svg" xmlns:xlink="http://www.w3.org/1999/xlink" id="Layer_1" x="0px" y="0px" viewBox="0 0 400 400" style="enable-background:new 0 0 400 400;" xml:space="preserve"><style type="text/css">	.st0{fill:#322B6A;}</style><g>	<path class="st0" d="M50,113.29c4.6-10.65,12.66-14.5,24.19-14.23c24,0.56,48.03,0.14,72.05,0.18  c13.54,0.02,20.87,7.46,20.93,21.11c0.02,4.45,0,8.9,0,14.06c-10.37,0-20.26-0.02-30.15,0c-10.58,0.02-16.53,3.47-19.2,11.06  c-3.54,10.05-0.94,19.28,7.85,26.01c-2.15,0.17-3.73,0.27-5.3,0.41c-4.36,0.39-6.86,2.8-7,7.14c-0.19,6.05-0.17,12.11-0.05,18.16  c0.09,4.64,2.66,7.31,7.3,7.43c6.05,0.16,12.11,0.14,18.16-0.03c4.65-0.14,7.16-2.81,7.27-7.45c0.12-4.88,0.05-9.76,0.04-14.64  c-0.02-8.27-1.43-9.88-9.43-10.92c2.28-2.51,4.48-5.13,6.91-7.51c0.84-0.82,2.24-1.47,3.4-1.49c6.43-0.14,12.86-0.07,19.83-0.07  c0.15,1.91,0.39,3.58,0.39,5.25c0.01,37.1,0.01,74.2-0.02,111.3c-0.01,14.45-7.18,21.69-21.51,21.71  c-23.82,0.03-47.65-0.36-71.46,0.18c-11.51,0.26-19.63-3.53-24.2-14.23C50,228.9,50,171.09,50,113.29z M87.24,214.04  c16.55-0.02,16.55-0.02,16.64-16.27c0.09-16.57,0.09-16.57-16.42-16.49c-16.34,0.08-16.34,0.08-16.35,16.55  C71.1,214.06,71.1,214.06,87.24,214.04z M103.91,239.87c0-16.43,0-16.43-15.93-16.44c-16.86,0-16.86,0-16.88,16.68  c-0.02,16.17-0.02,16.17,16.24,16.14C103.91,256.22,103.91,256.22,103.91,239.87z M113.28,239.33  c0.02,16.89,0.02,16.89,16.63,16.92c0.2,0,0.39,0,0.59,0c15.5,0.01,15.5,0.01,15.58-15.6c0.09-17.3,0.09-17.3-16.91-17.2  C113.26,223.54,113.26,223.54,113.28,239.33z M108.14,127.34c3.49,0,7.11,0.55,10.43-0.19c2.31-0.52,5.6-2.52,6-4.39  c0.75-3.47-2.31-4.79-5.66-4.77c-6.79,0.03-13.61-0.37-20.35,0.19c-2.2,0.18-5.69,2.55-5.98,4.34c-0.63,3.92,2.78,4.89,6.24,4.84  C101.94,127.32,105.04,127.35,108.14,127.34z M108.4,282c0-0.01,0-0.01,0-0.02c3.69,0,7.49,0.55,11.02-0.21  c2.05-0.44,3.65-2.96,5.46-4.55c-1.68-1.52-3.28-4.23-5.06-4.35c-7.54-0.49-15.15-0.49-22.68,0.02c-1.72,0.12-3.25,2.97-4.87,4.57  c1.69,1.51,3.2,3.95,5.11,4.33C100.93,282.51,104.71,282,108.4,282z"></path>	<path class="st0" d="M232.84,162.5c12.3,0,23.96,0.12,35.62-0.04c8.91-0.12,15.05-6.49,14.66-14.76  c-0.36-7.51-6.26-13.14-14.35-13.24c-11.69-0.15-23.38-0.04-36.23-0.04c0.37-7.45-0.03-14.68,1.26-21.59  c1.5-8.01,8.75-13.45,17.02-13.51c26.93-0.19,53.86-0.22,80.79-0.02c10.28,0.08,18.26,8.08,18.29,18.33  c0.13,54.84,0.13,109.67,0.01,164.51c-0.02,10.56-8,18.51-18.66,18.58c-26.73,0.18-53.47,0.18-80.2-0.04  c-10.04-0.08-18.08-7.88-18.13-17.84C232.72,243.04,232.84,203.24,232.84,162.5z M313,169.53c-16.92,0-16.92,0-16.92,17.19  c0,15.62,0,15.62,15.62,15.62c17.2,0,17.2,0,17.2-16.92C328.89,169.53,328.89,169.53,313,169.53z M286.71,195.25  c0-16.34,0-16.34-16.07-16.34c-0.19,0-0.39,0-0.58,0c-16.16,0-16.16,0-16.16,16.2c0,16.62,0,16.62,16.33,16.62  C286.71,211.72,286.71,211.72,286.71,195.25z M270.42,253.91c16.29,0,16.29,0,16.29-16.12c0-0.19,0-0.39,0-0.58  c0-16.11,0-16.11-16.25-16.11c-16.56,0-16.56,0-16.56,16.4C253.89,253.9,253.89,253.9,270.42,253.91z M328.87,237.53  c0.07-16.51,0.07-16.51-15.95-16.42c-16.73,0.1-16.73,0.1-16.83,16.66c-0.09,16.19-0.09,16.19,16.21,16.11  C328.81,253.79,328.81,253.79,328.87,237.53z M291.78,117.99c0,0.01,0,0.01,0,0.02c-3.89,0-7.86-0.49-11.62,0.2  c-1.9,0.35-3.41,2.82-5.09,4.34c1.62,1.59,3.16,4.44,4.88,4.56c7.54,0.5,15.16,0.5,22.7,0.01c1.77-0.12,3.38-2.84,5.06-4.36  c-1.81-1.59-3.42-4.08-5.49-4.56C298.91,117.42,295.28,117.99,291.78,117.99z M291.94,272.69c-4.08,0-8.23-0.43-12.21,0.2  c-1.73,0.27-3.12,2.73-4.67,4.19c1.57,1.63,3.05,4.57,4.72,4.68c7.74,0.5,15.54,0.46,23.29,0.02c1.62-0.09,3.1-2.73,4.64-4.19  c-1.57-1.64-2.92-4.3-4.75-4.69C299.44,272.15,295.63,272.69,291.94,272.69z"></path>	<path class="st0" d="M135.73,153.34c-0.09,1.74,0.26,3.2-0.3,4.01c-1.28,1.86-3.01,3.4-4.56,5.08c-1.57-1.66-4.2-3.15-4.52-5.02  c-1.74-10.22,1.38-13.65,11.61-13.65c38.66,0,77.31-0.01,115.97,0.01c2.87,0,5.55,0.41,6.84-3.47c0.38-1.13,4.14-2.19,5.8-1.64  c4.03,1.34,7.88,3.41,11.54,5.62c3.8,2.29,3.72,6-0.07,8.36c-2.8,1.75-5.88,3.06-8.86,4.52c-6.07,2.97-7.33,2.49-10.13-3.82  C218.14,153.34,177.19,153.34,135.73,153.34z"></path>	<path class="st0" d="M122.94,181.5c4.6,0,8.78,0,13.37,0c0,4.46,0,8.78,0,13.48c-4.41,0-8.73,0-13.37,0  C122.94,190.53,122.94,186.35,122.94,181.5z"></path>	<path class="st0" d="M94.4,191.11c0,4.55,0,8.6,0,13.11c-4.46,0-8.78,0-13.52,0c0-4.23,0-8.56,0-13.11  C85.42,191.11,89.89,191.11,94.4,191.11z"></path>	<path class="st0" d="M94.06,246.66c-4.46,0-8.64,0-13.22,0c0-4.55,0-8.87,0-13.52c4.35,0,8.53,0,13.22,0  C94.06,237.35,94.06,241.67,94.06,246.66z"></path>	<path class="st0" d="M122.9,246.57c0-4.59,0-8.77,0-13.36c4.47,0,8.79,0,13.48,0c0,4.41,0,8.74,0,13.36  C131.94,246.57,127.75,246.57,122.9,246.57z"></path>	<path class="st0" d="M305.58,192.59c0-4.64,0-8.68,0-13.22c4.43,0,8.75,0,13.53,0c0,4.2,0,8.52,0,13.22  C314.74,192.59,310.42,192.59,305.58,192.59z"></path>	<path class="st0" d="M277.06,188.61c0,4.51,0,8.7,0,13.33c-4.39,0-8.71,0-13.43,0c0-4.35,0-8.68,0-13.33  C268,188.61,272.18,188.61,277.06,188.61z"></path>	<path class="st0" d="M277.1,230.93c0,4.47,0,8.65,0,13.21c-4.52,0-8.84,0-13.52,0c0-4.34,0-8.53,0-13.21  C267.81,230.93,272.13,230.93,277.1,230.93z"></path>	<path class="st0" d="M319.21,230.86c0,4.72,0,8.9,0,13.39c-4.48,0-8.67,0-13.32,0c0-4.34,0-8.66,0-13.39  C310.18,230.86,314.5,230.86,319.21,230.86z"></path></g></svg>