<svg xmlns="http://www.w3.org/2000/svg" xmlns:xlink="http://www.w3.org/1999/xlink" id="Layer_1" x="0px" y="0px" viewBox="0 0 400 400" style="enable-background:new 0 0 400 400;" xml:space="preserve"><style type="text/css">	.st0{fill:#322B6A;}</style><g>	<path class="st0" d="M231.47,31.01c2.09,0.89,4.2,1.73,6.26,2.68c11.03,5.05,18.5,13.23,21.73,25.04c0.52,1.92,0.84,3.94,0.9,5.92  c0.27,8.03,0.4,16.06,0.59,24.2c-7.06,0-13.99,0-21.13,0c0-5.36,0-10.78,0-16.33c-52.52,0-104.84,0-157.25,0  c0,75.29,0,150.55,0,225.81c59.23,0,118.42,0,177.86,0c0,0.46,0,1.06,0,1.66c0,10.46-0.2,20.93,0.05,31.38  c0.4,16.79-10.4,29.9-24.28,35.53c-3.13,1.27-6.27,1.85-9.66,1.81c-9.08-0.12-18.16-0.01-27.24,0.02c-0.54,0-1.09,0.17-1.63,0.26  c-31.27,0-62.54,0-93.81,0c-0.54-0.09-1.09-0.22-1.63-0.26c-4.46-0.32-8.98-0.23-13.35-1.02c-6.23-1.13-11.37-4.68-15.98-8.89  c-4.92-4.49-8.09-10.16-10.38-16.35c-0.37-1-0.76-2.06-0.82-3.1c-0.13-2.57-0.09-5.15-0.09-7.72c-0.03-10.91-0.06-21.82-0.08-32.73  c-0.03-17.29-0.07-34.58-0.07-51.87c0-55.39,0-110.78,0.04-166.17c0-6.37-0.36-12.82,0.47-19.1c2.26-16.94,18.77-31.21,34.41-30.44  c1.8,0.09,3.61-0.2,5.42-0.32C145.02,31.01,188.24,31.01,231.47,31.01z M161.15,350.36c8.45,0.32,16.4-7.07,16.52-16.47  c0.11-8.69-7.15-16.93-16.8-17.08c-9.77-0.16-17.08,9.42-16.85,16.82C144.33,343.58,151.97,350.5,161.15,350.36z"></path>	<path class="st0" d="M239.73,106.43c8.16,0,16.06,0,24.24,0c0,4.82-0.02,9.4,0.01,13.98c0.02,2.98,0.09,5.97,0.22,8.95  c0.02,0.44,0.43,1.18,0.76,1.25c8.23,1.65,15.51,5.63,22.94,9.25c0.05,0.02,0.11,0,0.35,0c5.42-5.43,10.93-10.94,16.4-16.42  c5.73,5.73,11.37,11.38,16.96,16.99c-5.56,5.56-11.2,11.19-16.88,16.87c5.33,7.34,8.16,15.5,10.31,24.04c7.81,0,15.61,0,23.55,0  c0,8.16,0,16.22,0,24.43c-7.76,0-15.55,0-23.32,0c-1.19,3.69-2.12,7.34-3.55,10.78c-1.71,4.1-3.79,8.05-5.84,12  c-0.57,1.11-0.56,1.72,0.36,2.61c5.25,5.14,10.44,10.34,15.54,15.42c-5.79,5.79-11.46,11.47-17.16,17.18  c-5.37-5.45-10.89-11.05-16.46-16.71c-7.56,4.8-15.49,7.9-23.97,9.98c0,7.96,0,15.87,0,23.93c-8.2,0-16.25,0-24.46,0  c0-3.29,0-6.61,0-9.93c0-4.14-0.05-8.28,0.03-12.41c0.03-1.22-0.39-1.69-1.52-1.96c-7.14-1.75-13.93-4.4-20.28-8.13  c-0.69-0.4-1.34-0.86-2.1-1.35c-5.57,5.59-11.11,11.15-16.59,16.64c-5.89-5.9-11.68-11.69-17.62-17.64  c5.51-5.35,11.12-10.79,16.81-16.32c-4.88-7.51-7.83-15.54-9.85-24.05c-7.9,0-15.7,0-23.56,0c0-8.16,0-16.18,0-24.36  c7.85,0,15.63,0,23.41,0c0.88-2.91,1.5-5.77,2.6-8.43c1.8-4.37,3.85-8.65,5.9-12.91c1.15-2.39,1.3-2.39-0.61-4.33  c-4.51-4.6-9.05-9.15-13.6-13.71c-0.4-0.4-0.91-0.68-1.33-0.98c6.03-6.01,11.8-11.77,17.55-17.5c5.42,5.49,10.93,11.07,16.42,16.64  c2.74-1.48,4.99-3,7.44-3.96c4.92-1.94,9.94-3.63,14.96-5.29c1.38-0.46,1.99-0.93,1.96-2.53  C239.67,121.1,239.73,113.75,239.73,106.43z M225.26,193.72c0,14.43,12.12,26.62,26.43,26.61c14.38-0.02,26.77-12.2,26.61-26.63  c-0.16-14.36-11.42-26.77-26.89-26.65C236.38,167.17,225.27,179.83,225.26,193.72z"></path>	<path class="st0" d="M100.47,94.9c15.61,0,31.05,0,46.63,0c0,9.67,0,19.27,0,28.98c-15.54,0-31.02,0-46.63,0  C100.47,114.25,100.47,104.65,100.47,94.9z"></path>	<path class="st0" d="M147.16,169.05c0,9.58,0,19.1,0,28.66c-15.45,0-30.91,0-46.59,0c0-9.67,0-19.11,0-28.66  C116.03,169.05,131.56,169.05,147.16,169.05z"></path>	<path class="st0" d="M100.42,274.42c0-9.39,0-18.68,0-28.09c15.56,0,31.09,0,46.73,0c0,9.34,0,18.67,0,28.09  C131.6,274.42,116.11,274.42,100.42,274.42z"></path></g></svg>