<svg xmlns="http://www.w3.org/2000/svg" xmlns:xlink="http://www.w3.org/1999/xlink" id="Layer_1" x="0px" y="0px" viewBox="0 0 400 400" style="enable-background:new 0 0 400 400;" xml:space="preserve"><style type="text/css">	.st0{fill:#322B6A;}</style><g>	<g>		<path class="st0" d="M184.27,98.45c0.55,4,1.08,7.57,1.51,11.14c0.08,0.67-0.13,1.42-0.38,2.07c-0.46,1.16-1.13,2.23-1.57,3.4   c-1.7,4.58-3.62,8.65-8.22,11.5c-4.34,2.69-6.61,7.54-6.92,12.76c-0.33,5.6-0.41,11.25-0.07,16.84c0.42,6.92,4.13,12.02,9.9,15.77   c1.19,0.77,2.05,2.13,2.87,3.35c0.57,0.84,0.72,1.96,1.21,2.86c2.38,4.35,3.42,8.64,2.35,13.83c-1.16,5.64,1.15,10.89,5.11,15.14   c3.12,3.35,6.32,6.65,9.69,9.75c5.53,5.09,12.04,6.64,19.41,5.02c1.37-0.3,2.95,0.13,4.4,0.4c0.79,0.15,1.5,0.72,2.27,1   c4.84,1.8,9.28,3.74,12.23,8.65c2.27,3.78,6.59,6,11.07,6.31c6.51,0.44,13.11,0.62,19.6,0.09c6.26-0.51,10.83-4.35,14.29-9.57   c0.84-1.26,2.3-2.16,3.6-3.04c0.84-0.57,1.95-0.73,2.86-1.22c4.29-2.27,8.47-3.37,13.6-2.2c6.24,1.43,11.48-1.94,16.04-6.03   c2.06-1.85,4.02-3.82,6.38-6.08c0.09,1.36,0.2,2.24,0.2,3.12c0.01,16.35,0.02,32.7,0,49.05c-0.01,10.67-5.95,16.55-16.68,16.55   c-77.38,0.01-154.76,0.01-232.15,0C65.85,278.91,60,273,60,261.88c0-48.73,0-97.47,0-146.2c0-11.28,5.87-17.23,17.05-17.23   c34.79-0.01,69.57,0,104.36,0C182.53,98.45,183.65,98.45,184.27,98.45z M97.96,220.07c4.67-4.59,9.01-8.75,13.22-13.05   c2.25-2.3,2.2-5.24,0.17-7.23c-2.07-2.04-4.87-2.04-7.21,0.25c-5.49,5.38-10.93,10.82-16.32,16.31c-2.16,2.2-2.45,4.93-0.47,6.98   c5.7,5.91,11.51,11.71,17.41,17.41c1.99,1.92,4.38,1.72,6.48-0.1c2-1.74,2.21-4.51,0.55-6.74c-0.62-0.83-1.39-1.54-2.13-2.27   C105.9,227.9,102.14,224.19,97.96,220.07z M176.59,219.76c-0.24,0.6-0.26,0.72-0.32,0.78c-4.02,4.07-8.07,8.12-12.07,12.21   c-2.63,2.7-2.83,5.49-0.66,7.7c2.17,2.21,5.01,2.04,7.67-0.59c5.18-5.12,10.34-10.27,15.46-15.45c3.02-3.06,3.02-5.56-0.01-8.62   c-5.05-5.11-10.14-10.17-15.24-15.23c-2.8-2.77-5.69-3.03-7.91-0.78c-2.24,2.26-1.95,5.01,0.93,7.9   C168.45,211.74,172.53,215.74,176.59,219.76z M133.75,241.92c2.02-0.29,3.79-1.46,4.43-4.03c2.76-11.1,5.56-22.19,8.25-33.3   c0.7-2.89-0.84-5.32-3.5-6.08c-2.57-0.74-5.29,0.68-6.03,3.55c-2.9,11.28-5.72,22.57-8.43,33.9   C127.73,239.06,130.21,241.89,133.75,241.92z"></path>		<path class="st0" d="M194.65,193.23c0.25-1.22,0.15-2.69,0.81-3.6c2.03-2.77,0.85-5.07-0.3-7.72c-2.1-4.86-3.73-9.92-5.78-14.8   c-0.46-1.09-1.68-2.25-2.8-2.6c-4.66-1.5-7.88-5.04-8.13-9.96c-0.22-4.26-0.21-8.54-0.02-12.8c0.23-5.12,3.32-8.61,8.2-10.25   c1.11-0.37,2.31-1.53,2.77-2.62c2.39-5.64,4.63-11.34,6.72-17.1c0.42-1.15,0.34-2.79-0.17-3.91c-2.04-4.45-1.49-9.14,1.93-12.71   c2.73-2.86,5.52-5.67,8.37-8.41c3.75-3.61,8.75-4.27,13.18-1.56c1.49,0.91,2.45,0.72,3.92,0.06c5.49-2.45,11.05-4.75,16.66-6.92   c1.48-0.57,2.35-1.08,2.8-2.76c1.42-5.31,5.22-8.21,10.68-8.35c3.75-0.1,7.5-0.09,11.24,0c5.61,0.14,9.29,3.15,10.96,8.5   c0.31,0.98,1.3,2.08,2.24,2.48c5.85,2.43,11.75,4.72,17.69,6.91c0.99,0.37,2.43,0.36,3.36-0.09c4.92-2.35,9.35-1.85,13.21,1.86   c2.78,2.67,5.51,5.39,8.17,8.17c3.73,3.9,4.2,8.3,1.79,13.21c-0.45,0.92-0.44,2.34-0.08,3.32c2.16,5.84,4.4,11.65,6.83,17.38   c0.46,1.08,1.73,2.18,2.86,2.55c4.92,1.61,8.06,5.44,8.16,10.6c0.07,3.95,0.08,7.91,0,11.87c-0.1,5.17-3.27,8.99-8.22,10.53   c-1.12,0.35-2.36,1.51-2.82,2.61c-2.43,5.73-4.68,11.54-6.84,17.38c-0.36,0.97-0.3,2.4,0.15,3.32c2.37,4.82,1.87,9.32-1.85,13.22   c-2.66,2.79-5.38,5.51-8.17,8.17c-3.93,3.74-8.29,4.2-13.21,1.81c-0.93-0.45-2.36-0.46-3.34-0.09   c-5.84,2.17-11.65,4.42-17.38,6.85c-1.1,0.46-2.24,1.71-2.6,2.84c-1.6,4.93-5.39,8.06-10.59,8.18c-3.95,0.09-7.91,0.1-11.87,0   c-5.03-0.13-9.01-3.15-10.28-8.02c-0.49-1.89-1.44-2.54-3.17-3.18c-5.35-1.97-10.63-4.14-15.82-6.49   c-1.74-0.79-2.94-1.21-4.8-0.11c-4.28,2.54-9.04,1.86-12.65-1.56c-3.02-2.86-6.13-5.68-8.76-8.89c-1.62-1.98-2.41-4.64-3.58-6.99   C194.31,193.46,194.48,193.34,194.65,193.23z M214.25,148.39c-0.09,24.34,20.23,44.59,44.82,44.66   c24.49,0.07,45.06-20.18,45.14-44.45c0.08-25.61-19.39-45.25-44.92-45.3C233.68,103.25,214.34,122.6,214.25,148.39z"></path>		<path class="st0" d="M172.31,289.08c13.77,0,27.48,0,41.06,0c0.52,4.92,1.11,9.64,1.48,14.38c0.18,2.31,1.26,2.8,3.4,2.94   c19.27,1.27,38.3,3.94,56.52,10.67c4.46,1.65,8.75,3.85,12.96,6.08c3.26,1.73,4.1,4.63,2.56,7.27c-1.51,2.58-4.45,3.09-7.63,1.27   c-11.85-6.77-24.87-9.96-38.13-12.16c-31.97-5.32-64.07-5.38-96.13-1.14c-16.01,2.12-31.78,5.51-46.07,13.67   c-2.64,1.51-5.4,0.72-6.81-1.62c-1.47-2.44-0.91-5.58,1.97-6.92c6.95-3.24,13.92-6.61,21.19-8.94   c15.83-5.07,32.27-7.11,48.81-8.17c2.13-0.14,3.23-0.65,3.42-2.9C171.29,298.77,171.82,294.04,172.31,289.08z"></path>	</g></g></svg>