<svg xmlns="http://www.w3.org/2000/svg" xmlns:xlink="http://www.w3.org/1999/xlink" id="Layer_1" x="0px" y="0px" viewBox="0 0 400 400" style="enable-background:new 0 0 400 400;" xml:space="preserve"><style type="text/css">	.st0{fill:#322B6A;}</style><g>	<path class="st0" d="M164.75,225.99c0-0.02,0-0.03,0-0.05c-0.01,0.02-0.03,0.04-0.04,0.05c0.01,0.02,0.03,0.04,0.04,0.05  C164.75,226.03,164.75,226.01,164.75,225.99z"></path>	<path class="st0" d="M164.7,235.35c-0.12,1.93,0.42,2.41,2.38,2.4c15.1-0.09,30.21-0.05,45.31-0.05c15.28,0,30.55,0.03,45.83-0.04  c1.8-0.01,2.4,0.45,2.3,2.29c-0.15,2.98-0.04,5.97-0.04,8.85c0.31,0.14,0.44,0.22,0.46,0.2c5.86-7.34,11.7-14.71,17.6-22.02  c0.87-1.08,0.26-1.64-0.34-2.39c-2.8-3.5-5.57-7.02-8.36-10.53c-2.96-3.73-5.93-7.46-9.35-11.76c0,3.64-0.14,6.55,0.05,9.44  c0.14,2.09-0.57,2.55-2.58,2.54c-21.23-0.07-42.47-0.05-63.7-0.05c-9.15,0-18.3,0.05-27.45-0.04c-1.73-0.02-2.17,0.48-2.1,2.14  c0.13,3.03,0.04,6.07,0.04,9.67C164.75,229.55,164.88,232.46,164.7,235.35z"></path>	<path class="st0" d="M278.17,271.63c-4.69-5.97-9.41-11.91-14.13-17.85c-1.03-1.29-2.07-2.57-3.55-4.41c0,3.4-0.21,6.07,0.06,8.69  c0.28,2.71-0.69,3.21-3.25,3.2c-29.95-0.09-59.9-0.03-89.85-0.12c-2.34-0.01-2.91,0.62-2.75,2.83c0.2,2.85,0.05,5.73,0.05,9.14  c-6.15-7.75-11.86-14.99-17.64-22.18c-0.86-1.07-0.91-1.72,0-2.81c2.66-3.17,5.16-6.47,7.73-9.71c3.16-3.98,6.32-7.95,9.86-12.4  c-5.75-7.24-10.98-14.05-16.48-20.63c-1.81-2.17-1.95-3.46-0.07-5.69c5.57-6.64,10.84-13.53,16.68-20.9c0,3.76,0.07,6.82-0.03,9.88  c-0.05,1.49,0.26,2.13,1.95,2.12c14.85-0.06,29.69-0.05,44.54-0.01c1.47,0,1.91-0.43,1.9-1.9c-0.06-10.1-0.08-20.2,0.02-30.29  c0.02-1.9-0.8-2.15-2.31-2.01c-3.26,0.31-6.55,0.41-9.78,0.89c-44.18,6.48-74.87,48.41-67.86,92.63  c6.08,38.38,38.45,66.91,77.36,68.33c2.36,0.09,2.61-0.64,2.59-2.65c-0.1-9.67-0.01-19.33-0.08-29c-0.01-1.54,0.32-2.05,1.97-2.05  c14.5,0.07,29,0.07,43.5,0c1.75-0.01,1.95,0.65,1.91,2.11c-0.09,3.06-0.03,6.12-0.03,9.92c6.38-8.06,12.27-15.54,18.22-22.98  C279.6,272.64,278.62,272.2,278.17,271.63z"></path>	<path class="st0" d="M359.65,218.17c-2.41-21.41-13.53-36.63-33.33-45.37c-1.65-0.73-3.83-0.97-4.85-2.2  c-1.1-1.33,0.15-3.46,0.25-5.25c1.34-23.27-5.89-43.62-22.36-59.92c-22.92-22.68-50.4-29.3-81.18-19.34  c-19.34,6.26-33.82,18.94-43.68,36.76c-0.78,1.41-1.58,1.8-3.26,1.58c-5.32-0.7-10.72-0.87-16.01-0.03  c-25.25,4.03-42.27,18.14-50.88,42.24c-0.6,1.69-1.31,2.27-3.09,2.2c-6.75-0.26-13.43,0.23-20,1.95  c-27.02,7.09-44.5,33.08-40.76,60.68c3.54,26.14,28.28,47.45,55.28,47.56c11.83,0.05,23.65,0.01,35.48,0c0.75,0,1.5-0.06,2.56-0.11  c-10.19-20.71-12.82-42.06-6.89-64.22c5.94-22.2,18.78-39.49,37.94-52.11c31.75-20.92,74-18.57,104.63,5.66  c28.22,22.32,44.86,67.43,23.2,110.78c4.92,0,9.57,0.06,14.23-0.01c5.81-0.09,11.48-1.05,16.99-2.95  C348.35,267.62,362.44,242.92,359.65,218.17z"></path></g></svg>