<svg xmlns="http://www.w3.org/2000/svg" xmlns:xlink="http://www.w3.org/1999/xlink" id="Layer_1" x="0px" y="0px" viewBox="0 0 400 400" style="enable-background:new 0 0 400 400;" xml:space="preserve"><style type="text/css">	.st0{fill:#322B6A;}</style><g>	<path class="st0" d="M63.63,115.04c27.39,0,54.79,0,82.18,0c64.58,0,129.15,0.01,193.73-0.01c12.68,0,20.43-7.77,20.45-20.45  c0.02-11.56,0-23.12,0.01-34.68c0-4.49-1.09-8.61-3.78-12.3c-2.98-4.09-7.26-6.04-11.85-7.55c-96.25,0-192.49,0-288.74,0  c-5.83,1.8-10.83,4.7-13.58,10.47c-0.79,1.67-1.37,3.44-2.04,5.16c0,14.58,0,29.17,0,43.75C45.25,112.23,49.5,115.04,63.63,115.04z   M210.04,74.2c1.47-3.83,4.88-6.01,9.65-6.02c15.41-0.02,30.83-0.01,46.24-0.01c15.52,0,31.04-0.05,46.56,0.02  c7.2,0.03,11.78,6.36,9.34,12.7c-1.41,3.66-4.74,5.96-9.02,6c-6.87,0.07-13.75,0.02-20.62,0.02c-24.16,0-48.33,0.02-72.49-0.01  C212.24,86.89,207.56,80.65,210.04,74.2z M162.75,68.19c5.1,0.14,9.24,4.52,9.09,9.61c-0.14,5.1-4.52,9.24-9.61,9.09  c-5.1-0.14-9.24-4.52-9.09-9.61C153.29,72.19,157.66,68.05,162.75,68.19z M124.29,68.19c5.1-0.05,9.39,4.17,9.43,9.27  c0.05,5.1-4.17,9.39-9.27,9.43c-5.1,0.05-9.39-4.17-9.43-9.27C114.98,72.53,119.19,68.24,124.29,68.19z M86.97,68.19  c5.1,0.05,9.31,4.35,9.26,9.44c-0.05,5.1-4.35,9.31-9.44,9.26c-5.1-0.05-9.31-4.35-9.26-9.44C77.57,72.35,81.87,68.14,86.97,68.19z  "></path>	<path class="st0" d="M359.99,192.24c-0.01-13.31-7.61-20.94-20.9-20.94c-24.78-0.01-49.56,0-74.34,0  c-67.99,0-135.98,0.01-203.97-0.03c-5.76,0-11.22,1.09-15.03,5.51c-2.49,2.89-3.87,6.72-5.75,10.14c0,14.58,0,29.17,0,43.75  c0.16,0.26,0.39,0.5,0.47,0.78c3.2,10.22,9.36,14.84,20,14.84c93.08,0.01,186.16,0.01,279.25,0c12.46,0,20.23-7.83,20.27-20.31  C360.01,214.73,360,203.48,359.99,192.24z M86.79,218.14c-5.1-0.05-9.32-4.33-9.27-9.43c0.05-5.1,4.33-9.32,9.43-9.27  c5.1,0.05,9.32,4.33,9.27,9.43C96.18,213.97,91.89,218.19,86.79,218.14z M124.29,218.14c-5.1-0.05-9.32-4.33-9.27-9.43  c0.05-5.1,4.33-9.32,9.43-9.27c5.1,0.05,9.32,4.33,9.27,9.43C133.68,213.97,129.39,218.19,124.29,218.14z M162.04,218.13  c-5.1-0.26-9.14-4.71-8.89-9.79c0.26-5.1,4.71-9.14,9.79-8.89c5.1,0.26,9.14,4.71,8.89,9.79  C171.58,214.34,167.12,218.39,162.04,218.13z M321.82,212.14c-1.41,3.66-4.74,5.96-9.03,6c-6.87,0.07-13.75,0.02-20.62,0.02  c-24.16,0-48.33,0.02-72.49-0.01c-7.45-0.01-12.13-6.26-9.65-12.71c1.47-3.83,4.88-6.01,9.65-6.01  c15.52-0.02,31.04-0.01,46.56-0.01c15.41,0,30.83-0.05,46.24,0.02C319.69,199.47,324.26,205.8,321.82,212.14z"></path>	<path class="st0" d="M318.11,307.49c-6.01,3.49-10.04,8.61-12.6,14.84c-0.28,0.07-0.38,0.12-0.48,0.12  c-25.62,0.03-51.24,0.07-76.86,0.01c-0.84,0-2.08-0.87-2.44-1.66c-3.11-6.72-7.95-11.6-14.71-14.64c-0.69-0.31-1.56-1.24-1.57-1.89  c-0.11-6.74-0.07-13.48-0.07-20.49c1.54,0,2.76,0,3.99,0c32.39,0,64.79,0,97.18-0.01c1.67,0,3.34,0,4.99-0.15  c11.01-0.98,21.46-9.17,23.54-18.43c-92.74,0-185.47,0-278.33,0c0.11,0.47,0.13,0.78,0.24,1.05c4.24,10.81,14.49,17.51,27.06,17.52  c32.91,0.03,65.83,0.01,98.74,0.01c1.21,0,2.42,0,3.72,0c0,7.46,0,14.52,0,21.55c-10.46,5.72-11.8,7.07-17.11,17.2  c-0.94,0-1.97,0-3,0c-24.27,0-48.54-0.04-72.81,0.06c-2.33,0.01-3.41-0.71-4.39-2.8c-8.57-18.38-33.63-21.47-46.56-5.91  c-3.65,4.4-5.4,9.5-6.65,14.9c0,2.08,0,4.17,0,6.25c0.17,0.49,0.4,0.96,0.49,1.46c2.25,12.61,11.56,21.48,24.4,23.21  c11.89,1.6,23.35-4.82,28.59-16.24c0.88-1.91,1.97-2.22,3.8-2.22c24.58,0.05,49.16,0.03,73.74,0.03c0.82,0,1.65,0,2.46,0  c5.1,11.71,13.71,18.62,26.51,18.62c12.8,0,21.4-6.93,26.42-18.44c0.27-0.06,0.48-0.14,0.68-0.14c25.52-0.02,51.04-0.05,76.55,0.06  c0.93,0,2.27,1.2,2.73,2.16c7.27,15.17,24.56,20.81,39.32,12.71c13.58-7.45,18.12-24.63,10.23-38.69  C348.7,304.67,331.02,299.99,318.11,307.49z"></path>	<path class="st0" d="M59,152.39c94.15,0,188.04,0,282.09,0c0-6.15,0-12.15,0-18.38c-94.21,0-188.18,0-282.09,0  C59,140.29,59,146.37,59,152.39z"></path></g></svg>