<svg xmlns="http://www.w3.org/2000/svg" xmlns:xlink="http://www.w3.org/1999/xlink" id="Layer_1" x="0px" y="0px" viewBox="0 0 400 400" style="enable-background:new 0 0 400 400;" xml:space="preserve"><style type="text/css">	.st0{fill:#322B6A;}</style><g>	<path class="st0" d="M121.29,151.45c13.79,8.36,23.18,20.58,27.63,36.87c15.13,0,29.93,0.34,44.7-0.31  c2.67-0.12,5.88-3.81,7.61-6.62c9.51-15.43,26.3-22.55,43-17.76c17.03,4.88,27.95,19.62,27.64,37.31  c-0.3,17.31-12.12,31.75-29.44,35.98c-15.8,3.85-32.57-3.3-40.89-18.45c-2.86-5.21-5.89-7.07-11.69-6.9  c-13.52,0.41-27.06,0.13-37.08,0.13c-10.67,14.15-19.77,26.22-30.19,40.05c4.26,19.05,29.77,39.47,54.56,40.91  c3.15,0.18,6.36-0.25,9.45,0.2c7.72,1.11,12.17-1.55,16.27-8.75c8.47-14.86,26.56-20.73,42.81-15.61  c15.68,4.93,26.37,19.88,26.2,36.61c-0.17,16.98-11.51,31.52-28.14,36.06c-15.81,4.32-33.29-2.27-41.53-16.99  c-3.46-6.19-7.15-8.25-13.98-7.96c-40.9,1.76-68.98-17.92-87.12-53.35c-2.67-5.21-5.22-7.8-11.73-8.32  C61.11,252.3,39.77,228.02,40,199.53c0.23-28.47,21.94-52.26,50.28-54.18c5.8-0.39,8.08-2.75,10.39-7.34  c18.05-35.93,46.18-55.95,87.52-54.19c6.8,0.29,10.53-1.67,14.01-7.9c8.22-14.75,25.67-21.37,41.5-17.09  c16.23,4.38,27.67,18.65,28.15,35.1c0.49,16.89-9.64,31.86-25.23,37.29c-15.65,5.45-34.47,0.76-42.45-13.84  c-5.75-10.53-13.17-10.31-22.28-10.17C154.23,107.63,131.23,124.11,121.29,151.45z M125.84,200.42  c0.11-18.17-13.26-31.74-31.32-31.8c-16.99-0.06-31.14,14.23-31.11,31.43c0.02,17.16,14.3,31.5,31.21,31.36  C112.33,231.25,125.74,217.95,125.84,200.42z M248.41,95.84c0.26-7.74-6.45-14.65-14.22-14.66c-7.62-0.01-13.56,5.95-13.75,13.78  c-0.2,8.2,4.96,13.96,12.87,14.38C241.49,109.77,248.15,103.82,248.41,95.84z M234.4,290.6c-8.07-0.11-13.69,5.25-13.96,13.31  c-0.28,8.36,5.57,14.76,13.6,14.84c7.8,0.09,14.57-6.73,14.39-14.48C248.25,296.71,242.09,290.71,234.4,290.6z M233.99,186.01  c-8.32,0.1-13.85,6.08-13.54,14.68c0.28,8,5.96,13.37,14.01,13.25c7.64-0.12,13.83-6.2,13.97-13.71  C248.56,192.39,241.98,185.91,233.99,186.01z"></path>	<path class="st0" d="M317.59,107.23c-8.09,0-14.64,0.05-21.18-0.01c-7.91-0.07-12.92-4.17-12.9-11.97  c0.02-7.35,4.92-11.33,12.37-11.48c6.8-0.14,13.61-0.03,20.51-0.03c-0.18-1.71-0.11-2.07-0.25-2.26  c-7.85-10.38-8.48-16.06-2.32-21.2c5.86-4.88,12.14-3.14,21.05,5.69c6.72,6.66,13.58,13.17,20.28,19.86  c6.11,6.09,6.15,12.93,0.08,19.01c-7.58,7.59-15.28,15.05-22.96,22.53c-7.33,7.13-13.56,8.17-18.88,2.68  c-6.51-6.73-4.33-13.08,1.62-18.95C315.62,110.47,316.01,109.6,317.59,107.23z"></path>	<path class="st0" d="M317.52,316.31c-7.94,0-14.18,0.17-20.41-0.04c-8.79-0.3-14.47-5.18-13.7-12.14  c0.86-7.82,5.79-11.46,13.63-11.35c6.29,0.09,12.58,0.02,20.57,0.02c-2.4-3.09-4.07-5.07-5.55-7.18  c-3.8-5.39-3.63-10.79,1.02-15.43c4.64-4.62,10.51-5.36,15.35-0.97c9.8,8.89,19.34,18.12,28.33,27.83  c4.99,5.39,3.8,11.7-1.35,16.85c-7.58,7.58-15.3,15.02-22.99,22.49c-6.91,6.72-13.84,7.78-19.06,2.96  c-5.47-5.06-4.96-11.09,1.57-18.99C315.53,319.65,315.95,318.79,317.52,316.31z"></path>	<path class="st0" d="M317.5,211.64c-8.22,0-15.14,0.12-22.05-0.03c-7.57-0.17-12.05-4.49-11.95-11.77  c0.1-7.29,4.73-11.39,12.28-11.46c6.85-0.06,13.7-0.01,22.12-0.01c-2.77-3.51-5.94-5.73-6.17-8.21c-0.44-4.81-0.93-11.5,1.79-14.17  c2.73-2.69,11.19-3.72,13.92-1.51c10.7,8.66,20.62,18.46,29.84,28.73c4.78,5.33,2.77,11.71-2.47,16.73  c-7.5,7.18-15.01,14.36-22.27,21.78c-5.67,5.8-11.66,9.04-18.95,3.18c-5.99-4.83-5.23-11.24,1.78-19.57  C315.93,214.66,316.27,213.81,317.5,211.64z"></path></g></svg>