<svg xmlns="http://www.w3.org/2000/svg" xmlns:xlink="http://www.w3.org/1999/xlink" id="Layer_1" x="0px" y="0px" viewBox="0 0 400 400" style="enable-background:new 0 0 400 400;" xml:space="preserve"><style type="text/css">	.st0{fill:#322B6A;}</style><g>	<g>		<path class="st0" d="M380,229.97c0,31.68,0,63.35,0,95.03c-3.39,5.37-8.08,9.14-14.04,11.26c-20.71,7.38-41.29,7.17-61.96-0.49   c-15.02-5.56-15.87-21.8-9.32-32.04c-5.26-9.01-4.79-17.92,0.12-27.34c-1.9-1.99-3.64-4.52-6-6.16   c-11.89-8.26-23.89-16.37-36.02-24.28c-1.6-1.04-4.41-1.44-6.19-0.8c-31.12,11.17-62.15,11.1-93.27-0.01   c-1.65-0.59-4.24-0.31-5.7,0.63c-11.17,7.25-22.23,14.65-33.16,22.26c-3.56,2.48-6.61,5.7-9.5,8.23   c5.23,9.87,5.54,18.6,0.42,27.51c6.61,11.75,5.53,26.7-10.32,32.43c-16.64,6.01-33.43,6.76-50.58,3.21   C34.71,337.39,25.73,333.94,20,325c0-31.68,0-63.35,0-95.03c3.56-6.43,9.14-10.47,15.97-12.55c5.7-1.74,11.56-3.29,17.46-3.96   c14.56-1.65,28.74-0.28,42.64,5.15c14.55,5.68,15.93,21.99,9.12,32.51c0.96,1.35,1.97,2.76,3.03,4.25   c10.16-6.87,19.89-13.45,29.05-19.64c-6.35-14.08-6.81-27.25,0.7-40.32c-1.09-1.67-2.71-3.2-3.17-5.03   c-1.19-4.7-4.78-6.23-8.65-7.9c-12.06-5.22-24.01-10.71-36.08-15.91c-2.21-0.95-4.76-1.16-7.18-1.53   c-8.18-1.26-16.68-1.45-24.48-3.89c-12.47-3.9-15.42-12.12-10.3-24.27c0.33-0.78,0.55-1.98,0.19-2.63   c-3.34-6.03-3.11-12-0.16-18.08c0.35-0.72,0.36-1.93-0.01-2.63c-3.15-5.9-2.85-11.74-0.14-17.68c0.39-0.86,0.39-2.19,0.02-3.07   c-5.14-11.92-1.58-20.56,10.74-24.78c14.83-5.07,29.8-4.96,44.61,0.1c9.8,3.35,12.54,7.56,12.18,17.92   c-0.07,2.07-1.02,4.11-1.45,6.19c-0.24,1.15-0.74,2.57-0.31,3.5c2.71,5.95,3.02,11.76-0.06,17.69c-0.42,0.81-0.29,2.19,0.1,3.07   c2.93,6.5,2.78,12.81,0.22,17.26c0.63,5.99,2.01,10.5,1.3,14.64c-0.69,4.03-3.52,7.69-5.48,11.65c6.93,3.06,14.75,6.51,21.88,9.66   c2.16-5.08,4.07-9.58,6.06-14.28c-7.13-10.56-7.15-25.49,0.34-39.82c-4.73-4.56-5.77-10.44-5.26-16.85c0.2-2.48,0.06-5-0.04-7.5   c-0.27-6.84,2.32-12.59,7.66-16.55c4.62-3.43,9.68-6.57,15.01-8.68c19.14-7.59,39.2-8.82,59.45-6.86   c14.32,1.38,28.29,4.43,40.65,12.44c5.49,3.55,10.66,8.12,10.98,14.71c0.49,10.19,3.74,21.16-4.49,29.28   c7.12,14.08,7.54,27.36,0.34,40.29c1.92,4.62,3.78,9.11,5.77,13.9c7.39-3.29,15.12-6.73,23.12-10.29   c-8.24-7.67-9.38-14.71-4.35-24.06c-3.4-6.2-4-12.48-0.79-18.99c0.41-0.84,0.46-2.24,0.03-3.05c-3.01-5.77-2.5-11.47-0.17-17.27   c0.38-0.94,0.64-2.23,0.3-3.1c-5.1-13.1-1.78-20.81,11.34-25.18c14.52-4.83,29.16-4.73,43.62,0.25   c12.29,4.24,15.78,12.8,10.61,24.8c-0.37,0.86-0.33,2.19,0.08,3.04c3.08,6.49,2.82,12.77-0.82,18.94c3.38,6.19,3.99,12.45,0.9,19   c-0.48,1.01-0.01,2.65,0.4,3.87c3.17,9.6,2.04,17.96-7.65,22.26c-8.55,3.8-17.49,5.13-26.75,5.08c-2.43-0.01-5.09,0.13-7.27,1.07   c-13.6,5.84-27.1,11.9-40.6,17.98c-1.25,0.56-2.55,1.56-3.25,2.71c-1.78,2.95-3.23,6.1-4.6,8.75c6.57,13.41,7.38,26.55,0.14,40.1   c9.52,6.41,19.28,12.99,29.29,19.73c1.13-1.63,2.05-2.95,2.92-4.19c-7.48-13.84-4.54-28.51,12-33.63c0.48-0.15,0.93-0.36,1.4-0.52   c14.54-4.93,29.43-5.51,44.37-2.8C363.35,216.22,373.91,219.35,380,229.97z M202.66,72.52c-8.75,0.9-17.68,1-26.2,2.93   c-8.3,1.88-16.5,4.99-24.14,8.76c-6.23,3.08-6.03,7.04-0.2,10.75c3.74,2.38,7.84,4.43,12.05,5.79   c18.55,5.98,37.62,6.91,56.65,3.48c8.84-1.59,17.63-4.73,25.78-8.56c7.62-3.59,7.31-7.63,0.25-12.17   c-1.94-1.25-4.01-2.37-6.14-3.27C228.57,75.13,215.75,73.6,202.66,72.52z M201.12,146c13.67-0.51,28.23-1.83,41.74-8.27   c2.94-1.4,5.73-3.44,7.99-5.77c0.9-0.93,0.74-3.77-0.02-5.13c-0.51-0.91-3.02-1.27-4.46-0.98c-2.58,0.52-4.97,1.88-7.53,2.58   c-28.34,7.76-56.49,7.67-84.31-2.44c-2.49-0.91-4.92-1.46-5.73,1.33c-0.5,1.72,0.26,4.52,1.5,5.87c1.84,2.01,4.46,3.46,6.99,4.63   C170.85,144.15,185.38,145.56,201.12,146z M203.81,185.98c6.33-0.91,16.39-1.53,25.96-4.02c7.18-1.87,13.84-5.97,20.47-9.56   c1.04-0.56,1.37-3.85,0.81-5.45c-0.32-0.9-3.4-1.72-4.76-1.24c-30.8,10.78-61.53,10.72-92.35,0.1c-1.41-0.49-4.44,0.15-4.84,1.07   c-0.66,1.55-0.51,4.42,0.55,5.53c2.12,2.21,4.94,3.94,7.75,5.27C170.93,184.13,185.52,185.24,203.81,185.98z M200.24,226.3   c10.01-1.44,20.2-2.14,29.96-4.59c6.9-1.73,13.33-5.61,19.68-9.07c1.19-0.65,0.97-3.86,1.41-5.89c-1.85-0.38-3.98-1.55-5.52-1.03   c-30.68,10.5-61.26,10.56-91.9-0.18c-1.39-0.49-4.39,0.19-4.79,1.12c-0.66,1.54-0.51,4.42,0.55,5.5c2.28,2.3,5.18,4.2,8.15,5.56   C171.21,223.88,185.58,225.23,200.24,226.3z M335.59,221.02c-9.95,2.46-19.58,4.63-29.05,7.35c-2.07,0.59-3.58,3.15-5.34,4.8   c1.79,1.8,3.26,4.38,5.43,5.28c19.3,8.01,38.75,7.93,58.07,0.05c2.08-0.85,3.52-3.23,5.26-4.9c-1.77-1.81-3.25-4.63-5.37-5.25   C355.14,225.58,345.5,223.45,335.59,221.02z M64.9,245.5c9.01-2.09,18.24-3.94,27.26-6.53c2.52-0.72,4.41-3.64,6.6-5.54   c-2.16-1.9-4.03-4.44-6.54-5.59c-13.01-5.98-26.84-6.32-40.63-4.2c-6.43,0.99-12.78,3.5-18.74,6.24c-4.1,1.88-3.85,4.56-0.13,7.12   c1.63,1.12,3.42,2.29,5.3,2.73C46.7,241.73,55.45,243.49,64.9,245.5z M80.87,90.23c7.67-1.93,15.36-3.68,22.91-5.9   c1.58-0.46,3.34-2.46,3.72-4.06c0.21-0.87-2.08-2.91-3.61-3.54c-15.24-6.33-30.58-6.61-45.82-0.02c-1.61,0.7-2.67,2.64-3.99,4.01   c1.4,1.32,2.6,3.36,4.25,3.84C65.59,86.65,72.98,88.29,80.87,90.23z M292.03,80.56c9.64,11.46,46.3,11.2,53.89-0.12   C337.77,69.17,301.5,69.1,292.03,80.56z M335.05,297.89c0.06-0.37,0.12-0.75,0.19-1.12c1.83,0,3.67,0.13,5.49-0.02   c9.14-0.79,18.3-1.77,26.19-6.99c1.41-0.93,1.82-3.36,2.69-5.09c-1.72-0.17-3.64-0.91-5.14-0.41   c-18.94,6.38-37.85,6.35-56.83,0.25c-1.96-0.63-4.69-3.03-5.79,0.42c-0.41,1.29,1.62,3.87,3.14,5.15   c1.72,1.44,4.02,2.48,6.23,2.98C319.13,294.82,327.1,296.3,335.05,297.89z M63.4,323.94c11.36-1.02,22.5-1.72,32.3-7.96   c1.37-0.87,1.75-3.31,2.6-5.02c-1.73-0.12-3.64-0.78-5.17-0.29c-18.78,6.08-37.54,6.17-56.38,0.33c-2.08-0.65-4.93-3.4-6.16,0.33   c-0.43,1.31,1.91,4.13,3.62,5.41c2.06,1.54,4.7,2.6,7.25,3.14C48.72,321.43,56.08,322.61,63.4,323.94z M61.69,297.71   c8.82-1.15,15.2-1.47,21.3-2.93c4.75-1.14,9.26-3.5,13.64-5.78c1.02-0.53,1.06-2.94,1.56-4.48c-1.43-0.19-2.93-0.74-4.28-0.49   c-2.26,0.42-4.4,1.5-6.64,2.05c-17.7,4.37-35.21,4.03-52.53-2.1c-1.19-0.42-2.81,0.4-4.23,0.64c0.44,1.42,0.48,3.22,1.4,4.17   c1.34,1.37,3.19,2.61,5.04,3.07C45.89,294.14,54.91,296.13,61.69,297.71z M335.18,323.94c0.05-0.32,0.1-0.64,0.15-0.95   c2.16,0,4.34,0.16,6.49-0.03c8.81-0.77,17.61-1.85,25.16-6.95c1.37-0.93,1.73-3.35,2.56-5.08c-1.73-0.11-3.64-0.76-5.17-0.26   c-18.77,6.13-37.52,6.2-56.34,0.28c-2.11-0.66-4.98-3.32-6.16,0.43c-0.42,1.33,1.92,4.09,3.62,5.37c2.06,1.54,4.7,2.62,7.24,3.15   C320.17,321.45,327.69,322.62,335.18,323.94z M59.97,270.69c14.54-0.51,25.56-1.02,35.27-7.02c1.53-0.95,2.08-3.49,3.08-5.3   c-1.9-0.09-3.97-0.73-5.67-0.19c-18.79,5.97-37.52,6.14-56.3-0.03c-1.96-0.65-4.77-2.93-5.8,0.53c-0.4,1.33,1.64,3.98,3.21,5.16   c2.06,1.55,4.67,2.68,7.2,3.23C48.39,268.69,55.9,269.93,59.97,270.69z M333.32,271.1c7.84-0.88,13.91-0.98,19.67-2.38   c5.21-1.27,10.16-3.79,15.04-6.16c0.98-0.47,1.1-2.71,1.62-4.14c-1.42-0.3-3.05-1.21-4.22-0.81c-19.88,6.84-39.69,6.9-59.57-0.05   c-1.14-0.4-2.78,0.64-4.19,1.01c0.4,1.29,0.4,3.16,1.27,3.76c2.56,1.77,5.32,3.68,8.27,4.39   C319.07,268.61,327.08,269.9,333.32,271.1z M82,151.89c7.16-2,15.09-4.07,22.89-6.55c1.16-0.37,1.7-2.68,2.53-4.1   c-1.45-0.1-2.95-0.5-4.34-0.25c-5.2,0.94-10.31,2.51-15.54,3.08c-10.16,1.11-20.18,0.15-29.86-3.5c-0.9-0.34-2.21,0.45-3.34,0.71   c0.32,1.01,0.34,2.36,1.03,2.95c1.35,1.17,2.96,2.34,4.65,2.76C66.88,148.69,73.82,150.1,82,151.89z M77.78,109.91   c6.04-0.52,10.45-0.43,14.64-1.37c4.48-1.01,8.81-2.82,13.03-4.68c1-0.45,1.28-2.53,1.9-3.85c-1.31-0.12-2.65-0.46-3.93-0.29   c-1.46,0.2-2.83,0.93-4.28,1.29c-13.72,3.5-27.32,3.19-40.82-1.27c-1.14-0.38-2.6,0.21-3.91,0.35c0.54,1.23,0.78,2.81,1.7,3.61   c1.34,1.16,3.08,2.13,4.8,2.54C67.02,107.72,73.19,108.93,77.78,109.91z M320.95,151.91c7.01-2.11,14.88-4.35,22.63-6.95   c0.96-0.32,1.3-2.52,1.92-3.85c-1.3-0.1-2.66-0.47-3.9-0.24c-5.35,1-10.63,2.56-16.02,3.2c-10.01,1.18-19.84,0.03-29.4-3.36   c-1.04-0.37-2.48,0.43-3.74,0.68c0.5,1.1,0.73,2.52,1.57,3.22c1.37,1.14,3.04,2.22,4.75,2.62   C305.67,148.84,312.63,150.18,320.95,151.91z M80.44,130.98c8.73-1.07,17.21-1.68,24.7-6.33c1.14-0.71,1.6-2.52,2.37-3.83   c-1.46-0.18-2.97-0.71-4.37-0.5c-7.52,1.11-15.02,3.34-22.52,3.35c-7.34,0-14.67-2.27-22.03-3.38c-1.39-0.21-2.89,0.33-4.34,0.53   c0.77,1.31,1.31,2.87,2.37,3.87c1.04,0.98,2.54,1.69,3.96,2.02C67.19,128.22,73.82,129.57,80.44,130.98z M319.14,131.07   c8.77-1.18,17.22-1.89,24.63-6.73c0.99-0.65,1.29-2.35,1.91-3.56c-1.29-0.22-2.63-0.78-3.88-0.62   c-9.01,1.15-17.98,3.21-27.01,3.41c-6.13,0.14-12.31-2.32-18.5-3.43c-1.2-0.22-2.56,0.44-3.85,0.69c0.5,1.11,0.74,2.52,1.57,3.26   c1.21,1.07,2.76,2.02,4.31,2.39C305.25,128.14,312.21,129.56,319.14,131.07z M319.73,110.24c0.04-0.2,0.07-0.41,0.11-0.61   c3.32-0.29,6.73-0.2,9.93-0.96c4.49-1.06,8.92-2.54,13.17-4.32c1.27-0.53,1.87-2.67,2.77-4.07c-1.58-0.14-3.22-0.61-4.73-0.36   c-5.55,0.93-11.01,2.53-16.59,3.09c-9.52,0.94-18.91-0.12-28.02-3.35c-1.08-0.38-2.55,0.36-3.84,0.58   c0.61,1.21,0.93,2.84,1.91,3.53c1.87,1.32,4.02,2.55,6.22,3.03C306.97,108.15,313.37,109.12,319.73,110.24z"></path>	</g></g></svg>