<svg xmlns="http://www.w3.org/2000/svg" xmlns:xlink="http://www.w3.org/1999/xlink" id="Layer_1" x="0px" y="0px" viewBox="0 0 400 400" style="enable-background:new 0 0 400 400;" xml:space="preserve"><style type="text/css">	.st0{fill:#322B6A;}</style><g>	<g>		<path class="st0" d="M40,360.01c0-3.54,0-7.07,0-10.94c16.46,0,32.76,0,49.54,0c0-18.57,0-36.81,0-55.3c5.76,0,11.04,0,16.5,0   c0-3.72,0-7.2,0-11c-5.39,0-10.66,0-16.18,0c0-3.78,0-7.25,0-10.85c47.71,0,95.28,0,143.05,0c0,3.55,0,7.02,0,10.84   c-38.52,0-76.9,0-115.45,0c0,3.75,0,7.16,0,10.87c38.4,0,76.79,0,115.66,0c0,22.32,0,44.35,0,66.38c-4.38,0-8.75,0-13.12,0   c-3.22-6.41-6.53-12.77-9.6-19.25c-0.98-2.07-2.12-2.85-4.46-2.82c-11.24,0.13-22.49,0.06-33.73,0.06   c-18.53,0-37.06-0.02-55.59,0.04c-1.11,0-2.87,0.3-3.24,1.02c-3.55,6.92-6.87,13.95-10.26,20.95   C82.08,360.01,61.04,360.01,40,360.01z"></path>		<path class="st0" d="M244.38,360.01c-0.05-14.34-0.09-28.69-0.12-43.03c0-0.28,0.2-0.56,0.43-1.14c8.63,0,17.35-0.05,26.05,0.11   c0.61,0.01,1.61,1.61,1.71,2.54c1.38,13.02,2.64,26.05,3.94,39.08c0.08,0.82,0.33,1.62,0.5,2.43   C266.04,360.01,255.21,360.01,244.38,360.01z"></path>		<path class="st0" d="M287.5,360.01c-0.94-10.25-1.88-20.5-2.83-30.76c-0.4-4.33-0.82-8.67-1.26-13.23c3.76,0,7.24,0,10.89,0   c1.1,10.89,2.19,21.65,3.3,32.57c0.74,0.11,1.43,0.31,2.12,0.31c19.68,0.02,39.36,0.01,59.04,0c0.41,0,0.82-0.1,1.24-0.15   c0,3.75,0,7.5,0,11.25C335.83,360.01,311.67,360.01,287.5,360.01z"></path>		<path class="st0" d="M115,360.01c1.52-2.96,3.12-5.87,4.51-8.88c0.75-1.62,1.69-2.25,3.55-2.25c25.5,0.07,50.99,0.06,76.49,0.01   c1.77,0,2.88,0.41,3.63,2.14c1.32,3.05,2.86,5.99,4.32,8.98C176.67,360.01,145.83,360.01,115,360.01z"></path>		<path class="st0" d="M211.11,117.18c0-7.71,0-14.64,0-21.88c-1.38-0.06-2.48-0.16-3.58-0.16c-7.71-0.01-15.41,0.04-23.12-0.02   c-7.63-0.06-11.91-4.42-11.94-12.11c-0.03-10.31-0.04-20.62,0-30.93c0.03-7.6,4.45-12.05,12.02-12.06   c28.74-0.03,57.49-0.03,86.23,0c7.46,0.01,11.89,4.33,11.96,11.79c0.1,10.52,0.1,21.04,0,31.55c-0.07,7.49-4.4,11.71-11.97,11.75   c-10.41,0.06-20.83-0.07-31.24,0.1c-1.67,0.03-3.65,0.8-4.94,1.88C226.87,103.48,219.36,110.07,211.11,117.18z M249.43,62.25   c-14.68,0-29.17,0-43.65,0c0,3.71,0,7.19,0,10.61c14.7,0,29.19,0,43.65,0C249.43,69.19,249.43,65.79,249.43,62.25z M260.78,72.89   c3.82,0,7.29,0,10.74,0c0-3.7,0-7.17,0-10.63c-3.73,0-7.2,0-10.74,0C260.78,65.91,260.78,69.31,260.78,72.89z M183.64,72.89   c3.73,0,7.19,0,10.55,0c0-3.71,0-7.18,0-10.65c-3.63,0-7.01,0-10.55,0C183.64,65.84,183.64,69.25,183.64,72.89z"></path>		<path class="st0" d="M100.68,238.47c0-6.98-0.17-13.64,0.05-20.29c0.18-5.44,3.03-9.22,8.31-10.83   c6.86-2.08,13.74-4.09,20.68-5.87c1-0.26,2.67,0.69,3.53,1.57c6.55,6.77,14.34,9.91,23.43,6.81c3.95-1.35,7.37-4.44,10.77-7.07   c1.44-1.11,2.41-1.8,4.33-1.21c6.25,1.93,12.59,3.59,18.87,5.41c5.32,1.54,7.99,4.37,8.73,9.4c-6.03,0.11-12.1,0.3-16.63,5.12   c-4.52,4.81-5.63,10.46-3.96,16.96C152.72,238.47,126.88,238.47,100.68,238.47z"></path>		<path class="st0" d="M244.35,282.72c0-3.81,0-7.19,0-10.91c5.41,0,10.67,0,16.31,0c0-4.04-0.01-7.75,0-11.47   c0.02-4.58-1.21-9.7,0.44-13.6c1.69-4.01,6.17-6.87,9.47-10.19c8.6-8.63,17.24-17.23,25.84-25.87c1.76-1.77,3.61-3.51,5.04-5.53   c1.35-1.92,2.2-4.19,3.43-6.63c0,1.43,0,2.59,0,3.76c0,20.73,0.02,41.46-0.01,62.19c-0.01,9.13-4.55,15.52-12.43,17.67   c-0.6,0.16-1.21,0.3-1.83,0.35c-1.45,0.11-2.91,0.21-4.37,0.21C272.4,282.73,258.56,282.72,244.35,282.72z"></path>		<path class="st0" d="M172.45,151.17c0.38,6.62-0.41,13.78-5.89,19.51c-6.32,6.61-14.05,8.81-22.75,6.09   c-8.71-2.72-14.17-8.88-15.04-18.01c-0.6-6.36-0.81-13.02,0.43-19.22c2.25-11.28,12.5-17.68,24.39-16.44   c10.32,1.07,18.4,10.45,18.86,21.91C172.51,146.78,172.45,148.56,172.45,151.17z"></path>		<path class="st0" d="M260.68,149.92c-0.36-6.68,0.28-13.65,5.41-19.37c6.22-6.92,13.96-9.33,22.84-6.72   c9.02,2.65,14.6,8.93,15.43,18.34c0.57,6.35,0.74,13.01-0.54,19.2c-2.17,10.53-12.45,17.5-22.35,16.43   c-12.18-1.31-20.15-9.62-20.78-21.72C260.6,154.21,260.68,152.33,260.68,149.92z"></path>		<path class="st0" d="M78.79,260.41c0-3.53,0-6.93,0-10.56c56.87,0,113.64,0,170.62,0c0,3.51,0,6.91,0,10.56   C192.68,260.41,135.91,260.41,78.79,260.41z"></path>		<path class="st0" d="M244.36,304.64c0-3.54,0-6.95,0-10.87c1.08,0,2.17,0,3.26,0c13.33,0,26.66,0.08,39.99-0.02   c13.37-0.1,23.74-7.92,27.2-20.59c0.81-2.96,0.94-6.18,0.96-9.28c0.1-14.48,0.04-28.95,0.04-43.43c0-1.13,0-2.27,0-3.67   c3.7,0,7.18,0,10.88,0c0.06,0.89,0.18,1.78,0.18,2.68c0.01,18.95,0.07,37.91-0.01,56.86c-0.06,13.73-7.86,23.94-20.98,27.53   c-2.48,0.68-5.13,0.97-7.7,0.98c-17.18,0.08-34.37,0.05-51.55,0.03C245.93,304.87,245.22,304.73,244.36,304.64z"></path>		<path class="st0" d="M223.07,238.67c-8.84,0-17.69,0.02-26.53-0.02c-1.33-0.01-3.04,0.13-3.92-0.59   c-1.47-1.21-2.99-2.92-3.43-4.68c-0.56-2.23,0.81-4.32,3.11-5.15c1.42-0.51,3.05-0.64,4.58-0.65c15.29-0.04,30.59-0.08,45.88,0.02   c2.56,0.02,4.4-0.62,6.26-2.51c10.79-10.99,21.73-21.83,32.63-32.7c0.88-0.88,1.79-1.78,2.85-2.4c2.51-1.49,4.99-1.21,7.18,0.7   c2.13,1.85,2.65,4.93,1.22,7.39c-0.62,1.06-1.48,2-2.36,2.88c-11.9,11.93-23.86,23.82-35.72,35.8c-1.46,1.47-2.92,1.98-4.93,1.96   C240.97,238.62,232.02,238.67,223.07,238.67z"></path>		<path class="st0" d="M139.71,187.17c7.13,2.22,14.18,2.31,21.17-0.01c1.56,4.62-0.18,7.8-3.7,10.31   c-3.87,2.76-7.86,3.5-12.17,0.94C140.82,195.93,138.13,192.78,139.71,187.17z"></path>	</g></g></svg>