<svg xmlns="http://www.w3.org/2000/svg" xmlns:xlink="http://www.w3.org/1999/xlink" id="Layer_1" x="0px" y="0px" viewBox="0 0 400 400" style="enable-background:new 0 0 400 400;" xml:space="preserve"><style type="text/css">	.st0{fill:#322B6A;}</style><g>	<g>		<path class="st0" d="M167.06,365.59c0-3.53,0-7.06,0-10.99c5.45,0,10.76,0,16.36,0c0-3.79,0-7.19,0-10.81c11.11,0,21.91,0,33.13,0   c0,3.45,0,6.94,0,10.7c5.62,0,10.85,0,16.46,0c0,3.88,0,7.49,0,11.1C211.02,365.59,189.04,365.59,167.06,365.59z"></path>		<path class="st0" d="M45.51,365.59c0-3.53,0-7.06,0-10.91c5.55,0,10.87,0,16.58,0c0-3.8,0-7.28,0-10.93c11.19,0,21.98,0,33.03,0   c0,3.5,0,6.9,0,10.69c5.54,0,10.84,0,16.34,0c0,3.97,0,7.56,0,11.15C89.48,365.59,67.5,365.59,45.51,365.59z"></path>		<path class="st0" d="M288.6,365.59c0-3.52,0-7.05,0-10.94c5.23,0,10.55,0,16.11,0c0-3.76,0-7.16,0-10.82c11.13,0,21.99,0,33.15,0   c0,3.48,0,6.88,0,10.61c5.59,0,10.9,0,16.68,0c0,3.93,0,7.54,0,11.15C332.56,365.59,310.58,365.59,288.6,365.59z"></path>		<path class="st0" d="M321.53,123.07c2.75,0,5.31-0.13,7.86,0.02c16.56,0.98,29.74,14.65,30.5,31.56   c0.75,16.63-11.22,31.37-27.53,33.9c-1.38,0.21-2.77,0.48-4.16,0.49c-18.32,0.04-36.63,0.05-54.95,0.05   c-0.41,0-0.81-0.13-1.33-0.21c-0.28-3-0.28-5.38,2.32-7.8c9.15-8.5,11.08-21.66,5.26-32.56c-5.7-10.68-18.08-16.53-29.73-14.04   c-12.32,2.63-20.97,12.46-22.02,25.05c-0.04,0.52-0.14,1.04-0.23,1.73c-1.69,0-3.25,0-5.26,0c5.05-7.56,6.71-15.54,4.19-24.11   c-1.72-5.86-5.09-10.64-10.01-14.3c-9.89-7.35-23.23-7.31-33.07,0.2c-5.91,4.51-9.52,10.47-10.55,17.87   c-0.9,6.41-0.77,6.79,4.64,20.53c-1.05,0-2,0.03-2.95-0.01c-0.62-0.02-1.24-0.14-1.75-0.2c-0.61-2.9-0.94-5.69-1.78-8.32   c-3.5-10.87-13.3-18.33-24.53-18.86c-11.79-0.56-22.21,5.83-26.87,16.48c-4.56,10.43-2.4,22.34,5.99,30.3   c2.55,2.42,3.18,4.79,2.46,8.05c-0.39,0.07-0.79,0.2-1.2,0.2c-18.1,0.01-36.21,0.25-54.3-0.06   c-24.47-0.43-40.03-26.31-28.83-47.95c6.17-11.92,16.39-17.88,29.86-18.1c5.22-0.08,5.11-0.05,6.13-4.99   c5.33-25.82,20.77-42.29,46.32-48.69c15.4-3.86,30.13-1.02,43.92,6.76c1.12,0.63,2.24,1.28,3.37,1.91c0.19,0.1,0.4,0.16,0.61,0.25   c22.18-36.19,53.66-52.75,95.05-38.99C307.73,52.11,322.93,82.81,321.53,123.07z M309.05,99.82   c-5.85-35.29-40.24-57.65-70.88-53.58c0.34,3.45,0.67,6.91,0.99,10.21c31.46,0.21,51.2,15.14,59.67,45.28   C302.17,101.11,305.61,100.47,309.05,99.82z M101.02,123.4c1.51-9.68,5.68-17.62,12.79-23.92c7.19-6.37,15.76-9.37,25.5-9.8   c0-1.97,0-3.68,0-5.38c0-1.79,0-3.58,0-5.35c-27.31-0.51-47.83,22.62-48.83,43.25c2.1,0.29,4.22,0.62,6.34,0.88   C98.08,123.23,99.36,123.28,101.02,123.4z M226.09,48.14c-18.35,5.64-31.8,16.72-40.93,33.6c3.42,1.75,6.53,3.34,9.79,5   c7.68-14.03,18.91-23.31,34.11-28.02C228.07,55.2,227.13,51.83,226.09,48.14z"></path>		<path class="st0" d="M161.43,310.27c0-9.46-0.13-18.69,0.08-27.92c0.06-2.88,2.1-4.63,5.08-4.93c0.96-0.1,1.94-0.09,2.9-0.09   c20.36,0,40.72-0.01,61.08,0c6.58,0,8.13,1.59,8.13,8.26c0,8.16,0,16.31,0,24.69C212.88,310.27,187.41,310.27,161.43,310.27z"></path>		<path class="st0" d="M117.28,310.31c-25.83,0-51.29,0-76.99,0c-0.08-1.09-0.22-2.02-0.22-2.96c-0.02-7.64-0.04-15.28,0-22.93   c0.03-5.22,1.82-7.09,6.95-7.09c21.1-0.03,42.2-0.03,63.3,0c5.1,0.01,6.94,1.94,6.95,7.1   C117.29,292.93,117.28,301.43,117.28,310.31z"></path>		<path class="st0" d="M360,310.31c-25.94,0-51.4,0-77.22,0c0-7.46,0-14.74,0-22.03c0-10.52,0.44-10.97,10.85-10.97   c19.49,0,38.97-0.01,58.46,0c6.3,0,7.89,1.57,7.9,7.77C360.01,293.37,360,301.64,360,310.31z"></path>		<path class="st0" d="M172.29,172.67c3.98,0,7.38,0,10.96,0c0,23.83,0,47.47,0,71.44c-25.59,0-51.06,0-76.92,0   c0,3.8,0,7.29,0,10.93c-3.8,0-7.2,0-10.84,0c0-7.17,0-14.32,0-21.8c25.51,0,50.98,0,76.81,0   C172.29,212.95,172.29,192.98,172.29,172.67z"></path>		<path class="st0" d="M216.8,244.34c0-24.18,0-47.82,0-71.66c3.57,0,6.96,0,10.71,0c0,20.05,0,40.02,0,60.32   c25.82,0,51.29,0,77.03,0c0,7.46,0,14.6,0,21.98c-3.43,0-6.9,0-10.66,0c0-3.49,0-6.9,0-10.64   C268.14,244.34,242.67,244.34,216.8,244.34z"></path>		<path class="st0" d="M205.57,183.34c-3.78,0-7.19,0-11.07,0c0-5.23,0-10.36,0-15.49c0-1.4-0.11-2.81,0.03-4.2   c0.22-2.19-0.58-3.37-2.6-4.49c-6.76-3.76-9.78-11.19-7.9-18.45c1.81-6.99,8.36-12.15,15.63-12.31   c7.34-0.17,13.89,4.53,16.14,11.58c2.39,7.49-0.68,15.38-7.8,19.28c-1.92,1.05-2.49,2.2-2.46,4.26   C205.64,170.07,205.57,176.62,205.57,183.34z"></path>		<path class="st0" d="M150.03,199.96c-3.57,0-6.96,0-10.72,0c0-6.78-0.07-13.41,0.04-20.04c0.03-1.92-0.43-2.99-2.25-3.98   c-7.1-3.87-10.21-11.3-8.18-18.84c1.93-7.17,8.48-12.1,16.02-12.07c7.65,0.03,14.06,5.07,15.97,12.56   c1.85,7.26-1.46,14.72-8.47,18.45c-1.72,0.92-2.17,1.93-2.15,3.72c0.07,6.45,0.01,12.9-0.02,19.35   C150.28,199.3,150.17,199.5,150.03,199.96z"></path>		<path class="st0" d="M260.75,177.18c0,7.45,0,14.95,0,22.69c-3.66,0-7.14,0-11.02,0c0-6.64-0.07-13.26,0.04-19.89   c0.03-1.91-0.39-3-2.23-4c-7.14-3.87-10.33-11.39-8.28-18.79c2.07-7.45,8.53-12.28,16.25-12.17c7.52,0.11,13.88,5.17,15.69,12.46   c1.88,7.56-1.44,14.79-8.58,18.69C262.06,176.49,261.49,176.79,260.75,177.18z"></path>		<path class="st0" d="M238.7,321.72c0,1.57,0.04,2.94-0.01,4.31c-0.14,4.41-2.19,6.46-6.67,6.49c-7.32,0.05-14.65,0.02-21.97,0.02   c-13.14,0-26.29-0.25-39.42,0.09c-8.38,0.22-10.19-3.23-8.91-10.91C187.25,321.72,212.81,321.72,238.7,321.72z"></path>		<path class="st0" d="M40.36,321.69c25.68,0,51.15,0,76.91,0c0,1.65,0.03,3.13-0.01,4.61c-0.11,4.05-2.14,6.16-6.23,6.21   c-6.03,0.09-12.06,0.03-18.09,0.03c-14.53,0-29.07-0.21-43.6,0.08C41.03,332.79,39.23,329.92,40.36,321.69z"></path>		<path class="st0" d="M282.78,321.67c25.81,0,51.28,0,77.15,0c0,1.9,0.12,3.7-0.03,5.47c-0.3,3.63-2.47,5.38-6.67,5.39   c-13.57,0.03-27.13,0.01-40.7,0.01c-7.21,0-14.43,0-21.64,0c-6.56,0-8.16-1.63-8.12-8.24   C282.78,323.56,282.78,322.81,282.78,321.67z"></path>		<path class="st0" d="M73.42,211.23c18.34,0,36.39,0,54.65,0c0,3.58,0,7.06,0,10.87c-14.52,0-28.98,0-43.73,0   c0,3.71,0,7.11,0,10.78c-3.75,0-7.22,0-10.92,0C73.42,225.78,73.42,218.65,73.42,211.23z"></path>		<path class="st0" d="M271.91,222.24c0-3.96,0-7.36,0-10.94c18.26,0,36.38,0,54.73,0c0,7.2,0,14.33,0,21.66c-3.47,0-6.87,0-10.66,0   c0-3.44,0-6.92,0-10.72C301.12,222.24,286.66,222.24,271.91,222.24z"></path>		<path class="st0" d="M194.7,216.87c3.62,0,7.03,0,10.65,0c0,16.46,0,32.77,0,49.23c-3.62,0-7.03,0-10.65,0   C194.7,249.63,194.7,233.33,194.7,216.87z"></path>		<path class="st0" d="M73.36,266.05c0-7.25,0-14.29,0-21.6c3.5,0,6.96,0,10.65,0c0,7.16,0,14.27,0,21.6   C80.51,266.05,77.12,266.05,73.36,266.05z"></path>		<path class="st0" d="M326.59,266.15c-3.58,0-6.9,0-10.48,0c0-7.22,0-14.33,0-21.7c3.4,0,6.86,0,10.48,0   C326.59,251.71,326.59,258.9,326.59,266.15z"></path>		<path class="st0" d="M194.67,205.43c0-3.65,0-7.03,0-10.64c3.57,0,6.95,0,10.62,0c0,3.49,0,6.95,0,10.64   C201.82,205.43,198.43,205.43,194.67,205.43z"></path>		<path class="st0" d="M150.16,211.33c0,3.51,0,6.9,0,10.55c-3.44,0-6.91,0-10.62,0c0-3.41,0-6.88,0-10.55   C143.05,211.33,146.51,211.33,150.16,211.33z"></path>		<path class="st0" d="M260.53,222.07c-3.63,0-6.95,0-10.54,0c0-3.52,0-6.99,0-10.7c3.37,0,6.84,0,10.54,0   C260.53,214.83,260.53,218.3,260.53,222.07z"></path>	</g></g></svg>