<svg xmlns="http://www.w3.org/2000/svg" xmlns:xlink="http://www.w3.org/1999/xlink" id="Layer_1" x="0px" y="0px" viewBox="0 0 400 400" style="enable-background:new 0 0 400 400;" xml:space="preserve"><style type="text/css">	.st0{fill:#322B6A;}</style><g>	<g>		<path class="st0" d="M201.82,376.78c-2.51-0.2-5.02-0.31-7.52-0.61c-6.5-0.78-9.29-3.56-9.75-10.1   c-0.43-6.17-0.51-12.37-0.77-18.55c-0.2-4.68-0.41-9.36-0.71-14.04c-0.06-0.85-0.41-1.8-0.92-2.48   c-8.59-11.2-17.36-22.28-25.84-33.56c-18.02-23.96-35.86-48.06-53.86-72.04c-4.63-6.16-3.55-12.49-0.78-18.72   c2.66-5.99,8.04-8.33,14.26-8.83c6.43-0.52,11.61,1.94,15.51,7.06c6.07,7.99,12.16,15.96,18.17,24c4.75,6.35,9.4,12.78,14.1,19.16   c0.34,0.46,0.72,0.9,1.37,1.71c0-1.13,0-1.82,0-2.51c0.3-48.22,0.66-96.44,0.81-144.67c0.02-5.14,1.96-9.04,5.17-12.57   c9.55-10.48,25.18-4.93,28.69,3.67c1.02,2.49,1.63,5.32,1.67,8.01c0.25,16.89,0.28,33.79,0.38,50.68c0,0.64,0,1.27,0,2.22   c1.32-0.84,2.4-1.46,3.41-2.17c4.98-3.48,10.41-3.69,15.79-1.56c4.78,1.89,9.38,4.3,13.92,6.75c20,10.83,39.96,21.74,59.91,32.67   c1.83,1,3.64,2.15,5.17,3.55c3.17,2.91,4.54,6.7,4.59,10.99c0.15,14.43,0.41,28.86,0.42,43.28c0.02,12.87-0.3,25.73-0.35,38.6   c-0.08,18.48-7.46,33.73-20.36,46.58c-2.09,2.08-4.23,4.11-6.21,6.28c-0.61,0.67-1.06,1.75-1.08,2.65   c-0.14,6.55-0.11,13.11-0.23,19.66c-0.03,1.85-0.23,3.73-0.57,5.55c-1.1,5.81-4.33,8.57-10.25,8.96c-1.67,0.11-3.34,0.26-5.01,0.4   C241.23,376.78,221.52,376.78,201.82,376.78z"></path>		<path class="st0" d="M245.97,23.22c10.32-0.03,19.57,8.68,19.1,18.99c-0.43,9.55-7.03,18.24-18.45,18.41   c-10.43,0.15-19.07-8.37-19.06-18.56C227.58,31.79,235.92,23.25,245.97,23.22z"></path>		<path class="st0" d="M198.66,42.33c-0.01,10.05-8.54,18.33-18.86,18.32c-9.7-0.01-18.77-8.76-18.76-18.1   c0-10.48,8.65-19.34,18.85-19.31C190.27,23.28,198.67,31.82,198.66,42.33z"></path>		<path class="st0" d="M245.97,121.06c-10.2-0.09-18.48-8.92-18.58-19.32c-0.08-8.42,9.02-18.27,17.95-17.92   c11.2,0.43,19.83,8.25,19.71,18.62C264.93,112.56,256.13,121.15,245.97,121.06z"></path>		<path class="st0" d="M95,42.17c0.03-10.31,8.35-18.83,18.34-18.8c10.76,0.04,18.95,8.13,18.92,18.69   c-0.03,10.18-8.46,18.61-18.59,18.59C103.46,60.65,94.97,52.23,95,42.17z"></path>		<path class="st0" d="M95.03,162.35c-0.04-10.13,8.27-18.5,18.39-18.55c10.76-0.05,18.79,7.89,18.78,18.57   c0,10.35-7.84,18.43-17.9,18.48C103.2,180.91,95.07,173.1,95.03,162.35z"></path>		<path class="st0" d="M95.04,102.25c0-10.56,8.17-18.17,19.17-18.41c10.98-0.24,18.36,10.88,18.13,18.62   c-0.31,10.27-8.36,18.55-18.61,18.53C103.56,120.97,95.04,112.42,95.04,102.25z"></path>	</g></g></svg>