<svg xmlns="http://www.w3.org/2000/svg" xmlns:xlink="http://www.w3.org/1999/xlink" id="Layer_1" x="0px" y="0px" viewBox="0 0 400 400" style="enable-background:new 0 0 400 400;" xml:space="preserve"><style type="text/css">	.st0{fill:#322B6A;}</style><g>	<g>		<path class="st0" d="M60.01,200.02c0-37.81-0.03-75.63,0.01-113.44c0.03-21.59,9.86-31.45,31.48-31.5   c32.94-0.07,65.89-0.07,98.83,0c20.42,0.05,30.67,10.16,30.69,30.63c0.09,76.2,0.09,152.4,0,228.6   c-0.02,20.43-10.3,30.56-30.73,30.61c-33.23,0.08-66.46,0.08-99.69,0c-20.49-0.05-30.55-10.16-30.58-30.6   C59.98,276.22,60.01,238.12,60.01,200.02z M71.31,98.48c0,60.89,0,121.35,0,181.77c46.41,0,92.12,0,138.12,0   c0-60.88,0-121.33,0-181.77C162.99,98.48,117.26,98.48,71.31,98.48z M139.99,323.62c3.72,0,7.47,0.28,11.16-0.06   c6.14-0.56,10.27-3.81,10.56-10.27c0.3-6.51-3.56-10.48-9.67-10.98c-7.67-0.63-15.47-0.59-23.15,0   c-6.19,0.47-10.07,4.6-9.79,10.93c0.28,6.25,4.36,9.78,10.59,10.33C133.1,323.85,136.55,323.61,139.99,323.62z"></path>		<path class="st0" d="M285.91,215.65c7.2,0,13.46,0,19.6,0c3.37-10.06,13.15-14.65,27.93-9.9c11.69,3.75,3.67,15.38,5.51,23.25   c1.09,4.66-0.75,8.14-6.59,8.76c-19.54,2.05-23.52,0.7-26.47-10.31c-6.35,0-12.83,0-19.84,0c0,13.85,0,27.49,0,41.83   c6.34,0,12.76,0,19.29,0c3.94-9.71,14.99-14.81,28.34-9.72c11.57,4.42,3.33,16.13,5.25,24.34c1.11,4.72-1.78,7.06-6.91,7.42   c-21.35,1.5-23.1,0.95-26.26-10.63c-6.4,0-12.97,0.02-19.53,0c-10.85-0.04-11.29-0.43-11.29-11.04   c-0.02-42.98-0.01-85.95-0.01-128.93c0-3.1,0-6.2,0-10.17c-3.62-0.17-6.6-0.31-9.4-0.44c-3.42,11.14-9.91,14.64-27.04,10.48   c-13.04-3.16-4.39-15.4-6.37-23.31c-1.14-4.57,0.52-8.11,6.57-8.6c20.78-1.7,23.67-0.8,26.36,10.22c2.09,0.14,4.31,0.39,6.54,0.41   c13.95,0.14,13.95,0.12,13.96,14.52c0,9.12,0,18.24,0,27.92c7.03,0,13.48,0,19.99,0c3.42-9.48,14.52-14.57,28.42-9.43   c10.85,4.01,3.36,15.54,5.04,23.52c1.09,5.17-1.8,7.74-7.21,8.23c-19.87,1.8-23.14,0.67-25.69-10.37c-6.49,0-13.13,0-20.16,0   C285.91,187.68,285.91,201.3,285.91,215.65z M318.66,216.37c0,3.86,0,6.99,0,10.63c3.68-0.17,6.57-0.3,9.33-0.42   c0-3.93,0-6.89,0-10.21C324.76,216.37,322.05,216.37,318.66,216.37z M318.23,172.38c3.82,0,6.77,0,9.72,0c0-3.57,0-6.55,0-9.5   c-3.51,0-6.47,0-9.72,0C318.23,166.22,318.23,168.98,318.23,172.38z"></path>		<path class="st0" d="M199.56,124.41c0,16.63,0,16.63-17.05,16.63c-15.35,0-15.35,0-15.34-18.44c0.01-13.84,0.01-13.84,18.89-13.84   C199.56,108.76,199.56,108.76,199.56,124.41z"></path>		<path class="st0" d="M113.58,125.75c0,2.58-0.06,5.16,0.02,7.73c0.21,7.07-4.76,8.56-9.75,7.33c-7.6-1.87-18.43,6.54-22.59-6.69   c-0.08-0.26-0.01-0.57-0.03-0.86c-1.94-23.71,2.5-27.99,26.19-24.22c2.33,0.37,5.05,3.87,5.92,6.48   C114.36,118.62,113.58,122.32,113.58,125.75z M92.76,119.67c0,3.72,0,6.66,0,9.73c3.57,0,6.52,0,9.63,0c0-3.53,0-6.47,0-9.73   C99.08,119.67,96.33,119.67,92.76,119.67z"></path>		<path class="st0" d="M156.58,124.89c0,16.14,0,16.14-16.67,16.14c-15.72,0-15.72,0-15.71-18.07c0.01-14.22,0.01-14.22,19.37-14.21   C156.58,108.76,156.58,108.76,156.58,124.89z M145.77,120.07c-3.32,0-6.47,0-10.12,0c0,3.12,0,6.06,0,9.12c3.67,0,6.82,0,10.12,0   C145.77,125.87,145.77,123.34,145.77,120.07z"></path>		<path class="st0" d="M113.6,167.88c0,16.14,0,16.14-16.68,16.14c-15.71,0-15.71,0-15.71-18.08c0.01-14.22,0.01-14.22,19.38-14.2   C113.6,151.75,113.6,151.75,113.6,167.88z M102.56,162.71c-3.78,0-6.53,0-9.64,0c0,3.54,0,6.68,0,10.33   c3.74-0.23,6.7-0.42,9.64-0.6C102.56,168.77,102.56,166.03,102.56,162.71z"></path>		<path class="st0" d="M140.56,151.73c18.08-0.16,15.98-0.59,16.02,18.28c0.03,14.01,0,14.01-17.95,14   c-14.44-0.01-14.44-0.01-14.43-18.5C124.2,151.73,124.2,151.73,140.56,151.73z M135.78,162.62c0,3.81,0,6.75,0,9.73   c3.59,0,6.55,0,9.56,0c0-3.56,0-6.5,0-9.73C141.99,162.62,139.25,162.62,135.78,162.62z"></path>		<path class="st0" d="M199.56,167.95c0,16.06,0,16.06-16.75,16.06c-15.64,0-15.64,0-15.63-18.15c0.01-14.15,0.01-14.15,19.45-14.13   C199.56,151.75,199.56,151.75,199.56,167.95z M188.4,172.57c0-3.66,0-6.59,0-9.74c-3.5,0-6.46,0-9.69,0c0,3.47,0,6.41,0,9.74   C182.01,172.57,184.77,172.57,188.4,172.57z"></path>		<path class="st0" d="M113.6,210.73c0,16.27,0,16.27-16.55,16.26c-15.84,0-15.84,0-15.84-17.95c0-14.35,0-14.35,19.25-14.33   C113.6,194.73,113.6,194.73,113.6,210.73z M92.14,205.67c0.2,3.94,0.35,6.88,0.53,10.34c3.94-0.22,6.89-0.39,10.35-0.58   c-0.19-3.85-0.33-6.79-0.48-9.75C98.84,205.67,96.09,205.67,92.14,205.67z"></path>		<path class="st0" d="M140.49,194.72c18.09-0.15,16.06-0.64,16.08,18.22c0.02,14.07,0,14.07-17.89,14.06   c-14.5-0.01-14.5-0.01-14.49-18.43C124.2,194.72,124.2,194.72,140.49,194.72z M145.52,205.75c-11.27-0.72-11.89,0.06-8.71,10.23   c2.85-0.19,5.81-0.38,8.71-0.57C145.52,211.72,145.52,208.99,145.52,205.75z"></path>		<path class="st0" d="M199.56,210.64c0,16.36,0,16.36-17.32,16.36c-15.07-0.01-14.95-0.01-15.1-17.86   c-0.15-17.9,1.76-14.22,19.19-14.4C199.56,194.61,199.56,194.73,199.56,210.64z M188.75,206.04c-3.32,0-6.47,0-10.12,0   c0,3.12,0,6.06,0,9.12c3.67,0,6.82,0,10.12,0C188.75,211.84,188.75,209.31,188.75,206.04z"></path>		<path class="st0" d="M140.17,237.7c18.14-0.12,16.4-0.94,16.41,17.9c0,14.39,0,14.39-17.57,14.38   c-14.83-0.01-14.83-0.01-14.81-18.97C124.21,237.7,124.21,237.7,140.17,237.7z M135.13,258.11c3.82,0,7.17,0,10.94,0   c-0.22-3.58-0.39-6.32-0.57-9.35c-3.51,0-6.47,0-9.96,0C135.4,251.97,135.28,254.72,135.13,258.11z"></path>	</g></g></svg>