<svg xmlns="http://www.w3.org/2000/svg" xmlns:xlink="http://www.w3.org/1999/xlink" id="Layer_1" x="0px" y="0px" viewBox="0 0 400 400" style="enable-background:new 0 0 400 400;" xml:space="preserve"><style type="text/css">	.st0{fill:#322B6A;}</style><g>	<g>		<path class="st0" d="M40,115.72c0-16.45,0-32.9,0-49.35c0.13-0.37,0.33-0.74,0.38-1.12c1.92-14.72,14.86-25.64,31.43-25.2   c14.36,0.38,28.73,0.08,43.1,0.08c71.42,0,142.85-0.01,214.27,0.01c18.14,0.01,30.66,12.48,30.71,30.55   c0.04,13.64,0.02,27.27,0,40.91c-0.01,6.84-1.72,13.15-5.95,18.65c-6.4,8.32-15.05,11.69-25.32,11.68   c-66.22-0.02-132.44-0.01-198.65-0.01c-19.78,0-39.56,0.01-59.35-0.01c-10.18-0.01-18.62-3.7-24.89-11.93   C42.5,125.74,41.06,120.81,40,115.72z M272.57,91.05c0.02-7.99-6.46-14.55-14.42-14.58c-7.9-0.04-14.49,6.55-14.51,14.5   c-0.02,7.96,6.5,14.54,14.43,14.58C266.01,105.58,272.56,99.03,272.57,91.05z M287.29,90.88c-0.07,8,6.32,14.54,14.32,14.67   c7.87,0.12,14.55-6.47,14.6-14.41c0.05-7.98-6.39-14.57-14.34-14.67C293.96,76.37,287.36,82.89,287.29,90.88z M127.27,91.02   c0,0,0.01,0,0.01,0c0-4.26,0.09-8.53-0.05-12.79c-0.06-1.72-0.32-3.57-1.02-5.11c-1.36-2.99-4.55-4.28-7.86-3.6   c-3.4,0.7-5.6,3.54-5.65,7.91c-0.11,9.04-0.2,18.09,0.09,27.13c0.07,2.16,1.22,4.62,2.62,6.33c1.77,2.17,4.61,2.31,7.21,1.29   c3.32-1.3,4.56-4.1,4.63-7.44C127.34,100.17,127.27,95.59,127.27,91.02z M83.67,90.98c0,4.68-0.08,9.36,0.02,14.03   c0.1,4.67,3.06,7.71,7.25,7.69c4.17-0.02,7.12-3.09,7.16-7.79c0.09-9.25,0.08-18.5,0-27.75c-0.04-4.73-2.93-7.79-7.11-7.84   c-4.32-0.05-7.23,3.04-7.32,7.94C83.61,81.84,83.67,86.41,83.67,90.98z M156.28,91.15c0-4.57,0.05-9.15-0.01-13.72   c-0.07-4.97-2.85-8.07-7.16-8.11c-4.3-0.04-7.24,3.08-7.28,7.99c-0.07,9.15-0.07,18.29,0,27.44c0.04,4.89,3.01,8.01,7.31,7.95   c4.2-0.06,7.03-3.09,7.11-7.83C156.35,100.3,156.28,95.72,156.28,91.15z"></path>		<path class="st0" d="M333.66,359.96c-89.14,0-178.28,0-267.42,0c-0.49-0.16-0.97-0.39-1.47-0.46c-7.4-1.1-13.36-4.64-18.16-10.35   c-3.79-4.5-5.5-9.82-6.61-15.42c0-16.45,0-32.9,0-49.35c0.95-3.15,1.49-6.51,2.93-9.42c5.69-11.52,15.34-16.77,28-16.78   c56.22-0.02,112.43-0.01,168.65-0.01c29.88,0,59.76-0.03,89.63,0.01c17.63,0.03,30.37,12.13,30.64,29.34   c0.22,14.36,0.16,28.73,0.01,43.09c-0.1,9.6-3.97,17.48-11.64,23.44C343.9,357.41,338.88,358.88,333.66,359.96z M272.57,308.94   c-0.07-7.98-6.7-14.52-14.6-14.39c-7.98,0.13-14.39,6.7-14.32,14.68c0.06,7.94,6.74,14.51,14.61,14.4   C266.25,323.5,272.64,316.94,272.57,308.94z M316.21,309.32c0.1-8-6.21-14.56-14.23-14.77c-7.86-0.21-14.57,6.32-14.69,14.29   c-0.12,8.02,6.19,14.58,14.21,14.78C309.35,323.82,316.11,317.24,316.21,309.32z M112.68,309.37c0,0-0.01,0-0.01,0   c0,4.16-0.09,8.32,0.05,12.47c0.06,1.72,0.31,3.57,1.01,5.11c1.35,2.99,4.54,4.29,7.85,3.62c3.41-0.69,5.62-3.53,5.67-7.9   c0.11-9.04,0.2-18.09-0.09-27.13c-0.07-2.17-1.21-4.62-2.61-6.34c-1.77-2.17-4.6-2.32-7.21-1.31c-3.33,1.29-4.58,4.09-4.64,7.43   C112.61,300.01,112.68,304.69,112.68,309.37z M98.14,308.98c0-4.37,0-8.73,0-13.1c0-0.21,0-0.42,0-0.62   c-0.17-4.73-2.94-7.8-7.11-7.86c-4.32-0.07-7.3,3.03-7.34,7.91c-0.07,9.15-0.07,18.29,0,27.44c0.03,4.92,2.94,8.04,7.23,8.03   c4.27-0.01,7.13-3.15,7.2-8.08C98.19,318.12,98.14,313.55,98.14,308.98z M156.28,309.24c0-4.57,0.05-9.15-0.01-13.72   c-0.06-4.97-2.84-8.08-7.13-8.13c-4.3-0.05-7.26,3.07-7.3,7.96c-0.07,9.15-0.07,18.29,0,27.44c0.04,4.9,2.99,8.02,7.29,7.97   c4.31-0.05,7.08-3.14,7.14-8.12C156.33,318.18,156.28,313.71,156.28,309.24z"></path>		<path class="st0" d="M40,225.03c0-16.66,0-33.32,0-49.97c0.19-0.69,0.42-1.37,0.56-2.07c1.27-6.43,4.29-11.86,9.15-16.27   c6.3-5.73,13.85-7.57,22.15-7.57c73.29,0.04,146.58,0.02,219.87,0.02c12.49,0,24.99-0.07,37.48,0.02   c17.77,0.13,30.36,12.07,30.64,29.31c0.23,14.36,0.16,28.73,0.01,43.09c-0.1,9.35-3.78,17.13-11.16,23.04   c-5.98,4.79-12.93,6.31-20.42,6.31c-39.98-0.03-79.95-0.02-119.93-0.02c-45.6,0-91.2-0.04-136.8,0.03   c-10.41,0.01-19.12-3.3-25.64-11.69C42.63,235.04,41.18,230.1,40,225.03z M258.04,214.5c8.05,0.03,14.49-6.34,14.52-14.38   c0.04-8.04-6.35-14.49-14.38-14.53c-8.03-0.03-14.51,6.38-14.54,14.38C243.62,207.99,250.03,214.46,258.04,214.5z M301.86,214.5   c8.01-0.05,14.4-6.53,14.35-14.56c-0.05-7.99-6.55-14.38-14.58-14.34c-8.02,0.05-14.39,6.52-14.34,14.57   C287.35,208.19,293.8,214.54,301.86,214.5z M112.69,200.05c-0.01,0-0.02,0-0.02,0c0,4.26-0.09,8.53,0.05,12.79   c0.06,1.72,0.33,3.56,1.03,5.11c1.29,2.86,4.57,4.27,7.53,3.64c3.79-0.81,5.91-3.42,5.97-7.97c0.11-9.05,0.2-18.1-0.09-27.15   c-0.07-2.16-1.22-4.63-2.64-6.33c-1.77-2.12-4.57-2.34-7.2-1.29c-3.17,1.27-4.52,3.91-4.6,7.15   C112.6,190.68,112.69,195.36,112.69,200.05z M98.14,200.13c0-4.58,0.05-9.15-0.01-13.73c-0.07-4.86-3.03-8.14-7.22-8.14   c-4.22,0-7.18,3.23-7.22,8.12c-0.06,9.05-0.06,18.1,0,27.14c0.03,5.06,3.07,8.4,7.36,8.28c4.21-0.12,7.02-3.34,7.08-8.27   C98.18,209.08,98.14,204.6,98.14,200.13z M156.28,200.08c0-4.68,0.08-9.36-0.02-14.04c-0.1-4.64-3.14-7.8-7.24-7.77   c-4.09,0.03-7.13,3.22-7.17,7.86c-0.08,9.26-0.08,18.51,0,27.77c0.04,4.66,3.01,7.84,7.1,7.92c4.19,0.09,7.24-3.18,7.32-8.01   C156.34,209.23,156.28,204.66,156.28,200.08z"></path>	</g></g></svg>