<svg xmlns="http://www.w3.org/2000/svg" xmlns:xlink="http://www.w3.org/1999/xlink" id="Layer_1" x="0px" y="0px" viewBox="0 0 400 400" style="enable-background:new 0 0 400 400;" xml:space="preserve"><style type="text/css">	.st0{fill:#322B6A;}</style><g>	<g>		<path class="st0" d="M26.34,229.94c22.3,0,44,0,65.7,0c11.1,0,22.2-0.08,33.3,0.08c1.84,0.03,3.97,0.63,5.45,1.69   c41.72,29.51,96.38,29.61,138.08,0.25c1.51-1.07,3.57-1.92,5.38-1.93c32.06-0.12,64.12-0.08,96.17-0.08c0.96,0,1.92,0,3.24,0   c0,1.7,0,3.04,0,4.38c0,35.68,0.01,71.35,0,107.03c0,19.76-12.5,32.31-32.19,32.31c-94.3,0.01-188.61,0.01-282.91,0   c-19.71,0-32.22-12.54-32.22-32.27c-0.01-35.68,0-71.35,0-107.03C26.34,233.02,26.34,231.68,26.34,229.94z M313.4,355.69   c11.6,0,23.2,0.02,34.8-0.01c5.36-0.01,7.47-2.12,7.48-7.48c0.02-22.95,0.02-45.91,0-68.86c-0.01-5.37-2.11-7.47-7.48-7.47   c-22.95-0.02-45.91-0.02-68.86,0c-5.38,0-7.47,2.1-7.47,7.48c-0.02,22.95-0.02,45.91,0,68.86c0,5.37,2.11,7.47,7.48,7.48   C290.7,355.72,302.05,355.69,313.4,355.69z M86.6,307.79c-11.6,0-23.2-0.02-34.8,0.01c-5.38,0.01-7.47,2.09-7.48,7.47   c-0.03,10.98-0.03,21.96,0,32.93c0.01,5.38,2.1,7.48,7.47,7.49c22.95,0.02,45.91,0.02,68.86,0c5.37,0,7.47-2.11,7.49-7.48   c0.03-10.98,0.03-21.96,0-32.93c-0.01-5.37-2.11-7.47-7.48-7.48C109.3,307.77,97.95,307.79,86.6,307.79z M182.21,307.79   c-11.48,0-22.95-0.02-34.43,0.01c-5.63,0.01-7.65,2.03-7.66,7.67c-0.02,10.85-0.02,21.71,0,32.56c0.01,5.62,2.04,7.66,7.67,7.66   c22.83,0.02,45.66,0.02,68.49,0c5.61,0,7.65-2.05,7.67-7.68c0.02-10.85,0.02-21.71,0-32.56c-0.01-5.62-2.04-7.65-7.68-7.66   C204.92,307.77,193.56,307.79,182.21,307.79z M56.45,289.56c10.06,0,19.82,0,29.47,0c0-4.05,0-7.83,0-11.52   c-9.97,0-19.64,0-29.47,0C56.45,281.93,56.45,285.61,56.45,289.56z M98.28,289.51c9.87,0,19.71,0,29.6,0c0-3.89,0-7.67,0-11.39   c-10.01,0-19.77,0-29.6,0C98.28,282,98.28,285.6,98.28,289.51z M140.29,289.56c10.06,0,19.81,0,29.47,0c0-4.05,0-7.83,0-11.52   c-9.97,0-19.64,0-29.47,0C140.29,281.92,140.29,285.61,140.29,289.56z M211.81,278.11c-10.06,0-19.81,0-29.47,0   c0,4.05,0,7.82,0,11.52c9.97,0,19.64,0,29.47,0C211.81,285.75,211.81,282.06,211.81,278.11z"></path>		<path class="st0" d="M200,26.34c59.68,0.04,107.87,48.39,107.78,108.15c-0.08,59.04-48.42,107.4-107.38,107.43   c-59.89,0.03-108.23-48.3-108.19-108.18C92.26,74.6,140.73,26.3,200,26.34z M228.79,211.45c14.08,0,25.62-4.38,35.28-13.29   c9.94-9.16,14.89-20.67,13.48-34.17c-1.11-10.63-7.23-18.25-17.3-22.05c-10.22-3.85-19.61-1.8-27.87,5.31   c-6.13,5.28-11.35,5.35-16.78-0.03c-9.74-9.66-19.46-19.35-29.09-29.12c-4.7-4.76-4.77-10.33-0.49-15.38   c0.4-0.48,0.84-0.92,1.25-1.39c13.77-16.21,5.38-40.48-15.49-44.49c-9.21-1.77-17.88,0.46-25.83,5.15   c-26.8,15.8-31.4,54.28-8.96,77.36c19.04,19.58,38.47,38.78,57.93,57.95C204.47,206.71,216.24,211.31,228.79,211.45z"></path>		<path class="st0" d="M26.51,217.74c0-7.98,0-15.66,0-23.73c1.25,0,2.33,0,3.41,0c21.06,0,42.11,0.04,63.17-0.05   c2.36-0.01,3.69,0.67,5.08,2.7c4.89,7.13,10.11,14.04,15.25,21.09C84.69,217.74,55.75,217.74,26.51,217.74z"></path>		<path class="st0" d="M286.72,217.72c5.4-7.54,10.77-15.11,16.25-22.61c0.47-0.64,1.65-1.06,2.5-1.06   c22.54-0.06,45.09-0.04,67.91-0.04c0,7.93,0,15.69,0,23.71C344.45,217.72,315.49,217.72,286.72,217.72z"></path>		<path class="st0" d="M82.45,158.08c1.15,4.17,2.12,8.15,3.36,12.05c1.24,3.88,2.74,7.67,4.22,11.74c-21.09,0-41.86,0-62.63,0   c0.82-10.29,10.94-20.97,22.54-22.94c5.59-0.95,11.41-0.69,17.13-0.82C72.16,157.99,77.26,158.08,82.45,158.08z"></path>		<path class="st0" d="M372.78,181.93c-20.93,0-41.61,0-62.54,0c2.52-7.94,5.01-15.78,7.36-23.18c10.79,0,21.58-0.9,32.14,0.24   C361.46,160.27,370.63,170.27,372.78,181.93z"></path>		<path class="st0" d="M283.97,343.42c0-19.81,0-39.46,0-59.35c19.86,0,39.6,0,59.55,0c0,19.74,0,39.39,0,59.35   C323.86,343.42,304.12,343.42,283.97,343.42z"></path>		<path class="st0" d="M56.44,343.45c0-7.92,0-15.6,0-23.48c19.81,0,39.46,0,59.41,0c0,7.67,0,15.44,0,23.48   C96.24,343.45,76.5,343.45,56.44,343.45z"></path>		<path class="st0" d="M211.7,343.72c-19.31,0-38.36,0-57.42-0.01c-0.6,0-1.2-0.08-1.99-0.13c0-7.85,0-15.54,0-23.52   c19.66,0,39.39,0,59.4,0C211.7,327.71,211.7,335.48,211.7,343.72z"></path>		<path class="st0" d="M226,199.45c-5.94,0.01-14.92-3.15-22.05-10.18c-19.89-19.6-39.8-39.18-59.18-59.27   c-14.28-14.81-13.38-38.52,1.16-53.04c5.54-5.53,12.27-8.44,20.08-8.65c6.6-0.18,11.62,2.7,14.47,8.68   c2.87,6,1.55,11.46-2.39,16.74c-2.56,3.42-5.13,7.18-6.33,11.2c-2.31,7.71-0.18,14.94,5.41,20.7   c10.24,10.56,20.59,21.02,31.2,31.2c9.15,8.79,21.56,8.44,31.68-0.36c5.35-4.65,11.54-5.74,17.28-2.78   c6.19,3.2,8.92,8.49,8.47,15.36c-0.49,7.5-3.41,13.97-8.76,19.29C249.83,195.5,240.37,199.38,226,199.45z"></path>	</g></g></svg>