<svg xmlns="http://www.w3.org/2000/svg" xmlns:xlink="http://www.w3.org/1999/xlink" id="Layer_1" x="0px" y="0px" viewBox="0 0 400 400" style="enable-background:new 0 0 400 400;" xml:space="preserve"><style type="text/css">	.st0{fill:#322B6A;}</style><g>	<g>		<g>			<path class="st0" d="M93.27,67.62c-0.16,0.39-0.32,0.59-0.28,0.74c1.84,7.15,3.62,14.31,5.63,21.4c0.25,0.87,1.61,1.79,2.6,2.02    c4.22,0.98,8.53,1.57,12.74,2.59c2.81,0.68,5.5,1.85,8.37,2.85C120.51,84.67,106.99,70.98,93.27,67.62z"></path>			<path class="st0" d="M43.5,117.57c1.43,11.77,19.37,29.23,28.9,28.82c-1.96-7.72-3.94-15.53-5.83-22.98    C59,121.49,51.36,119.55,43.5,117.57z"></path>			<path class="st0" d="M73.12,67.86c-12.94,1.84-29.71,18.93-28.95,28.4c7.01-1.56,14.09-3.24,21.22-4.65    c2.06-0.41,2.06-1.82,2.35-3.17c0.79-3.67,1.35-7.4,2.28-11.04C70.82,74.27,72,71.24,73.12,67.86z"></path>			<path class="st0" d="M121.95,117.72c-3.7,1.14-7.14,2.41-10.68,3.24c-3.55,0.83-7.23,1.11-10.79,1.91    c-0.79,0.18-1.71,1.38-1.94,2.27c-1.73,6.58-3.31,13.19-4.91,19.8c-0.12,0.51-0.02,1.07-0.02,1.66    C107.35,143.51,120.31,130.09,121.95,117.72z"></path>			<path class="st0" d="M92.82,107.62c-0.03,0-0.06,0-0.09,0c0-2.47-0.06-4.95,0.02-7.42c0.06-1.94-0.83-2.62-2.69-2.58    c-4.75,0.09-9.5,0.14-14.25,0.09c-1.98-0.02-2.61,0.87-2.58,2.69c0.09,4.75,0.15,9.5,0.16,14.25c0,1.78,0.79,2.41,2.54,2.38    c4.94-0.1,9.89,0,14.82-0.22c0.72-0.03,1.89-1.28,1.97-2.07C92.99,112.39,92.82,110,92.82,107.62z"></path>			<path class="st0" d="M92.03,90.81c-0.34-2.41-0.38-4.72-1.04-6.84c-1.67-5.35-3.39-10.71-5.56-15.86    c-1.13-2.67-2.85-2.56-4.72-0.24c-0.61,0.76-1.22,1.62-1.51,2.54c-1.49,4.7-2.98,9.4-4.24,14.17c-0.53,2.01-0.47,4.17-0.68,6.23    C80.4,90.81,85.94,90.81,92.03,90.81z"></path>			<path class="st0" d="M66.38,98.52c-1.46,0.16-2.96,0.11-4.31,0.52c-6.03,1.8-12.15,3.41-17.96,5.75    c-3.14,1.27-2.95,3.38-0.03,5.15c6.74,4.11,14.37,5.13,22.3,6.54C66.38,110.46,66.38,104.77,66.38,98.52z"></path>			<path class="st0" d="M74.17,123.83c0.31,2.22,0.34,4.33,0.92,6.28c1.58,5.27,3.05,10.61,5.23,15.63    c1.53,3.52,3.55,3.35,5.48,0.07c3.94-6.69,5.26-14.14,6.45-21.98C86.2,123.83,80.44,123.83,74.17,123.83z"></path>			<path class="st0" d="M99.58,116.4c2.48-0.48,4.76-0.68,6.86-1.38c5.31-1.75,10.6-3.58,15.77-5.68c2.13-0.86,2.29-2.59,0.19-4.02    c-6.83-4.64-14.72-5.67-22.82-7.03C99.58,104.5,99.58,110.26,99.58,116.4z"></path>		</g>	</g>	<path class="st0" d="M213.15,235.84c-20.48,0-40.96,0.09-61.44-0.03c-15.53-0.09-27.24-7.02-34.47-20.77  c-12.72-24.18,5.33-54.34,32.6-54.7c2.27-0.03,4.56,0.51,6.83,0.44c0.9-0.03,2.22-0.77,2.6-1.56c7.8-15.86,25.66-18.38,37.54-5.17  c1.37,1.53,2.2,1.12,3.62,0.2c23.59-15.38,57.4-7.98,71.31,15.54c3.56,6.02,5.45,12.54,5.72,19.49c0.08,1.98,0.76,2.62,2.74,2.77  c10.64,0.8,18.87,9.79,19.36,20.97c0.47,10.67-7.35,20.64-17.59,22.32c-1.97,0.33-4,0.49-6,0.49c-20.94,0.03-41.87,0.02-62.81,0.02  C213.15,235.84,213.15,235.84,213.15,235.84z"></path>	<path class="st0" d="M164.97,315.91c-2.34-2.24-4.46-4.27-6.9-6.61c11.98-11.99,26.38-18.55,43.16-19.98  c22.64-1.92,44.29,8.84,53.75,20.19c-1.81,1.99-3.56,4.12-5.58,5.94c-0.42,0.38-2.17-0.06-2.8-0.66  c-8.4-8.08-18.42-13.1-29.82-14.88c-18.44-2.89-34.96,1.77-49.26,13.92C166.64,314.58,165.73,315.29,164.97,315.91z"></path>	<path class="st0" d="M179.71,331.18c-2-2.25-4.02-4.51-6.07-6.82c12.77-16.03,46.32-20.73,66.3,0.28c-2.4,1.95-4.83,3.92-7.3,5.93  C215.86,316.34,195.11,317.84,179.71,331.18z"></path>	<path class="st0" d="M206.59,358.01c-4.82-4.84-9.48-9.53-14.14-14.21c-4.77-4.8-4.77-4.8,1.19-8.22  c9.56-5.48,20.84-4.73,28.9,1.82c1.92,1.56,2.39,2.57,0.24,4.57C217.3,347.07,212.11,352.5,206.59,358.01z"></path>	<path class="st0" d="M134.62,68.76c-1.13,0-3.22-0.41-4.48-3.14c-1.33-2.91-0.37-5.61,2.58-7.24  c14.43-7.95,29.39-13.39,44.45-16.17c0.8-0.15,1.43-0.22,1.99-0.22c1.85,0,2.91,0.81,3.48,1.49c1.37,1.64,1.1,3.81,0.65,6.27  l-0.36,1.95l-1.94,0.43c-14.04,3.11-25.32,6.84-35.5,11.75c-2.71,1.3-5.45,2.75-7.81,4.01C136.58,68.48,135.58,68.76,134.62,68.76z  "></path>	<path class="st0" d="M281.68,321.84c-1.17,0-3.35-0.42-4.83-3.22c-1.21-2.29,0.54-5.62,2.32-6.75  c13.27-8.42,24.25-17.64,33.58-28.18c1.31-1.48,3.47-2.14,5.03-2.14c0.15,0,0.3,0.01,0.44,0.02c1.85,0.14,2.89,1.59,3.52,2.46  c0.13,0.18,0.25,0.36,0.38,0.51l1.55,1.72l-1.28,1.93c-0.17,0.26-0.31,0.49-0.45,0.7c-0.32,0.51-0.64,1.04-1.08,1.55  c-9.94,11.54-22.03,21.75-35.91,30.37C283.86,321.5,282.76,321.84,281.68,321.84z"></path>	<path class="st0" d="M345.03,244.09c-0.83,0-1.69-0.21-2.53-0.62c-2.25-1.1-2.88-4.48-2.45-6.4c0.7-3.14,1.48-6.29,2.24-9.35  c1.27-5.11,2.58-10.4,3.5-15.61c0.82-4.67,1.08-9.62,1.33-14.41c0.08-1.58,0.16-3.17,0.26-4.75c0.09-1.4,0.36-5.68,5.25-5.68  l0.16,0c1.7,0.03,3.05,0.57,4.01,1.6c1.5,1.6,1.39,3.73,1.36,4.43c-0.03,0.65-0.02,1.32-0.02,2.11c0,0.4,0.01,1.36,0.01,1.36  l-0.01,0.1c-1.07,16.33-3.75,30.48-8.2,43.24C348.71,243.71,346.1,244.09,345.03,244.09z"></path>	<path class="st0" d="M131.82,322.05c-1.48,0-2.67-0.7-3.54-1.21c-11.84-6.96-22.52-15.64-31.74-25.79  c-0.36-0.39-0.72-0.79-1.08-1.18c-1.15-1.24-2.33-2.51-3.41-3.93c-1.13-1.49-1.06-3.57-0.61-5.02c0.37-1.19,1.16-1.93,1.73-2.46  c0.13-0.12,0.26-0.24,0.39-0.38l1.86-2.05l2.19,1.68c0.25,0.19,0.47,0.35,0.68,0.5c0.51,0.37,1.04,0.74,1.54,1.27  c11.88,12.57,22.84,21.68,34.49,28.66c0.54,0.33,2.2,1.32,2.65,3.3c0.3,1.31-0.01,2.68-0.92,4.06  C134.68,321.61,132.99,322.05,131.82,322.05z"></path>	<path class="st0" d="M277.32,68.04c-2.71-1.11-5.39-2.23-8.06-3.35c-6.3-2.64-12.26-5.14-18.42-7.37c-4-1.45-8.31-2.49-12.48-3.49  c-1.66-0.4-3.31-0.8-4.96-1.22l-0.21-0.05c-1.31-0.33-5.31-1.35-4.51-6.15c0.46-2.74,2.25-4.37,4.81-4.37  c0.69,0,1.32,0.12,1.87,0.22l0.15,0.03c15.41,2.81,30.04,8.03,43.47,15.51c1.62,0.9,3.18,2.01,3.61,3.97  c0.46,2.07-0.65,3.81-1.72,5.27l-1.38,1.9L277.32,68.04z"></path>	<path class="st0" d="M68.18,244.47c-3.33,0-4.41-2.94-4.81-4.05c-4.48-12.19-7.05-25.58-8.32-43.41l-0.01-0.11v-0.11  c0-0.32-0.01-0.58-0.01-0.81c-0.01-0.53-0.03-1.04,0.06-1.61c0-0.11-0.02-0.29-0.04-0.46c-0.09-0.95-0.25-2.72,1.04-4.16  c0.89-1,2.2-1.52,3.9-1.56l0.21,0c1.72,0,3.09,0.5,4.08,1.49c1.53,1.54,1.52,3.63,1.51,5.02c-0.06,9.27,1.11,18.66,3.57,28.69  c0.8,3.28,1.78,6.61,2.72,9.83c0.4,1.35,0.79,2.71,1.18,4.07c0.31,1.08,0.82,2.89-0.17,4.64c-0.64,1.13-1.72,1.91-3.23,2.31  C69.27,244.39,68.72,244.47,68.18,244.47z"></path>	<g>		<g>			<path class="st0" d="M357.54,112.18c-0.01-16.46,0.03-32.92-0.03-49.37c-0.03-8.51-5.1-13.54-13.51-13.55    c-10.31-0.01-20.62-0.06-30.93,0.07c-8.86,0.11-13.81,5.12-13.87,13.91c-0.07,10.41-0.02,20.82-0.02,31.23c-0.02,0-0.03,0-0.05,0    c0,9.91,0.01,19.83,0,29.74c-0.02,9.91,4.54,14.62,14.44,14.73c8.03,0.09,16.06,0.06,24.09,0.04c2.97-0.01,5.97,0.14,8.9-0.22    c6.6-0.82,10.84-5.66,10.97-12.3C357.62,121.7,357.54,116.94,357.54,112.18z M350.9,124.56c-0.01,5.83-1.83,7.7-7.61,7.75    c-10.02,0.07-20.04,0.11-30.06,0.07c-5.92-0.02-7.53-1.73-7.54-7.72c-0.02-10.22,0-20.44,0-30.66c0,0-0.01,0-0.01,0    c0-10.32-0.01-20.64,0-30.96c0.01-5.24,1.87-7.12,7.15-7.28c1.09-0.03,2.19,0.05,3.27-0.1c1.57-0.21,2.64,0.16,3.2,1.79    c0.65,1.92,2.01,2.68,4.12,2.56c3.17-0.18,6.35-0.14,9.52-0.01c2.14,0.09,3.49-0.6,4.54-2.55c0.46-0.85,1.88-1.22,2.93-1.68    c0.41-0.18,0.98-0.01,1.47,0c7.49,0.24,9.01,1.74,9.02,9.26C350.93,84.87,350.93,104.72,350.9,124.56z"></path>			<path class="st0" d="M328.68,108.79c-4.22-0.05-7.68,3.38-7.76,7.71c-0.08,4.44,3.1,7.76,7.48,7.8c4.46,0.04,7.88-3.12,8.01-7.41    C336.54,112.56,333,108.85,328.68,108.79z M328.66,120.98c-2.49,0.03-4.56-1.99-4.52-4.44c0.04-2.52,1.75-4.22,4.25-4.25    c2.69-0.03,4.62,1.7,4.65,4.18C333.08,119.14,331.33,120.95,328.66,120.98z"></path>		</g>	</g></g></svg>