<svg xmlns="http://www.w3.org/2000/svg" xmlns:xlink="http://www.w3.org/1999/xlink" id="Layer_1" x="0px" y="0px" viewBox="0 0 400 400" style="enable-background:new 0 0 400 400;" xml:space="preserve"><style type="text/css">	.st0{fill:#322B6A;}</style><g>	<g>		<path class="st0" d="M375,237.53c-2.04,6.68-3.47,13.63-6.26,19.98c-4.13,9.39-11.24,16.49-20.09,21.7   c-2.12,1.24-2.93,2.64-2.91,5.14c0.12,15.14,0.14,30.29,0.04,45.44c-0.1,14.97-8.11,25.71-22.1,29.47   c-3.14,0.84-6.52,1.05-9.79,1.06c-25.06,0.08-50.11,0.08-75.17,0c-2.41-0.01-3.73,0.53-4.96,2.88   c-3.83,7.31-10.15,11.31-18.42,11.61c-7.62,0.27-15.27,0.26-22.89,0.02c-12.15-0.39-21.38-9.83-21.55-21.67   c-0.16-11.8,9.31-21.55,21.62-21.93c7.51-0.23,15.04-0.24,22.55,0.01c8.68,0.29,15.17,4.46,19.05,12.27   c0.87,1.74,1.83,2.22,3.63,2.22c25.97-0.05,51.94,0.01,77.9-0.06c9.64-0.03,15.56-6.01,15.6-15.58c0.06-13.66,0.02-27.33,0.01-41   c0-0.78-0.06-1.55-0.09-2.08c-7.22,0-14.23,0-21.51,0c0-35.96,0-72.21,0-108.79c4.79,0,9.66-0.32,14.48,0.09   c4.7,0.4,9.34,1.55,14.61,2.48c-0.77-49.38-20.47-88.96-60.98-117.05c-44.37-30.77-104.53-34.08-153.91-0.98   C82.26,90.61,62.23,130.66,61.3,180.1c9.89-0.92,19.33-1.8,29.11-2.71c0,37.06,0,73.31,0,109.57   c-21.86,2.72-43.39-4.19-56.57-24.78c-15.11-23.59-10.42-53.05,10.96-71.16c1.68-1.42,2.24-2.84,2.18-4.94   C46.4,166,48.5,146.23,55.7,127.37c20.72-54.34,59.58-87.72,116.58-99.7c5.98-1.26,12.12-1.8,18.18-2.67c6.38,0,12.76,0,19.14,0   c6.07,0.87,12.2,1.43,18.19,2.67c54.19,11.15,92.17,42.39,114.07,93.02c9,20.8,11.94,42.86,11.23,65.42   c-0.07,2.11,0.5,3.54,2.2,4.93c8.71,7.12,14.57,16.17,17.61,27.01c0.79,2.82,1.4,5.7,2.1,8.55C375,230.24,375,233.88,375,237.53z"></path>		<path class="st0" d="M188.63,250.8c-1-5.96-2.08-11.76-2.91-17.59c-0.3-2.08-1.14-3-3.14-3.75c-5.83-2.18-11.59-4.6-17.25-7.19   c-1.58-0.72-2.56-0.77-3.93,0.24c-4.94,3.65-9.96,7.18-14.75,10.61c-5.43-5.42-10.73-10.72-16.24-16.23   c3.29-4.63,6.71-9.58,10.29-14.42c1.16-1.56,1.28-2.69,0.41-4.55c-2.59-5.54-5-11.18-7.08-16.93c-0.74-2.04-1.57-2.87-3.66-3.15   c-5.18-0.7-10.34-1.6-15.47-2.62c-0.88-0.18-2.22-1.36-2.23-2.11c-0.17-6.93-0.1-13.86-0.1-21.03c5.91-0.97,11.6-2,17.33-2.8   c2.44-0.34,3.5-1.39,4.33-3.8c1.92-5.56,4.32-10.97,6.8-16.31c0.82-1.77,1.01-2.93-0.22-4.57c-3.61-4.81-7.02-9.77-10.34-14.43   c5.47-5.44,10.76-10.71,16.31-16.23c4.54,3.25,9.47,6.69,14.29,10.27c1.53,1.14,2.64,1.25,4.51,0.38   c5.64-2.64,11.52-4.75,17.2-7.3c1.18-0.53,2.51-1.93,2.76-3.13c1.19-5.79,2.03-11.65,3.04-17.77c7.57,0,15.11,0,22.91,0   c0.98,5.83,2.06,11.62,2.88,17.45c0.3,2.12,1.21,2.95,3.21,3.68c5.63,2.06,11.23,4.3,16.62,6.92c2.11,1.02,3.34,0.91,5.1-0.4   c4.71-3.54,9.57-6.89,14.12-10.14c5.45,5.44,10.68,10.65,16.25,16.21c-3.2,4.49-6.57,9.45-10.19,14.21   c-1.4,1.85-1.22,3.12-0.25,5.15c2.53,5.31,4.84,10.76,6.77,16.33c0.76,2.2,1.7,3.1,3.86,3.42c5.83,0.86,11.65,1.89,17.67,2.88   c0,7.16,0.07,14.09-0.1,21.02c-0.02,0.75-1.34,1.94-2.23,2.12c-5.24,1.04-10.52,1.94-15.81,2.69c-1.85,0.26-2.56,0.98-3.22,2.76   c-2.18,5.84-4.57,11.6-7.19,17.25c-0.86,1.85-0.76,2.99,0.4,4.55c3.58,4.83,7,9.79,10.32,14.45   c-5.51,5.49-10.82,10.78-16.25,16.19c-4.79-3.42-9.81-6.95-14.75-10.59c-1.37-1.01-2.35-0.97-3.93-0.25   c-5.77,2.62-11.73,4.85-17.51,7.46c-1.17,0.53-2.45,1.95-2.7,3.16c-1.21,5.88-2.08,11.84-3.09,17.92   C203.77,250.8,196.3,250.8,188.63,250.8z M199.96,129.33c-18.73,0.05-34.12,15.46-34.12,34.14c0,18.6,15.51,34.18,34.1,34.26   c18.67,0.08,34.34-15.64,34.29-34.41C234.18,144.68,218.65,129.28,199.96,129.33z"></path>	</g></g></svg>