<svg xmlns="http://www.w3.org/2000/svg" xmlns:xlink="http://www.w3.org/1999/xlink" id="Layer_1" x="0px" y="0px" viewBox="0 0 400 400" style="enable-background:new 0 0 400 400;" xml:space="preserve"><style type="text/css">	.st0{fill:#322B6A;}</style><g>	<g>		<path class="st0" d="M119.23,22.02c4.61,4.84,9.22,9.69,13.62,14.32c-35.95,44.48-36.09,88.74-0.49,133.08   c-4.4,4.39-9.2,9.18-14.53,14.5c-4.43-5.72-9.78-11.68-14.08-18.32c-14.6-22.58-20.58-47.45-17.85-74.19   c2.44-23.94,11.61-45.13,27.43-63.36c1.74-2,3.47-4.02,5.2-6.03C118.77,22.02,119,22.02,119.23,22.02z"></path>		<path class="st0" d="M281.32,22.02c5.73,7.54,12.18,14.64,17.06,22.7c14.55,24.02,19.11,50.18,14.49,77.85   c-3.97,23.78-14.69,44.18-31.32,61.2c-4.84-4.9-9.6-9.71-14.62-14.79c17.39-18.01,26.8-40.18,26.78-65.87   c-0.02-25.58-9.38-47.65-27.25-66.2c4.81-5.06,9.48-9.97,14.16-14.89C280.85,22.02,281.09,22.02,281.32,22.02z"></path>		<path class="st0" d="M325,357.31c0,7.12,0,13.8,0,20.67c-83.33,0-166.52,0-250,0c0-6.66,0-13.42,0-20.67c2.98,0,6.05,0,9.13,0   c7.07,0,14.15-0.19,21.21,0.09c3.06,0.12,4.08-1.09,4.98-3.74c22.6-66.38,45.29-132.72,67.97-199.07   c0.33-0.98,0.67-1.95,1.16-3.35c13.55,5.31,27.1,5.52,40.88-0.06c1.29,3.66,2.53,7.1,3.72,10.56   c21.87,64.06,43.76,128.11,65.54,192.2c0.91,2.69,2.08,3.5,4.86,3.45C304.52,357.2,314.59,357.31,325,357.31z M257.33,357.22   c-19.49-18.91-38.39-37.25-57.41-55.7c-19.13,18.57-37.99,36.88-57.38,55.7C181.1,357.22,218.73,357.22,257.33,357.22z    M217.95,209.95c-12.07,0-23.98,0-36.06,0c-2.62,7.71-5.23,15.37-7.81,23.04c-1.21,3.61-3.89,7.64-3.1,10.76   c0.83,3.28,4.95,5.79,7.76,8.51c6.97,6.75,14.01,13.44,21.2,20.32c9.62-9.22,19.07-18.25,28.44-27.36   c0.58-0.56,0.89-1.96,0.63-2.73C225.4,231.63,221.66,220.81,217.95,209.95z M141.21,327.66c0.28,0.13,0.56,0.27,0.84,0.4   c14.23-13.64,28.46-27.28,42.79-41.02c-7.5-7.18-14.66-14.03-22.13-21.18C155.43,286.78,148.32,307.22,141.21,327.66z    M257.9,328.13c0.24-0.2,0.48-0.39,0.72-0.59c-7.11-20.41-14.21-40.83-21.48-61.71c-7.6,7.3-14.8,14.22-22.1,21.24   C229.54,300.97,243.72,314.55,257.9,328.13z"></path>		<path class="st0" d="M199.88,71.99c17.12-0.03,31.2,13.93,31.33,31.07c0.13,17.04-14.48,31.65-31.41,31.43   c-17.13-0.23-31.19-14.37-31.15-31.34C168.68,86.05,182.75,72.03,199.88,71.99z"></path>		<path class="st0" d="M148.14,51.95c4.89,4.93,9.6,9.69,14.52,14.65c-9.55,10.06-14.88,22.35-14.84,36.66   c0.04,14.18,5.21,26.41,14.8,36.37c-4.93,4.94-9.73,9.76-14.54,14.58C120.96,128.49,118.88,80.74,148.14,51.95z"></path>		<path class="st0" d="M251.79,154.38c-4.9-4.9-9.64-9.64-14.61-14.62c9.58-10.08,14.87-22.35,14.86-36.62   c-0.01-14.2-5.24-26.41-14.78-36.44c4.91-4.93,9.7-9.72,14.49-14.53C278.02,76.72,281.8,124.5,251.79,154.38z"></path>	</g></g></svg>