<svg xmlns="http://www.w3.org/2000/svg" xmlns:xlink="http://www.w3.org/1999/xlink" id="Layer_1" x="0px" y="0px" viewBox="0 0 400 400" style="enable-background:new 0 0 400 400;" xml:space="preserve"><style type="text/css">	.st0{fill:#322B6A;}</style><g>	<g>		<path class="st0" d="M350,119.44c-1.95,4.27-5.33,5.63-9.92,5.54c-10.55-0.21-21.1-0.07-31.65-0.07c-1.05,0-2.1,0-2.9,0   c-0.31-0.41-0.42-0.49-0.42-0.56c0.06-13.46-0.49-26.96,0.39-40.37c0.69-10.47,9.97-18.29,20.29-19   c10.71-0.74,20.28,5.94,23.31,16.26c0.3,1.01,0.59,2.02,0.89,3.03C350,95.99,350,107.72,350,119.44z"></path>		<path class="st0" d="M296.44,64.93c-1.99,5.48-4.19,10.75-5.75,16.2c-0.81,2.84-0.65,6-0.65,9.02   c-0.03,73.46-0.04,146.93,0,220.39c0,9.96-3.73,17.73-12.84,22.21c-14.63,7.2-31.81-3.31-32.13-19.62   c-0.19-9.47-0.05-18.95-0.06-28.43c-0.01-7.08-2.65-9.73-9.73-9.73c-50.41-0.01-100.82,0-151.22,0c-1.26,0-2.52,0-4.19,0   c0-1.28,0-2.31,0-3.35c0-58.32-0.01-116.64,0.01-174.96c0-18.86,12.8-31.72,31.58-31.72c60.96-0.01,121.92,0,182.87,0   C295.19,64.93,296.07,64.93,296.44,64.93z M162.45,221.9c0.04,3.98,2.31,6.9,5.52,7.77c4.48,1.22,8.08-1.22,9.61-6.58   c6.69-23.42,13.37-46.84,20.04-70.26c3.18-11.15,6.45-22.27,9.45-33.47c1.52-5.66-3.42-10.59-8.93-9.18   c-3.41,0.87-4.93,3.43-5.85,6.65c-9.66,33.92-19.37,67.82-29.05,101.72C162.87,219.87,162.61,221.21,162.45,221.9z M234.32,169.84   c-0.88,0.94-1.51,1.65-2.18,2.33c-4.89,4.9-9.83,9.76-14.68,14.71c-3.32,3.39-3.41,7.93-0.36,10.96c2.96,2.95,7.52,2.97,10.76-0.2   c7.45-7.32,14.84-14.69,22.14-22.14c3.39-3.46,3.28-7.67-0.11-11.18c-3.53-3.64-7.16-7.19-10.75-10.78   c-3.8-3.79-7.54-7.64-11.42-11.34c-2.57-2.46-5.67-2.81-8.62-1.29c-2.88,1.49-4.63,4.56-3.83,7.8c0.44,1.78,1.56,3.58,2.85,4.92   C223.38,159.09,228.83,164.38,234.32,169.84z M135.6,170.05c0.82-0.88,1.46-1.59,2.14-2.27c4.83-4.84,9.7-9.62,14.47-14.51   c3.35-3.43,3.47-7.93,0.47-10.98c-3.08-3.12-7.52-3.09-10.95,0.3c-7.29,7.2-14.54,14.44-21.73,21.74   c-3.55,3.61-3.5,7.7,0.06,11.37c3.53,3.64,7.16,7.19,10.75,10.78c3.8,3.79,7.54,7.64,11.41,11.36c2.55,2.45,6.05,2.83,8.91,1.24   c2.83-1.57,4.48-4.7,3.6-7.92c-0.49-1.77-1.67-3.52-2.96-4.87C146.5,180.83,141.07,175.52,135.6,170.05z"></path>		<path class="st0" d="M229.74,290.01c1.1,15.34-3.05,31.23,8.09,45.06c-1.65,0-2.48,0-3.31,0c-51.07,0-102.13,0.01-153.2-0.01   c-15.16-0.01-27.25-8.86-30.38-22.89c-1.13-5.05-0.95-10.46-0.87-15.7c0.05-3.44,3.1-6,6.58-6.4c0.77-0.09,1.56-0.06,2.34-0.06   c55.95,0,111.9,0,167.85,0C227.7,290.01,228.57,290.01,229.74,290.01z"></path>	</g></g></svg>