<svg xmlns="http://www.w3.org/2000/svg" xmlns:xlink="http://www.w3.org/1999/xlink" id="Layer_1" x="0px" y="0px" viewBox="0 0 400 400" style="enable-background:new 0 0 400 400;" xml:space="preserve"><style type="text/css">	.st0{fill:#322B6A;}</style><g>	<path class="st0" d="M199.74,223.87c0.84,9.88,0.84,9.88,8.48,13.08c-0.53,0.97-1.02,1.94-1.57,2.89c-1.73,3.01-1.32,5.7,1.12,8.14  c5.21,5.2,10.39,10.43,15.62,15.6c3.52,3.48,4.67,3.45,11.75-0.1c0.6,7.96,5.91,9.19,12.58,8.16c0,24.14,0,47.8,0,72.01  c-1.29,0-2.6,0-3.91,0c-25.82,0-51.64,0-77.47,0c-5.51,0-6.58,0.73-8.67,5.89c-7.68,0-15.4,0-23.34,0  c-0.99-5.1-4.56-5.97-9.17-5.95c-25.45,0.12-50.9,0.06-76.34,0.06c-1.36,0-2.71,0-4.58,0c0-1.53,0-2.84,0-4.16  c0-35.67,0-71.34,0-107.02c0-6.86,1.75-8.61,8.61-8.61c47.65,0,95.3,0,142.96,0C197.05,223.87,198.28,223.87,199.74,223.87z   M116.34,277.95c0,4.13,0,7.82,0,11.56c3.99,0,7.76,0,11.5,0c0-4.02,0-7.79,0-11.56C123.87,277.95,120.19,277.95,116.34,277.95z   M140.17,289.44c3.88,0,7.74,0,11.65,0c0-3.9,0-7.67,0-11.38c-4.03,0-7.81,0-11.65,0C140.17,281.94,140.17,285.53,140.17,289.44z   M164.23,289.54c4.13,0,7.82,0,11.56,0c0-3.98,0-7.76,0-11.49c-4.02,0-7.8,0-11.56,0C164.23,282.01,164.23,285.7,164.23,289.54z"></path>	<path class="st0" d="M272.76,172.25c-0.37-1.25-0.66-2.19-0.92-3.15c-0.94-3.49-3.19-5.15-6.82-5.13  c-7.24,0.04-14.47-0.01-21.71,0.02c-4.6,0.02-6.18,1.26-7.47,5.68c-0.24,0.83-0.56,1.63-0.9,2.6c-0.89-0.47-1.64-0.87-2.39-1.28  c-4.01-2.21-5.97-1.97-9.31,1.33c-4.52,4.47-8.92,9.08-13.57,13.42c-1.21,1.13-3.16,2.08-4.77,2.1  c-17.47,0.15-34.93,0.15-52.4,0.07c-13.81-0.06-24.43-10.61-24.39-24.03c0.04-13.4,10.68-23.75,24.57-23.86  c2.99-0.02,5.99,0,8.98-0.01c6.43-0.01,8.19-1.72,8.41-8.11c0.85-24.96,19.73-46.86,44.33-50.87c19.54-3.19,36.2,2.65,49.72,17.17  c5.07,5.45,6.8,5.65,12.37,0.98c10.17-8.51,24.45-9.43,35.53-2.29c10.95,7.05,16.42,20.37,12.5,32.9  c-1.93,6.17,0.65,10.76,7.94,10.34c5.44-0.32,11.05-0.33,16.38,0.65c11.82,2.17,19.74,13.23,18.77,25.19  c-0.97,11.98-10.97,21.7-23.05,21.9c-14.09,0.23-28.2,0.11-42.29,0c-1.29-0.01-2.85-0.8-3.82-1.72  c-4.08-3.85-7.98-7.89-11.95-11.86C280.62,168.37,280.47,168.34,272.76,172.25z"></path>	<path class="st0" d="M229.07,68.24c-18.07-0.89-34.04,4.02-47.7,15.6c-13.55,11.49-21.01,26.3-23.13,43.91  c-4.02,0.28-7.87,0.35-11.65,0.85c-7.52,1-13.9,4.42-19.47,9.55c-1.13,1.04-3,1.78-4.53,1.79c-21.95,0.11-43.9,0.13-65.86,0.06  c-13.83-0.05-24.47-10.55-24.46-23.95c0.01-13.42,10.63-23.81,24.48-23.94c3.37-0.03,6.74,0.02,10.1-0.01  c5.13-0.05,7.16-2.08,7.36-7.27c0.99-25.5,17.86-46.08,42.8-51.29c20.05-4.19,37.17,1.81,51.18,16.66c5.28,5.6,6.73,5.8,12.65,0.91  C198.18,36.8,224.95,46.05,229.07,68.24z"></path>	<path class="st0" d="M228.81,183.09c13.19,6.24,13.19,6.24,18.06-7c4.66,0,9.38,0,14.05,0c5.03,13.37,5.03,13.37,17.85,7.07  c2.79,2.87,5.8,5.84,8.61,8.97c0.53,0.59,0.61,2.02,0.29,2.82c-0.64,1.6-1.77,3-2.58,4.54c-2.24,4.24-0.71,8,3.83,9.37  c2.14,0.65,4.34,1.11,6.7,1.71c0,4.83,0,9.63,0,14.42c-13.17,4.81-13.17,4.81-6.89,18.07c-2.88,2.66-5.92,5.59-9.13,8.32  c-0.6,0.51-2.03,0.55-2.82,0.21c-1.7-0.72-3.19-1.94-4.86-2.77c-3.88-1.92-7.6-0.35-8.91,3.78c-0.71,2.25-1.19,4.58-1.81,7.02  c-4.74,0-9.45,0-14.52,0c-0.55-2-1.11-4.11-1.7-6.22c-1.45-5.14-5.08-6.73-9.68-4.27c-6.17,3.31-6.13,3.27-11.08-1.6  c-1.68-1.65-3.61-3.03-5.15-4.31c6.24-14,6.24-14-6.95-18.22c0-4.66,0-9.37,0-14.38c2.22-0.58,4.49-1.1,6.71-1.77  c4.57-1.37,6.11-5.1,3.93-9.35c-3.33-6.49-3.3-6.47,1.81-11.65C226.05,186.37,227.38,184.71,228.81,183.09z M253.74,241.83  c13.25,0.05,24.06-10.66,24.11-23.9c0.05-13.22-10.73-24.01-23.99-24.01c-13.07,0-23.82,10.65-23.92,23.7  C229.84,230.89,240.55,241.78,253.74,241.83z"></path>	<path class="st0" d="M34.54,355.8c0.75-0.07,1.24-0.16,1.73-0.16c28.44-0.01,56.87-0.01,85.59-0.01c0.95,5.1,4.45,6.13,9.09,6.05  c10.35-0.2,20.71-0.05,31.06-0.07c5.23-0.01,6.39-0.82,8.32-5.85c29,0,58.03,0,87.58,0c-0.48,2.72-0.38,5.53-1.53,7.67  c-0.97,1.79-3.28,3-5.23,4.05c-0.97,0.52-2.45,0.12-3.69,0.12c-67.11,0-134.22-0.05-201.33,0.06  C36.77,367.69,35.3,366.63,34.54,355.8z"></path>	<path class="st0" d="M337.76,212.07c4.22,0,7.92,0,11.98,0c0,1.38,0,2.59,0,3.81c0,21.95,0.01,43.9,0,65.85  c-0.01,19.41-12.64,31.97-32.14,31.98c-14.84,0.01-29.69-0.02-44.53-0.04c-0.23,0-0.47-0.11-0.95-0.24c0-3.72,0-7.5,0-11.69  c1.39,0,2.72,0,4.05,0c13.72,0,27.44,0,41.16,0c13.45,0,20.42-7.03,20.42-20.59c0-21.58,0-43.15,0-64.73  C337.76,215.06,337.76,213.71,337.76,212.07z"></path>	<path class="st0" d="M241.93,217.57c0.16-6.52,5.63-11.76,12.17-11.66c6.64,0.11,12.02,5.8,11.76,12.45  c-0.26,6.49-5.85,11.68-12.36,11.48C247.02,229.64,241.78,224.07,241.93,217.57z"></path></g></svg>