<svg xmlns="http://www.w3.org/2000/svg" xmlns:xlink="http://www.w3.org/1999/xlink" id="Layer_1" x="0px" y="0px" viewBox="0 0 400 400" style="enable-background:new 0 0 400 400;" xml:space="preserve"><style type="text/css">	.st0{fill:#322B6A;}</style><path class="st0" d="M113.32,135.32c5.92,5.72,11.57,11.17,17.21,16.63c0.89,0.87,1.83,1.72,2.58,2.71c1.91,2.51,1.95,5.1-0.21,7.47 c-2.07,2.27-5.33,2.45-7.7,0.12c-7.82-7.7-15.55-15.5-23.2-23.37c-2.45-2.52-2.43-5.46,0.05-8.01c7.56-7.78,15.2-15.49,22.92-23.12 c2.54-2.51,5.78-2.37,7.99-0.04c2.15,2.26,2.1,5.45-0.4,8.04c-5.29,5.47-10.7,10.82-16.05,16.23 C115.65,132.86,114.81,133.77,113.32,135.32z"></path><path class="st0" d="M326.95,211.3c-6.11-0.19-9.37-2.09-12.08-8.41c-2.78-6.48-2.17-10.61,2.09-15.35c1.43-1.59,2.25-3.74,3.3-5.54 c-0.72-1.6-0.97-2.94-1.76-3.78c-3.06-3.28-6.2-6.5-9.5-9.54c-2.19-2.02-4.79-1.98-7.21-0.23c-2.02,1.46-4.11,2.9-5.83,4.68 c-2.55,2.64-4.81,2.84-8.06,0.91c-3.25-1.93-8.25-2-10.29-4.61c-2.18-2.78-1.78-7.58-2.54-11.48c-0.68-3.48-2.94-5.05-6.38-5.06 c-3.62-0.02-7.24-0.06-10.86,0.01c-4.15,0.07-6.22,1.9-6.76,5.97c-0.38,2.84-0.72,5.7-0.87,8.56c-0.11,2.02-0.83,3.01-2.87,3.67 c-3.42,1.1-6.76,2.56-9.95,4.22c-1.86,0.97-3.12,0.82-4.7-0.41c-2.45-1.92-5.03-3.69-7.62-5.41c-2.72-1.8-5.45-1.72-7.85,0.59 c-2.88,2.76-5.71,5.58-8.46,8.48c-2.41,2.55-2.44,5.34-0.31,8.11c1.52,1.98,2.95,4.05,4.69,5.82c2.2,2.24,2.84,4.28,0.85,7.08 c-1.2,1.69-2.22,3.78-2.48,5.8c-0.63,4.97-3.71,6.13-8.08,6.69c-10.71,1.36-10.86,1.73-10.86,12.68c0,11.52,0.15,11.79,11.74,12.74 c3.82,0.31,6.3,1.29,7.25,5.59c0.78,3.56,4.25,7.02,3.86,10.2c-0.42,3.4-4,6.39-6.15,9.59c-1.92,2.86-1.76,5.63,0.67,8.14 c1.73,1.79,3.52,3.53,5.29,5.3c6.37,6.36,7.36,6.42,14.3,0.86c0.39-0.31,0.82-0.59,1.15-0.95c3.05-3.29,5.85-2.97,10.32-1.66 c8.32,2.44,11.34,7.19,11.6,15.23c0.13,3.95,2.45,5.53,6.56,5.64c3.62,0.09,7.24,0.1,10.85,0c4.27-0.12,5.93-1.69,6.57-6.06 c0.31-2.1,0.63-4.21,0.69-6.32c0.1-3.44,1.22-5.52,5.01-6.44c3.67-0.9,7.25-4.45,10.52-4.06c3.5,0.43,6.6,4.12,9.89,6.37 c2.75,1.88,5.4,1.64,7.84-0.58c1.11-1,2.13-2.1,3.19-3.16c9.11-9.1,9.22-9.19,1.08-19c-2.23-2.69-2.61-4.72-0.86-7.83 c1.86-3.32,1.96-8.28,4.56-10.34c2.77-2.2,7.56-1.85,11.47-2.59c3.51-0.66,5.08-2.87,5.11-6.32c0.02-2.99,0.02-5.99,0.02-8.98 C335.09,213.18,333.83,211.51,326.95,211.3z M263.93,248.01c-13.29,0.02-24.1-10.79-23.99-23.98c0.11-13.03,10.87-23.76,23.89-23.82 c13.2-0.06,23.93,10.76,23.88,24.09C287.66,237.48,277.12,247.99,263.93,248.01z"></path><path class="st0" d="M180.61,88.46c-3.09,0.36-4.24,2.67-5.24,5.19c-5.76,14.58-11.55,29.15-17.34,43.72 c-4.73,11.91-9.51,23.8-14.18,35.74c-1.74,4.44,0.65,8.28,5.49,8.22c2.69-0.09,4.06-2.28,5.14-5.01 c6.67-16.9,13.41-33.77,20.12-50.65c3.81-9.6,7.68-19.18,11.41-28.81C187.86,92.09,185.11,87.94,180.61,88.46z"></path><path class="st0" d="M201.46,162.21c2.3,2.26,5.39,2.31,7.99-0.27c7.62-7.54,15.17-15.15,22.65-22.83c2.67-2.73,2.52-5.72-0.13-8.6 c-1.18-1.28-2.45-2.48-3.68-3.72c-6.06-6.11-12.1-12.23-18.19-18.31c-3.01-3.01-6.07-3.3-8.54-0.98c-2.49,2.33-2.21,5.72,0.76,8.85 c0.94,1,1.91,1.97,2.9,2.92c5.18,5.01,10.38,10.01,16.39,15.8c-7.18,6.87-13.64,12.92-19.94,19.13 C199.16,156.67,199.26,160.04,201.46,162.21z"></path><path class="st0" d="M269.02,306.93c-6.22-0.46-12.45-0.91-19.02-1.4c0,2.21,0,4.78,0,7.48c-55.35,0-110.33,0-165.47,0 c0-79.34,0-158.48,0-237.65c55.27,0,110.25,0,165.58,0c0,22.65,0,45.05,0,66.98c6.52-0.3,12.71-0.58,19.39-0.89 c0-1.56,0-2.79,0-4.02c0-30.19,0.01-60.39-0.01-90.58c-0.01-15.22-9.2-24.36-24.53-24.37c-19.34-0.02-38.69,0-58.03,0 c-32.7,0-65.4,0.05-98.09-0.04c-6.4-0.02-12.08,1.53-16.83,5.91c-5.54,5.11-7.14,11.61-7.13,18.95 c0.07,101.81,0.05,203.62,0.05,305.44c0,0.87-0.01,1.75,0.02,2.62c0.4,12.96,9.47,22.14,22.39,22.16 c53.16,0.08,106.33,0.08,159.49,0c12.6-0.02,22.17-8.8,22.5-21.3c0.43-16.2,0.06-32.43,0.02-48.65 C269.37,307.36,269.14,307.15,269.02,306.93z M153.95,43.31c8.85-0.07,17.71-0.08,26.56,0.01c4.04,0.04,6.16,2.06,6.17,5.46 c0,3.39-2.11,5.4-6.15,5.51c-4.36,0.12-8.73,0.03-13.09,0.03c-4.49,0-8.98,0.08-13.47-0.02c-4.16-0.09-6.49-2.27-6.39-5.69 C147.67,45.34,149.93,43.34,153.95,43.31z M167.22,362.1c-8.58,0-15.54-6.96-15.54-15.54s6.96-15.54,15.54-15.54 s15.54,6.96,15.54,15.54S175.8,362.1,167.22,362.1z"></path></svg>