<svg xmlns="http://www.w3.org/2000/svg" xmlns:xlink="http://www.w3.org/1999/xlink" id="Layer_1" x="0px" y="0px" viewBox="0 0 400 400" style="enable-background:new 0 0 400 400;" xml:space="preserve"><style type="text/css">	.st0{fill:#322B6A;}</style><g>	<path class="st0" d="M260.7,46.13c0,15.54,0,30.28,0,45.17c15.18,0,30.1,0,45.99,0C291.12,76,276.15,61.3,260.7,46.13z"></path>	<path class="st0" d="M84.7,362.2c77.12,0,153.79,0,230.53,0c0-8.02,0-15.81,0-23.64c-76.98,0-153.73,0-230.53,0  C84.7,346.59,84.7,354.28,84.7,362.2z"></path>	<path class="st0" d="M315.26,103.45c-1.53,0-2.86,0-4.2,0c-17.97,0-35.93,0-53.9,0c-7.15,0-8.69-1.57-8.69-8.84  c-0.01-17.59,0-35.18,0-52.77c0-1.33,0-2.67,0-4.04c-54.9,0-109.33,0-163.74,0c0,65.37,0,130.45,0,195.74  c76.86,0,153.53,0,230.53,0C315.26,190.1,315.26,146.99,315.26,103.45z M154.36,186.66c0.77,0.81,1.57,1.6,2.29,2.47  c2.27,2.74,2.22,6.17-0.09,8.41c-2.38,2.31-5.84,2.46-8.36-0.12c-7.93-8.1-15.76-16.31-23.52-24.58c-2.52-2.69-2.53-5.68,0.01-8.39  c7.75-8.28,15.58-16.48,23.51-24.59c2.55-2.61,5.95-2.48,8.36-0.13c2.29,2.23,2.49,5.78,0.08,8.41  c-5.39,5.87-10.96,11.59-16.45,17.37c-0.93,0.98-1.84,1.98-2.96,3.19C143.19,174.94,148.77,180.8,154.36,186.66z M215.31,142.67  c-6.41,18.6-12.81,37.21-19.3,55.79c-0.6,1.71-1.41,4.05-2.76,4.63c-2.01,0.86-4.9,1.17-6.83,0.34c-2.76-1.18-3.37-4.06-2.32-7.06  c3.28-9.41,6.51-18.83,9.77-28.25c3.54-10.24,7.04-20.49,10.63-30.71c1.26-3.59,4.08-5.37,7.08-4.61c3.02,0.77,4.56,2.85,4.86,6.29  C216.12,140.07,215.75,141.39,215.31,142.67z M274.83,173.37c-7.44,7.89-14.92,15.74-22.47,23.52c-2.89,2.98-6.36,3.12-8.91,0.64  c-2.51-2.44-2.42-5.97,0.39-8.96c6.21-6.6,12.49-13.15,18.96-19.94c-5.85-6.14-11.51-12.07-17.16-18.01  c-0.86-0.9-1.76-1.77-2.53-2.75c-2.05-2.63-1.89-5.99,0.3-8.13c2.41-2.36,5.73-2.44,8.37,0.09c3.06,2.93,5.92,6.07,8.84,9.13  c4.74,4.95,9.51,9.87,14.17,14.9C277.95,167.25,277.96,170.05,274.83,173.37z"></path>	<path class="st0" d="M260.34,269.18c-3.21-0.2-6.44-0.04-10-0.04c0,3.86,0,7.26,0,10.85c3.53,0,6.76,0.14,9.98-0.04  c3.16-0.17,5.06-2.04,5.36-5.2C265.95,271.88,263.62,269.38,260.34,269.18z"></path>	<path class="st0" d="M60.19,246.01c0,26.79,0,53.29,0,79.96c93.34,0,186.45,0,279.62,0c0-26.79,0-53.31,0-79.96  C246.47,246.01,153.36,246.01,60.19,246.01z M171.74,307.37c-0.01,4.82-2.16,7.38-5.99,7.34c-3.78-0.04-5.92-2.66-5.96-7.47  c-0.05-6.41-0.01-12.81-0.01-19.22c-0.27-0.06-0.54-0.12-0.81-0.19c-1.52,2.49-3.3,4.86-4.53,7.49c-3.87,8.3-10.27,9.24-14.85-0.14  c-1.3-2.65-3.01-5.1-5.37-7.52c0,3.51,0,7.02,0,10.52c-0.01,3.61,0.09,7.23-0.07,10.84c-0.15,3.32-2.03,5.29-5.37,5.62  c-3.22,0.33-5.78-1.7-6.39-4.99c-0.18-0.97-0.14-1.99-0.14-2.98c-0.01-13.34,0.02-26.67-0.02-40.01c-0.01-3.48,0.55-6.58,4.41-7.71  c3.87-1.13,6,1.13,7.78,4.17c3.46,5.91,7.03,11.76,10.57,17.62c0.62,1.03,1.29,2.04,2.14,3.37c4.42-7.36,8.61-14.27,12.72-21.24  c1.73-2.94,3.86-4.97,7.55-3.96c3.72,1.01,4.4,3.9,4.38,7.29C171.72,279.95,171.77,293.66,171.74,307.37z M229.7,267.12  c-6.55,14.8-13.16,29.58-20.05,44.22c-0.75,1.6-3.48,3.15-5.28,3.13c-1.8-0.02-4.46-1.62-5.22-3.24  c-6.88-14.65-13.48-29.42-20.02-44.23c-1.44-3.25,0.07-6.55,3.03-7.83c3.15-1.36,6.38-0.13,8,3.39c4.07,8.82,7.99,17.7,11.98,26.55  c0.61,1.36,1.24,2.71,2.29,5c3.21-7.09,6.07-13.4,8.92-19.71c1.79-3.97,3.49-7.99,5.38-11.91c1.67-3.47,4.89-4.69,8.03-3.29  C229.69,260.53,231.15,263.84,229.7,267.12z M259.32,291.99c-2.96,0.03-5.93,0.01-9.3,0.01c0,5.2,0.06,10.03-0.02,14.85  c-0.06,3.01-1.33,5.38-4.44,6.16c-2.83,0.71-5.29-0.12-6.67-2.79c-0.59-1.15-0.78-2.62-0.79-3.95  c-0.08-14.22-0.12-28.44-0.11-42.66c0-4.26,2.54-6.67,6.82-6.64c4.86,0.03,9.73,0.07,14.59,0.15c10.6,0.18,18.52,7.81,18.34,17.65  C277.55,284.55,269.74,291.87,259.32,291.99z"></path></g></svg>