<svg xmlns="http://www.w3.org/2000/svg" xmlns:xlink="http://www.w3.org/1999/xlink" id="Layer_1" x="0px" y="0px" viewBox="0 0 400 400" style="enable-background:new 0 0 400 400;" xml:space="preserve"><style type="text/css">	.st0{fill:#322B6A;}</style><g>	<path class="st0" d="M345.43,275.97c-96.85,0-193.78,0-291.46,0c0,5.01-0.21,9.46,0.04,13.88c0.58,9.97,8.53,15.72,21.69,15.73  c82.13,0.02,164.27,0.01,246.4,0.01C341.94,305.59,349.09,296.64,345.43,275.97z"></path>	<path class="st0" d="M243.51,324.75c-1.7-1.33-4.2-1.64-6.08-2.33c-0.23-3.49-0.42-6.34-0.64-9.71c-25.19,0-49.54,0-74.24,0  c-0.23,3.57-0.43,6.65-0.61,9.57c-16.2,6.21-23.1,12.73-25.3,23.7c-1.72,8.56-0.32,10.34,8.45,10.34  c35.02,0.03,70.04,0.01,105.06,0.01c15.01,0,17.97-4.54,9.6-17.56C256.03,333,249.18,329.16,243.51,324.75z"></path>	<path class="st0" d="M345.69,267.36c0-3.02,0-5.38,0-7.74c0-49.76,0.02-99.51-0.01-149.27c-0.01-16.42-6.03-22.46-22.32-22.46  c-15.67,0-31.34,0-47.01,0v29.47H123V87.9c-15.35,0-30.7,0-46.05,0c-17.44,0-23.27,5.77-23.28,23.15  c-0.03,49.49-0.02,98.99,0,148.48c0,2.56,0.23,5.12,0.36,7.83C151.44,267.36,248.36,267.36,345.69,267.36z M181.09,253.5  c-3-0.22-4.53-2.11-5.04-5c-1.46-8.23-3.06-16.44-4.41-24.68c-0.44-2.66-1.43-3.79-4.29-3.67c-5.16,0.22-10.34,0.09-15.51,0.05  c-4.53-0.04-6.19-1.5-6.88-5.94c-1.32-8.51-2.52-17.03-3.96-25.51c-0.78-4.63,0.55-8.37,4.25-11.03c3.93-2.82,8.3-2.65,12.64-0.8  c0.89,0.38,1.73,0.96,2.49,1.58c6.9,5.66,14.71,8.06,23.67,7.15c3.78-0.39,6.14,1.65,5.88,4.45c-0.32,3.35-2.57,4.41-5.71,4.37  c-6.87-0.09-13.85,0.68-20.77-3.72c0.5,6.66,0.93,12.41,1.4,18.72c3.05,0,5.96-0.02,8.86,0.01c4.85,0.05,6.11,1.04,6.98,5.7  c1.92,10.27,3.82,20.54,5.63,30.83C187.1,250.47,184.76,253.77,181.09,253.5z M203.41,205.53c0,14.2,0,27.85,0,41.49  c0,1.11,0.39,2.45-0.09,3.27c-0.88,1.49-2.28,2.67-3.46,3.98c-1.19-1.31-2.56-2.51-3.51-3.98c-0.45-0.7-0.09-1.92-0.09-2.9  c0-12.42,0-24.84,0-37.26c0-1.34,0-2.67,0-4.5c-5.56,0-10.81,0.01-16.06,0c-2.21,0-4.55,0.37-6.6-0.21  c-1.26-0.36-2.75-2.15-2.9-3.44c-0.11-0.96,1.68-2.26,2.81-3.17c0.46-0.37,1.43-0.16,2.16-0.16c16-0.01,31.99-0.01,47.99-0.01  c0.37,0,0.74,0.01,1.11,0.01c2.46-0.01,4.2,1.05,4.1,3.64c-0.09,2.35-1.76,3.29-4.08,3.27c-5.78-0.04-11.57-0.01-17.35-0.01  C206.24,205.53,205.03,205.53,203.41,205.53z M262.93,188.58c0.42-2.21,1.62-3.76,4-3.37c2.56,0.41,3.22,2.3,2.83,4.72  c-1.31,8.13-2.57,16.26-3.86,24.39c-0.29,1.82-0.53,3.65-0.95,5.44c-1.62,6.91-7.17,11.42-14.29,11.62  c-2.46,0.07-4.92,0.01-7.38,0.01c-2.58,0-5.26,0.41-7.72-0.15c-1.52-0.35-2.69-2.17-4.02-3.33c1.29-1.22,2.48-3.34,3.88-3.48  c4.51-0.46,9.09-0.16,13.64-0.2c6.13-0.05,8.69-2.24,9.65-8.33c1.34-8.49,2.61-17,3.91-25.5  C262.7,189.79,262.81,189.18,262.93,188.58z M247.31,149.46c6.29-0.01,11.53,5.23,11.55,11.54c0.02,6.38-5.08,11.47-11.51,11.48  c-6.47,0.01-11.48-4.98-11.48-11.44C235.86,154.67,241,149.47,247.31,149.46z M240.78,177.2c4.29-2.46,8.76-2.56,12.94,0.16  c4.02,2.62,5.27,6.54,4.52,11.26c-1.37,8.62-2.58,17.27-3.92,25.9c-0.61,3.92-2.39,5.44-6.54,5.53c-5.42,0.12-10.84,0.2-16.26,0.11  c-2.37-0.04-3.5,0.63-3.9,3.17c-1.27,7.89-2.82,15.73-4.26,23.59c-0.16,0.85-0.29,1.7-0.54,2.52c-0.92,3.02-3.41,4.67-6.11,3.93  c-3.06-0.83-4.61-3-4.08-6.09c1.89-11.03,3.94-22.03,5.95-33.03c0.61-3.32,2.79-4.76,6.03-4.79c3.17-0.02,6.35-0.01,9.84-0.01  c0.45-6.28,0.86-11.91,1.34-18.57c-6.76,4.27-13.76,3.53-20.67,3.54c-3.95,0-6-1.56-5.82-4.53c0.21-3.5,2.57-4.41,5.65-4.34  c2.46,0.05,5,0.39,7.37-0.08c3.54-0.7,7.1-1.68,10.38-3.14C235.58,181.05,238.01,178.79,240.78,177.2z M206.41,132.08  c0.02-0.59,1.61-1.67,2.42-1.62c8.41,0.54,16.53,8.75,16.93,17.15c0.04,0.8-1.24,2.36-1.94,2.38c-5.62,0.2-11.25,0.11-17.52,0.11  C206.3,143.78,206.23,137.93,206.41,132.08z M178.19,171.59c0.16-0.58,0.52-1.11,0.86-1.62c2.56-3.84,3.66-7.46,2.6-12.55  c-2.38-11.44,7.81-22.6,19.52-21.88c0,6.44,0,12.67,0,19.52c6.74,0,13.17,0,19.56,0c0.29,13.86-14.34,23.77-26.8,18.36  c-3.66-1.59-6.66-1.56-10.08-0.36c-1.16,0.4-2.34,0.81-3.54,0.98c-0.73,0.1-1.69-0.06-2.23-0.49  C177.78,173.3,178.02,172.23,178.19,171.59z M152.19,149.47c6.31,0.07,11.4,5.29,11.36,11.66c-0.04,6.43-5.11,11.4-11.58,11.35  c-6.41-0.05-11.47-5.17-11.41-11.56C140.63,154.61,145.92,149.4,152.19,149.47z M132.26,185.26c3.11-0.62,4.02,1.66,4.41,4.16  c1.33,8.49,2.67,16.99,3.91,25.49c1.04,7.15,3.43,9.29,10.67,9.31c4.06,0.01,8.12,0,12.18,0.01c2.38,0.01,4.31,0.92,4.26,3.51  c-0.05,2.51-1.9,3.53-4.31,3.54c-2.58,0.01-5.17,0-7.75,0c-2.21,0-4.43,0.06-6.64-0.01c-7.89-0.24-13.77-5.36-15.01-13.12  c-1.48-9.22-2.88-18.44-4.34-27.66C129.25,188.09,129.46,185.82,132.26,185.26z"></path>	<path class="st0" d="M144.46,104.41c1.64,0,2.82-0.51,3.54-1.54c0.72-1.03,1.59-3.01,2.61-5.95l2.61-7.53h22.19l2.61,7.37  c0.35,0.91,0.76,1.96,1.25,3.15c0.48,1.19,0.94,2.07,1.36,2.64c0.42,0.58,0.94,1.03,1.56,1.36c0.62,0.33,1.37,0.5,2.23,0.5  c1.49,0,2.76-0.57,3.82-1.7c1.06-1.13,1.58-2.38,1.58-3.75c0-1.31-0.56-3.41-1.68-6.29l-14.26-37.9c-0.67-1.9-1.22-3.41-1.66-4.55  c-0.43-1.14-0.97-2.2-1.6-3.19c-0.63-0.99-1.47-1.8-2.49-2.42c-1.03-0.63-2.32-0.94-3.85-0.94c-1.51,0-2.79,0.32-3.82,0.94  c-1.03,0.63-1.86,1.45-2.49,2.46c-0.63,1.01-1.23,2.29-1.79,3.83c-0.56,1.54-1.04,2.85-1.43,3.95l-13.96,38.14  c-0.57,1.52-0.98,2.71-1.23,3.57c-0.25,0.86-0.37,1.68-0.37,2.48c0,1.39,0.53,2.63,1.6,3.73  C141.84,103.86,143.06,104.41,144.46,104.41z M164.19,56.2l8.23,24.24h-16.31L164.19,56.2z"></path>	<path class="st0" d="M203.92,104.41c1.59,0,2.9-0.62,3.95-1.84c1.04-1.23,1.56-3.03,1.56-5.41V80.53h10.13  c6.78,0,11.88-1.54,15.3-4.63c3.43-3.09,5.14-7.62,5.14-13.6c0-2.8-0.42-5.33-1.27-7.57c-0.84-2.24-2.08-4.14-3.71-5.69  c-1.63-1.55-3.56-2.66-5.79-3.32c-2.26-0.69-5.49-1.04-9.68-1.04h-14.19c-2.43,0-4.21,0.56-5.32,1.68  c-1.12,1.12-1.68,2.99-1.68,5.61v45.28c0,2.35,0.51,4.13,1.53,5.35C200.91,103.8,202.25,104.41,203.92,104.41z M209.43,53.6h7.45  c4.94,0,8.2,0.87,9.79,2.6c1.42,1.63,2.12,3.74,2.12,6.33c0,2.16-0.46,3.91-1.38,5.25c-0.92,1.33-2.25,2.3-4,2.88  c-1.75,0.59-3.93,0.88-6.53,0.88h-7.45V53.6z"></path>	<path class="st0" d="M254.59,104.41c1.66,0,3.01-0.6,4.04-1.8c1.03-1.2,1.55-3.02,1.55-5.45V50.88c0-2.43-0.52-4.24-1.55-5.43  c-1.03-1.19-2.38-1.78-4.04-1.78c-1.61,0-2.93,0.6-3.95,1.8c-1.02,1.2-1.53,3-1.53,5.41v46.28c0,2.4,0.51,4.22,1.55,5.43  C251.69,103.8,253,104.41,254.59,104.41z"></path>	<path class="st0" d="M276.38,68.63h1.29c0.27,0.05,0.58,0.06,0.95,0.06c5.45-0.09,10.9,0.01,16.35-0.14  c1.86-0.05,2.76,0.52,3.58,2.22c4.76,9.8,17.79,11.93,26.4,3.23c3.28-3.89,4.74-9.45,2.32-15.66c-2.46-6.31-7.31-9.74-14-10.03  c-6.69-0.3-11.86,2.67-14.74,8.82c-0.87,1.85-1.78,2.46-3.73,2.4c-3.35-0.1-6.7-0.02-10.05,0.02h-8.37v3.05  c-0.05,0.71-0.04,1.61,0,2.7V68.63z"></path>	<path class="st0" d="M100.8,70.77c0.83-1.71,1.72-2.28,3.58-2.22c5.44,0.15,10.9,0.05,16.35,0.14c0.37,0.01,0.68-0.01,0.95-0.06  h1.29V65.3c0.04-1.09,0.05-1.99,0-2.7v-3.05h-8.37c-3.35-0.04-6.7-0.12-10.05-0.02c-1.95,0.06-2.86-0.55-3.73-2.4  c-2.89-6.15-8.05-9.11-14.74-8.82c-6.69,0.29-11.54,3.72-14,10.03c-2.42,6.2-0.96,11.76,2.32,15.66  C83.01,82.71,96.04,80.57,100.8,70.77z"></path></g></svg>