<svg xmlns="http://www.w3.org/2000/svg" xmlns:xlink="http://www.w3.org/1999/xlink" id="Layer_1" x="0px" y="0px" viewBox="0 0 400 400" style="enable-background:new 0 0 400 400;" xml:space="preserve"><style type="text/css">	.st0{fill:#322B6A;}</style><g>	<path class="st0" d="M346.38,165.23c-1.79-1.03-2.82-2.22-3.25-4.25c-3-14.35-11.83-23.14-25.93-26.64  c-1.95-0.48-2.32-1.26-1.87-2.91c0.73-2.68,0.68-5.42,0.72-8.15c0.43-33.28-30.89-57.31-63.01-48.5c-7,1.92-13.08,5.42-19,9.77  c-2.71-7.54-5.54-14.7-10.94-20.47c-10.31-13.12-24.27-19.79-40.46-20.96c-24.04-1.74-42.78,7.78-55.12,28.85  c-1.09,1.86-2.02,2.26-4.17,1.95c-28.53-4.12-51.85,4.93-68.86,28.41c-17.59,24.27-19.38,56.84-4.13,80.59  c14.79,23.03,36.66,33.79,63.8,33.89c34.74,0.13,69.47,0.02,104.21,0c1.3,0,2.59-0.18,3.89-0.27c0.01-16.93,0.02-33.85,0.03-50.78  c-4.64-0.02-9.28,0.05-13.92-0.12c-2.11-0.08-2.59,0.71-2.56,2.66c0.11,5.95,0.06,11.9,0.03,17.84c-0.02,4.38-2.27,7.19-5.7,7.22  c-3.53,0.03-5.74-2.64-5.74-7.09c-0.02-17.61-0.02-35.22,0-52.82c0.01-5.1,1.99-7.03,7.18-7.06c6.9-0.04,13.8-0.05,20.7-0.07  c11.7,2.6,18.05,9.7,17.94,20.07c-0.11,9.91-6.52,16.83-17.94,19.36c-0.01,16.93-0.02,33.85-0.03,50.78c1.05,0.1,2.11,0.3,3.17,0.3  c35.22,0.01,70.44,0.02,105.66,0c5.41,0,10.46-1.22,15.2-4.07c9.03-5.43,13.69-13.42,13.72-23.75  C360.03,178.67,355.53,170.47,346.38,165.23z M186.07,186.87c-0.01,3.93-2.31,6.43-5.62,6.47c-3.2,0.04-5.72-2.61-5.79-6.41  c-0.1-6.06-0.16-12.13,0.03-18.18c0.08-2.58-0.79-3.2-3.23-3.12c-5.58,0.17-11.18,0.22-16.76-0.02c-2.83-0.12-3.34,0.89-3.27,3.44  c0.18,5.94,0.07,11.88,0.05,17.83c-0.01,2.72-1.17,4.8-3.64,6.03c-2.04,1.01-3.95,0.52-5.67-0.78c-1.79-1.35-2.14-3.28-2.12-5.4  c0.04-7.01,0.02-14.03,0.02-21.04c0-6.54-0.07-13.08,0.02-19.61c0.16-11.21,8.47-19.46,19.7-19.64c3.09-0.05,6.22-0.22,9.26,0.18  c9.72,1.26,16.82,9.06,16.97,18.91C186.21,159.29,186.12,173.08,186.07,186.87z M254.46,193.83c-3.54,0.02-5.71-2.44-5.72-6.67  c-0.04-8.92-0.01-17.85-0.01-26.77c0-8.8-0.02-17.61,0.01-26.41c0.01-4.21,2.21-6.8,5.64-6.8c3.46,0,5.75,2.58,5.76,6.74  c0.03,17.73,0.03,35.46,0,53.19C260.13,191.34,257.99,193.81,254.46,193.83z"></path>	<path class="st0" d="M296.99,275.51c-1.54-1.65-3.26-3.13-4.77-4.82c-10.21-11.44-5.58-29.14,8.83-33.97  c4.06-1.36,8.22-1.04,12.37-1.03c2.57,0.01,4.68-0.74,6.04-3.02c1.71-2.87,0.92-4.35-2.37-4.36c-18.67-0.01-37.34,0.04-56.01-0.07  c-2.47-0.02-3.51,0.78-4.27,3.07c-3.95,11.97-11.1,21.69-21.23,29.16c-8.41,6.2-18.02,9.45-28.27,10.98  c-10.82,0.6-21.41-0.05-31.52-4.61c-16.08-7.25-26.92-19.18-32.56-35.82c-0.7-2.05-1.57-2.81-3.74-2.76  c-6.42,0.16-12.85,0.26-19.27,0.1c-11.53-0.29-23.08-0.52-34.21-4.14c-6.94-2.25-6.99-2.21-6.01,5.39c0.59,4.57,2.16,6,6.7,6.07  c2.14,0.03,4.29-0.09,6.42,0.04c8.57,0.52,15.05,4.47,18.49,12.4c3.47,8,2.27,15.59-3.45,22.29c-1.62,1.89-3.57,3.49-5.24,5.35  c-3.04,3.39-2.99,6.08,0.24,9.36c8.01,8.13,16.06,16.23,24.15,24.3c2.6,2.59,4.72,2.49,7.8,0.35c2.36-1.64,4.22-3.78,6.37-5.63  c6.16-5.29,13.15-7.06,20.9-4.3c7.66,2.73,12.16,8.17,13.62,16.3c0.62,3.45,0.33,6.86,0.53,10.28c0.2,3.5,2.13,5.67,5.45,5.68  c8.44,0.05,16.89-0.04,25.33-0.08c3.56,0.04,7.13,0.2,10.69,0.09c3.43-0.11,5.49-2.19,5.69-5.61c0.14-2.37,0.02-4.76,0.05-7.13  c0.19-14.27,13.57-23.86,27.2-19.7c5.44,1.66,8.92,5.68,12.75,9.37c3.29,3.17,6.05,3.21,9.3,0c8.03-7.94,16.02-15.94,23.97-23.96  C300.32,281.69,300.29,279.06,296.99,275.51z"></path>	<path class="st0" d="M104.51,302.45c-1.66-1.62-2.51-1.33-3.94,0.14c-4.8,4.94-9.79,9.7-14.58,14.65  c-1.49,1.54-2.72,2.28-4.87,1.16c-2.11-1.1-4.51-1.42-6.92-1.34c-12.98-0.01-22.63,12.29-19.48,24.84  c2.78,11.09,14.12,17.56,25.18,14.38c10.73-3.09,16.89-14.72,13.18-25.42c-0.94-2.7-0.49-4.27,1.52-6.1  c3.51-3.2,6.75-6.68,10.11-10.05C110.87,308.53,110.8,308.6,104.51,302.45z"></path>	<path class="st0" d="M319.47,318.29c-2.44,0.87-3.8,0.59-5.48-1.22c-3.31-3.57-6.86-6.92-10.31-10.36  c-6.39-6.38-6.33-6.32-12.5,0.25c-1.47,1.56-1.16,2.4,0.18,3.71c4.93,4.82,9.69,9.81,14.67,14.57c1.7,1.63,1.99,2.94,1.19,5.2  c-4.58,13,5.09,26.61,20.58,26.62c6.42-0.51,12.72-4.15,16.14-11.84c3.49-7.83,2.25-15.24-3.43-21.52  C334.83,317.42,327.57,315.42,319.47,318.29z"></path>	<path class="st0" d="M168.15,138.03c-11.91-2.74-17.18,1.66-16.69,13.79c0.07,1.8,0.49,2.55,2.41,2.46  c2.97-0.14,5.94-0.04,8.92-0.04c1.31,0,2.62,0,3.93,0c8.55,0,8.55,0,7.88-8.66C174.29,141.72,171.87,138.89,168.15,138.03z"></path>	<path class="st0" d="M221.4,137.91c-2.24-0.19-4.51-0.03-6.77-0.03c0-0.01,0-0.02,0-0.03c-2.26,0-4.52,0.07-6.77-0.02  c-1.56-0.06-2.08,0.55-2.05,2.07c0.07,4.16,0.05,8.31,0.01,12.47c-0.01,1.33,0.42,1.93,1.83,1.91c4.63-0.07,9.28,0.16,13.89-0.14  c4.38-0.28,7.34-3.84,7.32-8.16C228.83,141.69,225.77,138.28,221.4,137.91z"></path></g></svg>