<svg xmlns="http://www.w3.org/2000/svg" xmlns:xlink="http://www.w3.org/1999/xlink" id="Layer_1" x="0px" y="0px" viewBox="0 0 400 400" style="enable-background:new 0 0 400 400;" xml:space="preserve"><style type="text/css">	.st0{fill:#322B6A;}</style><g>	<path class="st0" d="M57.73,366.97c-2.2-0.54-4.43-0.98-6.6-1.64c-11.17-3.38-17.97-12.58-18.14-25.04  c-0.24-16.85,6.63-31.04,17.43-43.44c11.43-13.11,25.63-21.29,43.27-22.76c0.31-0.03,0.6-0.19,1.74-0.58  c-9.68-2.11-17.07-6.53-21.73-14.64c-4.68-8.13-5.6-16.82-2.98-25.8c4.09-14.01,17.54-23.13,32.09-21.93  c15.49,1.28,27.22,12.9,28.95,28.66c1.67,15.22-7.87,28.13-25.75,33.91c3.16,0.5,5.49,0.83,7.82,1.25  c28.21,5,53.69,34.62,54.21,62.79c0.28,15.27-7.78,26.81-23.64,28.77c-0.41,0.05-0.8,0.31-1.2,0.47  C114.71,366.97,86.22,366.97,57.73,366.97z"></path>	<path class="st0" d="M256.74,366.97c-2.2-0.53-4.44-0.96-6.61-1.61c-11-3.32-17.82-12.33-18.16-24.35  c-0.49-17.25,6.5-31.71,17.55-44.35c11.29-12.91,25.32-20.98,42.69-22.53c0.4-0.04,0.78-0.22,2.11-0.62  c-9.37-2.11-16.48-6.23-21.18-13.77c-4.65-7.46-5.91-15.57-4.13-24.11c3.09-14.77,15.36-24.52,30.72-24.57  c14.36-0.05,27.17,10.32,30.35,24.83c1.88,8.57,0.33,16.65-4.54,23.98c-4.75,7.15-11.54,11.47-19.74,13.97  c2.84,0.47,5.71,0.8,8.51,1.43c25.84,5.81,48.19,29.98,52.1,56.25c0.11,0.74,0.4,1.45,0.6,2.17c0,3.26,0,6.53,0,9.79  c-0.22,0.7-0.5,1.39-0.65,2.11c-2.23,10.67-8.49,17.5-19.14,20.15c-1.66,0.42-3.33,0.82-5,1.23  C313.73,366.97,285.23,366.97,256.74,366.97z"></path>	<path class="st0" d="M199.05,96c-20.25-3.23-31.51-16.06-30.26-33.55c1.23-17.12,14.33-29.36,31.47-29.42  c15.79-0.05,29.79,12.99,31.02,28.69c1.25,16.07-9.76,32.02-29.26,34.17c4.77,0.75,9.09,1.22,13.3,2.13  c28.12,6.07,48.07,28.13,51.19,56.71c0.5,4.6,0.89,9.42,0.04,13.9c-2.19,11.66-12.22,19.98-24.05,20.06  c-28.37,0.17-56.74,0.21-85.11-0.01c-13.92-0.11-25.07-11.71-24.64-25.56c0.7-22.8,9.22-41.81,28.4-55.13  c9.46-6.57,20.09-10.16,31.55-11.27C194.52,96.54,196.33,96.31,199.05,96z"></path>	<path class="st0" d="M187.31,242.32c8.47,0,16.71,0,25.22,0c-0.25-0.79-0.43-1.45-0.67-2.1c-1.74-4.82-0.08-9.55,4.24-12.07  c4.36-2.54,9.37-1.74,12.47,2.52c3.95,5.44,7.64,11.09,11.22,16.79c2.16,3.45,1.76,7.08-0.45,10.45  c-3.27,4.99-6.56,9.98-9.94,14.91c-3.28,4.78-8.52,6.24-13.05,3.79c-4.59-2.48-6.22-7.45-4.23-12.88c0.18-0.49,0.29-1,0.47-1.64  c-8.43,0-16.67,0-25.24,0c0.3,0.88,0.55,1.63,0.8,2.38c1.64,4.84-0.13,9.65-4.43,12.05c-4.16,2.33-9.54,1.31-12.5-2.81  c-3.86-5.38-7.49-10.93-11.02-16.53c-2.17-3.44-1.88-7.07,0.33-10.45c3.33-5.09,6.66-10.18,10.12-15.18  c3.36-4.86,8.37-6.11,13.04-3.48c4.67,2.63,6.15,7.39,4.01,12.89C187.59,241.26,187.53,241.57,187.31,242.32z"></path>	<path class="st0" d="M75.37,193.18c-5.82-0.08-10.49-5.3-9.65-11.15c4.62-32.26,18.78-59.6,42.69-81.77  c4.61-4.27,9.68-8.06,14.74-11.8c5.32-3.93,11.38-3.15,14.65,1.52c3.29,4.69,2,10.66-3.37,14.39  c-18.09,12.6-31.66,28.94-40.61,49.09c-4.34,9.78-7.09,20.03-8.68,30.6C84.31,189.63,80.31,193.25,75.37,193.18z"></path>	<path class="st0" d="M334.33,183.04c-0.06,5.4-3.95,9.59-9.1,10.09c-4.9,0.48-9.34-3.12-10.38-8.41  c-0.94-4.79-1.61-9.66-2.88-14.36c-7.42-27.36-22.85-49.16-45.85-65.71c-2.24-1.61-4.29-4.1-5.3-6.63  c-1.54-3.84,0.32-7.97,3.62-10.31c3.53-2.5,7.71-2.5,11.57,0.15c10.46,7.17,19.82,15.55,27.92,25.32  c16.48,19.89,26.5,42.64,30.22,68.19C334.24,182.01,334.29,182.66,334.33,183.04z"></path></g></svg>