<svg xmlns="http://www.w3.org/2000/svg" xmlns:xlink="http://www.w3.org/1999/xlink" id="Layer_1" x="0px" y="0px" viewBox="0 0 400 400" style="enable-background:new 0 0 400 400;" xml:space="preserve"><style type="text/css">	.st0{fill:#322B6A;}</style><g>	<path class="st0" d="M68.43,281.84c0-71.47,0-142.21,0-213.57c87.69,0,175.1,0,263.03,0c0,71.04,0,141.97,0,213.57  C244.05,281.84,156.63,281.84,68.43,281.84z M306.95,262.32c0-56.93,0-113.12,0-169.57c-71.52,0-142.58,0-213.78,0  c0,56.81,0,113,0,169.57C164.51,262.32,235.41,262.32,306.95,262.32z"></path>	<path class="st0" d="M200.42,291.86c46.39,0,92.78-0.01,139.17,0.01c11.36,0,11.93,0.94,8.73,11.68  c-8.57,28.84-8.59,28.24-38.57,28.17c-77.31-0.17-154.63-0.05-231.95-0.06c-13.91,0-18.09-3.04-22.28-16.1  c-1.68-5.23-3.35-10.46-4.95-15.71c-1.62-5.32,0.24-8.02,5.97-7.99c10.75,0.06,21.49,0,32.24,0  C125.99,291.86,163.2,291.86,200.42,291.86z M88.9,315.67c3.81,0,6.97,0,10.51,0c-0.15-3.27-0.28-5.93-0.41-8.92  c-3.98,0.2-6.94,0.34-10.09,0.5C88.9,310.39,88.9,312.66,88.9,315.67z M121.24,315.83c-0.18-3.35-0.32-6-0.45-8.41  c-3.92,0-6.88,0-9.97,0c0,3.05,0,5.52,0,8.41C114.15,315.83,117.14,315.83,121.24,315.83z M132.87,307.27c0,3.13,0,5.83,0,8.42  c3.53,0,6.53,0,9.64,0c0-3.04,0-5.53,0-8.42C139.26,307.27,136.46,307.27,132.87,307.27z"></path>	<path class="st0" d="M141.95,216.25c3.99-3.18,8.09-6.44,12.15-9.67c-2.49-6.03-4.54-11.02-6.77-16.42c-5.15,0-10.35,0-16.16,0  c0-8.38,0-16.32,0-25.03c5.35,0,10.73,0,15.95,0c2.3-5.5,4.31-10.29,6.98-16.67c-3.95-2.77-8.46-5.93-13.01-9.12  c7.66-7.26,13.65-12.92,20.07-19c5.89,10.78,14.87,12.26,26.32,3.47c0-4.19,0-9.6,0-15.44c8.48,0,16.24,0,24.83,0  c0,5.27,0,10.63,0,15.03c11.47,9.24,20.56,7.9,27.48-4.45c6.25,6.68,11.78,12.57,17.64,18.84c-3.36,3.54-7.08,7.44-10.91,11.47  c2.13,5.21,4.17,10.22,6.37,15.63c5.26,0,10.45,0,16.15,0c0,8.45,0,16.4,0,25.69c-6.65,0-13.21,0.7-19.54-0.21  c-5.54-0.79-7.39-5.09-7.19-10.96c0.76-22.04-12.05-39.64-32.91-44.88c-16.43-4.13-31.54-1.04-42.91,12.24  c-12.06,14.09-15.2,30.35-7.55,47.59c7.07,15.93,19.78,24.81,37.3,25.83c16.47,0.96,16.49,0.7,16.47,17.65c0,2.61,0,5.22,0,8.48  c-8.2,0-16.16,0-24.88,0c0-5.11,0-10.48,0-15.91c-5.59-2.36-10.56-4.46-17.11-7.22c-3.01,3.97-6.33,8.35-9.88,13.02  C154.17,229.16,148.63,223.3,141.95,216.25z"></path>	<path class="st0" d="M201.24,166.82c-7.13-6-14.26-12.01-22.33-18.8c14.49-7.14,26.98-7.81,38.85,0.24  c11.88,8.05,17.05,19.82,14.69,33.96c-0.79,4.75,0.62,7.2,3.58,10.09c11.38,11.12,22.62,22.38,33.59,33.27  c-7.54,7.59-14.46,14.55-21.82,21.96c-10.74-10.74-21.71-21.54-32.46-32.55c-3.46-3.54-6.48-5.39-12.12-4.54  c-14.2,2.14-25.76-3.37-33.49-15.58c-7.5-11.85-6.74-24.01,0.11-37.57c6.97,7.56,13.29,14.41,20.31,22.02  c3.55-4.38,6.16-7.59,8.76-10.8C199.68,167.95,200.46,167.39,201.24,166.82z"></path></g></svg>