<svg xmlns="http://www.w3.org/2000/svg" xmlns:xlink="http://www.w3.org/1999/xlink" id="Layer_1" x="0px" y="0px" viewBox="0 0 400 400" style="enable-background:new 0 0 400 400;" xml:space="preserve"><style type="text/css">	.st0{fill:#322B6A;}</style><g>	<path class="st0" d="M111.86,145.39c1.63,4.28,2.62,4.97,7.17,4.99c5.96,0.03,5.89,0.06,8.09,5.68c1.29,3.3,2.75,6.55,4.37,9.69  c0.85,1.64,0.75,2.7-0.64,3.88c-1.39,1.18-2.66,2.52-3.87,3.89c-2.05,2.31-2.23,5.12-0.13,7.27c7.31,7.47,14.69,14.86,22.16,22.16  c2.11,2.06,5.42,2.11,7.18-0.36c3.81-5.33,7.8-5.38,12.83-1.93c1.9,1.3,4.3,2.14,6.58,2.56c3.27,0.6,4.15,2.34,3.75,5.34  c-0.17,1.27-0.09,2.59,0,3.87c0.21,3.08,2.06,5.11,5.13,5.14c10.34,0.1,20.68,0.1,31.02,0c3.19-0.03,5.57-2.23,5.07-5.41  c-0.98-6.23,1.5-9.1,7.45-10.28c2.87-0.57,5.55-2.29,8.2-3.71c1.51-0.81,2.5-0.72,3.61,0.57c1.19,1.38,2.53,2.65,3.88,3.88  c2.41,2.18,5.24,2.36,7.52,0.14c7.39-7.23,14.7-14.54,21.94-21.93c2.1-2.15,2.27-5.48-0.14-7.19c-5.64-4-5.21-8.23-1.88-13.4  c1.42-2.2,2.06-4.95,2.83-7.52c0.5-1.69,1.19-2.61,3.11-2.36c1.27,0.17,2.58,0.04,3.87,0.03c4.57-0.02,5.55-0.69,7.22-5.05  c6.61,0,13.27,0,20.18,0c0,48.08,0,96.16,0,144.47c-72.13,0-144.34,0-216.76,0c0-48.06,0-96.15,0-144.41  C98.31,145.39,104.94,145.39,111.86,145.39z M231.14,279.56c0-7.91,0-15.49,0-24c0.94,1.72,1.46,2.61,1.92,3.53  c2.85,5.67,5.6,11.39,8.57,17c2.25,4.25,7.09,4.47,9.61,0.58c0.52-0.81,0.9-1.71,1.33-2.58c2.96-5.91,5.92-11.82,8.89-17.73  c0.22,0.05,0.45,0.1,0.67,0.15c0,7.66,0,15.31,0,22.93c3.64,0,6.91,0,10.3,0c0-15.22-0.03-30.18,0.02-45.15  c0.01-3.03-0.9-5.42-4-6.18c-3.12-0.76-5.02,0.99-6.36,3.69c-4.51,9.17-9.1,18.31-13.67,27.45c-0.51,1.02-1.1,1.99-1.86,3.36  c-0.76-1.38-1.35-2.36-1.86-3.38c-4.57-9.14-9.15-18.28-13.67-27.45c-1.34-2.71-3.26-4.44-6.37-3.67c-3.1,0.77-3.99,3.17-3.98,6.2  c0.06,14.33,0.02,28.66,0.03,42.99c0,0.72,0.1,1.44,0.16,2.27C224.27,279.56,227.46,279.56,231.14,279.56z M215.51,279.56  c-0.14-8.59-3.05-15.81-8.25-22.22c0.45-0.36,0.78-0.64,1.12-0.89c6.18-4.52,8.55-11.09,6.41-17.78c-2.11-6.6-8.04-10.68-15.6-10.7  c-6.13-0.02-12.27-0.02-18.4,0c-4.86,0.02-6.61,1.76-6.62,6.61c-0.02,11.09-0.01,22.17-0.01,33.26c0,3.85,0,7.69,0,11.66  c3.57,0,6.83,0,10.44,0c0-6.9,0-13.62,0-21.16c3.84,0.72,7.75,0.49,10.48,2.17c6.86,4.19,9.66,11.17,10.25,19.06  C208.77,279.56,211.96,279.56,215.51,279.56z M168.84,243.38c-0.13-8.29-6.33-14.94-14.31-15.35c-4.19-0.21-8.41-0.23-12.6,0.01  c-7.68,0.43-14.03,6.86-14.25,14.56c-0.21,7.43-0.2,14.87-0.01,22.3c0.2,7.85,6.62,14.32,14.46,14.71c4.08,0.2,8.19,0.2,12.28,0  c8.18-0.39,14.82-7.56,14.27-15.33c-3.2,0-6.41,0-9.84,0c-0.83,4.35-3.9,5.34-7.89,5.08c-2.47-0.17-4.96,0.03-7.43-0.05  c-3.46-0.12-5.47-2.01-5.52-5.42c-0.09-6.68-0.09-13.36,0-20.04c0.05-3.58,2.05-5.45,5.73-5.54c2.58-0.06,5.17-0.02,7.76-0.01  c4.76,0.01,5.67,0.62,7.49,5.07C162.15,243.38,165.36,243.38,168.84,243.38z"></path>	<path class="st0" d="M163.82,321.06c0,2.06-0.04,3.76,0.01,5.46c0.24,8.33,6.72,15.08,15.02,15.17c14.11,0.16,28.23,0.16,42.34,0  c8.3-0.09,14.77-6.83,15.02-15.17c0.05-1.7,0.01-3.4,0.01-5.31c1.3-0.06,2.35-0.15,3.39-0.15c34.37-0.01,68.74-0.01,103.11,0  c5.74,0,7.28,1.55,7.3,7.25c0.01,2.59,0.02,5.17,0,7.76c-0.11,9.44-6.67,15.93-16.17,16.02c-0.32,0-0.65,0-0.97,0  c-88.56,0-177.13,0-265.69,0c-8.95,0-15.45-4.55-16.72-12.51c-0.74-4.63-0.47-9.45-0.26-14.17c0.11-2.49,2.02-3.97,4.55-4.29  c1.06-0.13,2.15-0.06,3.23-0.06c33.94,0,67.88,0,101.82,0C160.96,321.06,162.14,321.06,163.82,321.06z"></path>	<path class="st0" d="M288.02,134.87c0-3.63,0-6.75,0-10.04c0.64-0.11,1.25-0.29,1.85-0.29c11.1-0.02,22.2-0.04,33.29,0  c4.23,0.01,6.15,1.9,6.15,6.11c0.02,59.37,0.01,118.74,0.01,178.11c0,0.52-0.06,1.05-0.1,1.76c-86.13,0-172.15,0-258.5,0  c0-1.24,0-2.39,0-3.54c0-58.29,0-116.58,0-174.87c0-6.15,1.43-7.57,7.61-7.58c11.09,0,22.18,0,33.52,0c0,3.4,0,6.66,0,10.17  c-0.89,0.06-1.82,0.17-2.75,0.17c-7.11,0.01-14.22-0.01-21.33,0.01c-4.9,0.01-6.65,1.75-6.7,6.55c-0.01,0.54,0,1.08,0,1.62  c0,49.78,0,99.56,0,149.34c0,6.67,1.3,8,7.84,8c74.13,0,148.26,0,222.39,0c6.32,0,7.69-1.4,7.69-7.83c0-49.99,0-99.99,0-149.98  c0-6.32-1.39-7.69-7.83-7.69C303.52,134.86,295.9,134.87,288.02,134.87z"></path>	<path class="st0" d="M152.81,191.82c-5.13-5.15-9.84-9.87-15.13-15.17c1.45-1.21,3.08-2.42,4.55-3.81  c2.25-2.11,2.67-4.57,0.98-7.27c-4.08-6.53-7.02-13.54-8.75-21.06c-0.69-3.01-2.69-4.54-5.84-4.48c-1.92,0.04-3.85,0.01-5.98,0.01  c0-6.92,0-13.63,0-20.69c2.08,0,4.09-0.01,6.11,0c2.99,0.02,4.97-1.42,5.64-4.3c1.78-7.62,4.73-14.73,8.88-21.35  c1.6-2.56,1.2-4.95-0.91-7.01c-1.46-1.43-3.03-2.74-4.37-3.94c5.1-5.12,9.87-9.9,15.2-15.24c1.09,1.31,2.32,2.94,3.71,4.41  c2.12,2.26,4.57,2.65,7.27,0.97c6.54-4.07,13.54-7.01,21.06-8.74c3.01-0.69,4.53-2.7,4.47-5.85c-0.04-1.92-0.01-3.84-0.01-5.97  c6.93,0,13.64,0,20.69,0c0,2.1,0.01,4.12,0,6.13c-0.02,3,1.43,4.96,4.31,5.63c7.62,1.78,14.73,4.72,21.35,8.88  c2.57,1.61,4.95,1.18,7.01-0.93c1.43-1.46,2.74-3.04,3.93-4.38c5.12,5.12,9.91,9.89,15.23,15.21c-1.31,1.09-2.92,2.33-4.4,3.71  c-2.26,2.12-2.65,4.57-0.96,7.26c4.09,6.53,7.01,13.54,8.74,21.06c0.7,3.01,2.71,4.52,5.85,4.46c1.92-0.04,3.84-0.01,5.97-0.01  c0,6.93,0,13.65,0,20.69c-2.1,0-4.12,0.01-6.13,0c-3-0.02-4.96,1.42-5.63,4.31c-1.78,7.62-4.74,14.72-8.88,21.35  c-1.61,2.58-1.18,4.95,0.93,7.01c1.46,1.43,3.04,2.74,4.39,3.94c-5.12,5.12-9.9,9.9-15.22,15.21c-1.09-1.3-2.32-2.92-3.71-4.39  c-2.12-2.24-4.56-2.66-7.27-0.96c-6.53,4.1-13.53,7.02-21.06,8.74c-3.01,0.69-4.54,2.69-4.47,5.84c0.04,1.92,0.01,3.85,0.01,5.98  c-6.92,0-13.63,0-20.69,0c0-2.08-0.01-4.09,0-6.11c0.02-2.99-1.4-4.97-4.29-5.65c-7.62-1.78-14.72-4.74-21.35-8.87  c-2.57-1.6-4.93-1.21-7.01,0.9C155.58,188.79,154.21,190.31,152.81,191.82z M199.96,186.56c31.62-0.03,56.97-25.51,56.93-57.23  c-0.04-31.13-25.59-56.47-56.99-56.53c-31.11-0.06-56.82,25.64-56.78,56.76C143.17,161.07,168.62,186.59,199.96,186.56z"></path>	<path class="st0" d="M45,88.43c0-10.65,0-20.74,0-31.05c13.67,0,27.2,0,41.11,0c0-3.36,0-6.5,0-9.46  c8.43,8.43,16.76,16.76,24.78,24.78c-7.93,7.91-16.34,16.3-24.53,24.47c0-2.31,0-5.35,0-8.74C72.47,88.43,58.86,88.43,45,88.43z"></path>	<path class="st0" d="M288.85,72.77c8.16-8.16,16.5-16.48,24.89-24.87c0,2.87,0,5.92,0,9.31c13.88,0,27.48,0,41.26,0  c0,10.41,0,20.49,0,30.91c-13.51,0-27.11,0-41.11,0c0,3.46,0,6.6,0,9.63C305.4,89.28,297.06,80.96,288.85,72.77z"></path>	<path class="st0" d="M174.16,321.2c17.44,0,34.4,0,51.7,0c0,1.7,0.07,3.28-0.01,4.86c-0.17,3.24-2.06,5.29-5.28,5.31  c-13.66,0.08-27.31,0.07-40.97,0.01c-3.41-0.02-5.28-2.06-5.43-5.5C174.11,324.39,174.16,322.9,174.16,321.2z"></path>	<path class="st0" d="M184.64,248.63c0-3.51,0-6.69,0-10.23c5.45,0,10.88-0.24,16.29,0.1c2.75,0.17,4.25,2.37,4.21,5.22  c-0.04,2.67-2.13,4.8-5.02,4.87C195.08,248.73,190.04,248.63,184.64,248.63z"></path>	<path class="st0" d="M236.29,158.16c-0.47-2.31-0.82-4.51-1.38-6.66c-1.77-6.85-5.26-12.73-10.55-17.41  c-1.58-1.4-1.74-2.4-0.88-4.3c4.49-9.88,2.42-21.03-5.12-28.63c-7.61-7.67-19.03-9.79-28.93-5.38  c-9.67,4.31-15.9,14.21-15.15,24.88c0.24,3.35,1.7,6.61,2.5,9.93c0.19,0.78,0.3,1.95-0.13,2.47c-9.82,11.86-9.83,11.84-12.9,24.91  c-10.84-10.79-16.57-37.8,0.59-58.15c17.47-20.73,48.38-22.42,67.83-3.77C252.02,115.08,249.22,143.89,236.29,158.16z"></path>	<path class="st0" d="M184.54,140.04c10.89,6.91,19.29,6.91,31.02,0.07c6.28,4.82,9.72,11.25,10.24,19.17  c0.63,9.59,0.12,10.33-8.86,13.73c-13.58,5.15-26.74,4.07-39.58-2.63c-2.56-1.34-3.23-3-3.3-5.8c-0.2-8.3,1.52-15.81,7.51-21.92  C182.47,141.75,183.48,140.97,184.54,140.04z"></path>	<path class="st0" d="M184.51,119.16c0.08-8.44,7.07-15.33,15.54-15.32c8.6,0.01,15.56,7.08,15.48,15.7  c-0.09,8.57-7.24,15.49-15.86,15.32C191.23,134.69,184.43,127.63,184.51,119.16z"></path></g></svg>