<svg xmlns="http://www.w3.org/2000/svg" xmlns:xlink="http://www.w3.org/1999/xlink" id="Layer_1" x="0px" y="0px" viewBox="0 0 400 400" style="enable-background:new 0 0 400 400;" xml:space="preserve"><style type="text/css">	.st0{fill:#322B6A;}</style><g>	<path class="st0" d="M312.33,209.78c-7.79,8.08-14.52,14.41-20.38,21.46c-2.58,3.11-4.58,7.64-4.77,11.62  c-0.61,12.31-0.6,24.69-0.08,37.01c0.3,7.04-2.01,8.99-8.98,8.96c-67.88-0.24-135.76-0.25-203.64,0.01  c-7.25,0.03-8.83-2.42-8.79-9.17c0.27-42.35,0.13-84.71,0.15-127.06c0-2.46,0.28-4.91,0.49-8.15c3.47,0,6.49,0,9.51,0  c58.62,0,117.25,0.05,175.87-0.13c3.57-0.01,8.13-0.9,10.53-3.18c15.83-15.08,31.19-30.65,47.07-46.42  c-5.17-7.76-11.78-9.47-19.52-9.47c-75.45,0.09-150.91,0.03-226.36,0.07c-15.66,0.01-23.38,7.62-23.39,23.04  c-0.04,61.15-0.04,122.3,0,183.44c0.01,15.02,7.77,22.86,22.75,22.87c75.73,0.05,151.47,0.05,227.2,0  c15.56-0.01,22.94-7.58,22.98-23.39c0.06-24.4,0.03-48.81,0-73.21C312.95,216.04,312.65,213.99,312.33,209.78z M127.81,111.41  c5.24,0,9.49,4.25,9.49,9.49c0,5.24-4.25,9.49-9.49,9.49c-5.24,0-9.49-4.25-9.49-9.49C118.32,115.66,122.57,111.41,127.81,111.41z   M101.24,111.41c5.24,0,9.49,4.25,9.49,9.49c0,5.24-4.25,9.49-9.49,9.49c-5.24,0-9.49-4.25-9.49-9.49  C91.75,115.66,95.99,111.41,101.24,111.41z M72.94,111.41c5.24,0,9.49,4.25,9.49,9.49c0,5.24-4.25,9.49-9.49,9.49  c-5.24,0-9.49-4.25-9.49-9.49C63.45,115.66,67.7,111.41,72.94,111.41z"></path>	<path class="st0" d="M180.7,225.68c2.59-1.31,3.2-8.04,3.21-12.27c0-2.15-3-5.45-5.31-6.22c-6.18-2.05-8.51-6.3-4.4-11.13  c3.05-3.57,2.25-5.73-0.76-8.36c-3.09-2.69-6.01-5.59-8.86-8.26c-8.7,6.35-14.5,6.31-15,0.2c-0.51-6.28-3.2-7.57-8.48-7.15  c-5.18,0.42-12.03-2.09-11.58,7.4c0.05,1.07-2.03,3.21-3.07,3.18c-3.91-0.11-7.8-0.93-13.99-1.8c-2.15,2.17-6.17,6.24-10.08,10.2  c7.25,10.55,6.92,11.45-3.81,15.76c-1.4,0.56-2.9,2.71-3.03,4.23c-0.4,4.6-0.14,9.25-0.14,13.52c13.24,3.11,13.98,5.05,7.49,16.95  c3.74,3.97,7.52,7.98,11.14,11.82c1.57-0.72,2.4-0.94,3.04-1.42c7.3-5.4,10.25-4.35,12.88,4.42c0.43,1.42,1.64,3.6,2.62,3.67  c4.71,0.34,9.57,0.61,14.14-0.3c1.31-0.26,1.29-4.98,2.82-6.92c1.54-1.95,4.37-4.32,6.4-4.12c2.93,0.29,5.65,2.73,8.04,4.03  c4.55-3.85,8.89-7.54,13.06-11.06C169.14,231.53,169.73,231.23,180.7,225.68z M139.56,233.67c-8.98-0.02-16.58-7.47-16.79-16.47  c-0.22-9.3,7.57-17.18,16.95-17.14c9.26,0.03,16.47,7.16,16.61,16.42C156.46,226.09,149.05,233.69,139.56,233.67z"></path>	<path class="st0" d="M237.31,198.37c9.1,9.02,18.74,18.58,27.27,27.04c21.66-21.7,43.9-43.97,65.71-65.82  c-8.62-8.74-18.02-18.26-26.91-27.27C280.94,154.76,258.81,176.89,237.31,198.37z"></path>	<path class="st0" d="M208.19,249.96c-0.82,4.67,3.84,6.11,8.4,5.04c6.79-1.59,13.82-2.5,20.35-4.82  c5.38-1.91,10.18-5.43,15.32-8.27c-10.94-11-20.37-20.47-29.92-30.08c-0.42,0.23-1.25,0.5-1.84,1.04  C209.48,222.89,210.46,237.09,208.19,249.96z"></path>	<path class="st0" d="M347.47,115.56c-15.56-15.81-13.47-16.16-30.01,0.73c-0.54,0.56-0.8,1.39-0.96,1.69  c9.64,9.63,19.1,19.09,29,28.99c0.58-0.4,1.09-0.66,1.48-1.05C364.72,128.24,363.8,132.14,347.47,115.56z"></path></g></svg>