<svg xmlns="http://www.w3.org/2000/svg" xmlns:xlink="http://www.w3.org/1999/xlink" id="Layer_1" x="0px" y="0px" viewBox="0 0 400 400" style="enable-background:new 0 0 400 400;" xml:space="preserve"><style type="text/css">	.st0{fill:#322B6A;}</style><g>	<path class="st0" d="M89.54,294.77c-6.84-0.56-13.33-0.21-19.32-1.76c-11.47-2.98-17.92-11.19-19.63-22.84  c-5.56-37.87-11-75.76-16.49-113.65c-1.26-8.72-2.56-17.43-3.87-26.14c-1.75-11.64,6.74-21.79,18.54-22.13  c1.06-0.03,2.12-0.03,3.17-0.03c98.75,0,197.51-0.03,296.26,0.11c4.08,0.01,8.51,0.83,12.17,2.56c7.02,3.33,10.56,11.38,9.41,19.29  c-6.76,46.83-13.51,93.67-20.35,140.5c-1.9,13.01-11.79,22.28-24.92,23.38c-4.5,0.38-9.07,0.06-13.85,0.06  c8.99-41.16,0.3-77.58-28.73-108.08c-21.74-22.85-48.94-34.57-80.58-34.76c-37.41-0.23-68.14,14.55-91.2,43.88  C87.13,224.41,81.12,257.79,89.54,294.77z"></path>	<path class="st0" d="M96.44,265.14c-0.03-56.9,46.44-103.3,103.5-103.34c57.08-0.04,103.53,46.24,103.6,103.22  c0.07,57.08-46.56,103.68-103.66,103.6C142.93,368.55,96.47,322.07,96.44,265.14z M178.85,246.68c-14.49-10.02-27.95-9.5-37.94,1.3  c-8.91,9.64-9.29,24.36-0.91,34.51c9.52,11.53,22.91,12.39,38.82,2.42c4.87,3.38,9.86,6.7,14.66,10.27  c0.82,0.61,1.24,2.24,1.25,3.4c0.01,3.95-0.89,8-0.29,11.83c2.09,13.34,15.06,22.5,28.99,20.94c13.46-1.51,23.59-13.43,23.05-27.1  c-0.54-13.59-11.8-24.84-25.14-25.26c-8-0.25-14.63,2.77-20.38,8.34c-5.48-3.81-10.86-7.55-16.37-11.37  c2.42-6.33,2.6-12.53,0.6-18.81c-0.21-0.66,0.13-1.94,0.66-2.31c5.25-3.7,10.6-7.27,15.83-10.82c14.37,11.85,28.88,7.42,36.48,0.23  c9.32-8.82,11.03-22.7,4.08-33.5c-6.91-10.74-20.28-14.88-32.22-9.98c-12.96,5.31-18.09,17.43-14.49,34.56  C189.99,239.09,184.38,242.91,178.85,246.68z"></path>	<path class="st0" d="M350.26,97.41c-100.22,0-200.09,0-300.39,0c-0.05-1.08-0.16-2.19-0.16-3.31c-0.01-14.46-0.03-28.91,0-43.37  c0.03-11.58,7.65-19.29,19.15-19.32c16.81-0.04,33.62-0.04,50.43,0c11.49,0.03,19.11,7.73,19.22,19.31c0.02,2.44,0,4.88,0,7.81  c5.25,0,10.14-0.01,15.04,0c58.65,0.09,117.31,0.38,175.96,0.12c13.07-0.06,21.65,9.1,20.82,21.03  C349.92,85.5,350.26,91.37,350.26,97.41z"></path></g></svg>