<svg xmlns="http://www.w3.org/2000/svg" xmlns:xlink="http://www.w3.org/1999/xlink" id="Layer_1" x="0px" y="0px" viewBox="0 0 400 400" style="enable-background:new 0 0 400 400;" xml:space="preserve"><style type="text/css">	.st0{fill:#322B6A;}</style><g>	<path class="st0" d="M205.88,254.17c0,27.9,0,55.54,0,83.37c-3.96,0-7.65,0-11.75,0c0-27.7,0-55.44,0-83.4  c-46.09,0-91.79,0-137.75,0c0,25.73,0,51.37,0,77.31c-4.04,0-7.83,0-12.11,0c0-1.25,0-2.57,0-3.89c0-55.88,0-111.75,0-167.63  c0-12.46,7.31-19.81,19.71-19.81c90.67-0.01,181.35-0.01,272.02,0c12.21,0,19.64,7.37,19.65,19.5  c0.01,56.13,0.01,112.25,0.01,168.38c0,1.1,0,2.2,0,3.52c-4.06,0-7.84,0-11.9,0c0-25.79,0-51.44,0-77.35  C297.8,254.17,252.11,254.17,205.88,254.17z M193.81,152.1c-1.41,0-2.52,0-3.62,0c-41.9,0-83.81,0-125.71,0  c-6.38,0-8.23,1.85-8.24,8.22c-0.01,25.94-0.01,51.88,0,77.82c0,1.2,0.11,2.39,0.16,3.48c10.12,0,19.89,0,29.81,0  c0-2.54-0.07-4.79,0.01-7.03c0.52-13.57,10.55-25.6,23.93-27.81c5.84-0.97,11.92-0.79,17.88-0.74  c16.82,0.13,29.72,13.1,29.99,29.95c0.03,1.93,0,3.87,0,5.73c12.26,0,23.94,0,35.77,0C193.81,211.89,193.81,182.25,193.81,152.1z   M308.06,241.74c11.92,0,23.6,0,35.62,0c0-1.39,0-2.61,0-3.83c0-25.81,0-51.63,0-77.44c0-6.57-1.81-8.36-8.48-8.36  c-41.78,0-83.56,0-125.33,0.01c-1.21,0-2.42,0.1-3.67,0.16c0,29.98,0,59.7,0,89.37c10.02,0,19.79,0,29.73,0  c0-2.53-0.07-4.77,0.01-7.01c0.51-13.57,10.53-25.64,23.9-27.84c6.09-1,12.42-0.82,18.63-0.73c14.2,0.2,26.12,10.37,28.63,24.34  C307.75,234.04,307.75,237.79,308.06,241.74z"></path>	<path class="st0" d="M199.58,379.66c-53.39,0-106.78,0.01-160.17-0.01c-10.18,0-17.93-6.55-19-15.93  c-1.21-10.59,7.02-19.86,17.94-19.96c12.6-0.11,25.2-0.03,37.8-0.03c23.45,0,46.9,0.1,70.35-0.08c4.91-0.04,9.39,0.67,13.51,3.32  c3.47,2.23,7.21,2.85,11.34,2.82c18.34-0.16,36.67-0.19,55.01,0.01c5.5,0.06,10.44-0.83,15.33-3.53c2.89-1.59,6.56-2.42,9.89-2.43  c36.55-0.17,73.1-0.12,109.65-0.09c7.22,0.01,12.77,3.16,16.2,9.53c3.29,6.1,2.99,12.28-0.74,18.11  c-3.57,5.56-8.85,8.25-15.45,8.27c-10.98,0.03-21.95,0.01-32.93,0.01C285.4,379.66,242.49,379.66,199.58,379.66z"></path>	<path class="st0" d="M116.13,92.22c0,9.46-0.05,18.54,0.02,27.62c0.03,3.29-0.25,6.31-3.77,7.8c-3.57,1.51-5.87-0.58-8.16-2.88  c-9.94-9.99-19.98-19.9-29.84-29.97c-1.93-1.97-3.87-2.66-6.54-2.62c-9.48,0.14-18.96,0.08-28.44,0.05  c-11.47-0.04-19.04-7.55-19.08-18.94c-0.04-11.35-0.04-22.71,0-34.06c0.04-11.2,7.61-18.83,18.78-18.85  c31.44-0.04,62.88-0.04,94.31,0c10.96,0.01,18.56,7.65,18.62,18.62c0.06,11.6,0.07,23.2,0,34.81c-0.07,10.72-7.72,18.3-18.48,18.4  C127.95,92.26,122.34,92.22,116.13,92.22z M62.08,50.32c-3.21,0.08-5.85,2.82-5.81,6.02c0.03,3.22,2.71,5.89,5.92,5.91  c3.35,0.02,6.14-2.87,6-6.21C68.06,52.83,65.29,50.23,62.08,50.32z M92.15,56.14c-0.08-3.21-2.8-5.85-6.02-5.82  c-3.21,0.03-5.89,2.71-5.91,5.93c-0.02,3.36,2.85,6.15,6.2,6.01C89.63,62.11,92.22,59.34,92.15,56.14z M110.18,62.25  c3.22-0.03,5.89-2.71,5.92-5.92c0.03-3.35-2.85-6.15-6.2-6.01c-3.21,0.13-5.81,2.9-5.73,6.11  C104.25,59.65,106.97,62.28,110.18,62.25z"></path>	<path class="st0" d="M283.8,92.22c-6.19,0-11.8,0.04-17.41-0.01c-10.75-0.1-18.43-7.69-18.5-18.38c-0.07-11.73-0.08-23.45,0-35.18  c0.07-10.5,7.74-18.24,18.22-18.27c31.81-0.06,63.63-0.07,95.44,0.01c10.26,0.02,17.94,7.77,18.04,18.06  c0.11,11.85,0.1,23.7,0,35.55c-0.08,10.48-7.77,18.1-18.29,18.2c-8.61,0.08-17.24,0.37-25.82-0.11c-5.36-0.3-8.98,1.47-12.6,5.3  c-8.9,9.43-18.28,18.42-27.43,27.61c-2.22,2.23-4.52,4.05-7.89,2.64c-3.32-1.39-3.81-4.21-3.78-7.41  C283.85,111.03,283.8,101.83,283.8,92.22z M290.08,50.32c-3.19-0.17-6.03,2.38-6.25,5.58c-0.21,3.2,2.26,6.07,5.47,6.34  c3.33,0.28,6.32-2.4,6.45-5.75C295.87,53.29,293.29,50.49,290.08,50.32z M313.62,62.25c3.2,0.06,5.96-2.55,6.08-5.76  c0.13-3.34-2.68-6.21-6.03-6.17c-3.21,0.04-5.88,2.73-5.89,5.94C307.76,59.48,310.41,62.19,313.62,62.25z M343.65,56.35  c0.04-3.2-2.59-5.94-5.8-6.03c-3.2-0.09-5.98,2.51-6.12,5.71c-0.15,3.35,2.63,6.24,5.98,6.22  C340.93,62.23,343.61,59.56,343.65,56.35z"></path>	<path class="st0" d="M306.88,331.75c-17.58,0-34.88-0.01-52.18,0.01c-3.11,0-6.28-0.27-9.31,0.26c-3.01,0.52-5.86,1.89-9.38,3.09  c0.35-1.86,0.56-3.61,1.03-5.29c3.55-12.87,14.94-21.82,28.29-21.95c6.33-0.06,12.77-0.21,18.97,0.82  C295.7,310.58,304.9,320.31,306.88,331.75z"></path>	<path class="st0" d="M87.05,331.93c1.88-11.5,11.18-21.64,22.61-23.18c8.16-1.1,16.71-1.12,24.87-0.01  c11.75,1.6,21.55,12.52,22.57,23.18C133.86,331.93,110.61,331.93,87.05,331.93z"></path>	<path class="st0" d="M200.08,68.19c16.02,0.57,29.16,6.64,39.33,18.86c3.21,3.85,3.23,7.4,0.18,9.82c-2.95,2.34-6.21,1.61-9.3-2.1  c-16.22-19.43-44.38-19.44-60.62-0.03c-3.1,3.7-6.35,4.38-9.3,1.93c-2.96-2.45-2.98-5.81,0.09-9.52  C170.79,74.67,184.19,68.61,200.08,68.19z"></path>	<path class="st0" d="M122.03,301.8c-9.94-0.04-17.99-8.25-17.87-18.23c0.12-9.77,8.23-17.72,18.03-17.68  c9.95,0.04,17.99,8.24,17.87,18.22C139.95,293.88,131.84,301.84,122.03,301.8z"></path>	<path class="st0" d="M271.76,301.8c-9.94-0.03-18-8.23-17.89-18.21c0.11-9.77,8.21-17.73,18.01-17.7c9.95,0.03,18,8.22,17.89,18.2  C289.66,293.86,281.56,301.83,271.76,301.8z"></path>	<path class="st0" d="M199.96,92.15c10.89,0.83,19.6,5.41,25.73,14.49c2.05,3.05,1.44,6.3-1.24,8.28c-2.69,1.99-5.91,1.55-8.31-1.17  c-0.41-0.46-0.73-1-1.12-1.49c-8.37-10.59-21.88-10.49-30.3,0.1c-1.18,1.48-2.93,3.39-4.49,3.46c-2.02,0.1-4.58-0.97-6.07-2.4  c-1.97-1.89-1.47-4.6,0.09-6.87C180.47,97.52,189.17,92.95,199.96,92.15z"></path>	<path class="st0" d="M169.92,277.85c-1.75,0-3.49,0.05-5.24-0.01c-4.07-0.13-6.67-2.55-6.61-6.08c0.06-3.39,2.57-5.76,6.43-5.86  c3.61-0.09,7.23-0.08,10.85-0.01c4.07,0.09,6.67,2.54,6.61,6.06c-0.06,3.51-2.66,5.78-6.81,5.89  C173.42,277.89,171.67,277.86,169.92,277.85z"></path>	<path class="st0" d="M319.73,277.82c-2.12,0-4.25,0.14-6.36-0.03c-3.31-0.28-5.59-2.8-5.59-5.92c0-3.13,2.27-5.75,5.58-5.9  c4.23-0.2,8.48-0.2,12.71,0c3.31,0.15,5.59,2.78,5.59,5.9c0,3.11-2.28,5.65-5.59,5.92C323.98,277.96,321.85,277.82,319.73,277.82z"></path>	<path class="st0" d="M205.92,122.12c0.02,3.21-2.63,5.92-5.85,6c-3.38,0.08-6.17-2.73-6.08-6.11c0.08-3.24,2.78-5.84,6.02-5.81  C203.24,116.24,205.9,118.91,205.92,122.12z"></path>	<path class="st0" d="M140.07,182.09c-0.02,9.8-8.03,17.84-17.82,17.9c-9.95,0.06-18.11-8.06-18.09-18.01  c0.02-9.94,8.23-18.01,18.19-17.9C132.14,164.2,140.09,172.28,140.07,182.09z"></path>	<path class="st0" d="M170.36,176.02c-2.24,0-4.5,0.15-6.73-0.04c-3.3-0.28-5.57-2.84-5.55-5.95c0.02-3.13,2.29-5.72,5.62-5.87  c4.23-0.19,8.48-0.2,12.71,0.01c3.3,0.16,5.58,2.82,5.56,5.93c-0.02,3.11-2.31,5.61-5.63,5.89  C174.36,176.16,172.35,176.02,170.36,176.02z"></path>	<path class="st0" d="M289.78,182.05c0,9.94-8.19,18.04-18.15,17.94c-9.78-0.09-17.76-8.17-17.75-17.97  c0.01-9.94,8.19-18.03,18.15-17.94C281.81,164.18,289.78,172.24,289.78,182.05z"></path>	<path class="st0" d="M319.76,164.12c2.12,0,4.25-0.14,6.36,0.04c3.3,0.28,5.58,2.83,5.56,5.95c-0.02,3.11-2.31,5.72-5.63,5.87  c-4.23,0.19-8.48,0.2-12.71-0.01c-3.3-0.16-5.57-2.82-5.55-5.94c0.02-3.13,2.3-5.62,5.62-5.88  C315.51,163.98,317.64,164.11,319.76,164.12z"></path></g></svg>