<svg xmlns="http://www.w3.org/2000/svg" xmlns:xlink="http://www.w3.org/1999/xlink" id="Layer_1" x="0px" y="0px" viewBox="0 0 400 400" style="enable-background:new 0 0 400 400;" xml:space="preserve"><style type="text/css">	.st0{fill:#322B6A;}</style><g>	<path class="st0" d="M324.67,287.52c0-58.45,0-116.43,0-174.65c-83.1,0-166.08,0-249.63,0c0,1.38,0,2.76,0,4.14  c-0.02,7.03,0.16,14.06-0.13,21.08c-0.29,6.94-5.83,12.03-12.45,11.98c-6.48-0.05-12.09-5.03-12.24-11.76  c-0.28-13.01-0.29-26.03,0.01-39.03c0.15-6.78,5.51-11.44,12.29-11.62c1.04-0.03,2.08-0.01,3.12-0.01  c89.53,0,179.07,0.11,268.6-0.14c10.42-0.03,15.8,5.83,15.77,15.58c-0.22,64.68-0.11,129.35-0.12,194.03  c0,10.85-4.57,15.4-15.41,15.4c-36.05,0-72.09,0.01-108.14-0.01c-7.6,0-12.93-4.39-13.71-11.11c-0.84-7.18,4.37-13.4,11.62-13.82  c1.43-0.08,2.86-0.05,4.29-0.05c30.45,0,60.9,0,91.35,0C321.4,287.52,322.93,287.52,324.67,287.52z"></path>	<path class="st0" d="M187.35,294.72c0,2.08,0.13,4.17-0.02,6.24c-0.47,6.38-5.78,11.38-12.1,11.53  c-6.15,0.15-11.64-4.39-12.48-10.64c-1.1-8.22-1.28-16.63-3.04-24.7c-8.86-40.57-43.82-71.69-85.22-76.3  c-3.87-0.43-7.77-0.56-11.66-0.75c-7.58-0.38-12.94-5.83-12.7-12.97c0.23-7.03,5.66-12,13.13-12.03  c59.73-0.19,112.78,44.77,122.33,103.75c0.85,5.25,1.34,10.56,2,15.84C187.51,294.69,187.43,294.71,187.35,294.72z"></path>	<path class="st0" d="M150.21,296.06c-0.3,2.69-0.23,5.5-0.99,8.05c-1.59,5.34-7.29,8.87-12.72,8.34  c-5.79-0.57-10.48-4.95-11.26-10.7c-0.75-5.53-0.86-11.19-2.13-16.59c-6.46-27.49-30.56-46.85-58.84-47.6  c-7.08-0.19-12.03-3.4-13.67-8.87c-2.49-8.27,3.5-16.33,12.39-16.09c34.71,0.96,60.34,17.06,77.13,47.23  C146.33,271.01,149.37,283.22,150.21,296.06z"></path>	<path class="st0" d="M112.34,297.71c0.31,7.1-2.55,11.99-8.19,14.02c-5.18,1.86-11.16,0.24-14.14-4.49  c-1.45-2.3-2.27-5.26-2.54-8.01c-1.4-14.49-10.28-23.32-24.7-24.17c-7.64-0.45-12.93-5.89-12.66-13.02  c0.27-7.16,5.82-12.03,13.61-11.95C89.37,250.32,111.22,271.73,112.34,297.71z"></path>	<path class="st0" d="M74.94,300.12c-0.08,6.83-5.69,12.41-12.47,12.38c-6.72-0.03-12.39-5.74-12.41-12.49  c-0.02-7.06,5.61-12.57,12.71-12.46C69.66,287.65,75.01,293.18,74.94,300.12z"></path></g></svg>