<svg xmlns="http://www.w3.org/2000/svg" xmlns:xlink="http://www.w3.org/1999/xlink" id="Layer_1" x="0px" y="0px" viewBox="0 0 400 400" style="enable-background:new 0 0 400 400;" xml:space="preserve"><style type="text/css">	.st0{fill:#322B6A;}</style><g>	<path class="st0" d="M40,99.38c1.66-2.83,2.96-5.97,5.07-8.41c3-3.48,7.27-4.66,11.84-4.66c9.27,0,18.54,0,27.81,0  c61.34,0,122.68,0.01,184.02-0.02c5.73,0,10.98,1.35,14.27,6.18c1.9,2.79,3.53,6.41,3.61,9.69c0.37,15.92,0.17,31.86,0.17,47.8  c0,0.4-0.14,0.79-0.29,1.52c-1.16,0-2.28-0.01-3.39,0c-8.55,0.13-14.24,4.16-16.77,12.27c-0.79,2.54-1.88,4.28-4.59,4.73  c-0.3,0.05-0.61,0.17-0.87,0.34c-4.25,2.66-8.13,2.62-12.9,0.3c-5.6-2.72-11.48-1.26-16.26,2.95c-2.81,2.47-5.51,5.11-7.95,7.95  c-4.84,5.63-5.58,12-2.18,18.57c1.42,2.75,1.31,4.9,0.24,7.8c-1.75,4.73-3.98,8.05-9.28,9.51c-4.21,1.16-7.09,4.82-8.29,9.13  c-0.67,2.4-1.9,2.7-3.98,2.69c-12.91-0.06-25.83-0.03-38.74-0.03c-39.16,0-78.31,0-117.47-0.01c-1.35,0-2.7-0.1-4.05-0.15  C40,184.8,40,142.09,40,99.38z M77.51,157.98c1.47-0.86,2.43-1.46,3.42-2.01c9.89-5.52,19.8-11.01,29.67-16.55  c3.4-1.91,4.48-4.68,3.04-7.43c-1.49-2.86-4.59-3.51-8.07-1.58c-13.44,7.48-26.87,14.96-40.28,22.5  c-4.92,2.76-4.89,7.27,0.07,10.06c13.4,7.54,26.83,15.03,40.27,22.51c3.37,1.88,6.36,1.3,7.9-1.39c1.57-2.74,0.55-5.57-2.73-7.51  c-1.16-0.69-2.36-1.31-3.54-1.97C97.48,169.14,87.69,163.67,77.51,157.98z M194.12,157.93c-1.35,0.77-2.3,1.34-3.27,1.88  c-9.99,5.58-19.99,11.14-29.96,16.75c-3.38,1.9-4.39,4.7-2.81,7.48c1.56,2.74,4.49,3.34,7.87,1.46  c13.46-7.48,26.91-14.97,40.33-22.52c4.91-2.76,4.93-7.34,0.04-10.08c-13.42-7.54-26.87-15.03-40.33-22.51  c-3.36-1.87-6.3-1.29-7.89,1.4c-1.66,2.83-0.6,5.6,3.02,7.65c4.25,2.41,8.55,4.75,12.81,7.14  C180.54,150.28,187.13,154,194.12,157.93z M127.68,201.48c2.41-0.18,3.91-1.97,4.53-4.66c5.77-25.24,11.54-50.48,17.28-75.72  c0.2-0.88,0.29-1.88,0.08-2.75c-0.6-2.53-2.31-3.93-4.93-3.92c-3.14,0.01-4.61,1.98-5.25,4.8c-3.36,14.7-6.71,29.4-10.07,44.09  c-2.39,10.44-4.8,20.87-7.16,31.32C121.26,198.55,123.53,201.59,127.68,201.48z"></path>	<path class="st0" d="M40,238.13c53.75-0.02,107.5-0.03,161.25-0.04c0.51,0,1.01,0.06,1.73,0.1c0.1,1.2,0.11,2.32,0.29,3.41  c1.12,7.05,5.06,11.83,11.88,13.84c2.82,0.83,4.43,2.19,5.15,5.01c0.46,1.79,1.62,3.4,2.11,5.19c0.34,1.26,0.32,2.73,0.04,4.02  c-0.76,3.53-3.1,4.24-6.59,4.23c-51.98-0.13-103.96-0.19-155.94,0.01c-8.98,0.03-16.32-2.29-19.92-13.27  C40,253.13,40,245.63,40,238.13z"></path>	<path class="st0" d="M163.31,313.71c-17.07,0-34.14,0-51.21,0c-0.94,0-1.88,0.05-2.81-0.04c-3.12-0.3-5.07-2.39-5.02-5.29  c0.05-2.76,1.92-4.86,4.95-5.01c3.95-0.19,7.91-0.02,11.86-0.1c3.6-0.07,8.06,0.96,10.56-0.77c2.38-1.65,2.73-6.24,3.98-9.54  c1.07-2.81,1.4-6.74,3.44-8.11c2.18-1.47,5.99-0.61,9.08-0.62c12.28-0.04,24.57,0.04,36.85-0.06c2.18-0.02,3.32,0.51,4.01,2.74  c1.41,4.56,3.31,8.97,4.73,13.53c0.72,2.32,1.91,2.96,4.25,2.9c6.24-0.17,12.49-0.13,18.73-0.03c4.17,0.07,6.78,3.28,5.57,6.71  c-0.96,2.72-3.11,3.7-5.88,3.69c-8.01-0.03-16.03-0.01-24.04-0.01C182.67,313.71,172.99,313.71,163.31,313.71z"></path>	<g>		<path class="st0" d="M350.6,223.07c-3.05-1-4.87-2.78-5.77-5.91c-0.87-2.98-1.86-6.04-3.49-8.65c-2.66-4.27-2.27-8,0.13-12.23   c3.38-5.95,2.99-7.03-1.83-11.93c-7.39-7.5-7.46-7.74-16.68-2.75c-2.49,1.35-4.88,1.24-7.43-0.05c-2.96-1.5-5.96-3.18-9.14-3.93   c-4.81-1.13-7.07-3.96-8.34-8.51c-1.87-6.72-2.91-7.22-9.93-7.27c-10.06-0.07-10.49-0.49-13.53,9.68   c-0.86,2.88-2.65,4.49-5.47,5.4c-3.06,0.98-6.25,1.91-8.94,3.58c-4.28,2.66-8,2.28-12.23-0.13c-5.98-3.41-6.98-3.03-11.9,1.83   c-7.33,7.24-7.89,7.17-2.77,16.67c1.38,2.56,1.22,4.86-0.05,7.39c-1.49,2.97-3.12,5.97-3.9,9.15c-1.16,4.75-3.95,7.09-8.52,8.37   c-6.84,1.91-7.22,2.78-7.26,9.91c-0.05,10.13-0.54,10.5,9.65,13.55c2.89,0.86,4.49,2.7,5.41,5.49c1.01,3.05,1.87,6.28,3.54,8.96   c2.66,4.27,2.32,7.95-0.11,12.18c-3.36,5.84-2.9,7.11,1.81,11.94c7.48,7.65,7.58,7.61,16.69,2.75c2.43-1.3,4.66-1.28,7.12-0.08   c3.17,1.54,6.36,3.24,9.73,4.14c4.47,1.18,6.72,3.78,7.95,8.13c2.03,7.17,2.82,7.53,10.35,7.53c9.97,0,10.04,0.02,13.09-9.37   c1-3.08,2.84-4.83,5.9-5.79c3.26-1.03,6.57-2.15,9.51-3.85c3.7-2.14,6.95-2.08,10.5,0.13c1.9,1.19,4.07,1.94,6.79,3.2   c2.09-1.64,4.31-3.06,6.16-4.87c7.23-7.07,7.24-7.14,2.72-16.14c-1.4-2.78-1.33-5.25,0.07-8c1.51-2.95,3.07-5.98,3.87-9.16   c1.14-4.5,3.77-6.71,8.12-7.93c7.09-1.98,7.57-2.94,7.57-10.34C360,226.2,360.02,226.14,350.6,223.07z M289.68,198.96   c0.43-1.63,2.08-2.23,3.46-1.29c1.26,0.86,2.39,0.95,3.61,0.01c0.95-0.73,1.93-0.58,2.85,0.1c1.05,0.79,2.07,0.79,3.16,0.04   c1.17-0.8,1.99-0.8,2.85-0.15c0.92,0.7,1.37,2.02,0.91,3.17c-0.89,2.2-1.84,4.38-2.81,6.55c-0.12,0.26-0.48,0.51-0.77,0.59   c-1.6,0.4-3.21,0.75-4.87,1.13c-1.66-0.38-3.28-0.72-4.87-1.16c-0.34-0.09-0.69-0.49-0.85-0.84c-0.88-1.93-1.77-3.85-2.51-5.83   C289.57,200.57,289.49,199.67,289.68,198.96z M256.71,216.69c2.55-2.53,5.08-5.08,7.62-7.61c1.14-1.13,1.96-1.12,3.12,0.03   c2.54,2.54,5.07,5.08,7.62,7.61c0.63,0.62,1.12,1.27,0.72,2.21c-0.39,0.92-1.16,1.1-2.06,1.09c-1.28-0.02-2.57-0.01-3.99-0.01   c0,3.06,0,10.24,0,13.13c0,1.85-0.48,2.33-2.37,2.33c-1.12,0-2.23,0.01-3.35,0c-1.43-0.02-2.04-0.61-2.05-2.04   c-0.02-2.61,0-9.52-0.01-12.13c0-0.38,0-0.76,0-1.28c-1.34,0-2.62-0.02-3.89,0.01c-0.89,0.02-1.7-0.12-2.1-1.03   C255.56,218.04,256.04,217.35,256.71,216.69z M268.01,270.34c-2.39,0.88-4.8,1.72-7.22,2.49c-1.04,0.33-1.97-0.32-2.4-1.54   c-1.31-3.76-2.6-7.52-3.9-11.28c-0.36-1.05-0.75-2.1-1.08-3.17c-0.33-1.06,0.12-2.09,1.14-2.46c2.31-0.85,4.64-1.63,6.97-2.43   c0.21-0.07,0.45-0.07,0.57-0.09c1.06,0.02,1.68,0.52,2.07,1.63c1.49,4.3,2.98,8.6,4.46,12.9c0.18,0.51,0.37,1.02,0.51,1.55   C269.41,269,269.02,269.97,268.01,270.34z M299.29,257.56c-2.09,1.41-4.27,2.7-6.26,4.24c-3.27,2.53-6.81,3.2-10.76,2.12   c-2.17-0.59-4.31-0.34-6.4,0.49c-1.4,0.56-2.84,1.03-4.34,1.57c-0.41-1.17-0.8-2.27-1.18-3.37c-1.01-2.92-2-5.85-3.03-8.76   c-0.19-0.53-0.31-0.96,0.26-1.32c0.12-0.07,0.2-0.2,0.28-0.32c1.6-2.44,3.92-3.77,6.71-4.43c0.59-0.14,1.2-0.52,1.62-0.97   c1.68-1.76,3.29-3.59,4.92-5.4c0.95-1.05,2.13-1.44,3.5-1.13c1.84,0.41,2.83,2.1,2.33,4.04c-0.19,0.74-0.52,1.46-0.91,2.12   c-1.08,1.82-2.22,3.6-3.4,5.49c5.18,3.76,10.92,5.38,17.45,5.03C299.72,257.23,299.51,257.41,299.29,257.56z M305,253.09   c-6.15,1.88-12.11,1.28-17.83-1.69c-0.17-0.09-0.33-0.2-0.59-0.36c0.73-1.17,1.43-2.25,2.09-3.36c0.98-1.67,1.54-3.48,1.19-5.43   c-0.43-2.4-1.92-3.94-4.21-4.65c-2.4-0.74-4.53-0.17-6.34,1.55c-0.59,0.56-1.12,1.19-1.76,1.87c-0.89-2.01-1.38-4-1.54-6.06   c-0.52-6.66,1.91-12.29,6.11-17.28c2.42-2.88,5.33-5.19,8.59-7.07c0.45-0.26,0.82-0.32,1.35-0.12c4.01,1.58,8.05,1.57,12.07,0.01   c0.51-0.2,0.87-0.19,1.35,0.09c6.07,3.56,10.8,8.34,13.35,14.99C323.23,237.12,317.04,249.4,305,253.09z"></path>		<path class="st0" d="M302.09,232.4c-0.75-0.53-1.69-0.8-2.57-1.12c-0.93-0.35-1.92-0.56-2.84-0.94c-0.62-0.26-0.94-0.84-0.86-1.54   c0.07-0.69,0.47-1.14,1.11-1.4c1.62-0.64,3.13-0.05,3.89,1.53c0.34,0.72,1.07,1.03,1.79,0.77c0.65-0.24,1.01-0.95,0.83-1.68   c-0.33-1.29-1.04-2.39-2.26-2.86c-1.21-0.47-1.95-0.99-1.77-2.45c0.08-0.65-0.51-1.07-1.18-1.13c-0.71-0.07-1.24,0.26-1.44,0.95   c-0.11,0.38-0.13,0.8-0.09,1.19c0.06,0.61-0.16,0.87-0.76,1.09c-1.67,0.61-2.67,1.86-2.87,3.64c-0.21,1.86,0.54,3.32,2.15,4.26   c0.73,0.43,1.57,0.68,2.38,0.95c0.76,0.26,1.58,0.34,2.3,0.68c0.48,0.22,0.81,0.76,1.07,1.02c-0.12,1.15-0.64,1.64-1.4,1.9   c-1.73,0.6-3.31-0.17-4.35-2.09c-0.48-0.89-1.22-1.19-1.97-0.8c-0.73,0.38-0.94,1.12-0.55,2c0.61,1.35,1.49,2.5,2.84,3.1   c0.93,0.41,1.26,0.9,1.17,1.91c-0.09,1.05,0.53,1.7,1.38,1.7c0.85,0,1.44-0.63,1.37-1.71c-0.05-0.88,0.21-1.26,1.1-1.53   c1.72-0.52,2.8-1.78,3.09-3.57C303.91,234.69,303.37,233.32,302.09,232.4z"></path>	</g></g></svg>