<svg xmlns="http://www.w3.org/2000/svg" xmlns:xlink="http://www.w3.org/1999/xlink" id="Layer_1" x="0px" y="0px" viewBox="0 0 400 400" style="enable-background:new 0 0 400 400;" xml:space="preserve"><style type="text/css">	.st0{fill:#322B6A;}</style><g>	<path class="st0" d="M38.44,331.99c0-87.96,0-175.91,0-263.87c3.42-11.8,11.79-15.23,23.34-14.98c20.4,0.44,40.81,0.12,61.22,0.12  c72.69-0.01,145.37-0.05,218.06,0.07c3.77,0.01,7.88,0.68,11.23,2.29c6.83,3.3,9.28,9.52,9.27,16.95  c-0.03,84.99-0.02,169.99-0.02,254.98c0,0.84,0.03,1.69-0.04,2.52c-0.66,7.21-4.08,12.65-10.89,15.28  c-2.94,1.14-6.36,1.47-9.56,1.47c-93.93,0.06-187.87,0.04-281.8,0.02c-1.68,0-3.37-0.07-5.03-0.28  c-7.57-0.92-12.37-5.24-14.89-12.3C39.05,333.5,38.74,332.75,38.44,331.99z M200.06,321.51c0-0.03,0-0.05,0-0.08  c43.02,0,86.05,0,129.07,0c6.23,0,7.07-0.85,7.07-7.12c0.01-64.8,0.03-129.6,0.04-194.4c0-6.2-0.89-7.08-7.12-7.08  c-86.05-0.02-172.1-0.05-258.15-0.07c-6.33,0-7.23,0.91-7.23,7.33c0.01,64.7,0.02,129.39,0.03,194.09c0,6.48,0.84,7.34,7.21,7.34  C114.01,321.51,157.04,321.51,200.06,321.51z M269.83,100.22c0-0.02,0-0.04,0-0.07c13.98,0,27.96,0.01,41.94-0.02  c1.57,0,3.16-0.08,4.7-0.38c5.89-1.14,10.17-6.25,10.4-12.24c0.22-5.76-3.68-11.32-9.28-12.8c-2.2-0.58-4.57-0.66-6.87-0.66  c-27.54-0.07-55.08-0.08-82.61-0.08c-1.78,0-3.59,0.09-5.33,0.42c-5.6,1.04-9.91,6.03-10.25,11.67  c-0.49,8.13,5.25,14.11,13.79,14.15C240.82,100.27,255.32,100.22,269.83,100.22z M100.53,87.02c-0.02-7.53-6.04-13.6-13.56-13.69  c-7.5-0.09-13.87,6.26-13.83,13.81c0.03,7.41,6.22,13.62,13.64,13.71C94.33,100.93,100.56,94.67,100.53,87.02z M109.53,86.95  c-0.06,7.55,5.94,13.75,13.45,13.88c7.53,0.13,13.95-6.22,13.93-13.79c-0.01-7.45-6.25-13.7-13.69-13.71  C115.7,73.32,109.59,79.39,109.53,86.95z M173.1,87c-0.04-7.56-6.1-13.6-13.63-13.59c-7.46,0.01-13.64,6.17-13.68,13.62  c-0.03,7.54,6.36,13.89,13.87,13.78C167.15,100.7,173.14,94.55,173.1,87z"></path>	<path class="st0" d="M199.99,178.04c-31.34,0-62.67-0.22-94,0.12c-10.93,0.12-18.09-7.38-17.53-17.61  c0.22-3.88,0.27-7.8-0.01-11.67c-0.77-10.7,5.99-18.58,18.24-18.51c49.52,0.3,99.05,0.08,148.58,0.06  c13.04-0.01,26.08-0.04,39.12-0.01c11.22,0.02,17.27,6.14,17.29,17.43c0.01,4.52,0.02,9.04,0,13.56  c-0.06,10.39-6.33,16.69-16.73,16.7c-31.65,0.03-63.3,0.01-94.95,0.01C199.99,178.09,199.99,178.06,199.99,178.04z M110.96,148.9  c-1.43,2.05-3.41,3.64-3.31,5.07c0.14,1.86,1.94,3.59,3.27,5.78c-1.45,2.78-1.56,4.6,0.46,6c4.68,3.24,6.19-1.58,8.61-3.84  c4.22,4.85,5.87,5.67,8.16,4.18c2.19-1.43,2.32-3.45,0.85-6.43c1.33-2.12,3.22-3.82,3.24-5.54c0.02-1.58-1.98-3.18-3.31-5.08  c1.56-3.14,1.56-5.25-0.7-6.54c-4.49-2.57-5.89,1.73-8.24,4.13c-2.39-2.46-3.98-7.01-8.46-3.96  C108.71,144.59,109.82,147.25,110.96,148.9z M200.23,148.85c1.48-2.82,1.56-4.79-0.53-6.17c-4.55-2.99-6.04,1.63-8.52,3.91  c-2.35-2.54-3.97-6.81-8.3-3.97c-3.09,2.02-1.62,4.75-0.61,6.37c-1.38,1.98-3.4,3.58-3.36,5.14c0.04,1.72,1.96,3.4,3.33,5.51  c-1.03,1.61-2.37,4.35,0.75,6.32c4.38,2.76,5.87-1.7,8.25-4.07c2.39,2.31,3.86,6.83,8.24,4.05c3.1-1.97,1.71-4.72,0.68-6.4  c1.37-1.98,3.3-3.56,3.35-5.2C203.55,152.75,201.67,151.1,200.23,148.85z M146.61,159.69c-1.49,2.76-1.37,4.87,0.72,6.34  c2.31,1.62,3.97,0.81,8.37-4.21c2.2,2.33,3.65,6.8,8.05,4.18c3.11-1.85,1.8-4.67,0.89-6.34c1.34-2.14,3.18-3.78,3.17-5.42  c-0.01-1.63-1.86-3.25-3.18-5.31c0.97-1.68,2.31-4.47-0.8-6.38c-4.43-2.72-5.87,1.74-8.19,4.13c-2.33-2.36-3.74-6.84-8.18-4.19  c-3.25,1.94-1.76,4.82-0.95,6.3c-1.4,2.3-3.2,3.94-3.17,5.54C143.38,155.96,145.21,157.55,146.61,159.69z M235.77,159.53  c1.32-1.93,3.27-3.54,3.26-5.14c-0.01-1.71-1.88-3.41-3.18-5.52c1.44-2.73,1.49-4.93-0.61-6.24c-4.66-2.89-6.01,1.75-8.35,4.02  c-4.4-5.02-5.95-5.79-8.29-4.19c-2.13,1.46-2.22,3.55-0.72,6.5c-1.32,1.95-3.27,3.56-3.25,5.14c0.02,1.74,1.84,3.46,3.16,5.66  c-0.96,1.59-2.1,4.29,0.81,6.14c4.51,2.87,5.93-1.91,8.3-4.07c4.12,4.88,5.78,5.73,8.08,4.24  C237.16,164.69,237.29,162.57,235.77,159.53z"></path>	<path class="st0" d="M200.01,235.45c-31.23,0-62.47-0.24-93.7,0.13c-11.46,0.13-18.51-7.58-17.87-17.94  c0.26-4.19,0.03-8.41,0.05-12.62c0.03-11.05,6.1-17.12,17.23-17.13c41.33-0.04,82.66-0.04,123.98-0.07  c21.45-0.01,42.91-0.03,64.36-0.09c4.31-0.01,8.38,0.61,11.83,3.47c3.89,3.24,5.74,7.43,5.79,12.44c0.05,5.05,0.04,10.1,0.01,15.14  c-0.05,10.38-6.31,16.72-16.71,16.74c-31.65,0.04-63.31,0.02-94.96,0.02C200.01,235.5,200.01,235.48,200.01,235.45z M182.25,204.14  c-2.34-2.59-3.69-6.65-8.11-4.39c-2.37,1.21-2.44,3.32-0.92,6.67c-1.35,1.85-3.36,3.4-3.29,4.83c0.1,1.87,1.86,3.66,3.18,5.96  c-1,1.52-2.09,4.18,0.78,6.08c4.49,2.96,5.96-1.8,8.38-4.05c2.33,2.46,3.68,6.6,8.08,4.19c2.27-1.25,2.31-3.43,0.46-7.21  c5.23-2.99,5.25-6.01,0.04-9.24c1.85-3.61,1.77-5.97-0.51-7.18C185.97,197.49,184.58,201.49,182.25,204.14z M208.83,217.07  c-1.09,1.6-2.2,4.27,0.66,6.18c4.56,3.04,5.98-1.85,8.4-3.98c4.25,4.89,5.78,5.67,8.08,4.2c2.24-1.43,2.37-3.46,0.88-6.42  c1.34-2.14,3.23-3.85,3.25-5.58c0.02-1.56-2-3.15-3.34-5.05c1.1-1.73,2.37-4.4-0.48-6.35c-4.5-3.08-6.02,1.6-8.44,3.98  c-2.33-2.49-3.82-6.9-8.23-4.13c-3.09,1.94-1.81,4.71-0.71,6.41c-1.37,1.99-3.36,3.61-3.32,5.18  C205.59,213.27,207.49,214.96,208.83,217.07z M137.51,217.16c-1.02,1.55-2.12,4.24,0.75,6.12c4.56,2.99,5.99-1.8,8.41-4.05  c2.26,2.37,3.61,6.68,7.95,4.24c3.31-1.86,1.89-4.78,1.05-6.34c1.39-2.3,3.19-3.97,3.15-5.59c-0.05-1.62-1.94-3.19-3.25-5.11  c1.52-3.12,1.5-5.29-0.75-6.55c-4.54-2.55-5.88,1.81-8.29,4.27c-2.12-2.54-3.58-6.68-7.85-4.44c-3.52,1.85-2.08,4.88-1.2,6.53  c-1.39,2.18-3.24,3.77-3.15,5.25C134.45,213.27,136.19,214.96,137.51,217.16z M244.51,206.41c-1.33,1.91-3.3,3.49-3.28,5.05  c0.02,1.74,1.84,3.45,3.18,5.67c-1.41,2.91-1.37,5.07,0.89,6.31c4.55,2.48,5.85-1.91,8.15-4.25c2.33,2.21,3.59,6.69,7.95,4.31  c3.37-1.85,1.99-4.76,1.08-6.42c1.36-2.22,3.18-3.87,3.15-5.5c-0.03-1.62-1.89-3.21-3.19-5.17c1.47-3.09,1.41-5.32-0.8-6.53  c-4.56-2.49-5.86,1.94-8.14,4.17c-4.48-5.04-5.97-5.78-8.29-4.19C243.07,201.32,242.98,203.33,244.51,206.41z"></path>	<path class="st0" d="M200.01,303.91c-20.19,0-40.39,0.01-60.58,0c-6.16,0-6.94-0.79-6.93-6.87c0-14.2,0-28.4,0.01-42.6  c0-4.76,1.01-5.81,5.68-5.81c41.23-0.03,82.46-0.06,123.68-0.07c4.7,0,5.78,1.08,5.78,5.74c0.02,14.51,0.02,29.03,0.01,43.54  c0,4.98-1.13,6.13-6.12,6.14c-20.51,0.02-41.02,0.01-61.53,0.01C200.01,303.96,200.01,303.93,200.01,303.91z M197.2,283.13  c-0.27,0.34-0.54,0.69-0.81,1.03c1.01,1.2,1.87,3.2,3.06,3.42c2.79,0.51,5.8,0.53,8.59,0.01c1.25-0.24,2.97-2.21,3.07-3.49  c0.36-4.84,0.15-9.73,0.15-14.83c-2.37,0.12-4.55,0.72-6.41,0.2c-2.81-0.78-5.17-0.89-7.13,1.46c-1.9,2.28-1.86,6.75,0.03,9.16  c1.9,2.42,4.31,2.72,7.03,1.51c0.33-0.15,0.72-0.17,1.13-0.27c-0.03,3.84-0.77,4.21-3.97,2.76  C200.5,283.43,198.78,283.42,197.2,283.13z M181.34,283.24c4.6-0.06,7.83-3.09,7.8-7.31c-0.04-4.24-3.25-7.09-7.96-7.08  c-4.63,0.01-7.79,2.97-7.75,7.26C173.48,280.38,176.72,283.3,181.34,283.24z M248.65,282.71c0-3.03,0.07-5.74-0.02-8.44  c-0.15-4.66-3.21-6.48-7.5-4.67c-0.68,0.29-1.63-0.08-2.45-0.1c-1.61-0.04-4.05-1.33-4.34,1.24c-0.45,3.89-0.12,7.87-0.12,11.74  c5.2,0.72,5.2,0.72,5.25-3.96c0.01-0.84-0.17-1.77,0.13-2.49c0.43-1.02,1.23-1.88,1.87-2.8c0.65,1,1.71,1.94,1.86,3.02  c0.3,2.1,0.09,4.26,0.09,6.47C245.43,282.71,246.78,282.71,248.65,282.71z M166.29,278.15c-2.46,0-4.55-0.08-6.64,0.02  c-1.79,0.09-2.41-0.66-2.36-2.4c0.09-2.83-0.17-5.68,0.08-8.49c0.26-2.92-0.97-3.79-3.61-3.39c-0.7,0.11-1.4,0.21-2.13,0.32  c0,6.28,0,12.39,0,18.4c5.04,0,9.8,0,14.65,0C166.29,281.1,166.29,279.88,166.29,278.15z M225.26,269.45c-1.8,0-3.22,0-4.79,0  c0,4.52,0,8.85,0,13.09c1.76,0,3.26,0,4.79,0C225.26,278.08,225.26,273.92,225.26,269.45z M225.08,267.49  c0.49-3.75-0.16-4.14-4.66-3.05c0,0.96,0,1.93,0,3.05C222.03,267.49,223.45,267.49,225.08,267.49z"></path>	<path class="st0" d="M200.91,275.71c1.25-1.29,2.02-2.08,2.79-2.87c0.81,1.03,2.04,1.97,2.26,3.11c0.13,0.69-1.31,1.69-2.04,2.55  C203.06,277.7,202.21,276.91,200.91,275.71z"></path>	<path class="st0" d="M184.88,276.2c-1.68,1.48-2.69,2.38-3.7,3.28c-0.81-1.16-2.26-2.32-2.25-3.47c0.01-1.11,1.54-2.2,2.4-3.3  C182.3,273.66,183.27,274.62,184.88,276.2z"></path></g></svg>