<svg xmlns="http://www.w3.org/2000/svg" xmlns:xlink="http://www.w3.org/1999/xlink" id="Layer_1" x="0px" y="0px" viewBox="0 0 400 400" style="enable-background:new 0 0 400 400;" xml:space="preserve"><style type="text/css">	.st0{fill:#322B6A;}</style><g>	<path class="st0" d="M175.87,278.37c0.01,0,0.03,0,0.04,0c0-0.01,0-0.02,0-0.03c-0.01,0-0.03,0-0.04,0  C175.87,278.36,175.87,278.37,175.87,278.37z"></path>	<path class="st0" d="M164.64,313.31c1.58-6.71,5.13-12.18,10.45-16.54c0.37-0.3,0.66-0.92,0.67-1.39c0.06-2.82,0.02-5.64,0.03-8.46  c0.01-2.85,0.05-5.69,0.08-8.54c-0.4-0.03-0.79-0.09-1.19-0.09c-5.86-0.01-11.73,0-17.59,0c-0.36,0-0.73,0-1.09,0  c-0.03,0.08-0.07,0.16-0.1,0.23c1.7,1.37,3.41,2.74,5.18,4.17c-0.83,1.05-1.62,2.04-2.47,3.11c-3.96-3.16-7.88-6.3-11.9-9.52  c4-3.2,7.91-6.33,11.89-9.52c0.84,1.05,1.63,2.04,2.48,3.1c-1.78,1.43-3.49,2.82-5.48,4.42c6.97,0,13.62,0,20.27,0  c0-3.98,0.01-7.96,0.01-11.94c-13.31,0-26.62,0-39.93,0c0,17.34,0,34.61,0,51.88c0.48-0.03,0.97-0.09,1.45-0.09  c8.64-0.01,17.29-0.01,25.93,0C163.96,314.13,164.44,314.16,164.64,313.31z M153.95,290.34c3.89,0,7.77,0,11.8,0  c0,1.26,0,2.48,0,3.78c-3.94,0-7.83,0-11.8,0C153.95,292.88,153.95,291.66,153.95,290.34z M142,290.29c2.63,0,5.18,0,7.82,0  c0,1.27,0,2.51,0,3.83c-2.59,0-5.17,0-7.82,0C142,292.87,142,291.65,142,290.29z M157.81,310.06c-5.24,0-10.47,0-15.79,0  c0-1.26,0-2.55,0-3.88c5.26,0,10.46,0,15.79,0C157.81,307.51,157.81,308.74,157.81,310.06z M161.8,302.07c-6.58,0-13.15,0-19.8,0  c0-1.29,0-2.55,0-3.83c6.63,0,13.18,0,19.8,0C161.8,299.53,161.8,300.75,161.8,302.07z"></path>	<path class="st0" d="M211.54,361.8c-0.01,0-0.03,0-0.04,0c0,0.01,0,0.02,0,0.03c0.01,0,0.03,0,0.04,0  C211.54,361.82,211.54,361.81,211.54,361.8z"></path>	<path class="st0" d="M223.85,326.04c-0.72,0-0.93,0.27-1.09,0.94c-1.61,6.61-5.09,12.06-10.38,16.34c-0.55,0.45-0.78,0.9-0.78,1.61  c0.03,3.61,0.02,7.22,0.01,10.83c-0.01,2.02-0.05,4.04-0.07,6.06c0.36,0.03,0.72,0.09,1.08,0.09c5.94,0.01,11.88,0,17.82,0  c0.33,0,0.65-0.03,1.3-0.06c-1.92-1.54-3.62-2.91-5.41-4.35c0.83-1.04,1.62-2.02,2.48-3.1c3.95,3.16,7.87,6.29,11.9,9.52  c-4,3.2-7.91,6.33-11.89,9.52c-0.84-1.05-1.63-2.04-2.48-3.1c1.77-1.43,3.48-2.82,5.48-4.43c-6.97,0-13.62,0-20.27,0  c0,3.96,0,7.92,0,11.86c13.45,0,26.66,0,39.86,0c0-17.25,0-34.41,0-51.62c-0.27-0.03-0.49-0.07-0.71-0.07  C241.74,326.05,232.8,326.06,223.85,326.04z M237.57,330.07c2.65,0,5.18,0,7.82,0c0,1.31,0,2.59,0,3.92c-2.62,0-5.18,0-7.82,0  C237.57,332.68,237.57,331.43,237.57,330.07z M225.62,330.11c2.59,0,5.16,0,7.84,0c0,1.32,0,2.58,0,3.88c-2.64,0-5.2,0-7.84,0  C225.62,332.68,225.62,331.43,225.62,330.11z M225.59,341.93c0-1.32,0-2.51,0-3.81c6.59,0,13.16,0,19.81,0c0,1.25,0,2.51,0,3.81  C238.8,341.93,232.25,341.93,225.59,341.93z M245.42,349.86c-5.25,0-10.46,0-15.76,0c0-1.22,0-2.47,0-3.81c5.28,0,10.49,0,15.76,0  C245.42,347.33,245.42,348.55,245.42,349.86z"></path>	<path class="st0" d="M186.17,330.05c2.52-0.04,5.04-0.02,7.55-0.02c2.48,0,4.96-0.03,7.44,0.02c0.71,0.01,1.05-0.18,1.25-0.91  c1.65-6.05,1.66-12.09-0.01-18.14c-0.19-0.67-0.47-0.88-1.16-0.87c-5,0.03-10,0.03-14.99,0c-0.71,0-1.05,0.18-1.25,0.91  c-1.65,6.05-1.66,12.09,0.01,18.14C185.2,329.85,185.49,330.06,186.17,330.05z"></path>	<path class="st0" d="M208.11,310.14c-0.58,0-1.16,0-1.84,0c1.82,6.7,1.81,13.23,0.05,19.72c0.14,0.08,0.2,0.14,0.26,0.15  c3.49,0.01,6.98,0.03,10.48-0.01c0.28,0,0.68-0.4,0.8-0.7c2.32-6.11,2.31-12.23,0.06-18.37c-0.24-0.67-0.61-0.8-1.24-0.79  C213.82,310.16,210.97,310.14,208.11,310.14z"></path>	<path class="st0" d="M170.38,310.18c-0.3,0-0.73,0.45-0.86,0.78c-2.28,6.08-2.26,12.17-0.03,18.27c0.24,0.65,0.59,0.82,1.23,0.81  c2.44-0.03,4.88-0.01,7.32-0.01c0.99,0,1.99,0,3.1,0c-1.84-6.68-1.81-13.21-0.01-19.88C177.43,310.15,173.9,310.13,170.38,310.18z"></path>	<path class="st0" d="M177.22,278.29c8.35,0,16.69,0,25.04,0c0.44,0,0.88,0,1.32,0c0-1.42,0-2.67,0-3.98c-9.27,0-18.47,0-27.66,0  c0,1.35,0,2.69,0,4.04C176.35,278.33,176.78,278.29,177.22,278.29z"></path>	<path class="st0" d="M175.91,274.31c0-0.01,0-0.02,0-0.03c-0.01,0-0.02,0-0.03,0c0,0.01,0,0.02,0,0.03  C175.89,274.31,175.9,274.31,175.91,274.31z"></path>	<path class="st0" d="M211.51,365.87c0,0.01,0,0.02,0,0.03c0.01,0,0.02,0,0.03,0c0-0.01,0-0.02,0-0.03  C211.53,365.87,211.52,365.87,211.51,365.87z"></path>	<path class="st0" d="M210.19,361.88c-8.35,0-16.69,0-25.04,0c-0.44,0-0.88,0-1.32,0c0,1.42,0,2.67,0,3.98c9.27,0,18.47,0,27.66,0  c0-1.35,0-2.69,0-4.04C211.07,361.85,210.63,361.88,210.19,361.88z"></path>	<path class="st0" d="M221.55,282.23c3.3,0.01,5.98-2.61,6-5.89c0.02-3.33-2.68-6.06-5.98-6.04c-3.26,0.02-5.95,2.72-5.96,5.97  C215.6,279.54,218.27,282.21,221.55,282.23z M221.5,274.3c1.1-0.05,2.02,0.81,2.05,1.92c0.03,1.11-0.84,2.03-1.93,2.04  c-1.09,0.02-1.99-0.88-1.99-1.98C219.62,275.21,220.44,274.35,221.5,274.3z"></path>	<path class="st0" d="M165.86,357.95c-3.3-0.01-5.97,2.62-5.99,5.89c-0.02,3.33,2.7,6.06,5.99,6.04c3.26-0.03,5.95-2.73,5.95-5.98  C171.81,360.62,169.14,357.96,165.86,357.95z M165.78,365.87c-1.1-0.03-1.94-0.93-1.91-2.05c0.03-1.06,0.9-1.91,1.95-1.91  c1.09,0,1.98,0.9,1.97,2.01C167.78,365.02,166.88,365.9,165.78,365.87z"></path>	<path class="st0" d="M198.22,294.61c0.02,0.17,0,0.26,0.04,0.3c2.57,3.34,4.94,6.81,6.52,10.76c0.08,0.21,0.44,0.43,0.67,0.43  c3.26,0.03,6.52,0.02,10.05,0.02C211.16,299.81,205.5,296.04,198.22,294.61z"></path>	<path class="st0" d="M182.8,305.31c1.58-2.68,3.08-5.39,4.66-8.07c0.51-0.86,1.19-1.62,1.8-2.42c-7.39,1.26-13.04,5.01-17.23,11.17  c0.23,0.07,0.33,0.12,0.43,0.12c3.12,0.01,6.23,0.03,9.35-0.03C182.15,306.09,182.59,305.66,182.8,305.31z"></path>	<path class="st0" d="M215.38,334.18c-0.23-0.07-0.33-0.13-0.42-0.13c-3.12-0.01-6.24-0.03-9.36,0.03  c-0.34,0.01-0.79,0.44-0.99,0.79c-1.49,2.56-2.9,5.16-4.4,7.71c-0.59,0.99-1.36,1.87-2.24,3.04  C205.53,344.1,211.2,340.35,215.38,334.18z"></path>	<path class="st0" d="M188.97,344.98c-2.51-3.2-4.72-6.58-6.3-10.35c-0.12-0.29-0.67-0.55-1.02-0.55c-2.14-0.05-4.28-0.03-6.42-0.03  c-1.03,0-2.05,0-3.31,0c4.32,6.3,9.96,10.07,17.44,11.54C189.13,345.22,189.06,345.09,188.97,344.98z"></path>	<path class="st0" d="M200.55,306.07c-1.7-3.96-4.27-7.17-6.87-10.5c-2.54,3.44-5.22,6.56-6.78,10.5  C191.5,306.07,195.96,306.07,200.55,306.07z"></path>	<path class="st0" d="M200.51,334.11c-4.61,0-9.06,0-13.63,0c1.63,3.96,4.28,7.11,6.83,10.51  C196.26,341.22,198.93,338.06,200.51,334.11z"></path>	<path class="st0" d="M207.72,274.38c0,1.32,0,2.54,0,3.82c1.3,0,2.55,0,3.82,0c0-1.33,0-2.58,0-3.82  C210.2,274.38,208.95,274.38,207.72,274.38z"></path>	<path class="st0" d="M231.66,274.38c0,1.34,0,2.58,0,3.86c1.28,0,2.47,0,3.77,0c0-1.36,0-2.61,0-3.86  C234.11,274.38,232.86,274.38,231.66,274.38z"></path>	<path class="st0" d="M151.99,365.83c1.3,0,2.52,0,3.8,0c0-1.31,0-2.56,0-3.87c-1.27,0-2.49,0-3.8,0  C151.99,363.31,151.99,364.56,151.99,365.83z"></path>	<path class="st0" d="M176.41,361.92c-0.21,0.01-0.56,0.3-0.57,0.48c-0.05,1.14-0.03,2.28-0.03,3.44c1.39,0,2.61,0,3.88,0  c0-1.31,0-2.56,0-3.94C178.56,361.89,177.48,361.87,176.41,361.92z"></path>	<path class="st0" d="M144.13,139.89c0.12,0.03,0.24,0.05,0.36,0.07c23.4,0,46.8,0,70.2,0c-0.55-0.29-1.1-0.58-1.64-0.87  c-2.08-1.15-4-2.53-5.75-4.14c-2.83-2.6-5.07-5.64-6.71-9.11c-1.27-2.67-2.13-5.47-2.51-8.41c-0.14-1.11-0.22-2.23-0.27-3.35  c-0.12-2.53,0.17-5.02,0.75-7.49c0.53-2.28,1.32-4.46,2.38-6.54c1.18-2.33,2.65-4.47,4.4-6.41c2.61-2.91,5.68-5.2,9.19-6.89  c2.85-1.37,5.85-2.29,9-2.63c1.44-0.16,2.89-0.25,4.33-0.24c2.2,0.01,4.36,0.33,6.5,0.87c0.07,0.02,0.14,0.03,0.24,0.05  c0.01-0.13,0.01-0.23,0.01-0.34c0-18.65,0.01-37.29-0.01-55.94c0-1.56-0.63-2.92-1.66-4.08c-1.14-1.29-2.6-1.97-4.29-2.19  c-28.02,0-56.03,0-84.05,0c-1.06,0.15-2.07,0.45-2.96,1.06c-1.56,1.05-2.54,2.49-2.89,4.35c-0.03,0.14-0.06,0.28-0.09,0.41  c0,35.41,0,70.83,0,106.24c0.05,0.18,0.1,0.36,0.15,0.54C139.56,137.63,141.34,139.29,144.13,139.89z M195.04,131.99  c-15.76,0-31.51,0-47.27,0c-0.69,0-1.24-0.42-1.39-1.06c-0.14-0.63,0.16-1.28,0.76-1.54c0.21-0.09,0.45-0.12,0.68-0.12  c7.87-0.01,15.74,0,23.6,0c7.87,0,15.74,0,23.6,0c0.85,0,1.45,0.56,1.45,1.36C196.49,131.42,195.89,131.99,195.04,131.99z   M147.77,109.43c0.16-0.01,0.33,0,0.49,0c13.93,0,27.85,0,41.78,0c0.58,0,1.08,0.16,1.39,0.66c0.55,0.89-0.04,2.02-1.09,2.1  c-0.1,0.01-0.2,0-0.31,0c-7.02,0-14.04,0-21.06,0c-7.04,0-14.08,0-21.12,0c-0.76,0-1.32-0.4-1.47-1.04  C146.18,110.28,146.83,109.46,147.77,109.43z M147.65,99.54c0.1-0.01,0.2,0,0.31,0c4.14,0,8.28,0,12.41,0c4.18,0,8.36,0,12.54,0  c0.72,0,1.27,0.39,1.44,1c0.24,0.88-0.4,1.73-1.35,1.76c-0.1,0-0.2,0-0.31,0c-8.25,0-16.49,0-24.73,0c-0.78,0-1.32-0.33-1.53-0.94  C146.13,100.51,146.73,99.62,147.65,99.54z M181.62,102.3c-0.82,0-1.44-0.62-1.43-1.4c0-0.77,0.61-1.36,1.43-1.37  c1.82-0.01,3.64,0,5.45,0c1.81,0,3.62,0,5.42,0c0.6,0,1.07,0.27,1.32,0.83c0.23,0.51,0.14,1-0.21,1.43  c-0.29,0.36-0.69,0.5-1.14,0.5C188.85,102.31,185.23,102.31,181.62,102.3z M192.38,120.72c-0.02,0.77-0.62,1.38-1.42,1.38  c-5.95,0-11.91,0-17.86,0c-0.82,0-1.46-0.62-1.45-1.39c0.01-0.77,0.63-1.35,1.44-1.35c2.98,0,5.96,0,8.95,0  c2.97,0,5.94,0.01,8.92-0.01C191.74,119.35,192.39,120.03,192.38,120.72z M199.3,92.4c-0.07,0.01-0.14,0-0.21,0  c-8.99,0-17.98,0-26.97,0c-0.8,0-1.34-0.38-1.52-1.07c-0.23-0.85,0.46-1.69,1.4-1.7c1.74-0.01,3.47,0,5.21,0c2.8,0,5.6,0,8.4,0  c4.52,0,9.03,0,13.55,0c0.73,0,1.29,0.4,1.45,1.04C200.81,91.53,200.2,92.33,199.3,92.4z M148.02,82.51c-0.85,0-1.38-0.33-1.6-0.98  c-0.28-0.85,0.33-1.74,1.23-1.79c0.07,0,0.14,0,0.21,0c8.2,0,16.41,0,24.61,0c8.21,0,16.43,0,24.64,0c0.61,0,1.08,0.24,1.34,0.79  c0.26,0.53,0.17,1.03-0.2,1.48c-0.31,0.36-0.72,0.48-1.17,0.5c-0.09,0-0.18,0-0.28,0C180.55,82.51,164.28,82.51,148.02,82.51z   M225.95,82.42c-0.21,0.06-0.44,0.08-0.66,0.08c-4.23,0-8.46,0-12.69,0c-0.46,0-0.89-0.09-1.23-0.45c-0.41-0.44-0.51-0.96-0.27-1.5  c0.24-0.53,0.67-0.82,1.26-0.82c1.58,0,3.17,0,4.75,0c0.61,0,1.23,0,1.84,0c2.2,0,4.39,0,6.59,0c0.73,0,1.28,0.5,1.39,1.25  C227.02,81.57,226.57,82.24,225.95,82.42z M225.86,72.54c-0.14,0.03-0.28,0.03-0.42,0.03c-7.19,0-14.39,0-21.58,0  c-7.23,0-14.47,0-21.7,0c-0.6,0-1.04-0.26-1.29-0.81c-0.25-0.54-0.14-1.04,0.23-1.48c0.24-0.28,0.56-0.43,0.94-0.45  c0.13-0.01,0.27,0,0.4,0c14.36,0,28.71,0,43.07,0c0.76,0,1.36,0.52,1.44,1.27C227.01,71.73,226.53,72.38,225.86,72.54z   M166.2,62.67c-6.15,0-12.3,0-18.45,0c-0.68,0-1.22-0.44-1.36-1.09c-0.14-0.63,0.19-1.27,0.79-1.52c0.19-0.08,0.42-0.11,0.62-0.11  c6.26-0.01,12.53,0,18.79,0c6.26,0,12.53,0,18.79,0c1.08,0,1.74,1.09,1.21,2.03c-0.26,0.46-0.66,0.7-1.21,0.7  C178.99,62.67,172.59,62.67,166.2,62.67z M225.48,62.67c-9.32,0-18.63,0-27.95,0c-0.69,0-1.26-0.48-1.37-1.12  c-0.11-0.67,0.25-1.3,0.89-1.53c0.17-0.06,0.36-0.07,0.54-0.07c4.65,0,9.3,0,13.94,0c4.65,0,9.3,0.01,13.94-0.01  c0.71,0,1.45,0.55,1.46,1.38C226.95,62.08,226.31,62.67,225.48,62.67z M209.38,30.21c0.99-0.01,1.98,0,2.97,0c1.7,0,3.39,0,5.09,0  c2.67,0,5.33,0,8,0c0.74,0,1.29,0.41,1.45,1.07c0.21,0.85-0.42,1.64-1.34,1.7c-0.05,0-0.1,0-0.15,0c-5.31,0-10.62,0-15.93,0  c-0.76,0-1.34-0.43-1.48-1.11C207.81,31.02,208.47,30.22,209.38,30.21z M225.57,42.88c-0.14,0.01-0.29,0-0.43,0  c-6.51,0-13.02,0-19.52,0c-6.59,0-13.18,0-19.77,0c-0.86,0-1.48-0.52-1.53-1.27c-0.06-0.81,0.54-1.45,1.39-1.5  c0.07,0,0.14,0,0.21,0c13.15,0,26.3,0,39.45,0c0.77,0,1.35,0.39,1.52,1.04C227.11,42,226.48,42.84,225.57,42.88z M147.71,30.21  c0.17-0.01,0.35,0,0.52,0c7.63,0,15.26,0,22.89,0c7.73,0,15.47,0,23.2,0c0.74,0,1.3,0.38,1.48,1c0.24,0.87-0.38,1.71-1.32,1.76  c-0.06,0-0.12,0-0.18,0c-15.48,0-30.96,0-46.43,0c-0.74,0-1.3-0.39-1.47-1.02C146.17,31.09,146.78,30.27,147.71,30.21z   M169.69,42.87c-0.46,0.01-0.92,0-1.38,0c-3.19,0-6.37,0-9.56,0c-3.64,0-7.27,0-10.91,0c-0.73,0-1.29-0.41-1.45-1.04  c-0.22-0.87,0.43-1.68,1.37-1.73c0.05,0,0.1,0,0.15,0c7.2,0,14.4,0,21.6,0c0.64,0,1.17,0.22,1.45,0.82  C171.4,41.84,170.73,42.85,169.69,42.87z M147.6,50.04c0.1,0,0.2,0,0.31,0c12.92,0,25.83,0,38.75,0c12.94,0,25.87,0,38.81,0  c0.75,0,1.29,0.4,1.44,1.07c0.18,0.83-0.42,1.62-1.27,1.67c-0.07,0-0.14,0-0.21,0c-25.85,0-51.7,0-77.55,0  c-0.81,0-1.36-0.44-1.5-1.2C146.24,50.86,146.87,50.07,147.6,50.04z M147.78,69.83c5.92,0,11.85,0,17.77,0  c0.8,0,1.43,0.6,1.43,1.37c0,0.77-0.62,1.37-1.42,1.38c-2.97,0-5.94,0-8.92,0c-2.95,0-5.9,0-8.85,0c-0.81,0-1.45-0.61-1.45-1.38  C146.35,70.44,146.98,69.83,147.78,69.83z M147.83,89.63c1.8,0,3.59,0,5.39,0c1.79,0,3.57,0,5.36,0c0.89,0,1.49,0.57,1.5,1.39  c0,0.81-0.6,1.38-1.47,1.38c-3.59,0-7.19,0-10.78,0c-0.84,0-1.49-0.62-1.48-1.39C146.35,90.22,146.98,89.63,147.83,89.63z   M147.36,119.41c0.12-0.04,0.26-0.04,0.39-0.04c2.24,0,4.48,0,6.71,0c2.24,0,4.48,0,6.71,0c0.78,0,1.41,0.6,1.41,1.35  c0,0.77-0.63,1.39-1.42,1.39c-4.46,0-8.93,0-13.39,0c-0.73,0-1.3-0.5-1.42-1.23C146.26,120.26,146.7,119.6,147.36,119.41z"></path>	<path class="st0" d="M252.73,105.5c-1.01-3.29-2.59-6.27-4.75-8.94c-2.33-2.88-5.13-5.18-8.4-6.9c-2.84-1.49-5.85-2.43-9.03-2.83  c-1.46-0.19-2.93-0.25-4.39-0.19c-3.52,0.14-6.89,0.95-10.1,2.43c-2.46,1.13-4.69,2.61-6.69,4.42c-2.32,2.1-4.23,4.53-5.7,7.29  c-1.66,3.12-2.67,6.44-2.99,9.95c-0.11,1.15-0.15,2.32-0.11,3.48c0.12,3.6,0.93,7.04,2.46,10.31c1.17,2.52,2.69,4.79,4.58,6.84  c3.16,3.43,6.95,5.87,11.37,7.33c1.87,0.62,3.8,1.02,5.77,1.18c0.35,0.03,0.71,0.07,1.06,0.11c0.94,0,1.88,0,2.82,0  c0.92-0.1,1.84-0.18,2.76-0.31c2.49-0.37,4.87-1.11,7.14-2.18c2.21-1.04,4.24-2.35,6.09-3.94c2.39-2.06,4.36-4.46,5.9-7.21  c1.67-2.98,2.72-6.17,3.17-9.55c0.07-0.54,0.13-1.09,0.2-1.63c0-1.27,0-2.53,0-3.8c-0.06-0.41-0.13-0.82-0.17-1.23  C253.52,108.54,253.19,107,252.73,105.5z M239.37,127.11c-1.11,1.3-2.56,2.03-4.28,2.19c-2,0.18-3.74-0.44-5.15-1.85  c-1.59-1.58-2.22-3.53-1.85-5.76c0.04-0.26-0.02-0.36-0.26-0.47c-1.73-0.8-3.46-1.61-5.18-2.42c-1.04-0.49-2.09-0.97-3.13-1.47  c-0.16-0.08-0.25-0.06-0.36,0.08c-1.16,1.39-2.64,2.21-4.44,2.36c-1.93,0.16-3.62-0.43-5.03-1.77c-1.4-1.33-2.09-2.98-2.04-4.9  c0.04-1.6,0.62-3,1.7-4.18c1.11-1.22,2.5-1.94,4.13-2.1c1.93-0.19,3.62,0.4,5.06,1.7c0.28,0.25,0.59,0.48,0.94,0.76  c0.71-0.33,1.57-0.73,2.43-1.13c1.94-0.91,3.88-1.82,5.82-2.72c0.29-0.13,0.42-0.24,0.35-0.62c-0.67-3.66,2.14-7.21,5.86-7.53  c3.55-0.3,6.68,2.38,7.03,5.84c0.36,3.53-2.29,6.79-5.83,7.11c-2.28,0.2-4.15-0.61-5.64-2.33c-0.14-0.16-0.23-0.17-0.41-0.09  c-2.85,1.34-5.71,2.68-8.56,4.02c0.04,0.48,0.11,0.95,0.11,1.42c0,0.43-0.06,0.85-0.11,1.28c-0.02,0.17,0.01,0.26,0.17,0.33  c2.8,1.3,5.6,2.61,8.4,3.93c0.19,0.09,0.27,0.05,0.4-0.1c1.38-1.61,3.13-2.45,5.25-2.35c2.41,0.11,4.28,1.25,5.44,3.37  C241.54,122.21,241.23,124.94,239.37,127.11z"></path>	<path class="st0" d="M234.51,119.09c-2.1,0-3.76,1.62-3.76,3.66c0,2.17,1.64,3.85,3.76,3.84c2.05,0,3.74-1.69,3.75-3.74  C238.26,120.76,236.6,119.09,234.51,119.09z"></path>	<path class="st0" d="M214.16,109.54c-2.01-0.01-3.79,1.56-3.78,3.76c0,2.3,1.89,3.79,3.81,3.75c2.05-0.03,3.68-1.67,3.68-3.75  C217.94,111.32,216.25,109.54,214.16,109.54z"></path>	<path class="st0" d="M234.49,107.53c2.06-0.01,3.75-1.7,3.76-3.77c0-2.03-1.67-3.7-3.67-3.75c-2.14-0.05-3.87,1.72-3.83,3.73  C230.75,105.85,232.41,107.54,234.49,107.53z"></path>	<path class="st0" d="M83.91,242.14c24.62-3.27,41.53-26.58,37.28-51.39c-4.11-24.01-28.09-40.43-51.93-35.54  c-29.36,6.02-44.28,37.74-30.36,64.36c0.59,1.12,0.71,2.82,0.34,4.04c-1.44,4.89-3.22,9.68-4.73,14.54  c-0.38,1.21-0.25,2.57-0.35,3.86c1.37-0.09,2.82,0.07,4.1-0.32c4.78-1.47,9.46-3.25,14.26-4.64c1.31-0.38,3.1-0.23,4.31,0.39  c6.6,3.34,13.53,5.15,20.94,5.32C79.82,242.55,81.88,242.41,83.91,242.14z M55.62,212.73c-1.83,0-2.7-0.76-2.69-2.64  c0.03-7.75,0.02-15.5,0-23.26c0-1.69,0.76-2.53,2.48-2.53c10.2,0.01,20.4,0.01,30.6-0.01c1.73,0,2.52,0.81,2.52,2.5  c-0.01,1.74,0,3.47,0,5.86c3.86-2.43,7.06-4.5,10.33-6.47c2.44-1.48,3.65-0.81,3.67,2.06c0.05,6.87,0.05,13.74,0,20.61  c-0.02,2.82-1.26,3.45-3.73,1.95c-3.26-1.97-6.45-4.04-10.26-6.43c0,2.23-0.03,3.94,0.01,5.65c0.04,1.82-0.72,2.72-2.61,2.72  C75.83,212.71,65.73,212.71,55.62,212.73z"></path>	<path class="st0" d="M366.28,176.5c-0.47,0.3-0.83,0.52-1.18,0.75c-15.66,10.13-31.32,20.25-46.95,30.42  c-1.92,1.25-3.52,1.23-5.44-0.02c-13.01-8.49-26.07-16.91-39.12-25.36c-2.96-1.91-5.92-3.82-9.06-5.86c0,0.51,0,0.79,0,1.07  c0,16.37-0.01,32.74,0,49.1c0.01,7.11,5.53,12.66,12.63,12.66c25.52,0.02,51.04,0.02,76.56,0c7.1,0,12.61-5.55,12.62-12.68  c0.02-16.37,0.01-32.74,0-49.1C366.35,177.2,366.31,176.91,366.28,176.5z"></path>	<path class="st0" d="M277.32,157.82c-6.12,0.01-11.18,4.04-12.44,9.82c-0.14,0.62-0.02,0.93,0.52,1.28  c16.46,10.63,32.91,21.29,49.35,31.95c0.53,0.34,0.89,0.33,1.4-0.01c16.41-10.64,32.84-21.27,49.27-31.89  c0.54-0.35,0.73-0.66,0.58-1.36c-1.28-5.75-6.3-9.78-12.35-9.79c-12.72-0.02-25.44-0.01-38.17-0.01  C302.77,157.81,290.04,157.8,277.32,157.82z"></path>	<polygon class="st0" points="65.79,145.86 70.96,145.86 70.96,83.1 128.1,83.1 128.1,77.93 65.79,77.93  "></polygon>	<polygon class="st0" points="315.84,145.86 321.01,145.86 321.01,77.93 258.7,77.93 258.7,83.1 315.84,83.1  "></polygon>	<polygon class="st0" points="70.96,256.43 65.79,256.43 65.79,324.36 128.1,324.36 128.1,319.19 70.96,319.19  "></polygon>	<polygon class="st0" points="315.84,319.19 258.7,319.19 258.7,324.36 321.01,324.36 321.01,256.43 315.84,256.43  "></polygon></g></svg>