<svg xmlns="http://www.w3.org/2000/svg" xmlns:xlink="http://www.w3.org/1999/xlink" id="Layer_1" x="0px" y="0px" viewBox="0 0 400 400" style="enable-background:new 0 0 400 400;" xml:space="preserve"><style type="text/css">	.st0{fill:#322B6A;}</style><g>	<path class="st0" d="M375,168.67c0,6.15,0,12.31,0,18.46c-0.2,0.88-0.5,1.75-0.58,2.64c-2.77,31.82-14.93,59.56-36.29,83.27  c-1.55,1.73-1.93,3.16-1.21,5.4c5.14,16.03,10.17,32.09,15.11,48.18c0.65,2.11,1.11,4.54,0.74,6.66  c-1.17,6.64-7.51,9.73-14.52,7.26c-22.63-7.97-45.23-16.03-67.88-23.95c-1.71-0.6-3.81-0.79-5.57-0.41  c-32.29,6.94-63.48,3.73-93.2-10.71c-68.15-33.1-98.19-112.42-69.31-182.33c26.4-63.91,96.84-100.35,163.98-83.01  c57.88,14.95,93.13,53.01,106.18,111.41C373.69,157.16,374.16,162.96,375,168.67z M305.23,148.12c0-6.72,0.01-13.44,0-20.16  c-0.02-6.52-2.19-9.75-8.26-11.79c-19.72-6.64-39.44-13.3-59.25-19.67c-2.72-0.88-6.21-0.9-8.93-0.03  c-19.92,6.39-39.74,13.09-59.57,19.73c-5.65,1.89-8.1,5.3-8.12,11.21c-0.03,12.64-0.11,25.29,0.02,37.93  c0.45,42.42,27.53,79.99,67.68,93.68c2.67,0.91,6.23,0.95,8.86-0.02c34.25-12.64,55.88-36.78,64.91-72.16  C305.82,174.11,305.26,161.09,305.23,148.12z"></path>	<path class="st0" d="M81.63,118.98c-16.5,46.14-14.81,91.02,7.92,134.15c22.67,43.01,58.46,70.01,105.53,83.27  c-5.45,1.74-10.82,3.76-16.35,5.17c-19.06,4.87-38.23,5.19-57.49,0.99c-1.75-0.38-3.86,0-5.6,0.6  c-18.78,6.56-37.53,13.2-56.26,19.9c-3.72,1.33-7.29,1.79-10.8-0.41c-4.17-2.61-5.66-7.19-3.98-12.61  c4.2-13.58,8.4-27.15,12.74-40.68c0.69-2.13,0.39-3.51-1.09-5.17c-49.47-55.45-38.9-141.63,22.48-183.46  C79.54,120.18,80.4,119.71,81.63,118.98z"></path>	<path class="st0" d="M284.72,155.03c0.41,10.66-0.05,23.71-4.75,36.22c-8.18,21.79-22.88,37.43-44.3,46.6  c-1.44,0.61-3.62,0.63-5.03-0.02c-30.94-14.19-47.28-38.41-48.95-72.35c-0.47-9.66-0.03-19.36-0.13-29.03  c-0.02-2.03,0.56-2.94,2.58-3.6c15.67-5.1,31.27-10.39,46.93-15.51c1.28-0.42,2.94-0.44,4.21-0.02  c15.56,5.08,31.07,10.33,46.64,15.39c2.27,0.74,2.94,1.81,2.86,4.12C284.6,142.06,284.72,147.31,284.72,155.03z M222.87,175.37  c-1.79-2.4-3.44-4.7-5.18-6.93c-3.78-4.85-9.81-5.86-14.49-2.47c-4.59,3.33-5.52,9.59-2.02,14.55c3.41,4.83,6.92,9.59,10.51,14.29  c3.63,4.76,8.8,5.89,13.89,2.85c12.29-7.34,24.58-14.71,36.65-22.41c2.15-1.37,3.91-4.2,4.67-6.71c1.25-4.15-0.38-7.9-4.04-10.39  c-3.76-2.56-7.7-2.42-11.55-0.08C241.88,163.79,232.48,169.52,222.87,175.37z"></path></g></svg>