<svg xmlns="http://www.w3.org/2000/svg" xmlns:xlink="http://www.w3.org/1999/xlink" id="Layer_1" x="0px" y="0px" viewBox="0 0 400 400" style="enable-background:new 0 0 400 400;" xml:space="preserve"><style type="text/css">	.st0{fill:#322B6A;}</style><g>	<path class="st0" d="M342.76,30.01c6.09,1.67,11.92,3.81,16.68,8.24c6.74,6.28,10.47,13.99,10.49,23.18  c0.11,35.39,0.07,70.79,0.04,106.18c-0.01,6.77-4.47,11.1-11.34,11.13c-9.18,0.05-18.36,0.01-27.54,0.01c-1.09,0-2.18,0-3.48,0  c-0.54,10.32-4.42,18.82-12.46,25.13c-6.24,4.89-13.43,7.13-21.35,6.68c-14.6-0.83-29.15-12.12-30.18-31.8c-1.25,0-2.52,0-3.8,0  c-8.96,0-17.92,0.02-26.88-0.01c-7.4-0.02-11.67-4.34-11.68-11.8c-0.02-14.27-0.02-28.54,0-42.81c0.02-9.52,7.6-14.37,16.32-10.36  c4.32,1.99,8.22,1.36,11.74-1.57c3.12-2.6,4.48-6.04,3.52-10.08c-1.05-4.39-3.96-7.29-8.34-7.99c-2.24-0.36-4.88,0.11-7,1.02  c-8.8,3.74-16.22-1-16.23-10.64c-0.02-13.6,0.21-27.21-0.1-40.81c-0.14-6.51,1.98-11.12,8.06-13.69  C267.06,30.01,304.91,30.01,342.76,30.01z"></path>	<path class="st0" d="M30,120.98c0.65-2.08,1.18-4.21,1.98-6.23C37,102.18,46.32,94.28,59.76,94.02c32.39-0.62,64.8-0.2,97.73-0.2  c0,1.2,0,2.36,0,3.51c0,16.92-0.01,33.84,0,50.76c0.01,9.86,7.38,14.64,16.36,10.64c4.89-2.18,10.18-0.89,13.34,3.25  c2.91,3.82,2.86,8.81-0.13,12.59c-3.13,3.96-8.49,5.5-13.08,2.88c-7.26-4.15-17.04,1.11-16.6,10.66c0.45,9.82,0.1,19.68,0.1,29.52  c0,1.08,0,2.17,0,3.42c-7.19,0-14.09,0-20.97,0c-3.2-20.45-15.37-32.07-33.06-31.67c-13.9,0.32-29.86,10.77-31.12,31.85  c-14.09,0-28.21,0-42.33,0C30,187.82,30,154.4,30,120.98z"></path>	<path class="st0" d="M30,242.5c18.14,0,36.29-0.28,54.42,0.11c9.69,0.21,14.78-9.31,10.63-16.59c-2.62-4.59-0.9-10.12,3.26-13.28  c3.81-2.89,8.84-2.8,12.58,0.22c3.92,3.16,5.03,8.3,2.86,13.16c-4,8.98,0.77,16.35,10.63,16.37c9.84,0.02,19.69,0,29.53,0  c1.08,0,2.16,0,3.41,0c0,7.2,0,14.11,0,20.98c-20.2,3.03-31.92,15.24-31.69,32.77c0.18,13.34,9.9,29.93,31.68,31.43  c0,13.97,0,27.96,0,42.31c-1.38,0-2.68,0-3.97,0c-29.42,0-58.84,0-88.27,0c-18.87,0-29.9-8.51-34.66-26.74  c-0.05-0.19-0.27-0.33-0.41-0.49C30,309.34,30,275.92,30,242.5z"></path>	<path class="st0" d="M178.74,369.99c0-18.35,0.01-36.16,0-53.96c0-10.31-7.17-14.99-16.66-10.89c-4.71,2.03-9.95,0.68-13.05-3.37  c-2.91-3.81-2.87-8.82,0.11-12.59c3.07-3.87,8.18-5.12,12.83-3.13c9.69,4.15,16.76-0.51,16.76-11.07c0-10.7,0-21.41,0-32.3  c7.18,0,14.08,0,20.96,0c3.25,20.47,15.45,32.08,33.1,31.67c13.63-0.32,29.73-10.41,31.1-31.66c13.98,0,27.97,0,42.33,0  c0,1.25,0,2.43,0,3.61c0,29.98,0.01,59.95,0,89.93c-0.01,20.19-13.53,33.75-33.66,33.76c-30.09,0.01-60.17,0-90.26,0  C181.23,369.99,180.15,369.99,178.74,369.99z"></path></g></svg>