<svg xmlns="http://www.w3.org/2000/svg" xmlns:xlink="http://www.w3.org/1999/xlink" id="Layer_1" x="0px" y="0px" viewBox="0 0 400 400" style="enable-background:new 0 0 400 400;" xml:space="preserve"><style type="text/css">	.st0{fill:#322B6A;}</style><g>	<g>		<path class="st0" d="M240.38,320.32c30.49,0,60.17,0,89.85,0c-5.55-2.8-10.19-6.54-12.82-12.3c-2.68-5.87-2.77-11.85-0.3-17.81   c3.6-8.7,12.91-14.37,22-13.47c10.06,1,17.8,7.96,19.9,17.9c2.16,10.23-2.59,18.54-15.39,25.74c4.71,0,8.45,0.08,12.18-0.03   c3.24-0.09,5.57,0.94,5.86,4.46c0.25,2.96-2.08,4.94-5.92,4.95c-19.44,0.05-38.87,0.02-58.31,0.03c-1.58,0-3.16,0-5.46,0   c0.96,1.46,1.52,2.43,2.2,3.31c4.49,5.78,9.1,11.47,13.44,17.36c0.88,1.2,1.56,3.53,0.97,4.59c-0.72,1.3-2.84,2.55-4.38,2.57   c-12.24,0.2-24.49,0.19-36.74,0.01c-1.48-0.02-3.75-1.06-4.21-2.2c-0.55-1.37-0.07-3.73,0.86-5.02   c4.13-5.71,8.58-11.19,12.9-16.77c0.86-1.11,1.69-2.25,3.1-4.13c-2.33,0-3.74,0-5.14,0c-18.9,0-37.81,0-56.71,0   c-1.06,0-2.13,0.01-3.19-0.02c-2.97-0.08-4.95-1.54-4.93-4.57c0.02-3,1.93-4.53,4.94-4.54c4.21-0.02,8.42,0,13.06,0   c-13.81-8.58-18.16-17.11-14.68-28.25c2.88-9.24,11.94-15.77,21.45-15.47c10.07,0.32,18.52,7.31,20.86,17.24   C258.33,304.74,253.53,313.25,240.38,320.32z M234.47,284.42c-0.46,0.39-2.34,1.22-2.75,2.52c-0.7,2.23,0.72,3.74,3.18,3.99   c4.68,0.48,6.85,3.28,7.78,7.72c0.26,1.26,2.1,2.18,3.21,3.26c0.98-1.35,2.78-2.67,2.81-4.04   C248.85,291.19,242.55,284.86,234.47,284.42z M337.24,284.43c-0.47,0.46-2.52,1.58-2.51,2.68c0.01,1.28,1.68,3.43,2.9,3.64   c4.76,0.85,7.12,3.37,7.89,8.09c0.19,1.17,2.23,2.04,3.42,3.04c0.9-1.27,2.51-2.49,2.59-3.8   C351.93,291.38,345.43,284.74,337.24,284.43z"></path>	</g>	<path class="st0" d="M309.72,287.14c-3.3,7.99-3.16,16.36,0.42,24.2c0.15,0.33,0.31,0.66,0.47,0.98h-49.55  c3.43-5.99,4.27-12.76,2.51-20.24c-3.19-13.56-14.6-22.97-28.39-23.41c-0.3-0.01-0.59-0.01-0.89-0.01  c-12.88,0-24.58,8.67-28.46,21.1c-3.14,10.08-0.87,17.99,3.09,23.97c-4.13,1.99-6.72,6.02-6.77,11.13  c-15.07,0-30.13,0.01-45.2,0.01h-3.29c-0.07-0.68-0.12-0.95-0.12-1.21c0-22.43-0.03-44.85,0.05-67.27  c0.01-1.07,0.66-2.38,1.43-3.16c23.77-23.86,47.59-47.67,71.41-71.48c0.5-0.51,1.1-0.92,2.01-1.67v3.44  c0,11.35-0.01,22.69,0.02,34.04c0,1.4,0.01,2.87,0.38,4.2c1.12,4.03,5.13,6.59,9.16,6.04c4.53-0.62,7.57-4.16,7.58-9.1  c0.04-19.77,0.04-39.53,0-59.3c-0.01-5.46-3.54-8.95-9-9c-6.56-0.06-13.12-0.01-19.68-0.01c-13.21,0-26.41-0.02-39.62,0.01  c-4.48,0.01-7.8,2.4-8.83,6.22c-1.53,5.68,2.45,10.83,8.65,10.89c11.88,0.1,23.75,0.03,35.63,0.03c0.92,0.01,1.84,0,3.28,0  c-0.86,1-1.29,1.54-1.77,2.02c-23.81,23.82-47.62,47.64-71.5,71.4c-0.86,0.86-2.43,1.43-3.67,1.43  c-21.81,0.09-43.61,0.07-65.41,0.06c-0.78,0-1.55-0.06-2.55-0.11v-3.3c0-29.82,0.02-59.65,0-89.47c4.2,1.15,8.57,1.81,13.11,1.97  c17.01,0.61,31.89-4.85,44.07-16.73c14.31-13.95,20.04-31.1,17.81-50.87h159.57c2.91,1.34,5.04,3.47,6.38,6.38v192.34  C311.15,284.07,310.37,285.57,309.72,287.14z"></path>	<path class="st0" d="M124.08,260.81c-0.85,0.48-1.85,0.8-2.52,1.47c-13.69,13.63-27.34,27.29-41,40.95  c-4.84,4.84-5.39,9.84-1.52,13.71c3.88,3.88,8.85,3.33,13.71-1.52c13.66-13.66,27.33-27.31,40.95-41c0.66-0.67,0.99-1.67,1.47-2.52  c0.33,0.25,0.66,0.5,0.99,0.75c0.04,0.85,0.13,1.7,0.13,2.55c0.01,23.57,0.01,47.14,0,70.71c0,5.66-2.26,9.03-6.73,10.08  c-1.02,0.24-2.11,0.26-3.16,0.26c-25.61,0.01-51.22,0.02-76.83,0.01c-6.45,0-9.84-3.39-9.84-9.84c-0.01-25.61-0.01-51.22,0-76.82  c0-6.35,3.28-9.86,9.55-9.87c24.19-0.06,48.38-0.03,72.57-0.02c0.5,0,0.99,0.11,1.49,0.16  C123.59,260.17,123.83,260.49,124.08,260.81z"></path>	<g>		<path class="st0" d="M124.01,74.9c-0.33,8.62-1.65,17.04-4.96,25.07C114.51,111,106.97,119.52,97.05,126   c-2.32,1.52-4.79,2.82-7.19,4.2c-1.32,0.76-2.61,0.69-3.96-0.01c-6.97-3.62-13.32-8.06-18.68-13.84   c-6.85-7.38-11.22-16.05-13.47-25.82c-1.47-6.37-2-12.83-1.96-19.35c0.01-1.97,1.37-3.5,3.39-3.53   c11.16-0.15,20.7-4.73,29.71-10.79c0.16-0.11,0.32-0.22,0.48-0.33c1.99-1.38,3.12-1.4,5.12,0.02c4.13,2.91,8.5,5.41,13.17,7.37   c5.32,2.23,10.8,3.71,16.63,3.71c2.36,0,3.75,1.5,3.75,3.88C124.01,72.64,124.01,73.77,124.01,74.9z M87.82,108.92   c2.33,0,4.66,0,6.99,0c0.06,0,0.13,0,0.19,0c3.11-0.09,5.64-2.53,5.68-5.63c0.06-4.27,0.05-8.54,0-12.81   c-0.02-1.89-0.84-3.49-2.44-4.5c-0.83-0.52-1.04-1.08-1.06-1.99c-0.11-6.21-5.38-10.31-11.44-8.97c-4.45,0.99-7.14,4.46-7.15,9.32   c0,0.69-0.18,1.07-0.79,1.45c-1.81,1.13-2.71,2.82-2.72,4.95c-0.02,4.08-0.02,8.15,0,12.23c0.02,3.43,2.52,5.93,5.95,5.96   C83.29,108.93,85.56,108.92,87.82,108.92z"></path>		<path class="st0" d="M57.86,131.28c-4.41,3.11-8.82,1.44-10.93-1.08c-2.46-2.94-2.43-7.32,0.15-10.23   c2.52-2.86,6.82-3.44,10.06-1.37c3.57,2.28,4.45,6.27,2.35,10.96c0.3,0.23,0.62,0.49,0.96,0.72c9.57,6.76,20.23,9.83,31.86,8.53   c18.2-2.02,31.22-11.58,38.87-28.18c4.29-9.3,4.97-19.11,2.84-29.12c-0.04-0.19-0.09-0.38-0.12-0.57   c-0.13-0.74,0.1-1.32,0.87-1.49c0.78-0.17,1.24,0.3,1.39,1.01c0.3,1.42,0.63,2.84,0.81,4.28c2.01,16.62-2.72,31.01-14.71,42.71   c-10.1,9.86-22.45,14.38-36.57,13.88c-9.86-0.35-18.78-3.55-26.79-9.31C58.56,131.79,58.22,131.55,57.86,131.28z"></path>		<path class="st0" d="M112.59,51.57c-2.76-1.73-5.67-3.12-8.72-4.2c-26.64-9.41-55.08,5.91-61.91,33.36   c-1.57,6.33-1.7,12.73-0.64,19.16c0.19,1.18-0.06,1.71-0.81,1.86c-0.81,0.16-1.29-0.29-1.48-1.48   c-2.02-12.66,0.21-24.51,7.21-35.27c8.15-12.54,19.78-19.98,34.55-22.21c11.45-1.73,22.26,0.49,32.28,6.35   c0.66,0.39,1.04,0.39,1.66-0.11c2.65-2.14,6.47-1.92,8.97,0.41c2.53,2.37,2.95,6.17,0.99,9.02c-1.92,2.8-5.62,3.8-8.69,2.36   c-3.1-1.46-4.68-4.92-3.74-8.19C112.35,52.3,112.47,51.97,112.59,51.57z"></path>		<path class="st0" d="M80.97,84.78c-0.37-4.38,2.65-7.71,6.93-7.71c4.28,0,7.28,3.3,6.93,7.71C90.23,84.78,85.63,84.78,80.97,84.78   z"></path>		<path class="st0" d="M87.86,102.7c-2.93,0-3.22-0.34-2.66-3.22c0.16-0.85,0.35-1.71,0.53-2.56c0.19-0.88,0.33-1.71-0.15-2.61   c-0.5-0.92-0.05-2.11,0.78-2.76c0.83-0.65,2.01-0.7,2.9-0.12c0.87,0.56,1.5,1.72,1.05,2.58c-0.75,1.44-0.23,2.75,0.02,4.12   c0.14,0.79,0.34,1.58,0.47,2.37c0.25,1.51-0.33,2.19-1.87,2.2C88.57,102.71,88.21,102.7,87.86,102.7z"></path>	</g></g></svg>