<svg xmlns="http://www.w3.org/2000/svg" xmlns:xlink="http://www.w3.org/1999/xlink" id="Layer_1" x="0px" y="0px" viewBox="0 0 400 400" style="enable-background:new 0 0 400 400;" xml:space="preserve"><style type="text/css">	.st0{fill:#322B6A;}</style><g>	<path class="st0" d="M206.1,312.51c-3.98,0.5-8.13,0.51-12.11,0c-20.39-2.61-38.6,15.73-31.09,40.17c24.72,0,49.65,0,74.37,0  C244.73,328.59,226.75,309.94,206.1,312.51z"></path>	<path class="st0" d="M106.37,119.68c-11.61-7.76-42.6-7.23-53.24,1.02c-11.2,8.68-13.56,20.31-10.76,34.07c25.69,0,50.72,0,76.11,0  C121.02,140.21,118.91,128.06,106.37,119.68z"></path>	<path class="st0" d="M343.05,124.04c-16.58-6.86-34.72-7.85-50.71,2.15c-12.1,7.57-13.41,20.23-10.56,34c25.49,0,50.52,0,76.44,0  C359.97,143.91,357.48,130.01,343.05,124.04z"></path>	<path class="st0" d="M219.17,288.82c-0.14-10.3-9.04-19.3-19.09-18.42c-10.83,0.95-17.25,7.39-18.06,18.25  c-0.76,10.13,8.27,18.95,18.57,19C211.05,307.7,219.31,299.33,219.17,288.82z"></path>	<path class="st0" d="M80.34,110.21c10.21,0.91,19.18-7.83,19.43-18.11c0.25-10.4-8.01-18.79-18.56-18.85  c-10.36-0.06-19.43,8.54-18.77,18.65C63.14,102.78,69.48,109.24,80.34,110.21z"></path>	<path class="st0" d="M320.11,115.64c10.66-0.63,17.57-6.31,18.36-17.56c0.75-10.74-7-19.08-17.65-19.43  c-10.45-0.34-19.21,7.81-19.4,18.07C301.23,106.83,310.01,116.23,320.11,115.64z"></path>	<path class="st0" d="M200,53.31c24.97,0,49.27,7.08,70.28,20.46l3.22-5.06c-21.97-14-47.39-21.4-73.5-21.4  c-24.99,0-49.46,6.82-70.78,19.71l3.11,5.13C152.7,59.83,176.11,53.31,200,53.31z"></path>	<path class="st0" d="M257.02,302.57l2.62,5.4c22.86-11.08,42.21-28.28,55.94-49.73c14.11-22.04,21.57-47.55,21.57-73.77h-6  C331.15,234.38,302.05,280.73,257.02,302.57z"></path>	<path class="st0" d="M68.85,184.47h-6c0,54.64,32.45,104.05,82.67,125.87l2.39-5.5C99.88,283.96,68.85,236.72,68.85,184.47z"></path>	<path class="st0" d="M242.3,205.82c-2.87-2.35-5.81-4.62-8.85-6.76c-2.77-1.95-5.61-3.84-8.61-5.42c-2.86-1.51-5.99-1.69-9.05-0.31  c-2.24,1.01-3.89,2.72-5.38,4.63c-0.86,1.1-1.8,2.27-2.96,2.98c-2.01,1.22-4.11,0.45-6.06-0.46c-6.15-2.84-11.62-6.62-16.09-11.77  c-3.12-3.59-5.62-7.58-7.3-12.03c-1.42-3.75-0.59-6.41,2.61-8.87c0.63-0.49,1.3-0.93,1.93-1.42c3.7-2.84,5.58-6.99,3.11-11.72  c-1.89-3.61-4-7.14-6.3-10.5c-2.5-3.67-5.39-7.05-8.82-9.94c-2.56-2.16-5.5-2.67-8.68-1.95c-2.59,0.59-4.98,1.72-7.2,3.16  c-4.29,2.78-7.22,6.56-8.25,11.64c-0.9,4.43-0.05,8.68,1.66,12.8c4.1,9.87,9.17,19.2,15.44,27.86c5.27,7.28,11.25,13.92,17.96,19.9  c7.83,6.98,16.38,12.96,25.64,17.86c4.71,2.49,9.63,4.58,14.48,6.79c1.02,0.47,2.17,0.66,3.25,0.98c0.83,0,1.67,0,2.5,0  c0.08-0.05,0.16-0.14,0.25-0.16c8.05-1.58,13.78-6.28,17.57-13.38C248.1,214.24,247.14,209.78,242.3,205.82z"></path>	<path class="st0" d="M216.77,128.81c-4.71-1.59-9.59-2.19-14.55-2.11c-2.77,0.05-4.38,1.75-4.44,4.47  c-0.05,2.24,1.3,3.55,4.01,3.86c5.82,0.65,11.49,1.92,16.9,4.18c5.78,2.41,10.73,5.94,14.42,11.07c5.23,7.27,7.28,15.61,8.2,24.34  c0.13,1.27,0.22,2.57,0.6,3.77c0.52,1.64,2.09,2.44,4,2.33c1.96-0.11,3.3-1.03,3.66-2.8c0.27-1.34,0.26-2.74,0.37-4.12  c-0.08-8.58-2.31-16.52-6.81-23.81C236.86,139.82,228.14,132.65,216.77,128.81z"></path>	<path class="st0" d="M227.12,170.84c0.26,1.5,0.32,3.04,0.68,4.52c0.46,1.91,1.94,2.83,4,2.75c2.14-0.09,3.55-1.13,3.89-3.06  c0.2-1.15,0.18-2.34,0.26-3.52c-0.06-4.85-1.17-9.45-3.55-13.66c-6.2-10.96-15.83-16.54-28.23-17.56c-3.19-0.26-5.36,2.5-4.57,5.62  c0.52,2.04,2.12,2.63,3.92,3.06c3.03,0.72,6.09,1.34,9.04,2.31c5.05,1.66,9.14,4.61,11.56,9.53  C225.67,164,226.52,167.38,227.12,170.84z"></path>	<path class="st0" d="M206.59,154.18c-1.1,0.27-2.25,0.41-3.28,0.85c-1.53,0.65-2.45,2.55-2.28,4.33c0.16,1.72,1.24,2.66,2.77,3.13  c0.92,0.29,1.88,0.45,2.83,0.67c4.02,0.92,6.57,3.71,7.19,7.79c0.15,0.99,0.31,2,0.66,2.93c0.67,1.77,2.27,2.71,4.09,2.58  c1.83-0.13,3.17-1.18,3.61-3.06c0.25-1.06,0.35-2.2,0.29-3.29c-0.24-4.27-2.28-7.74-5.21-10.69  C214.33,156.48,210.92,154.46,206.59,154.18z"></path></g></svg>