<svg xmlns="http://www.w3.org/2000/svg" xmlns:xlink="http://www.w3.org/1999/xlink" id="Layer_1" x="0px" y="0px" viewBox="0 0 400 400" style="enable-background:new 0 0 400 400;" xml:space="preserve"><style type="text/css">	.st0{fill:#322B6A;}</style><g>	<path class="st0" d="M251.16,36.19c-34.24,0-68.24,0-102.39,0c0,20.24,0,40.25,0,60.33c34.25,0,68.24,0,102.39,0  C251.16,76.3,251.16,56.3,251.16,36.19z M165.15,53.58c1.18-0.99,3.13-1.42,4.76-1.45c8.34-0.14,16.68-0.06,25.02-0.06  c11.33,0,22.66,0,33.99,0c1,0,2-0.05,2.98,0.07c2.37,0.28,4.07,1.42,3.98,4.04c-0.09,2.55-1.74,3.78-4.17,3.82  c-4.61,0.07-9.21,0.03-13.82,0.03c-6.1,0-12.2,0-18.3,0c-10.21,0-20.42,0.1-30.62-0.11c-1.57-0.03-3.5-1.18-4.51-2.42  C163.87,56.77,164.32,54.27,165.15,53.58z M231.15,80.42c-10.58,0.05-21.16,0.02-31.74,0.02c-9.83,0-19.67-0.02-29.5,0.01  c-2.9,0.01-5.9-0.08-5.82-3.96c0.08-3.85,3.13-3.83,5.99-3.82c9.96,0.02,19.92,0.01,29.87,0.01c10.33,0,20.66,0.02,30.99-0.01  c2.5-0.01,4.49,0.66,4.92,3.44C236.27,78.7,234.46,80.4,231.15,80.42z"></path>	<path class="st0" d="M148.82,363.81c34.28,0,68.26,0,102.31,0c0-20.28,0-40.28,0-60.39c-34.2,0-68.12,0-102.31,0  C148.82,323.62,148.82,343.72,148.82,363.81z M230.6,347.97c-20.42,0.01-40.84,0.01-61.25,0c-2.7,0-5.25-0.6-5.28-3.9  c-0.03-3.49,2.52-4.08,5.43-4.07c10.21,0.04,20.42,0.02,30.63,0.02c10.08,0,20.17,0.03,30.25-0.02c2.91-0.01,5.47,0.55,5.46,4.04  C235.84,347.34,233.31,347.97,230.6,347.97z M164.17,322.31c0.82-2.53,2.89-2.72,5.13-2.72c17.05,0.02,34.1,0.01,51.16,0.01  c3.61,0,7.22,0.02,10.83,0c2.58-0.02,4.52,0.9,4.58,3.72c0.06,3.01-1.93,4.04-4.67,4.04c-10.46-0.01-20.91,0-31.37,0  c-10.33,0-20.66,0.04-30.99-0.02C165.28,327.32,163.28,325.07,164.17,322.31z"></path>	<path class="st0" d="M96.56,161.06c-20.43,0-40.47,0-60.38,0c0,26.31,0,52.18,0,78.11c20.27,0,40.27,0,60.38,0  C96.56,212.99,96.56,187.08,96.56,161.06z"></path>	<path class="st0" d="M303.43,160.82c0,26.2,0,52.2,0,78.4c20.18,0,40.18,0,60.39,0c0-26.21,0-52.19,0-78.4  C343.62,160.82,323.62,160.82,303.43,160.82z"></path>	<path class="st0" d="M66.2,115.87c4,0.05,6.68-2.94,6.75-7.73c0.08-5.61,0.01-11.22,0.03-16.83c0.05-11.87,6.41-18.26,18.26-18.29  c11.09-0.03,22.19,0.02,33.28-0.02c5.16-0.02,8.12-2.57,8.08-6.75c-0.04-4.16-3.03-6.65-8.2-6.69c-5.98-0.05-11.97-0.01-17.95-0.01  c-5.61,0-11.22-0.09-16.83,0.02C72.68,59.9,60.39,71.68,59.57,88.56c-0.32,6.59-0.17,13.21-0.06,19.81  C59.58,112.86,62.37,115.82,66.2,115.87z"></path>	<path class="st0" d="M275,73c11.47,0.06,22.93-0.03,34.4,0.04c10.9,0.07,17.43,6.6,17.55,17.49c0.07,5.86-0.04,11.72,0.03,17.57  c0.06,4.78,2.73,7.8,6.71,7.77c3.85-0.02,6.64-2.94,6.73-7.45c0.12-6.6,0.27-13.22-0.05-19.81c-0.85-17.1-13.2-28.81-30.37-29.05  c-5.36-0.07-10.72-0.01-16.08-0.01c-6.36,0-12.71-0.09-19.07,0.03c-4.97,0.09-8.09,3.47-7.44,7.75  C267.94,70.86,270.63,72.97,275,73z"></path>	<path class="st0" d="M125.53,327.05c-0.99-0.05-1.99-0.03-2.99-0.03c-10.59,0-21.19,0.04-31.79-0.01  c-11.17-0.06-17.68-6.54-17.78-17.64c-0.05-5.86,0.04-11.72-0.04-17.58c-0.06-4.63-2.57-7.49-6.47-7.62  c-3.95-0.13-6.89,2.93-6.97,7.58c-0.1,6.48-0.23,12.97,0.04,19.44c0.71,17.04,13.06,28.96,30.16,29.28  c5.61,0.1,11.22,0.02,16.83,0.02c0-0.01,0-0.01,0-0.02c6.36,0,12.72,0.12,19.07-0.04c4.27-0.11,7-2.95,6.98-6.75  C132.57,329.87,129.82,327.27,125.53,327.05z"></path>	<path class="st0" d="M333.69,284.17c-3.99-0.03-6.65,2.97-6.71,7.76c-0.07,5.61,0,11.22-0.03,16.83  c-0.05,11.83-6.45,18.23-18.3,18.26c-10.84,0.03-21.69-0.01-32.53,0.01c-5.8,0.01-8.85,2.4-8.78,6.79  c0.07,4.36,3.14,6.65,8.98,6.67c5.61,0.02,11.22,0,16.83,0c5.61,0,11.22,0.07,16.83-0.01c17.18-0.25,29.53-11.96,30.38-29.05  c0.33-6.59,0.17-13.21,0.06-19.81C340.34,287.12,337.54,284.19,333.69,284.17z"></path>	<path class="st0" d="M206.43,105.92c-4.36,0-8.63,0-12.88,0c0,7.82,0,15.43,0,22.98c4.41,0,8.51,0,12.88,0  C206.43,121.32,206.43,113.7,206.43,105.92z"></path>	<path class="st0" d="M193.47,294.18c4.43,0,8.61,0,12.98,0c0-7.81,0-15.21,0-22.6c-4.52,0-8.78,0-12.98,0  C193.47,279.28,193.47,286.68,193.47,294.18z"></path>	<path class="st0" d="M197.85,258.09c0.42,0,0.85-0.06,1.36-0.1c-17.74-22.4-11.28-53.73,10.95-68.32  c-3.44-3.64-5.97-3.94-9.96-1.34c-8.12,5.28-16.97,7.17-26.55,5.62c-5.52-0.9-10.55-3.01-15.11-6.23c-1.94-1.37-3.94-1.7-5.98-0.38  c-7.9,5.13-13.12,12.29-14.87,21.51c-2.13,11.23-2.68,22.65-2.54,34.09c0.11,8.88,6.39,15.16,15.3,15.17  C166.25,258.12,182.05,258.1,197.85,258.09z"></path>	<path class="st0" d="M155.7,161.68c0.03,12.89,10.58,23.41,23.47,23.42c12.96,0.01,23.55-10.59,23.52-23.53  c-0.03-12.91-10.53-23.38-23.47-23.4C166.24,138.16,155.67,148.72,155.7,161.68z"></path>	<path class="st0" d="M231.74,195.72c-18.13,0.01-32.93,14.83-32.97,33.03c-0.04,18.14,14.79,32.99,32.96,33.02  c18.24,0.03,33.1-14.79,33.1-33.03C264.84,210.5,250.02,195.71,231.74,195.72z M247.26,247.8c-0.31,0.53-0.75,0.95-1.32,1.26  c-0.57,0.31-1.21,0.47-1.92,0.47c-0.77,0-1.42-0.16-1.95-0.48c-0.53-0.32-0.96-0.72-1.29-1.19c-0.33-0.48-0.94-1.4-1.84-2.77  l-7.07-11.13l-7.51,11.46c-0.59,0.91-1,1.55-1.25,1.92c-0.25,0.37-0.54,0.72-0.89,1.07c-0.35,0.35-0.76,0.62-1.23,0.82  c-0.48,0.2-1.03,0.3-1.67,0.3c-0.99,0-1.81-0.3-2.45-0.9c-0.65-0.6-0.97-1.48-0.97-2.63c0-1.35,0.67-3.01,2-4.96l8.99-13.13  l-7.57-11.68c-0.71-1.13-1.25-2.11-1.6-2.92c-0.36-0.81-0.53-1.59-0.53-2.34c0-0.77,0.34-1.46,1.03-2.07  c0.69-0.61,1.52-0.92,2.51-0.92c1.13,0,2.01,0.33,2.65,1s1.5,1.91,2.62,3.71l6.03,9.76l6.44-9.76c0.53-0.82,0.98-1.53,1.36-2.11  c0.37-0.58,0.74-1.07,1.08-1.45c0.35-0.38,0.74-0.67,1.17-0.86c0.43-0.19,0.93-0.29,1.49-0.29c1.02,0,1.86,0.31,2.51,0.92  c0.65,0.61,0.97,1.34,0.97,2.18c0,1.22-0.7,2.89-2.11,4.99L237,227.89l8.53,13.13c0.77,1.15,1.33,2.11,1.67,2.87  c0.35,0.76,0.52,1.48,0.52,2.15C247.72,246.68,247.57,247.27,247.26,247.8z"></path></g></svg>