<svg xmlns="http://www.w3.org/2000/svg" xmlns:xlink="http://www.w3.org/1999/xlink" id="Layer_1" x="0px" y="0px" viewBox="0 0 400 400" style="enable-background:new 0 0 400 400;" xml:space="preserve"><style type="text/css">	.st0{fill:#322B6A;}</style><g>	<path class="st0" d="M382.88,75.72c0-2.48-0.07-5.03-0.63-7.42c-2.74-11.63-12.2-18.57-25.18-18.57  c-44.53-0.02-89.07-0.01-133.61-0.01c-44.54,0-89.08-0.01-133.61,0c-16.3,0.01-26.19,9.8-26.19,26.01  c-0.01,33.08-0.01,66.14-0.01,99.21c5.18-3.74,11.25-6.41,17.92-7.67c2.81-0.53,5.68-0.79,8.53-0.79  c18.69,0,35.51,11.69,41.88,29.11c2.09-2.12,4.66-3.82,7.61-4.97c2.62-1.02,5.32-1.54,8.04-1.54c5.65,0,11.02,2.27,15.12,6.38  c7.98,8.02,13.09,17.67,15.17,28.67c0.44,2.32,0.64,4.46,0.79,6.03c0.04,0.41,0.08,0.78,0.11,1.11l0.12,1v1  c-0.13,15.72-5.49,29.12-15.94,39.83c-1.76,1.81-3.77,3.25-5.94,4.34c0,0.08,0.01,0.16,0.01,0.25c0,9.84-2.09,19.11-6.23,27.65  c68.62,0.01,137.25,0.01,205.87,0c16.3,0,26.18-9.81,26.19-26.02C382.92,211.45,382.91,143.59,382.88,75.72z M127,81.7  c-8.97,0.08-17.94,0.03-26.91,0.03c-1.36,0-2.72,0-4.61,0c0,10.22,0.02,19.92-0.02,29.61c-0.01,1.61,0,3.29-0.43,4.81  c-1,3.54-4.64,5.69-8.46,5.27c-3.81-0.41-6.88-3.48-6.93-7.56c-0.13-11.08-0.25-22.18,0.04-33.26c0.21-8.06,6.95-14.53,15.09-14.69  c10.83-0.21,21.67-0.14,32.51-0.04c4.81,0.04,8.25,3.46,8.27,7.83C135.57,78.22,132.03,81.65,127,81.7z M318.38,65.94  c11.46-0.15,22.92-0.27,34.37,0.07c7.46,0.22,13.88,6.83,14.1,14.45c0.32,11.08,0.2,22.17,0.06,33.26  c-0.06,4.58-3.54,7.74-7.91,7.75c-4.41,0.01-7.77-3.1-7.85-7.75c-0.15-9.22-0.07-18.43-0.08-27.65c0-1.33,0-2.67,0-4.34  c-9.88,0-19.32,0-28.76,0c-1.49,0-3.01,0.09-4.48-0.12c-4.01-0.6-6.98-4.21-6.82-8.12C311.18,69.48,314.27,65.99,318.38,65.94z   M262.23,220.17c-0.01,4.51-3.2,7.69-7.23,7.58c-4.06-0.11-6.96-3.28-6.99-7.88c-0.05-10.41-0.02-20.81-0.02-31.22  c0-1.2,0-2.39,0-3.74c-11.98,0-23.58,0-35.6,0c-0.05,1.18-0.15,2.35-0.15,3.53c-0.01,10.41,0.07,20.82-0.04,31.22  c-0.07,6.07-5.1,9.68-10.08,7.42c-3.12-1.42-4.3-4.08-4.31-7.35c-0.02-6.04-0.01-12.09-0.01-18.13c0-21.37,0-42.75,0-64.12  c0-6.63,2.43-10.09,7.13-10.15c4.8-0.07,7.31,3.47,7.31,10.31c0,10.73,0,21.45,0,32.43c11.94,0,23.62,0,35.76,0  c0-1.15,0-2.34,0-3.52c0-10.52,0-21.04,0.01-31.56c0-3.36,1.48-5.86,4.65-7.07c3.03-1.15,5.9-0.47,7.84,2.08  c1,1.32,1.68,3.25,1.68,4.9C262.28,163.32,262.28,191.74,262.23,220.17z M279.93,219.22c-0.06-13.97-0.02-27.95-0.02-41.92  c0-13.3,0-26.61,0-39.91c0-8.03,2.68-10.43,10.59-9.83c8.88,0.67,17.44,2.63,25.57,6.27c18.99,8.5,28.72,23.97,28.27,44.89  c-0.45,20.96-10.83,35.09-29.87,43.16c-8.1,3.43-16.61,5.13-25.37,5.69C283.15,227.94,279.96,225.18,279.93,219.22z M366.87,274.49  c-0.23,8.07-6.98,14.49-15.14,14.65c-10.84,0.21-21.69,0.14-32.53,0.04c-4.79-0.05-8.22-3.56-8.19-7.92  c0.04-4.39,3.49-7.83,8.28-7.89c9.1-0.1,18.2-0.04,27.3-0.04c1.34,0,2.69,0,4.5,0c0-10.83-0.04-21.04,0.02-31.25  c0.03-4.49,2.32-7.56,5.98-8.39c5.04-1.13,9.74,2.23,9.83,7.51C367.09,252.3,367.18,263.4,366.87,274.49z"></path>	<path class="st0" d="M330.03,174.46c-1.2-17.28-19.13-33.27-35.53-31.55c0,23.07,0,46.15,0,69.5  C313.24,210.21,331.75,199.17,330.03,174.46z"></path>	<path class="st0" d="M61.35,276.38c0.01,2.22,0.1,4.49,0.57,6.65c3,14.04,16.78,23.9,31.05,22.33  c14.65-1.61,25.68-13.59,25.73-28.17c0.08-22.13,0.09-44.27-0.05-66.4c-0.02-3.22-0.57-6.6-1.66-9.62  c-4.8-13.23-18.4-20.82-32.47-18.17c-13.08,2.46-23.42,14.09-23.22,28.1c0.16,10.97,0.03,21.95,0.03,32.92  C61.32,254.8,61.29,265.59,61.35,276.38z"></path>	<path class="st0" d="M135.88,271.95c-2.87-0.2-5.36,1.83-5.87,4.83c-0.14,0.85-0.14,1.73-0.18,2.59  c-0.21,5.02-1.38,9.81-3.59,14.31c-8.85,17.97-27.84,26.8-47.11,21.35c-13.99-3.96-23.31-13.23-27.47-27.27  c-0.97-3.28-1.11-6.82-1.52-10.25c-0.41-3.44-2.86-5.79-5.99-5.57c-3.14,0.22-5.2,2.67-5.18,6.11c0.02,5,0.74,9.9,2.42,14.6  c6.37,17.75,18.88,28.8,37.03,33.57c1.95,0.51,3.96,0.79,5.91,1.18c0,3.93,0,7.69,0,11.67c-0.76,0-1.42,0-2.08,0  c-4.96,0-9.92-0.05-14.88,0.02c-3.61,0.05-5.97,2.27-6.03,5.47c-0.06,3.3,2.31,5.68,5.98,5.7c15.13,0.05,30.26,0.05,45.39,0  c3.6-0.01,5.95-2.32,5.99-5.51c0.03-3.3-2.34-5.6-6.03-5.65c-4.96-0.07-9.92-0.02-14.88-0.02c-0.66,0-1.33,0-2.09,0  c0-3.97,0-7.74,0-11.67c0.57-0.13,1.04-0.27,1.53-0.35c15.29-2.4,27.28-10.06,35.87-22.88c5.33-7.97,7.96-16.86,7.96-26.48  C141.06,274.52,138.89,272.16,135.88,271.95z"></path>	<path class="st0" d="M36.58,214.51c2.28-2.46,2.05-5.88-0.29-7.97c-2.32-2.08-5.69-1.88-7.99,0.53  c-7.32,7.64-10.99,16.77-11.21,29.08c0.33,1.9,0.69,5.55,1.61,9.06c1.71,6.47,5.14,12.04,9.86,16.79c2.22,2.23,5.47,2.31,7.7,0.29  c2.32-2.09,2.52-5.32,0.47-7.83c-0.43-0.53-0.9-1.02-1.35-1.54c-5.99-6.98-8.18-14.99-6.48-24.03  C29.96,223.3,32.75,218.64,36.58,214.51z"></path>	<path class="st0" d="M162.93,233.15c-0.18-1.5-0.31-3.8-0.74-6.05c-1.49-7.89-5.13-14.67-10.79-20.36c-1.69-1.7-3.79-2.08-6-1.22  c-2.16,0.84-3.31,2.56-3.49,4.85c-0.17,2.17,1.09,3.69,2.45,5.2c5.65,6.29,8.06,13.66,7.13,22.08c-0.72,6.54-3.67,11.97-8.1,16.74  c-2.22,2.39-1.96,5.7,0.32,7.82c2.26,2.1,5.57,2.02,7.84-0.3C159.13,254.15,162.84,244.77,162.93,233.15z"></path>	<path class="st0" d="M51.9,246.62c2.54-2.07,2.73-5.36,0.46-8.25c-2.24-2.86-2.17-5.08,0.05-8.05c0.78-1.05,1.24-2.34,1.85-3.52  c-0.27-2.57-1.67-4.65-3.91-5.51c-2.23-0.85-4.55-0.25-6.23,1.62c-5.97,6.66-6.14,15.58-0.41,22.49  C46.01,248.17,49.38,248.67,51.9,246.62z"></path>	<path class="st0" d="M125.76,242.12c0.32,2.48,1.71,4.52,3.86,5.37c2.18,0.86,4.61,0.26,6.26-1.56c6.03-6.62,6.17-15.69,0.34-22.63  c-2.3-2.74-5.67-3.17-8.19-1.05c-2.43,2.05-2.6,5.37-0.41,8.13c2.27,2.86,2.21,5.1,0.04,8.05  C126.86,239.54,126.38,240.89,125.76,242.12z"></path></g></svg>