<svg xmlns="http://www.w3.org/2000/svg" xmlns:xlink="http://www.w3.org/1999/xlink" id="Layer_1" x="0px" y="0px" viewBox="0 0 400 400" style="enable-background:new 0 0 400 400;" xml:space="preserve"><style type="text/css">	.st0{fill:#322B6A;}</style><g>	<path class="st0" d="M140.81,161.61c-31.45-0.01-62.9,0.02-94.35-0.05c-2.88-0.01-5.08,0.75-6.46,3.36c0,47.03,0,94.07,0,141.1  c1.35,2.42,3.34,3.33,6.16,3.32c31.55-0.07,63.11-0.04,94.66-0.05c4.7,0,6.19-1.47,6.19-6.12c0.01-45.15,0.01-90.3,0-135.45  C147.01,163.11,145.51,161.62,140.81,161.61z M93.8,304.33c-3.15,0.14-5.65-2.17-5.7-5.29c-0.05-2.98,2.2-5.41,5.16-5.54  c3.14-0.14,5.64,2.18,5.7,5.3C99.02,301.83,96.81,304.2,93.8,304.33z M140.35,288.31c-30.87,0-61.83,0-93,0  c0-39.26,0-78.54,0-118.04c31.01,0,61.88,0,93,0C140.35,209.54,140.35,248.8,140.35,288.31z"></path>	<path class="st0" d="M359.99,214.52c-0.01-7.62-4.6-12.26-12.24-12.29c-13.33-0.06-26.66-0.06-39.98,0  c-7.67,0.04-12.16,4.63-12.16,12.33c-0.02,28.6,0.01,57.21-0.03,85.81c-0.01,5.07,2.05,8.83,6.56,11.13  c1.27,0.65,2.73,0.94,4.11,1.39c14.37,0,28.75,0,43.12,0c8.75-2.93,10.62-5.59,10.62-15.07C360,270.06,360.01,242.29,359.99,214.52  z M327.73,309.74c-2.58-0.02-4.68-2.21-4.62-4.82c0.06-2.5,2.04-4.48,4.55-4.54c2.62-0.06,4.79,2.03,4.81,4.62  C332.48,307.58,330.31,309.76,327.73,309.74z M355.91,296.54c-18.76,0-37.34,0-56.19,0c0-27.15,0-54.3,0-81.65  c18.66,0,37.24,0,56.19,0C355.91,242.21,355.91,269.29,355.91,296.54z"></path>	<path class="st0" d="M88.66,105.1c0-5.92,2.2-8.14,8.07-8.15c77.07-0.01,141.34-0.01,218.42,0c5.98,0,8.25,2.31,8.25,8.35  c0,22.58,0,55.82,0,78.4c0,1.21,0,2.42,0,3.7c3.58,0,6.76,0,10.13,0c0.06-1.17,0.16-2.18,0.16-3.19c0.01-25.8,0.02-62.27,0-88.08  c0-6.5-2.57-9.03-9.13-9.03c-83.22-0.01-153.63-0.01-236.85,0c-6.89,0-9.48,2.58-9.49,9.37c-0.01,15.19,0,30.38,0,45.57  c0,1.1,0,2.2,0,3.36c3.66,0,6.85,0,10.43,0C88.66,131.72,88.65,118.41,88.66,105.1z"></path>	<path class="st0" d="M162.65,269.35c39.42,0,78.69,0,118.03,0c0-8.43,0-16.59,0-24.85c-39.47,0-78.74,0-118.03,0  C162.65,252.91,162.65,261.09,162.65,269.35z"></path>	<path class="st0" d="M246.73,279.91c-22.16,0-44.06,0-66.03,0c-0.25,6.03-1.38,11.7-4.93,16.37c-3.46,4.55-7.53,8.63-11.3,12.87  c32.68,0,65.64,0,99.6,0C253.05,301.82,247.01,292.52,246.73,279.91z"></path>	<path class="st0" d="M259.03,207.56c0.01-45.34-38.66-76.05-74.74-74.58c0,4.41,0,8.82,0,13.38c16.88,0.21,31.44,6.09,43.31,17.96  c11.86,11.87,17.7,26.45,17.93,43.25C250.09,207.56,254.51,207.56,259.03,207.56z"></path>	<path class="st0" d="M218.26,207.53c4.62,0,9.08,0,13.54,0c0.11-26.24-21.07-47.53-47.48-47.47c0,4.56,0,9.01,0,13.56  c9.38,0.14,17.47,3.31,24.04,9.87C214.97,190.08,218.12,198.23,218.26,207.53z"></path>	<path class="st0" d="M184.31,187.36c0,6.73,0,13.46,0,20.27c6.63,0,13.15,0,19.67,0c0.18,0,0.37-0.06,0.54-0.09  C204.9,196.13,195.15,186.88,184.31,187.36z"></path></g></svg>