<svg xmlns="http://www.w3.org/2000/svg" xmlns:xlink="http://www.w3.org/1999/xlink" id="Layer_1" x="0px" y="0px" viewBox="0 0 400 400" style="enable-background:new 0 0 400 400;" xml:space="preserve"><style type="text/css">	.st0{fill:#322B6A;}</style><g>	<path class="st0" d="M199.91,40.22c34.65,0,69.29-0.09,103.94,0.03c26.99,0.09,48.93,17.63,54.79,43.75  c0.96,4.26,1.27,8.75,1.28,13.13c0.09,48.82,0.11,97.64,0.03,146.47c-0.05,32.79-24.37,56.95-57.16,56.97  c-31.39,0.02-62.78,0.04-94.17-0.06c-2.55-0.01-3.89,0.78-5.14,2.98c-7.97,14.03-16.09,27.99-24.2,41.94  c-11.17,19.21-35.48,19.24-46.57,0.05c-8.14-14.07-16.25-28.16-24.26-42.31c-1.12-1.98-2.33-2.74-4.62-2.65  c-9.21,0.33-18.32-0.07-27.14-3.33c-21.51-7.97-36.35-27.98-36.47-50.88c-0.26-50.68-0.35-101.36,0.03-152.04  c0.22-29.49,24.45-53.58,53.97-53.91c35.22-0.39,70.45-0.09,105.68-0.09C199.91,40.24,199.91,40.23,199.91,40.22z M188.51,159.14  c0.72-1.54,1.11-2.48,1.57-3.39c6.61-12.91,13.21-25.83,19.87-38.72c1.69-3.27,2.29-6.56,0.91-10.04  c-1.76-4.44-5.17-6.93-9.84-7.15c-4.98-0.23-8.6,2.23-10.85,6.74c-9.58,19.21-19.21,38.39-28.79,57.61  c-4.9,9.82-0.13,17.45,10.92,17.47c11.74,0.03,23.48,0,35.22,0.02c1.2,0,2.4,0.13,3.98,0.22c-0.74,1.63-1.22,2.78-1.78,3.9  c-6.4,12.76-12.83,25.5-19.2,38.27c-3.19,6.39-1.25,12.89,4.58,15.75c5.89,2.89,12.09,0.56,15.37-5.85  c2.49-4.85,4.89-9.75,7.32-14.63c7.21-14.43,14.49-28.82,21.62-43.29c4.15-8.42-0.87-16.59-10.21-16.89  c-1.51-0.05-3.02-0.01-4.53-0.01C212.84,159.14,200.99,159.14,188.51,159.14z"></path></g></svg>