<svg xmlns="http://www.w3.org/2000/svg" xmlns:xlink="http://www.w3.org/1999/xlink" id="Layer_1" x="0px" y="0px" viewBox="0 0 400 400" style="enable-background:new 0 0 400 400;" xml:space="preserve"><style type="text/css">	.st0{fill:#322B6A;}</style><g>	<path class="st0" d="M57.57,291.61h4.83c35.71,0,71.42,0.03,107.13-0.03c5.09-0.01,9.58,1.22,13.54,4.52  c0.89,0.74,2.32,1.16,3.5,1.17c8.94,0.1,17.86,0.1,26.79,0c1.19-0.01,2.64-0.4,3.52-1.14c3.97-3.27,8.41-4.57,13.53-4.56  c35.82,0.08,71.66,0.03,107.49,0.03h4.49c0.16-2.49,0.42-4.6,0.42-6.72c0.02-43.09,0.05-86.18,0.01-129.28  c-0.02-17.43-12.27-29.66-29.65-29.71c-5.17-0.02-7.72-0.02-9.95-0.02v95.81l-0.69,2c-1.92,5.53-7.32,14.81-21.91,14.81h-0.06  c-33.19-0.06-65.98-0.07-93.66-0.07l-68.67,0.01c-12.67,0-21.52-8.83-21.52-21.47v-91.1c-2.44,0-5.33,0-10.31,0.02  c-16.94,0.07-29.26,12.39-29.28,29.37c-0.06,43.33-0.02,86.66,0,129.99C57.12,287.25,57.4,289.24,57.57,291.61z"></path>	<path class="st0" d="M351.35,303.04c-39.88,0-79.76,0.05-119.64-0.07c-3.88-0.01-6.83,1-9.5,3.82c-1.04,1.11-3.01,1.86-4.57,1.88  c-11.78,0.15-23.57,0.17-35.35-0.01c-1.64-0.02-3.65-0.95-4.83-2.13c-2.54-2.54-5.25-3.58-8.88-3.56  c-27.86,0.13-55.71,0.07-83.57,0.07c-12.74,0-25.48-0.02-38.21,0.01c-4.81,0.01-6.93,2.27-6.8,7.07c0.03,1.07,0.12,2.14,0.29,3.19  c2.94,17.95,16.71,29.69,35.02,29.71c41.43,0.04,82.85,0.01,124.28,0.01c41.78,0,83.57,0.04,125.35-0.02  c18.27-0.03,32.28-12.36,34.81-30.39C360.77,305.46,358.66,303.04,351.35,303.04z"></path>	<path class="st0" d="M121.73,225.94c51.81,0,103.61-0.03,155.42,0.05c4.76,0.01,8.09-1.51,9.7-6.14c0-40.38,0-80.76,0-121.15  c-0.78,0.05-1.57,0.14-2.35,0.14c-56.27,0.01-112.55,0.01-168.82,0.01c-0.78,0-1.57,0-2.57,0c0,0.75,0,1.34,0,1.94  c0,38.85,0,77.71,0,116.56C113.1,222.89,116.16,225.94,121.73,225.94z M228.29,211.1c-0.56,0.03-1.13,0.02-1.7,0.02  c-15.1,0-30.19,0-45.29,0c-15.15,0-30.31,0-45.46,0c-0.57,0-1.25,0.19-1.67-0.06c-0.73-0.45-1.64-1.07-1.85-1.8  c-0.31-1.1,0.51-1.9,1.66-2.13c0.49-0.1,1.01-0.07,1.52-0.07c30.48,0,60.95,0,91.43,0c0.51,0,1.03-0.03,1.52,0.06  c1.15,0.2,1.85,0.87,1.79,2.09C230.19,210.39,229.48,211.03,228.29,211.1z M133.97,190.16c0.49-0.1,1.01-0.07,1.52-0.07  c26.18,0,52.36,0,78.53,0c0.56,0,1.28-0.12,1.65,0.17c0.64,0.51,1.52,1.36,1.44,1.94c-0.1,0.71-1.02,1.4-1.73,1.88  c-0.4,0.26-1.1,0.08-1.66,0.08c-13,0-26.01,0-39.01,0c-12.95,0-25.9,0-38.84,0c-0.57,0-1.25,0.19-1.67-0.06  c-0.73-0.44-1.65-1.06-1.86-1.78C132.01,191.21,132.82,190.4,133.97,190.16z M249.81,177.08c-0.45,0.28-1.21,0.1-1.83,0.1  c-18.72,0-37.44,0-56.16,0c-18.72,0-37.44,0-56.16,0c-2.47,0-3.44-0.58-3.43-2.02c0.01-1.43,1.05-2.05,3.45-2.05  c37.44,0,74.87,0,112.31,0.01c0.73,0,1.6-0.1,2.14,0.25c0.61,0.39,1.35,1.31,1.27,1.89C251.31,175.94,250.49,176.66,249.81,177.08z   M249.5,162.21c-1.81,0.03-3.62,0.02-5.43,0.02c-5.94,0-11.87,0-17.81,0c-7.24,0-14.47,0-21.71,0c-0.51,0-1.14,0.17-1.5-0.07  c-0.67-0.46-1.65-1.15-1.64-1.74c0.01-0.72,0.79-1.55,1.43-2.11c0.33-0.29,1.09-0.13,1.65-0.13c14.59,0,29.17,0,43.76,0  c0.45,0,0.91-0.04,1.35,0.03c1.22,0.19,2,0.87,1.91,2.16C251.44,161.53,250.69,162.19,249.5,162.21z M204.52,139.99  c-0.62,0-1.41,0.13-1.81-0.19c-0.62-0.5-1.31-1.33-1.32-2.02c0-0.59,0.83-1.33,1.47-1.72c0.46-0.28,1.21-0.13,1.83-0.13  c7.29-0.01,14.58,0,21.88,0c7.18,0,14.36,0,21.54,0c0.56,0,1.28-0.17,1.66,0.1c0.69,0.5,1.58,1.23,1.65,1.94  c0.06,0.59-0.84,1.4-1.49,1.89c-0.38,0.28-1.09,0.14-1.65,0.14C233.69,140,219.11,140,204.52,139.99z M203.53,113.65  c0.45-0.01,0.9,0,1.36,0c10.24,0,20.47,0,30.71,0c10.24,0,20.47,0,30.71,0c0.51,0,1.18-0.17,1.49,0.08  c0.67,0.54,1.61,1.32,1.6,1.99c-0.01,0.67-0.98,1.41-1.67,1.94c-0.33,0.25-0.99,0.06-1.5,0.06c-20.59,0-41.17,0-61.76,0  c-0.34,0-0.68,0.01-1.02,0c-1.32-0.05-2.18-0.67-2.16-2.06C201.32,114.25,202.22,113.68,203.53,113.65z M203.3,124.82  c0.68-0.03,1.36-0.02,2.04-0.02c8.59,0,17.19,0,25.78,0c8.76,0,17.53,0,26.29,0c0.51,0,1.15-0.18,1.5,0.06  c0.7,0.49,1.7,1.19,1.73,1.85c0.03,0.67-0.85,1.51-1.51,2.05c-0.35,0.28-1.09,0.11-1.65,0.11c-17.64,0-35.28,0-52.92,0  c-0.45,0-0.91,0.04-1.36-0.03c-1.22-0.18-1.98-0.86-1.9-2.16C201.37,125.48,202.11,124.87,203.3,124.82z M203.37,147.06  c0.45-0.03,0.9-0.02,1.35-0.02c4.8,0,9.59,0,14.39,0c4.97,0,9.93,0,14.9,0.01c0.56,0,1.27-0.12,1.65,0.17  c0.61,0.46,1.43,1.23,1.39,1.82c-0.05,0.69-0.83,1.44-1.47,1.93c-0.37,0.29-1.09,0.15-1.65,0.15c-9.82,0.01-19.64,0-29.46,0  c-0.39,0-0.79,0-1.18-0.03c-1.24-0.11-2.02-0.74-2-2.05C201.32,147.72,202.15,147.15,203.37,147.06z M130.39,116.68  c0-2.5,0.55-3.03,3.12-3.03c14.47,0,28.94,0,43.41,0c2.56,0,3.07,0.51,3.07,3.07c0,13.23,0,26.45,0,39.68  c0,2.52-0.54,3.04-3.11,3.04c-7.23,0-14.47,0-21.71,0c-7.23,0-14.47,0-21.71,0c-2.52,0-3.08-0.56-3.08-3.08  C130.39,143.13,130.39,129.9,130.39,116.68z"></path>	<path class="st0" d="M285.16,94.78c0.56,0,1.12-0.09,1.68-0.14c0-10.52,0-21.04,0-31.56c-1.6-4.63-4.93-6.14-9.69-6.14  C225.46,57.03,173.77,57,122.09,57c-6.12,0-8.99,2.9-8.99,9.06c0,8.88,0,17.76,0,26.64c0,0.61,0,1.23,0,1.99  c0.71,0.04,1.31,0.09,1.91,0.09C171.72,94.79,228.44,94.79,285.16,94.78z M209.6,73.89c9.16,0.02,18.32,0.01,27.48,0.01  c8.88,0,17.75,0,26.63,0c0.51,0,1.14-0.16,1.5,0.07c0.64,0.42,1.53,1.07,1.55,1.66c0.03,0.7-0.59,1.62-1.21,2.08  c-0.5,0.37-1.41,0.25-2.13,0.25c-17.58,0.01-35.17,0.01-52.75,0.01c-0.4,0-0.79,0.01-1.19-0.01c-1.36-0.06-2.37-0.66-2.33-2.12  C207.2,74.38,208.21,73.88,209.6,73.89z M174.97,65.23c5.84-0.05,10.71,4.79,10.72,10.65c0.01,5.88-4.78,10.66-10.69,10.65  c-5.88-0.01-10.69-4.83-10.65-10.7C164.4,70.04,169.17,65.28,174.97,65.23z M143.72,65.23c5.91,0.06,10.62,4.88,10.55,10.79  c-0.07,5.87-4.75,10.51-10.61,10.51c-5.93,0-10.65-4.73-10.63-10.66C133.05,69.96,137.86,65.17,143.72,65.23z"></path>	<path class="st0" d="M175.79,117.84c-13.83,0-27.54,0-41.23,0c0,12.54,0,24.96,0,37.45c13.76,0,27.42,0,41.23,0  C175.79,142.72,175.79,130.26,175.79,117.84z"></path>	<path class="st0" d="M175.02,82.46c3.63,0.01,6.6-2.93,6.6-6.55c0.01-3.6-2.98-6.6-6.58-6.61c-3.59-0.01-6.6,2.99-6.61,6.58  C168.43,79.49,171.4,82.45,175.02,82.46z"></path>	<path class="st0" d="M143.72,82.45c3.65-0.03,6.51-2.97,6.47-6.63c-0.04-3.63-3.03-6.57-6.63-6.52c-3.63,0.06-6.5,3.02-6.46,6.67  C137.13,79.64,140.04,82.48,143.72,82.45z"></path></g></svg>