<svg xmlns="http://www.w3.org/2000/svg" xmlns:xlink="http://www.w3.org/1999/xlink" id="Layer_1" x="0px" y="0px" viewBox="0 0 400 400" style="enable-background:new 0 0 400 400;" xml:space="preserve"><style type="text/css">	.st0{fill:#322B6A;}</style><g>	<path class="st0" d="M32.7,132.09c111.75,0,222.89,0,334.41,0c0.07,1.34,0.18,2.55,0.18,3.77c0.01,59.95,0.02,119.9,0,179.85  c0,13.78-8.37,22.12-22.1,22.12c-96.82,0.01-193.63,0.01-290.45,0c-13.68,0-22.03-8.4-22.03-22.19  c-0.01-59.95-0.01-119.9-0.01-179.85C32.7,134.67,32.7,133.55,32.7,132.09z M304.86,283.55c5.93-0.25,9.74-2.26,12.23-6.44  c3.23-5.42,6.44-10.85,9.47-16.38c3.4-6.21,1.76-12.92-3.92-17.08c-6-4.38-5.99-9.35,0.03-13.81c5.67-4.2,7.27-10.9,3.87-17.09  c-2.98-5.43-6.1-10.78-9.29-16.08c-3.72-6.17-10.44-8.2-16.99-5.32c-6.51,2.87-11.11,0.22-11.88-6.83  c-0.81-7.44-5.81-12.01-13.32-12.08c-5.85-0.05-11.71-0.04-17.56,0c-7.75,0.05-12.71,4.54-13.56,12.2  c-0.76,6.83-5.44,9.58-11.65,6.83c-6.96-3.07-13.55-1.01-17.45,5.56c-2.98,5.03-5.91,10.09-8.77,15.2  c-3.77,6.74-2.27,13.33,3.95,17.84c5.54,4.01,5.49,9.37-0.14,13.44c-6.03,4.36-7.55,11.02-3.89,17.59  c2.9,5.21,5.88,10.38,8.94,15.5c3.9,6.54,10.45,8.51,17.49,5.38c6-2.67,10.75,0.07,11.5,6.64c0.91,7.94,5.73,12.38,13.68,12.5  c5.16,0.08,10.33,0.02,15.5,0.02c9.75-0.01,13.93-3.62,15.39-13.29c0.85-5.65,5.65-8.3,10.92-6.14  C301.47,282.56,303.67,283.15,304.86,283.55z M98.86,220.31c0,1.6,0,2.85,0,4.1c0,1.38-0.04,2.76,0.01,4.13  c0.16,3.95,2.46,6.49,5.73,6.37c3.19-0.12,5.24-2.5,5.26-6.39c0.04-11.93,0.13-23.87-0.02-35.8c-0.15-11.5-8.87-20.21-19.98-20.27  c-11.28-0.06-20.11,8.69-20.25,20.34c-0.14,11.82-0.06,23.64-0.03,35.46c0.01,4.15,2.04,6.6,5.33,6.67  c3.37,0.07,5.59-2.55,5.67-6.79c0.05-2.58,0.01-5.15,0.01-7.82C86.91,220.31,92.61,220.31,98.86,220.31z M131.94,213.14  c4.44-0.21,8.35-0.1,12.19-0.63c10.58-1.45,17.96-10.75,17.23-21.35c-0.71-10.29-9.34-18.48-19.83-18.7  c-4.7-0.1-9.4-0.07-14.1-0.01c-4.42,0.05-6.47,2.07-6.49,6.61c-0.05,16.39-0.05,32.79,0,49.18c0.01,4.07,2.16,6.57,5.42,6.66  c3.41,0.09,5.54-2.44,5.57-6.76C131.97,223.24,131.94,218.33,131.94,213.14z M82.43,273.19c1.32-1.05,2.49-1.82,3.46-2.78  c4.98-4.92,9.96-9.84,14.83-14.87c2.49-2.57,2.46-5.75,0.19-7.98c-2.11-2.07-5.4-2.18-7.74,0.1c-7.38,7.23-14.66,14.55-21.92,21.91  c-2.25,2.28-2.54,5.18-0.36,7.45c7.4,7.69,14.97,15.21,22.63,22.65c2.21,2.14,5.43,1.79,7.45-0.28c2.02-2.06,2.11-5.06,0.15-7.49  c-0.72-0.89-1.58-1.67-2.39-2.47C93.47,284.16,88.19,278.91,82.43,273.19z M170.16,273.39c-1.05,1.11-1.89,2.02-2.77,2.9  c-5.1,5.12-10.27,10.17-15.3,15.36c-2.33,2.41-2.25,5.52-0.13,7.71c2.07,2.13,5.41,2.35,7.74,0.07  c7.47-7.29,14.84-14.68,22.15-22.13c2.11-2.15,2.43-4.96,0.31-7.15c-7.5-7.75-15.11-15.38-22.87-22.87  c-2.14-2.07-4.96-1.83-7.16,0.27c-2.2,2.1-2.39,4.62-0.61,7.14c0.66,0.93,1.52,1.71,2.33,2.52  C159.22,262.54,164.59,267.87,170.16,273.39z M172.43,203.44c0,8.26-0.02,16.52,0.01,24.78c0.01,4.06,2.09,6.59,5.36,6.69  c3.39,0.1,5.65-2.53,5.65-6.74c0.02-16.29,0.02-32.58,0-48.88c-0.01-4.32-2.1-6.85-5.54-6.83c-3.44,0.02-5.46,2.53-5.48,6.88  C172.41,187.37,172.43,195.41,172.43,203.44z M139.36,251.86c-0.15-2.9-1.36-4.92-3.99-5.6c-2.87-0.74-5.32,0.15-6.5,3.03  c-1.13,2.74-1.99,5.6-2.93,8.42c-3.91,11.71-7.85,23.42-11.7,35.16c-1.48,4.5,0.82,8.27,4.87,8.15c3.22-0.1,4.78-2.19,5.72-5.05  c4.55-13.79,9.17-27.55,13.75-41.33C138.92,253.67,139.15,252.66,139.36,251.86z"></path>	<path class="st0" d="M367.29,120.73c-111.69,0-222.92,0-334.43,0c-0.06-1.29-0.15-2.4-0.15-3.52c-0.01-11.03-0.03-22.05,0-33.08  c0.04-13.56,8.42-21.96,21.9-21.96c96.93-0.01,193.87-0.01,290.8,0c13.33,0,21.81,8.38,21.87,21.65  C367.34,95.98,367.29,108.14,367.29,120.73z M295.41,95.25c11.94,0,23.87-0.02,35.81,0.02c2.76,0.01,4.98-0.77,6.14-3.47  c1.72-4-1.22-7.56-6.34-7.57c-23.53-0.02-47.05-0.01-70.58,0c-4.55,0-7.2,2.11-7.13,5.6c0.07,3.46,2.69,5.41,7.33,5.41  C272.22,95.25,283.81,95.25,295.41,95.25z M73.16,89.77c0.02-2.99-2.45-5.5-5.45-5.52c-3-0.02-5.5,2.44-5.52,5.44  c-0.02,2.99,2.45,5.5,5.44,5.53C70.61,95.24,73.14,92.75,73.16,89.77z M95.21,89.89c0.09-2.98-2.33-5.56-5.32-5.65  c-2.99-0.09-5.55,2.32-5.64,5.32c-0.09,2.98,2.33,5.56,5.32,5.65C92.53,95.31,95.12,92.87,95.21,89.89z M117.27,89.57  c-0.09-2.99-2.67-5.41-5.65-5.32c-3,0.09-5.41,2.65-5.32,5.65c0.09,2.99,2.66,5.42,5.64,5.33  C114.92,95.13,117.36,92.54,117.27,89.57z"></path>	<path class="st0" d="M265.97,290.11c-2.3,0-4.6-0.13-6.88,0.04c-2.79,0.21-4.08-0.69-4.45-3.7c-1.15-9.31-7.75-15.75-17.07-16.35  c-3.06-0.2-6.31,0.78-9.3,1.77c-2.06,0.68-3.16,0.49-4.21-1.38c-2.69-4.8-5.44-9.57-8.24-14.3c-1.02-1.73-0.81-2.92,0.92-4.01  c11.11-7.02,10.79-24.18-0.02-30.84c-1.99-1.22-1.75-2.61-0.72-4.33c2.64-4.44,5.32-8.85,7.72-13.42c1.34-2.56,2.73-2.67,5.22-1.58  c10.08,4.43,21.64-0.86,25.03-11.27c0.11-0.33,0.26-0.64,0.34-0.97c1.57-6.29,1.57-6.29,7.93-6.29c3.9,0,7.81,0.09,11.71-0.03  c2.22-0.07,3.5,0.55,3.59,2.98c0.49,12.74,15.37,21.38,26.9,15.27c0.8-0.42,3.01,0.29,3.54,1.13c3.01,4.74,5.64,9.71,8.54,14.52  c1.36,2.25,0.13,3.23-1.49,4.43c-6.7,4.96-9.63,13.1-6.62,20.71c1.4,3.53,4.3,6.62,7.01,9.43c1.58,1.63,2.1,2.66,0.92,4.62  c-2.77,4.62-5.47,9.29-8.1,13.99c-1.06,1.89-2.21,2.13-4.21,1.28c-12.49-5.26-24.47,1.53-26.43,15.02  c-0.35,2.42-1.26,3.45-3.72,3.32C271.25,290,268.61,290.11,265.97,290.11z M266.13,264.24c15.26,0.01,27.61-12.32,27.59-27.55  c-0.03-15.15-12.62-27.66-27.7-27.53c-15.07,0.13-27.36,12.46-27.41,27.47C238.55,251.87,250.87,264.22,266.13,264.24z"></path>	<path class="st0" d="M98.77,208.96c-6.14,0-11.94,0-17.97,0c0-6.21-0.32-12.27,0.11-18.28c0.3-4.26,4.8-7.37,9.17-7.2  c4.56,0.18,8.44,3.62,8.64,8.22C98.95,197.31,98.77,202.93,98.77,208.96z"></path>	<path class="st0" d="M132.12,201.59c0-6.15,0-11.94,0-18.03c3.56,0,6.98-0.26,10.34,0.06c4.39,0.42,7.69,4.28,7.88,8.62  c0.2,4.51-2.85,8.66-7.45,9.26C139.45,201.96,135.9,201.59,132.12,201.59z"></path>	<path class="st0" d="M266.01,253.21c-9.09-0.06-16.37-7.38-16.38-16.44c-0.01-9.14,7.6-16.71,16.68-16.58  c9.17,0.12,16.53,7.71,16.38,16.88C282.54,246.13,275.15,253.28,266.01,253.21z"></path></g></svg>