<svg xmlns="http://www.w3.org/2000/svg" xmlns:xlink="http://www.w3.org/1999/xlink" id="Layer_1" x="0px" y="0px" viewBox="0 0 400 400" style="enable-background:new 0 0 400 400;" xml:space="preserve"><style type="text/css">	.st0{fill:#322B6A;}</style><g>	<path class="st0" d="M259.97,94.76c1.75-0.06,4.91-3.94,4.82-5.92c-1.01-20.87-21.16-41.25-42.06-42.59c-2-0.13-5.95,2.56-6,4.03  c-0.45,14.52-0.27,29.06-0.27,44.76C232.02,95.04,246.01,95.26,259.97,94.76z M242.56,85.78c-2.47,0-4.94,0-7.41,0  c-0.03,0-0.06-0.01-0.08-0.03c-0.94-0.94-1.89-1.89-2.83-2.83c0,0-0.01-0.01-0.01-0.01c-0.18-0.18-0.36-0.36-0.54-0.54  c-0.58-0.58-1.16-1.15-1.74-1.73c-0.5-0.5-1.01-1-1.51-1.5c-0.04-0.04-0.03-0.06,0-0.09c0.78-0.78,1.56-1.56,2.35-2.34  c0.44-0.44,0.88-0.88,1.32-1.33c0.94-0.94,1.88-1.88,2.82-2.82c0.03-0.03,0.06-0.04,0.11-0.04c2.5,0,5,0,7.5,0  c0.02,0,0.04,0,0.06,0c-0.01,0.03-0.03,0.04-0.04,0.06c-1.56,1.56-3.12,3.12-4.69,4.69c-0.61,0.61-1.22,1.22-1.82,1.82  c-0.02,0.02-0.04,0.03-0.04,0.05c0.47,0.47,0.94,0.94,1.4,1.41c0.77,0.78,1.55,1.55,2.32,2.33c0.57,0.57,1.14,1.14,1.71,1.71  c0.38,0.38,0.75,0.75,1.13,1.13c0.01,0.01,0.03,0.03,0.04,0.04C242.59,85.79,242.57,85.78,242.56,85.78z M222.89,73.42  c1.01-1.01,2.02-2.01,3.02-3.02c2.92-2.92,5.84-5.84,8.75-8.75c0.12-0.12,0.23-0.23,0.35-0.35c0.01-0.01,0.03-0.02,0.04-0.05  c2.5,0,5.01,0,7.51,0c0.02,0,0.04-0.01,0.05,0.01c-0.13,0.11-0.24,0.24-0.36,0.36c-2.35,2.34-4.69,4.69-7.04,7.03  c-2.11,2.11-4.21,4.21-6.32,6.32c-0.74,0.74-1.48,1.48-2.23,2.23c-0.04,0.04-0.06,0.04-0.1,0c-1.23-1.23-2.46-2.46-3.7-3.7  C222.84,73.46,222.87,73.45,222.89,73.42z"></path>	<path class="st0" d="M319.49,268.77c10.31-0.23,14.73-3.99,16.24-13.73c3.32-21.43,6.33-42.91,9.74-64.32  c1.87-11.72-1.25-21.44-11.22-27.96c-10.37-6.77-21.48-6.52-32.14-0.41c-6.88,3.95-12.92,9.56-20.09,12.76  c-8.15,3.64-17,6.07-25.79,7.81c-5.89,1.17-12.2,0.33-18.31,0.2c-7.64-0.16-13.49,2.08-14.02,10.78  c-0.45,7.36,4.64,11.24,14.45,11.24c17.16-0.01,34.56,1.83,51.34-8.78c-1.2,16.55-2.21,30.53-3.34,46.12  c-8.68,0-16.56-0.05-24.44,0.01c-8.05,0.06-13.48,3.64-14.99,11.88c-5,27.33-10.09,54.66-14.78,82.04  c-1.31,7.67,2.55,13.06,10.14,15.13c6.73,1.83,12.91-2.27,15.19-9.76c0.62-2.04,0.97-4.16,1.35-6.26  c3.59-19.52,7.45-39,10.59-58.59c1.01-6.33,3.81-7.97,9.7-7.88C292.57,269.26,306.04,269.07,319.49,268.77z"></path>	<path class="st0" d="M152.84,256.64c-2.16-11.58-5.29-14.03-17.34-14.16c-7.21-0.07-14.42-0.01-22-0.01  c-1.17-15.67-2.24-29.94-3.48-46.49c17.19,10.93,34.52,9.03,51.58,9.25c7.79,0.1,13.39-2.53,14.17-10.85  c0.66-6.95-5.21-12-14.6-11.04c-22.25,2.27-41.64-3.69-58.79-17.76c-1.88-1.54-3.96-2.97-6.18-3.91  c-10.76-4.59-21.62-5.01-31.39,1.99c-9.2,6.6-12.5,15.89-10.55,27.38c3.58,21.07,6.56,42.24,9.83,63.37  c1.7,11.03,5.84,14.66,17.09,14.75c12.85,0.1,25.71,0.42,38.53-0.13c7.1-0.3,9.57,2.49,10.66,9.11  c3.37,20.48,7.32,40.87,10.96,61.31c1.27,7.17,5.07,11.87,12.52,12.42c9.12,0.68,14.93-7.52,12.98-18.64  C162.33,307.66,157.6,282.15,152.84,256.64z"></path>	<path class="st0" d="M151.93,154.47c2.99-0.41,5.93-1.42,8.8-2.43c8.48-2.96,15.94-3.04,25.03,0.9  c30.95,13.45,67.29-11.18,66.57-45.6c-15.87,0-31.85,0-48.59,0c0-17.01,0-32.47,0-48.47c-29.08-1.79-54.38,25.94-48.47,54.35  c2.63,12.64-0.11,21.65-6.47,31.17c-0.84,1.26-1.76,2.59-2.15,4.02c-0.44,1.6-1.02,4.25-0.27,4.84  C147.74,154.32,150.11,154.72,151.93,154.47z"></path>	<path class="st0" d="M262.38,232.74c5.76,0.04,9.89-2.29,10.13-8.12c0.25-6.41-4.06-9.06-10.17-9.03c-0.92,0-1.83-0.02-2.75-0.02  c-39.73,0-79.46,0-119.19,0.01c-1.83,0-4.22-0.53-5.38,0.39c-2.82,2.26-7.26,5.49-6.99,7.87c0.37,3.2,4.06,7.64,7.2,8.54  c5.09,1.46,10.89,0.52,16.39,0.53c13.04,0.02,26.08,0.01,39.89,0.01c0,4.55,0,7.87,0,11.19c0,30.85,0,61.7,0,92.55  c0,2.44-0.88,5.47,0.24,7.21c2.34,3.65,5.74,6.63,8.71,9.89c2.94-3.25,6.42-6.18,8.6-9.87c1.2-2.04,0.23-5.37,0.23-8.12  c0-33.89,0-67.77,0-103.05c4.02,0,7.01,0,10,0C233.65,232.7,248.02,232.63,262.38,232.74z"></path>	<path class="st0" d="M109.97,279.2c-10.08-0.03-20.17,0-30.25-0.03c-17.99-0.05-23.91-5.38-26.5-23.13  c-3.09-21.13-6.41-42.22-9.7-63.32c-0.97-6.21-3.24-11.88-10.96-10.34c-6.95,1.39-7.47,7.01-6.52,13  c3.63,22.9,7.12,45.82,10.79,68.71c3.09,19.25,17.69,31.97,37.29,32.58c5.49,0.17,11,0.03,16.5,0.03c6.42,0,12.83,0.01,19.25,0  c5.98-0.01,10.58-2.56,10.7-8.79C120.68,281.47,115.87,279.21,109.97,279.2z"></path>	<path class="st0" d="M367.04,182.23c-5.91-0.95-8.89,2.89-9.93,8.38c-0.28,1.5-0.55,3-0.78,4.51c-3.23,21.11-6.38,42.24-9.7,63.34  c-2.38,15.13-8.72,20.55-23.96,20.69c-11.31,0.1-22.69-0.64-33.88,0.49c-3.47,0.35-6.44,5.63-9.64,8.65c3.3,2.88,6.23,7.41,10,8.27  c6.1,1.39,12.75,0.37,19.17,0.37c6.11,0,12.23,0.14,18.34-0.03c17.67-0.5,31.46-11.7,35.48-28.85c1.04-4.45,1.65-9,2.37-13.52  c3.2-20.19,6.34-40.39,9.58-60.58C375.04,187.95,373.39,183.26,367.04,182.23z"></path>	<path class="st0" d="M81.53,150.62c16.06,0.13,28.65-12.22,28.75-28.19c0.1-15.83-12.54-28.8-28.22-28.96  c-15.58-0.16-28.71,12.77-28.86,28.43C53.05,137.77,65.6,150.5,81.53,150.62z"></path>	<path class="st0" d="M318.41,150.63c15.95-0.03,28.62-12.66,28.58-28.52c-0.04-15.66-13.06-28.68-28.68-28.66  c-15.66,0.02-28.43,12.95-28.42,28.76C289.9,138.25,302.35,150.66,318.41,150.63z"></path></g></svg>